<svg width="33" height="32" viewBox="0 0 33 32" fill="none" xmlns="http://www.w3.org/2000/svg">
<g clip-path="url(#clip0_199_11939)">
<path fill-rule="evenodd" clip-rule="evenodd" d="M32.1201 13.4137C31.9734 12.0804 32.0001 9.4804 31.0801 8.78707C30.2458 8.15994 29.2425 7.79764 28.2001 7.74707C27.4667 7.8804 27.8267 8.41374 28.2001 8.70707C29.0273 8.76405 29.8177 9.07092 30.4667 9.58707C30.8534 9.90707 30.9201 12.1737 30.9467 12.7471C30.0734 12.5115 29.1534 12.5115 28.2801 12.7471C28.1666 12.7797 28.065 12.8444 27.9874 12.9334C27.9098 13.0224 27.8595 13.1319 27.8426 13.2487C27.8257 13.3656 27.8429 13.4848 27.8921 13.5921C27.9414 13.6995 28.0205 13.7903 28.1201 13.8537C29.0847 14.072 30.0888 14.0445 31.0401 13.7737C31.2001 15.6271 31.3201 17.5337 31.2934 19.4271C31.2283 21.7991 30.9741 24.1621 30.5334 26.4937C30.4534 26.4937 30.2934 26.6404 30.1201 26.6937C26.4001 28.0004 8.4134 29.3337 7.26673 27.3071C6.96006 26.0671 6.96006 25.6004 6.4934 25.6671C6.39086 25.6866 6.29951 25.7442 6.23768 25.8283C6.17585 25.9123 6.14812 26.0167 6.16006 26.1204C6.21336 26.6722 6.33888 27.2146 6.5334 27.7337C8.14673 30.7337 30.3334 29.7604 31.7734 27.4271C32.2335 26.1941 32.4727 24.8897 32.4801 23.5737C32.7469 20.1844 32.6261 16.7757 32.1201 13.4137Z" fill="#A7289E"/>
<path fill-rule="evenodd" clip-rule="evenodd" d="M12.7334 9.09368C17.2934 9.09368 20.2534 8.86701 23.5867 8.77368C23.6518 8.78497 23.7186 8.78189 23.7824 8.76465C23.8462 8.74741 23.9055 8.71643 23.9561 8.67387C24.0066 8.63132 24.0473 8.57823 24.0752 8.51831C24.103 8.45839 24.1175 8.3931 24.1175 8.32701C24.1175 8.26092 24.103 8.19563 24.0752 8.13571C24.0473 8.0758 24.0066 8.0227 23.9561 7.98015C23.9055 7.9376 23.8462 7.90661 23.7824 7.88937C23.7186 7.87213 23.6518 7.86905 23.5867 7.88034C16.8193 7.47128 10.033 7.48019 3.26671 7.90701C2.40004 7.90701 2.18671 8.81368 3.10671 8.73368C5.26671 8.77368 7.89337 9.08034 12.7334 9.09368Z" fill="#A7289E"/>
<path fill-rule="evenodd" clip-rule="evenodd" d="M26.2801 3.8002C24.3467 1.81353 19.3601 2.5602 16.3201 2.46686C12.3867 2.2802 8.28006 2.66686 4.38673 2.66686C4.2665 2.66686 4.15119 2.71463 4.06617 2.79964C3.98116 2.88466 3.9334 2.99997 3.9334 3.1202C3.9334 3.24043 3.98116 3.35574 4.06617 3.44075C4.15119 3.52577 4.2665 3.57353 4.38673 3.57353C8.28006 3.57353 12.3067 3.26686 16.2534 3.49353C18.9867 3.65353 23.7201 3.3602 25.4667 4.7602C25.8667 5.0802 25.8934 7.7602 25.9734 8.61353C26.3533 11.8811 26.3801 15.1802 26.0534 18.4535C25.9944 19.5285 25.8337 20.5955 25.5734 21.6402C22.9067 23.0535 3.62673 24.3069 2.48006 22.2935C2.07429 20.669 1.83748 19.0068 1.7734 17.3335C1.64911 12.9248 1.84965 8.51284 2.3734 4.13353C2.41924 4.09915 2.45717 4.05531 2.4846 4.00499C2.51203 3.95468 2.52833 3.89905 2.53239 3.84189C2.53645 3.78472 2.52818 3.72735 2.50814 3.67366C2.48811 3.61997 2.45676 3.57121 2.41624 3.53069C2.37572 3.49016 2.32696 3.45882 2.27327 3.43878C2.21958 3.41874 2.16221 3.41047 2.10504 3.41454C2.04788 3.4186 1.99225 3.4349 1.94193 3.46233C1.89162 3.48976 1.84778 3.52768 1.8134 3.57353C1.32006 4.0002 1.4134 5.54686 1.3334 6.0802C0.733396 12.0002 0.38673 13.4935 0.74673 18.4535C0.792813 19.9731 1.02111 21.4817 1.42673 22.9469C3.0934 25.9869 20.6667 24.6935 25.0667 23.4935C26.7867 23.0402 27.0667 22.5202 27.2667 21.2402C27.4667 19.9602 27.8401 5.33353 26.2801 3.8002Z" fill="black"/>
<path fill-rule="evenodd" clip-rule="evenodd" d="M5.78675 6.16025C5.88716 5.969 5.91813 5.74883 5.87436 5.5373C5.8306 5.32577 5.71481 5.13596 5.54675 5.00025C4.69342 4.54692 3.62675 5.42692 4.40009 6.21359C4.4923 6.30558 4.6025 6.37755 4.72381 6.425C4.84511 6.47245 4.97489 6.49435 5.10505 6.48935C5.23521 6.48434 5.36293 6.45253 5.48023 6.3959C5.59753 6.33928 5.70188 6.25905 5.78675 6.16025Z" fill="black"/>
<path fill-rule="evenodd" clip-rule="evenodd" d="M8.74671 5.84028C8.85156 5.6523 8.88501 5.43279 8.84092 5.22211C8.79682 5.01144 8.67814 4.82376 8.50671 4.69361C7.65338 4.24028 6.58671 5.12028 7.36005 5.90695C7.45315 5.99814 7.56408 6.06912 7.68588 6.11546C7.80769 6.1618 7.93776 6.18248 8.06793 6.17622C8.1981 6.16997 8.32558 6.1369 8.44238 6.07909C8.55918 6.02128 8.66279 5.93998 8.74671 5.84028Z" fill="black"/>
<path fill-rule="evenodd" clip-rule="evenodd" d="M11.9734 5.84028C12.0797 5.6538 12.1152 5.43529 12.0736 5.22473C12.032 5.01417 11.9159 4.82563 11.7467 4.69361C10.88 4.24028 9.82671 5.12028 10.5867 5.90695C10.6798 5.99814 10.7907 6.06912 10.9126 6.11546C11.0344 6.1618 11.1644 6.18248 11.2946 6.17622C11.4248 6.16997 11.5522 6.1369 11.669 6.07909C11.7858 6.02128 11.8895 5.93998 11.9734 5.84028Z" fill="black"/>
</g>
<defs>
<clipPath id="clip0_199_11939">
<rect width="32" height="32" fill="white" transform="translate(0.600037)"/>
</clipPath>
</defs>
</svg>
