<svg width="49" height="48" viewBox="0 0 49 48" fill="none" xmlns="http://www.w3.org/2000/svg">
<path d="M0.333344 24C0.333344 10.7452 11.0785 0 24.3333 0C37.5882 0 48.3333 10.7452 48.3333 24C48.3333 37.2548 37.5882 48 24.3333 48C11.0785 48 0.333344 37.2548 0.333344 24Z" fill="#B953B1"/>
<path fill-rule="evenodd" clip-rule="evenodd" d="M25.6262 16.2929C26.0168 15.9024 26.6499 15.9024 27.0405 16.2929L34.0405 23.2929C34.431 23.6834 34.431 24.3166 34.0405 24.7071L27.0405 31.7071C26.6499 32.0976 26.0168 32.0976 25.6262 31.7071C25.2357 31.3166 25.2357 30.6834 25.6262 30.2929L30.9191 25H15.3333C14.7811 25 14.3333 24.5523 14.3333 24C14.3333 23.4477 14.7811 23 15.3333 23H30.9191L25.6262 17.7071C25.2357 17.3166 25.2357 16.6834 25.6262 16.2929Z" fill="white"/>
</svg>
