<svg width="33" height="32" viewBox="0 0 33 32" fill="none" xmlns="http://www.w3.org/2000/svg">
<g clip-path="url(#clip0_109_3130)">
<path d="M32.4 14.667C32.4034 11.8959 32.2476 9.12688 31.9334 6.37366C31.8203 5.52535 31.4793 4.72357 30.9467 4.05366C30.3535 3.38022 29.5214 2.96417 28.6267 2.89366C27.4667 2.76032 25.96 2.66699 24.1467 2.60032C22.12 2.53366 19.8134 2.50699 17.48 2.53366C17.3748 2.5519 17.2794 2.60672 17.2106 2.68844C17.1419 2.77015 17.1042 2.87352 17.1042 2.98032C17.1042 3.08712 17.1419 3.19049 17.2106 3.27221C17.2794 3.35393 17.3748 3.40874 17.48 3.42699C19.8 3.42699 22.1067 3.58699 24.1467 3.73366C25.88 3.85366 27.3867 4.01366 28.52 4.18699C29.0773 4.24196 29.5902 4.51518 29.9467 4.94699C30.2937 5.4543 30.4838 6.05245 30.4934 6.66699C30.7067 8.16032 30.7867 10.3337 30.8534 12.7337C30.8534 14.067 30.92 15.587 30.96 17.0403C31.04 21.0403 31.1067 24.9203 31.1734 27.107C31.2037 27.8283 31.0329 28.5438 30.68 29.1737C30.5369 29.4742 30.3176 29.732 30.0439 29.9215C29.7702 30.111 29.4517 30.2255 29.12 30.2537C29.0281 30.2706 28.9451 30.3193 28.8853 30.3911C28.8255 30.463 28.7928 30.5535 28.7928 30.647C28.7928 30.7405 28.8255 30.831 28.8853 30.9028C28.9451 30.9747 29.0281 31.0233 29.12 31.0403C29.5006 31.0257 29.8731 30.9258 30.21 30.7481C30.5469 30.5704 30.8396 30.3195 31.0667 30.0137C31.7436 29.1752 32.1151 28.1313 32.12 27.0537C32.2 24.4403 32.4 19.387 32.4 14.667Z" fill="#020202"/>
<path d="M26.6134 30.4667C22.92 30.4667 16.84 30.6001 11.9467 30.4667C9.87163 30.4901 7.79698 30.3922 5.73335 30.1734C5.03724 30.0815 4.36132 29.8742 3.73335 29.5601C3.47211 29.4499 3.23788 29.2844 3.04682 29.0749C2.85576 28.8654 2.71242 28.617 2.62669 28.3467C2.38669 27.0134 2.17335 24.6134 1.97335 21.8801C1.82669 19.8001 1.73335 17.5201 1.60002 15.3334C1.44029 12.4429 1.52057 9.54403 1.84002 6.66675C1.89299 6.34615 2.0159 6.04116 2.20002 5.77341C2.40137 5.48995 2.64407 5.23827 2.92002 5.02675C2.96883 5.00203 3.01185 4.96723 3.04621 4.92465C3.08058 4.88207 3.10552 4.83269 3.11938 4.77976C3.13325 4.72682 3.13572 4.67155 3.12663 4.6176C3.11755 4.56364 3.09712 4.51222 3.06669 4.46675C3.00334 4.38566 2.91119 4.3321 2.80938 4.31721C2.70757 4.30231 2.60394 4.32721 2.52002 4.38675C2.14132 4.64591 1.80796 4.96576 1.53335 5.33341C1.2614 5.69112 1.07445 6.10605 0.986686 6.54675C0.469442 10.1892 0.273132 13.87 0.400019 17.5467C0.426965 21.2428 0.676305 24.934 1.14669 28.6001C1.22932 29.0103 1.39647 29.3988 1.63751 29.7408C1.87855 30.0829 2.18818 30.371 2.54669 30.5868C3.44571 31.1552 4.46266 31.5109 5.52002 31.6267C7.64187 31.8387 9.77514 31.9145 11.9067 31.8534C16.84 31.8534 22.92 31.4667 26.5734 31.3601C26.6902 31.3534 26.8002 31.3032 26.8817 31.2192C26.9632 31.1352 27.0102 31.0237 27.0133 30.9067C27.0138 30.7967 26.973 30.6904 26.8989 30.609C26.8249 30.5275 26.723 30.4768 26.6134 30.4667Z" fill="#020202"/>
<path d="M4.40002 16.6936C4.421 16.8994 4.48531 17.0985 4.58872 17.2778C4.69213 17.457 4.8323 17.6124 5.00002 17.7336C5.46668 18.0002 6.13335 17.8669 6.65335 17.0802C7.19661 16.1318 7.64329 15.1312 7.98668 14.0936C8.4797 15.1961 9.11147 16.2311 9.86668 17.1736C10.5867 17.9602 11.3867 18.2269 12.04 17.8402C12.3756 17.5935 12.6006 17.2248 12.6667 16.8136C12.8165 15.839 12.8612 14.8511 12.8 13.8669C12.8 11.8402 12.04 8.00024 12.6 5.53358C12.8533 4.40024 13.3867 3.57358 14.52 3.56024C14.6252 3.54199 14.7207 3.48718 14.7894 3.40546C14.8582 3.32375 14.8959 3.22038 14.8959 3.11358C14.8959 3.00678 14.8582 2.9034 14.7894 2.82169C14.7207 2.73997 14.6252 2.68516 14.52 2.66691C12.9067 2.66691 12.04 3.70691 11.64 5.33358C11.0134 7.85358 11.64 11.8269 11.64 13.9069V15.6269C11.64 16.1069 11.64 16.9602 11.4134 16.7869C11.1867 16.6136 11.4134 16.7869 11.48 16.7869C11.5467 16.7869 11.36 16.7069 11.2667 16.6402C10.9427 16.33 10.6644 15.9753 10.44 15.5869C9.9601 14.8649 9.52806 14.1122 9.14668 13.3336C9.04002 13.1202 8.89335 12.6402 8.73335 12.3469C8.62308 12.1723 8.4778 12.0225 8.30668 11.9069C8.13419 11.8119 7.9327 11.7838 7.74081 11.8281C7.54892 11.8724 7.3801 11.9859 7.26668 12.1469C7.03917 12.5005 6.84713 12.8756 6.69335 13.2669C6.60002 13.4936 6.34668 14.6002 6.06668 15.4002C5.96002 14.8936 5.80002 14.4002 5.78668 14.2269C5.54428 12.2054 5.45514 10.1685 5.52002 8.13358C5.55811 6.78613 5.73233 5.44598 6.04002 4.13358C6.16509 3.41194 6.4523 2.7281 6.88002 2.13358C7.32373 1.6218 7.95134 1.3056 8.62668 1.25358C10.0534 1.05866 11.5016 1.08565 12.92 1.33358C13.8359 1.46154 14.7085 1.80419 15.4667 2.33358C15.5061 2.36597 15.5515 2.39028 15.6003 2.40513C15.6491 2.41999 15.7003 2.42508 15.7511 2.42013C15.8018 2.41517 15.8511 2.40027 15.8961 2.37627C15.9411 2.35227 15.981 2.31964 16.0134 2.28024C16.0457 2.24085 16.0701 2.19545 16.0849 2.14666C16.0998 2.09787 16.1049 2.04663 16.0999 1.99586C16.0949 1.9451 16.08 1.89581 16.056 1.85081C16.032 1.8058 15.9994 1.76597 15.96 1.73358C15.123 1.06637 14.1334 0.617386 13.08 0.426909C11.5791 0.128224 10.0413 0.0607785 8.52002 0.226909C7.5716 0.278182 6.68115 0.699472 6.04002 1.40024C5.46998 2.09137 5.06423 2.90287 4.85335 3.77358C4.48103 5.15564 4.24875 6.57166 4.16002 8.00024C4.0421 10.1075 4.09114 12.2207 4.30668 14.3202C4.29253 15.1125 4.3237 15.9049 4.40002 16.6936Z" fill="#A7289E"/>
<path d="M29.0534 8.94683C29.0534 8.82887 29.0075 8.71554 28.9253 8.6309C28.8432 8.54625 28.7313 8.49697 28.6134 8.4935C28.0253 8.49052 27.4389 8.55766 26.8667 8.6935C25.6267 8.96016 24.3334 9.46683 23.2 9.7335C22.719 9.88706 22.2293 10.0117 21.7334 10.1068C21.5027 10.1746 21.2574 10.1746 21.0267 10.1068C20.7705 10.0066 20.5517 9.82965 20.4 9.60016C20.1992 9.35998 20.029 9.09573 19.8934 8.8135C19.8 8.66683 19.7067 8.18683 19.56 7.92016C19.4769 7.71266 19.3267 7.53897 19.1334 7.42683C18.2 6.9735 18.0667 8.02683 17.0534 9.00016C16.8848 9.1798 16.6863 9.32869 16.4667 9.44016C16.4103 9.4664 16.3489 9.47999 16.2867 9.47999C16.2245 9.47999 16.1631 9.4664 16.1067 9.44016C15.12 9.0135 15.6 8.32016 15.04 8.28016C14.7334 8.28016 14.6134 8.40016 14.5467 8.62683C14.6025 8.99855 14.739 9.35354 14.9467 9.66683C15.1943 9.9795 15.5147 10.2267 15.88 10.3868C16.1968 10.513 16.5499 10.513 16.8667 10.3868C17.2094 10.2622 17.5292 10.0821 17.8134 9.8535C18.0692 9.64897 18.3098 9.42617 18.5334 9.18683C18.5177 9.27951 18.5177 9.37415 18.5334 9.46683C18.7472 9.94969 19.0301 10.3988 19.3734 10.8002C19.6419 11.092 19.969 11.3237 20.3334 11.4802C20.8102 11.6576 21.326 11.7036 21.8267 11.6135C22.3992 11.4778 22.9608 11.2995 23.5067 11.0802C24.6134 10.7202 25.8534 10.0935 27.0667 9.74683C27.5622 9.54265 28.0821 9.40371 28.6134 9.3335C28.7214 9.33429 28.8259 9.29533 28.9071 9.22402C28.9882 9.15272 29.0403 9.05405 29.0534 8.94683Z" fill="#020202"/>
<path d="M13.8133 17.2003C13.6 17.4403 13.7067 17.627 13.8933 17.7736C14.4786 17.9195 15.0773 18.0044 15.68 18.027L18.48 18.1603C19.1467 18.1603 19.8133 18.1603 20.4933 18.0536C21.1733 17.947 22 17.8536 22.76 17.7336C27.2933 17.027 26.4667 17.387 27.3067 17.6536C27.4164 17.6783 27.5303 17.6783 27.64 17.6536C27.6983 17.6555 27.7563 17.6454 27.8106 17.6239C27.8648 17.6025 27.914 17.5701 27.9553 17.5289C27.9965 17.4877 28.0288 17.4384 28.0503 17.3842C28.0717 17.33 28.0819 17.2719 28.08 17.2136C28.08 17.097 28.0337 16.985 27.9511 16.9025C27.8686 16.82 27.7567 16.7736 27.64 16.7736C26.9733 16.387 26.52 15.867 22.3067 16.2936C21.5333 16.3603 20.76 16.467 19.9867 16.5603C19.48 16.5603 18.9867 16.6936 18.4667 16.7336L15.8 16.9736C14 17.067 13.9733 16.9603 13.8133 17.2003Z" fill="#020202"/>
<path d="M16.76 23.2402L12.4667 23.7069L7.64003 24.1202C6.72905 23.9273 5.78405 23.9686 4.89336 24.2402C4.85064 24.2761 4.81649 24.321 4.79342 24.3718C4.77035 24.4225 4.75894 24.4778 4.76003 24.5335C4.75406 24.5984 4.76579 24.6636 4.79397 24.7223C4.82214 24.781 4.86571 24.831 4.92003 24.8669C5.0476 24.949 5.19504 24.9951 5.3467 25.0002C5.9067 25.0002 7.33336 25.0802 7.64003 25.0935H12.4667C12.9108 25.118 13.3559 25.118 13.8 25.0935C14.7867 25.0002 15.7734 24.8136 16.76 24.7736C28.32 24.0536 27.84 23.6536 27.92 23.5469C27.9616 23.5059 27.9945 23.4572 28.017 23.4034C28.0395 23.3496 28.0511 23.2919 28.0511 23.2335C28.0511 23.1752 28.0395 23.1175 28.017 23.0637C27.9945 23.0099 27.9616 22.9612 27.92 22.9202C27.64 22.6669 28.7067 22.9869 16.76 23.2402Z" fill="#020202"/>
</g>
<defs>
<clipPath id="clip0_109_3130">
<rect width="32" height="32" fill="white" transform="translate(0.400024)"/>
</clipPath>
</defs>
</svg>
