<svg width="42" height="42" viewBox="0 0 42 42" fill="none" xmlns="http://www.w3.org/2000/svg">
<path d="M21 42C9.40202 42 -4.10975e-07 32.598 -9.17939e-07 21C-1.4249e-06 9.40202 9.40202 -4.10975e-07 21 -9.17939e-07C32.598 -1.4249e-06 42 9.40202 42 21C42 32.598 32.598 42 21 42Z" fill="#F5F5F5"/>
<path fill-rule="evenodd" clip-rule="evenodd" d="M13.2929 19.7071C12.9024 19.3166 12.9024 18.6834 13.2929 18.2929L20.2929 11.2929C20.6834 10.9024 21.3166 10.9024 21.7071 11.2929L28.7071 18.2929C29.0976 18.6834 29.0976 19.3166 28.7071 19.7071C28.3166 20.0976 27.6834 20.0976 27.2929 19.7071L22 14.4142L22 30C22 30.5523 21.5523 31 21 31C20.4477 31 20 30.5523 20 30L20 14.4142L14.7071 19.7071C14.3166 20.0976 13.6834 20.0976 13.2929 19.7071Z" fill="black"/>
</svg>
