<svg width="42" height="42" viewBox="0 0 42 42" fill="none" xmlns="http://www.w3.org/2000/svg">
<path d="M21 -9.17939e-07C32.598 -4.10975e-07 42 9.40202 42 21C42 32.598 32.598 42 21 42C9.40202 42 -1.4249e-06 32.598 -9.17939e-07 21C-4.10975e-07 9.40202 9.40202 -1.4249e-06 21 -9.17939e-07Z" fill="#F5F5F5"/>
<path fill-rule="evenodd" clip-rule="evenodd" d="M28.7071 22.2929C29.0976 22.6834 29.0976 23.3166 28.7071 23.7071L21.7071 30.7071C21.3166 31.0976 20.6834 31.0976 20.2929 30.7071L13.2929 23.7071C12.9024 23.3166 12.9024 22.6834 13.2929 22.2929C13.6834 21.9024 14.3166 21.9024 14.7071 22.2929L20 27.5858L20 12C20 11.4477 20.4477 11 21 11C21.5523 11 22 11.4477 22 12L22 27.5858L27.2929 22.2929C27.6834 21.9024 28.3166 21.9024 28.7071 22.2929Z" fill="black"/>
</svg>
