<svg width="62" height="62" viewBox="0 0 62 62" fill="none" xmlns="http://www.w3.org/2000/svg">
<g clip-path="url(#clip0_199_11927)">
<path fill-rule="evenodd" clip-rule="evenodd" d="M10.4223 47.8253C14.643 48.0805 18.867 48.2624 23.0925 48.3711C23.3869 59.0868 23.4685 60.6394 24.8379 60.5745C25.8742 60.5255 25.8752 60.3346 25.9023 55.753C25.9119 54.1395 25.9245 51.9816 25.9868 49.0934L26.0116 48.4347C27.9173 48.4685 29.8236 48.4874 31.7295 48.4915C31.1336 52.474 31.1692 56.5272 31.8365 60.5014C31.8321 60.7673 31.9334 61.0241 32.1183 61.2152C32.3033 61.4061 32.5565 61.5162 32.8225 61.5206C33.0884 61.5252 33.3452 61.4234 33.5363 61.2387C33.7275 61.0538 33.8373 60.8006 33.8417 60.5345C34.7941 56.5812 34.8763 52.4717 34.0868 48.4889C35.7735 48.4817 37.4601 48.4626 39.1468 48.4321C39.4031 59.0532 39.5808 60.2454 40.8477 60.2028C41.9097 60.1669 41.9115 59.9742 41.9616 54.853C41.9766 53.3146 41.9957 51.3316 42.0494 48.7749L42.0719 48.3673C45.9107 48.267 49.7485 48.1061 53.5838 47.885C53.8602 47.885 54.1255 47.7752 54.321 47.5796C54.5163 47.384 54.6264 47.119 54.6264 46.8426C54.6264 46.5659 54.5163 46.3009 54.321 46.1053C54.1255 45.9097 53.8602 45.7999 53.5838 45.7999C49.7969 45.5835 46.0074 45.4251 42.2168 45.3244C42.3576 41.9045 42.4235 38.4829 42.4147 35.0621C43.4194 35.0742 44.1156 35.0835 44.3998 35.0895C46.7622 35.1318 48.5209 35.2052 49.8325 35.26C53.2508 35.4028 53.6305 35.4188 53.7359 34.4253C53.8883 33.0109 48.979 32.2615 42.386 31.9453C42.3339 28.6477 42.2124 25.3513 42.0215 22.0586L43.4145 22.0757C47.1017 22.1209 50.655 22.1645 52.342 22.1938C52.6091 22.1962 52.8671 22.0958 53.0624 21.9136C53.2577 21.7313 53.3755 21.4811 53.3918 21.2145C53.4078 20.9478 53.321 20.6852 53.1492 20.4807C52.9775 20.2762 52.7338 20.1455 52.4683 20.1155C48.9301 19.6831 45.3832 19.3424 41.8306 19.0935C41.5571 15.2195 41.1871 11.3513 40.7213 7.49263C40.7144 7.2267 40.602 6.97434 40.409 6.79128C40.216 6.60823 39.958 6.50944 39.6921 6.51649C39.4263 6.52352 39.1739 6.63595 38.991 6.82897C38.8079 7.02197 38.7089 7.27979 38.7159 7.54572C38.7159 7.78566 38.7611 12.6972 38.8192 18.9045C34.4937 18.6647 30.1617 18.5609 25.8298 18.5931C25.6462 14.8434 25.4018 11.0963 25.0969 7.35311C25.0978 7.09072 24.9944 6.83853 24.8095 6.65238C24.6245 6.4662 24.3732 6.36124 24.1108 6.36036C23.8484 6.35948 23.5965 6.46279 23.4103 6.6477C23.2241 6.83264 23.119 7.08403 23.1181 7.34641C23.0264 9.31471 22.9813 13.5816 22.9645 18.6342C19.1021 18.7164 15.2407 18.9069 11.3851 19.2056C11.1227 19.2101 10.8729 19.3185 10.6904 19.5072C10.508 19.6959 10.4079 19.9494 10.4123 20.2118C10.4167 20.4742 10.5252 20.724 10.7138 20.9064C10.9025 21.0889 11.1559 21.1889 11.4183 21.1845C16.0344 21.3311 17.1973 21.4056 18.2542 21.4733C19.1717 21.532 20.0095 21.5857 22.9578 21.677C22.9536 25.0415 22.9594 28.6032 22.9703 31.9758C17.7498 32.1853 13.3071 32.5239 11.1123 32.8913C10.8499 32.9205 10.6098 33.0528 10.4448 33.2586C10.2798 33.4648 10.2034 33.7278 10.2325 33.9902C10.2615 34.2527 10.3937 34.4927 10.5998 34.6578C10.8059 34.8229 11.069 34.8993 11.3314 34.8701C12.1445 34.8257 17.1191 34.8433 22.9811 34.8836C22.9993 39.215 23.0242 43.0017 23.0446 45.3099C18.8352 45.415 14.6271 45.5917 10.4223 45.8397C10.173 45.8601 9.94046 45.9735 9.77097 46.1575C9.60151 46.3414 9.50745 46.5824 9.50745 46.8325C9.50745 47.0826 9.60151 47.3236 9.77097 47.5075C9.94046 47.6915 10.173 47.8049 10.4223 47.8253ZM26.2462 34.9078C26.2534 38.3538 26.2095 41.8002 26.1141 45.2458C30.4337 45.1735 34.7541 45.1763 39.0734 45.2544C39.0657 44.6408 39.0244 40.4277 38.9722 35.0241C35.473 34.9874 30.7784 34.9432 26.2462 34.9078ZM38.9417 31.8218C38.9112 28.6417 38.8789 25.2398 38.8487 22.019C35.891 21.9815 33.3534 21.9465 32.2819 21.9217C29.6897 21.8599 27.628 21.8079 25.9705 21.7633C26.1048 25.1293 26.1901 28.497 26.2265 31.8655C30.403 31.7487 34.859 31.7192 38.9417 31.8218Z" fill="#02B6A9"/>
<path fill-rule="evenodd" clip-rule="evenodd" d="M12.2823 8.34254C15.5304 5.15889 21.6662 4.92148 33.1181 5.41214C33.0933 3.62865 33.4361 1.88292 35.9135 0.859189C40.0781 -0.0510444 44.368 -0.239809 48.5964 0.30131C53.0335 1.35774 53.497 5.04851 53.3402 9.25304C56.141 13.6292 55.8636 24.1239 55.1774 50.0898C55.1046 52.8485 55.0271 55.7824 54.9481 58.9016C57.2061 58.947 59.0685 59.0098 60.3829 59.094C60.6593 59.101 60.9217 59.2175 61.1121 59.418C61.3028 59.6187 61.4059 59.8868 61.3989 60.1633C61.3917 60.4397 61.2752 60.7019 61.0747 60.8925C60.8742 61.0832 60.6063 61.186 60.3297 61.179C40.7606 62.2891 21.1442 62.2736 1.57699 61.1328C1.31459 61.1292 1.06427 61.0214 0.881215 60.8334C0.698157 60.6453 0.597335 60.3924 0.600858 60.1299C0.604379 59.8675 0.712022 59.6171 0.90006 59.434C1.0881 59.2511 1.34114 59.1503 1.60354 59.1539C2.44455 59.1413 5.10105 59.1015 8.86476 59.0529C9.05131 49.299 8.93769 41.2669 8.84425 34.6632C8.63193 19.6544 8.52402 12.0262 12.2823 8.34254ZM10.8718 59.0276C22.2999 58.8863 41.3266 58.7013 52.8243 58.8654C52.8217 57.085 52.8196 55.3683 52.8176 53.7134C52.7768 19.8974 52.7669 11.8349 49.2875 9.84762C48.1981 9.22545 46.7687 9.19871 44.8919 9.1636C44.2828 9.15221 43.6266 9.13991 42.9193 9.10612C40.323 8.97876 37.9422 8.84466 35.759 8.7217C23.9086 8.05416 17.8796 7.71458 14.7942 10.5632C11.5988 13.5133 11.5605 19.883 11.4825 32.8492C11.4417 39.6237 11.3901 48.1985 10.8718 59.0276ZM40.4783 5.76763C38.6668 5.67579 36.958 5.58917 35.3455 5.51294C35.5692 3.95855 36.0347 3.41377 38.8022 3.33591C40.1321 3.32038 41.3109 3.28693 42.3574 3.25722C47.5796 3.10899 49.4998 3.05448 50.4293 5.79276C50.5747 6.22157 50.684 6.63728 50.7674 7.03594C48.9183 6.20636 46.4205 6.05482 43.0787 5.89889C42.1892 5.85435 41.3228 5.81041 40.4783 5.76763Z" fill="black"/>
</g>
<defs>
<clipPath id="clip0_199_11927">
<rect width="62" height="62" fill="white"/>
</clipPath>
</defs>
</svg>
