<svg width="63" height="62" viewBox="0 0 63 62" fill="none" xmlns="http://www.w3.org/2000/svg">
<g clip-path="url(#clip0_199_11913)">
<path d="M30.3492 29.2951C29.3417 28.4426 29.3417 27.8226 26.5259 27.8484C25.4786 28.0033 24.5013 28.4671 23.719 29.1804C22.9367 29.8936 22.3849 30.824 22.1342 31.8526C21.9006 32.6259 21.9064 33.4517 22.1507 34.2217C22.3951 34.9917 22.8666 35.6697 23.5034 36.1668C24.3942 36.6707 25.4115 36.9071 26.4332 36.8475C27.455 36.7879 28.4379 36.435 29.2642 35.8309C30.1435 35.3308 30.8283 34.5487 31.208 33.6111C31.5878 32.6736 31.6401 31.6353 31.3567 30.6643C31.138 30.1323 30.792 29.6621 30.3492 29.2951ZM27.7659 33.7126C27.3724 34.0061 26.9034 34.1815 26.4138 34.2181C25.9243 34.2547 25.4345 34.151 25.0017 33.9193C24.3559 33.5059 24.4592 32.6276 24.7175 31.8526C24.9759 31.0776 25.6734 29.8376 26.5517 29.6826C26.9611 29.6331 27.3764 29.6822 27.7629 29.8261C28.1494 29.9699 28.4959 30.2041 28.7734 30.5093C29.0305 30.7324 29.2112 31.0306 29.29 31.3618C29.6517 32.3693 28.7992 33.1959 27.8692 33.7126H27.7659Z" fill="#02B6A9"/>
<path d="M15.0559 42.8317C14.0484 41.9792 14.0484 41.3592 11.2067 41.3851C10.1641 41.5447 9.19244 42.0106 8.41511 42.7235C7.63778 43.4364 7.08984 44.3643 6.84087 45.3892C6.58416 46.1767 6.57799 47.0245 6.8232 47.8156C7.06842 48.6068 7.55295 49.3024 8.21003 49.8067C9.10088 50.3107 10.1182 50.547 11.1399 50.4874C12.1617 50.4279 13.1446 50.0749 13.9709 49.4709C14.8501 48.9708 15.535 48.1887 15.9147 47.2511C16.2944 46.3135 16.3468 45.2753 16.0634 44.3042C15.8598 43.7349 15.5128 43.2277 15.0559 42.8317ZM12.4725 47.2492C12.079 47.5427 11.6101 47.7181 11.1205 47.7547C10.631 47.7913 10.1411 47.6876 9.70836 47.4559C9.06253 47.0426 9.16587 46.1642 9.4242 45.3892C9.68253 44.6142 10.3542 43.3742 11.2584 43.2192C11.6636 43.1739 12.0739 43.2252 12.4555 43.3689C12.8372 43.5126 13.1794 43.7446 13.4542 44.0459C13.7183 44.2676 13.9077 44.5653 13.9967 44.8984C14.3584 45.9059 13.5834 46.7326 12.5759 47.2492H12.4725Z" fill="#02B6A9"/>
<path d="M43.9892 28.9588C42.93 28.0547 42.93 27.4863 40.14 27.4863C39.0941 27.6478 38.12 28.1175 37.3423 28.8353C36.5647 29.5532 36.0187 30.4866 35.7742 31.5163C35.5195 32.3 35.5144 33.1434 35.7597 33.9301C36.0049 34.7168 36.4884 35.4079 37.1434 35.908C38.0281 36.4315 39.0488 36.6791 40.075 36.6193C41.1013 36.5595 42.0863 36.1949 42.9042 35.5722C43.7835 35.072 44.4683 34.2899 44.848 33.3524C45.2278 32.4148 45.2801 31.3765 44.9967 30.4055C44.7935 29.8433 44.446 29.3444 43.9892 28.9588ZM41.4059 33.3763C41.0124 33.6699 40.5434 33.8452 40.0538 33.8818C39.5643 33.9184 39.0745 33.8147 38.6417 33.583C37.9959 33.1697 38.0992 32.2655 38.3575 31.4905C38.6159 30.7155 39.2875 29.4755 40.1917 29.3463C40.7836 29.2491 41.391 29.3609 41.9095 29.6626C42.428 29.9643 42.8253 30.437 43.0334 30.9997C43.2917 32.033 42.4392 32.8338 41.5092 33.3763H41.4059Z" fill="#02B6A9"/>
<path d="M28.6959 42.4959C27.6884 41.6434 27.6884 41.0234 24.8467 41.0234C23.7927 41.1643 22.8079 41.6269 22.0266 42.3481C21.2452 43.0693 20.7054 44.0141 20.4809 45.0534C20.2223 45.8368 20.2152 46.6814 20.4607 47.469C20.7063 48.2565 21.1921 48.9475 21.85 49.4451C22.7373 49.9649 23.7594 50.2082 24.7857 50.1438C25.8119 50.0793 26.7956 49.7101 27.6109 49.0834C28.4901 48.5833 29.175 47.8012 29.5547 46.8636C29.9344 45.9261 29.9868 44.8878 29.7034 43.9168C29.4962 43.3639 29.149 42.8743 28.6959 42.4959ZM26.1125 46.9134C25.7191 47.207 25.2501 47.3823 24.7605 47.4189C24.271 47.4555 23.7811 47.3519 23.3484 47.1201C22.6767 46.7068 22.8059 45.8026 23.0642 45.0276C23.3225 44.2526 23.9942 43.0126 24.8984 42.8834C25.3016 42.8349 25.7105 42.8822 26.092 43.0213C26.4736 43.1605 26.8169 43.3876 27.0942 43.6843C27.3583 43.906 27.5477 44.2036 27.6367 44.5368C27.9725 45.5701 27.1459 46.5001 26.2159 46.9134H26.1125Z" fill="#02B6A9"/>
<path d="M55.6917 29.2176C54.6842 28.3393 54.6584 27.7451 51.8425 27.7451C50.7886 27.886 49.8037 28.3485 49.0224 29.0698C48.241 29.791 47.7013 30.7358 47.4767 31.7751C47.2181 32.5585 47.211 33.4031 47.4566 34.1907C47.7021 34.9782 48.1879 35.6692 48.8459 36.1668C49.7306 36.6902 50.7513 36.9379 51.7775 36.8781C52.8038 36.8183 53.7888 36.4537 54.6067 35.831C55.486 35.3308 56.1708 34.5487 56.5505 33.6111C56.9303 32.6736 56.9826 31.6353 56.6992 30.6643C56.496 30.1021 56.1485 29.6032 55.6917 29.2176ZM53.1084 33.6351C52.7149 33.9286 52.2459 34.104 51.7563 34.1406C51.2668 34.1772 50.777 34.0735 50.3442 33.8418C49.6725 33.4285 49.8017 32.5243 50.06 31.7493C50.3184 30.9743 50.99 29.7343 51.8942 29.6051C52.47 29.5331 53.0533 29.657 53.55 29.957C54.0468 30.2569 54.4281 30.7154 54.6325 31.2585C54.9167 32.2918 54.1417 33.0926 53.2117 33.5835L53.1084 33.6351Z" fill="#02B6A9"/>
<path d="M38.2542 41.3331C37.2116 41.4927 36.2399 41.9586 35.4626 42.6715C34.6853 43.3845 34.1373 44.3123 33.8883 45.3373C33.6316 46.1248 33.6255 46.9725 33.8707 47.7637C34.1159 48.5548 34.6004 49.2505 35.2575 49.7548C36.1503 50.2525 37.1665 50.4853 38.1868 50.4258C39.2072 50.3663 40.1895 50.017 41.0184 49.4189C41.8976 48.9188 42.5825 48.1367 42.9622 47.1991C43.3419 46.2615 43.3943 45.2233 43.1109 44.2523C42.7087 43.3186 42.0237 42.5347 41.1524 42.011C40.2811 41.4873 39.2674 41.2502 38.2542 41.3331ZM39.6234 47.1973C39.2299 47.4908 38.7609 47.6661 38.2713 47.7027C37.7818 47.7393 37.2919 47.6357 36.8592 47.4039C36.2134 46.9906 36.3167 46.1123 36.575 45.3114C36.8333 44.5106 37.5308 43.3223 38.4092 43.1673C38.8124 43.1187 39.2213 43.166 39.6029 43.3051C39.9844 43.4443 40.3277 43.6714 40.605 43.9681C40.8643 44.194 41.0527 44.49 41.1475 44.8206C41.4059 45.7764 40.5534 46.4998 39.6234 47.1198V47.1973Z" fill="#02B6A9"/>
<path d="M41.38 9.99738C41.0882 11.9561 41.3017 13.9568 42 15.8099C42.4669 16.7184 43.25 17.4249 44.2017 17.796C45.1534 18.1672 46.208 18.1774 47.1667 17.8249C47.8189 17.6669 48.4209 17.3475 48.9174 16.8961C49.414 16.4447 49.7891 15.8758 50.0084 15.2415C50.4308 13.7919 50.5884 12.2779 50.4734 10.7724V9.89404V7.00071C50.512 6.42873 50.4257 5.8552 50.2205 5.31989C50.0153 4.78459 49.6961 4.30033 49.285 3.90071C47.9078 2.96645 46.2281 2.58805 44.5834 2.84154C44.4726 2.83808 44.3624 2.85691 44.2591 2.8969C44.1558 2.93689 44.0616 2.99723 43.982 3.07434C43.9025 3.15145 43.8393 3.24376 43.7962 3.34578C43.753 3.44779 43.7308 3.55744 43.7309 3.66821C43.6675 3.50891 43.5496 3.37731 43.3981 3.29688C43.2467 3.21644 43.0717 3.1924 42.9042 3.22904C42.7353 3.27633 42.5808 3.36481 42.4545 3.48656C42.3283 3.6083 42.2343 3.75948 42.1809 3.92654C42.0269 4.83071 41.9663 5.74831 42 6.66488L41.6384 8.24071C41.5037 8.81809 41.4173 9.40567 41.38 9.99738ZM43.5242 8.93821C43.5242 8.93821 43.9375 4.13321 43.9375 3.95238C44.0027 4.10439 44.1106 4.23417 44.2482 4.32591C44.3858 4.41765 44.5471 4.46738 44.7125 4.46904C47.0375 4.46904 48.0192 4.90821 48.2775 5.81238C48.3614 7.45602 48.2487 9.10381 47.9417 10.7207C47.9487 11.7208 47.836 12.7182 47.6059 13.6915C47.425 14.3115 47.1925 14.9315 46.5467 15.0865C46.2946 15.2007 46.0203 15.2572 45.7436 15.2519C45.4669 15.2466 45.1949 15.1796 44.9474 15.0559C44.6999 14.9321 44.4832 14.7547 44.3129 14.5366C44.1427 14.3184 44.0233 14.065 43.9634 13.7949C43.5527 12.2108 43.4044 10.5702 43.5242 8.93821Z" fill="#02B6A9"/>
<path d="M22.7542 9.19639C22.7542 9.45472 22.935 9.71305 23.9425 9.81639C25.3892 9.81639 26.0092 10.2814 27.9984 10.3847H31.2534H34.4825C36.265 10.3847 37.35 10.2297 39.1584 10.1006C40.0109 10.1006 40.6825 8.44722 39.5459 8.16305C37.5825 8.08555 36.2392 7.74972 34.25 7.74972H29.0834C27.4859 7.74444 25.8897 7.83935 24.3042 8.03389C23.2192 8.11139 22.7284 8.80889 22.7542 9.19639Z" fill="black"/>
<path d="M60.0834 10.5142C59.2116 9.56586 58.064 8.91524 56.8025 8.65424C55.607 8.33804 54.3685 8.21593 53.1342 8.29258C51.3 8.55091 51.7909 9.81674 52.7467 9.81674C53.6123 9.80807 54.4769 9.87724 55.33 10.0234C56.6187 10.1154 57.8261 10.6869 58.7142 11.6251C59.3162 12.8325 59.6594 14.1523 59.7217 15.5001C59.98 17.5151 60.1867 20.1242 60.3159 22.9917C56.5184 22.9917 48.8975 22.6817 40.3467 22.5267H31.5892H22.8317C13.5834 22.6042 5.5492 22.9142 3.01753 23.0176C3.00113 19.12 3.39949 15.2317 4.20586 11.4184C4.45999 10.9519 4.83259 10.5606 5.28612 10.2839C5.73965 10.0073 6.25809 9.85504 6.7892 9.84258C7.86212 9.5815 8.96719 9.47709 10.07 9.53258C10.2161 9.50745 10.3503 9.43647 10.4533 9.32993C10.5562 9.22339 10.6226 9.08682 10.6428 8.94003C10.6629 8.79323 10.6358 8.64383 10.5653 8.51349C10.4949 8.38314 10.3847 8.27862 10.2509 8.21508C8.65053 7.86841 6.99453 7.86841 5.3942 8.21508C4.7603 8.36759 4.16984 8.66348 3.66824 9.07998C3.16665 9.49649 2.76728 10.0225 2.50086 10.6176C1.49336 12.9942 0.46003 26.1176 0.69253 37.7426C0.873363 46.1901 1.88086 53.7592 3.74086 56.0326C5.11003 57.6859 8.67503 58.6159 13.17 58.9776C20.1709 59.4426 29.4709 58.6676 34.2759 58.6676C40.3101 58.8587 46.3505 58.6602 52.3592 58.0734C55.0679 57.8381 57.7026 57.0653 60.1092 55.8001C60.8102 55.2058 61.2771 54.3818 61.4267 53.4751C62.3465 48.1701 62.7617 42.79 62.6667 37.4067C62.6667 25.8334 61.7109 12.4259 60.0834 10.5142ZM59.4375 50.4526C59.2935 51.5863 59.0071 52.6973 58.585 53.7592C55.6941 54.9693 52.5993 55.6181 49.4659 55.6709C43.4209 56.1617 36.7559 55.9292 34.2759 55.9292C29.5225 55.9292 20.3 56.7301 13.3509 56.3167C9.78586 56.1101 6.84086 55.7484 5.75586 54.4567C3.9992 52.4159 3.25003 45.4667 3.01753 37.7942C2.8367 33.3767 2.8367 28.7009 2.96586 24.5417C5.5492 24.5417 13.4284 24.9551 22.8317 25.1359H31.5892H40.3467C48.9492 24.9809 56.5959 24.7484 60.3675 24.6451C60.3675 27.2284 60.4967 30.1476 60.3675 32.9892C60.4193 38.824 60.1087 44.6563 59.4375 50.4526Z" fill="black"/>
<path d="M12.24 9.91966C12.0412 11.9882 12.2429 14.0758 12.8342 16.068C13.3011 16.9765 14.0842 17.683 15.0359 18.0541C15.9875 18.4253 17.0421 18.4355 18.0009 18.083C18.6588 17.9311 19.2672 17.6143 19.7689 17.1623C20.2705 16.7104 20.6489 16.1382 20.8684 15.4997C21.3077 14.0357 21.4655 12.5016 21.3334 10.9788V8.24049V7.20716C21.3685 6.63551 21.2806 6.06297 21.0756 5.52819C20.8706 4.99341 20.5533 4.50883 20.145 4.10716C18.7725 3.16146 17.0915 2.77354 15.4434 3.02216C15.2173 3.02216 15.0004 3.11197 14.8405 3.27185C14.6807 3.43172 14.5909 3.64856 14.5909 3.87466C14.5275 3.71536 14.4095 3.58376 14.2581 3.50332C14.1067 3.42289 13.9317 3.39885 13.7642 3.43549C13.5953 3.48277 13.4408 3.57126 13.3145 3.693C13.1883 3.81474 13.0942 3.96593 13.0409 4.13299C12.8469 4.98144 12.7344 5.84648 12.705 6.71632L12.4209 8.08549V8.75716L12.24 9.91966ZM14.3584 9.17049C14.3584 9.17049 14.7717 4.39132 14.7717 4.18466C14.8298 4.34352 14.9353 4.48071 15.0739 4.57772C15.2125 4.67473 15.3775 4.72689 15.5467 4.72716C17.8717 4.72716 18.8534 5.16632 19.1117 6.07049C19.1871 7.71517 19.0657 9.36296 18.75 10.9788C18.7523 11.9787 18.6396 12.9755 18.4142 13.9497C18.2592 14.5438 18.0267 15.1638 17.3809 15.3188C17.1288 15.433 16.8544 15.4895 16.5778 15.4842C16.3011 15.4789 16.0291 15.4119 15.7816 15.2882C15.5341 15.1644 15.3173 14.987 15.1471 14.7688C14.9768 14.5507 14.8574 14.2973 14.7975 14.0272C14.3822 12.4439 14.2338 10.8025 14.3584 9.17049Z" fill="#02B6A9"/>
</g>
<defs>
<clipPath id="clip0_199_11913">
<rect width="62" height="62" fill="white" transform="translate(0.666687)"/>
</clipPath>
</defs>
</svg>
