<svg width="49" height="48" viewBox="0 0 49 48" fill="none" xmlns="http://www.w3.org/2000/svg">
<g clip-path="url(#clip0_753_663)">
<path fill-rule="evenodd" clip-rule="evenodd" d="M25.6801 20.56L25.8001 18.84C25.8349 18.1582 25.6625 17.4819 25.3055 16.9C24.9485 16.318 24.4237 15.8579 23.8001 15.58C22.1804 15.0723 20.4971 14.7963 18.8001 14.76C17.578 14.6092 16.3421 14.6092 15.1201 14.76C14.1682 14.8895 13.2768 15.3004 12.5601 15.94C12.0934 16.3945 11.7613 16.9689 11.6001 17.6C11.3904 18.6394 11.3165 19.7016 11.3801 20.76C9.38008 20.76 7.26008 20.94 5.20008 20.94C5.04625 20.94 4.89873 21.0011 4.78996 21.1099C4.68119 21.2187 4.62008 21.3662 4.62008 21.52C4.62008 21.6739 4.68119 21.8214 4.78996 21.9302C4.89873 22.0389 5.04625 22.1 5.20008 22.1C9.46008 22.4 13.7401 22.6 18.0401 22.66H24.4201H30.7801C32.9001 22.66 34.4601 22.88 36.3001 23.08C36.5964 24.3575 36.6909 25.6734 36.5801 26.98C36.6422 28.4399 36.1491 29.8691 35.2001 30.98C34.4975 31.2495 33.7525 31.3917 33.0001 31.4L29.6401 31.74L23.2001 32.26V31.56C23.0943 30.9155 22.8122 30.3128 22.3851 29.8186C21.958 29.3244 21.4025 28.9581 20.7801 28.76C20.159 28.5647 19.4932 28.5634 18.8713 28.7564C18.2495 28.9493 17.7014 29.3274 17.3001 29.84C16.7727 30.5124 16.4344 31.3133 16.3201 32.16C16.3201 32.16 16.3201 32.32 16.3201 32.38C14.8401 32.26 11.7001 32.1 8.88008 31.76C7.88532 31.6643 6.89698 31.5107 5.92008 31.3C5.4082 31.2326 4.91697 31.0552 4.48008 30.78C3.60578 30.0994 3.03748 29.0995 2.90008 28C2.7303 26.1486 2.76384 24.2842 3.00008 22.44C3.02164 22.3599 3.02574 22.276 3.01209 22.1941C2.99845 22.1122 2.96737 22.0342 2.92098 21.9653C2.87458 21.8964 2.81394 21.8384 2.74315 21.7949C2.67237 21.7515 2.59309 21.7239 2.51068 21.7137C2.42827 21.7036 2.34464 21.7113 2.26546 21.7363C2.18628 21.7613 2.11338 21.803 2.0517 21.8585C1.99002 21.9141 1.94099 21.9823 1.90793 22.0585C1.87488 22.1346 1.85856 22.217 1.86008 22.3C1.37212 24.2298 1.11036 26.2098 1.08008 28.2C1.09696 29.7504 1.71336 31.2341 2.80008 32.34C4.10335 33.1587 5.60166 33.6144 7.14008 33.66C10.1112 33.824 13.089 33.824 16.0601 33.66C16.0864 34.2696 16.1465 34.8772 16.2401 35.48C16.2601 35.6321 16.3376 35.7707 16.4566 35.8674C16.5756 35.9641 16.7272 36.0116 16.8801 36C17.0268 35.9801 17.1604 35.9047 17.2533 35.7894C17.3463 35.6742 17.3916 35.5277 17.3801 35.38C17.3316 34.5448 17.3719 33.7068 17.5001 32.88C17.5969 32.1782 17.9281 31.5298 18.4401 31.04C18.6249 30.8488 18.8632 30.7178 19.1237 30.6643C19.3842 30.6107 19.6548 30.6371 19.9001 30.74C20.1437 30.8266 20.3587 30.9789 20.5211 31.1801C20.6835 31.3813 20.787 31.6236 20.8201 31.88C20.8201 32.22 20.9201 32.58 20.9601 32.96C21.0199 33.5118 21.0199 34.0683 20.9601 34.62C20.8892 35.1746 20.6981 35.707 20.4001 36.18C20.1358 36.5151 19.8013 36.7882 19.4201 36.98C19.2834 37.0793 19.1264 37.1469 18.9603 37.1781C18.7943 37.2092 18.6234 37.203 18.4601 37.16C18.3668 37.1027 18.2853 37.028 18.2201 36.94C18.1091 36.7663 18.0089 36.586 17.9201 36.4C17.8613 36.236 17.7399 36.1018 17.5825 36.0269C17.4252 35.9519 17.2445 35.9423 17.0801 36C17.0018 36.0346 16.9312 36.0844 16.8726 36.1467C16.8139 36.2089 16.7683 36.2823 16.7385 36.3625C16.7086 36.4426 16.6952 36.528 16.6989 36.6134C16.7026 36.6989 16.7234 36.7828 16.7601 36.86C16.856 37.169 16.9904 37.4646 17.1601 37.74C17.318 37.9781 17.522 38.1821 17.7601 38.34C18.0611 38.5114 18.3955 38.6162 18.7405 38.6473C19.0856 38.6783 19.4333 38.6349 19.7601 38.52C20.5768 38.2966 21.3169 37.854 21.9001 37.24C22.4643 36.582 22.8499 35.79 23.0201 34.94C23.1304 34.4541 23.1907 33.9582 23.2001 33.46C25.3001 33.46 28.8801 33.7 31.7601 33.46C33.4194 33.4939 35.0636 33.1377 36.5601 32.42C37.6505 31.1976 38.2552 29.6181 38.2601 27.98C38.8001 20.54 37.1201 21.12 25.6801 20.56ZM16.6401 20.56L12.5201 20.72C12.5818 19.977 12.709 19.2408 12.9001 18.52C13.0138 18.0575 13.2732 17.6438 13.6401 17.34C14.1451 17.0283 14.7265 16.8621 15.3201 16.86C16.3961 16.8115 17.4742 16.8651 18.5401 17.02H20.5401C21.3886 16.9702 22.2396 17.058 23.0601 17.28C23.4246 17.393 23.7461 17.6142 23.9819 17.9143C24.2177 18.2144 24.3566 18.5791 24.3801 18.96V20.48C21.8001 20.4 19.2201 20.4 16.6401 20.46V20.56Z" fill="#020202"/>
<path fill-rule="evenodd" clip-rule="evenodd" d="M34.9201 34.0001C34.836 33.9974 34.7523 34.0113 34.6736 34.041C34.5949 34.0708 34.5229 34.1157 34.4616 34.1733C34.4003 34.2308 34.351 34.2999 34.3164 34.3766C34.2818 34.4533 34.2627 34.536 34.2601 34.6201L33.8601 41.9401C33.8895 42.6316 33.829 43.3241 33.6801 44.0001C33.6185 44.3372 33.4502 44.6457 33.2001 44.8801C32.6074 45.2931 31.9189 45.5478 31.2001 45.6201C29.9694 45.8111 28.7255 45.9047 27.4801 45.9001H22.6401C18.8201 45.7601 14.9801 45.5001 11.1401 45.4801C9.64147 45.5712 8.1387 45.5712 6.64009 45.4801C5.80202 45.46 4.99381 45.1648 4.34009 44.6401C4.12352 44.4101 3.9898 44.1145 3.96009 43.8001C3.89431 43.135 3.89431 42.4651 3.96009 41.8001V36.5201V34.2801C3.97847 34.2039 3.98167 34.1248 3.96951 34.0474C3.95735 33.97 3.93006 33.8958 3.8892 33.8289C3.84835 33.7621 3.79472 33.7039 3.73139 33.6578C3.66805 33.6116 3.59625 33.5784 3.52009 33.5601C3.44392 33.5417 3.36488 33.5385 3.28747 33.5506C3.21007 33.5628 3.13582 33.5901 3.06896 33.6309C3.0021 33.6718 2.94395 33.7254 2.89781 33.7888C2.85168 33.8521 2.81847 33.9239 2.80009 34.0001L2.46009 41.6601C2.3605 42.4359 2.33372 43.2193 2.38009 44.0001C2.43277 44.6663 2.69935 45.2977 3.14009 45.8001C3.81007 46.4794 4.66593 46.9456 5.60009 47.1401C7.44162 47.463 9.31132 47.597 11.1801 47.5401C14.9801 47.5401 18.8001 47.9201 22.6201 48.0001H27.6201C28.9637 47.9554 30.3014 47.8015 31.6201 47.5401C32.6242 47.3552 33.5662 46.922 34.3601 46.2801C34.8659 45.7912 35.2022 45.1535 35.3201 44.4601C35.4538 43.6339 35.5007 42.796 35.4601 41.9601V34.7001C35.4774 34.5363 35.4309 34.3722 35.3304 34.2418C35.2298 34.1115 35.0829 34.0249 34.9201 34.0001Z" fill="#020202"/>
<path fill-rule="evenodd" clip-rule="evenodd" d="M47.9401 10.3C47.3801 9.02003 46.5001 7.72002 45.9401 6.68002C45.5801 5.98002 45.2401 5.02002 44.7801 4.24002C44.5323 3.79864 44.2149 3.40018 43.8401 3.06002C43.1888 2.57783 42.4366 2.2496 41.6401 2.10002C40.1201 1.76002 38.1801 1.68002 37.2401 1.48002C35.7001 1.16002 34.2001 0.680025 32.6601 0.360025C31.9493 0.190025 31.2276 0.0697343 30.5001 2.48328e-05C29.8749 -0.0616131 29.2452 -0.0616131 28.6201 2.48365e-05C28.2134 0.0407843 27.8258 0.193045 27.5001 0.440025C27.1267 0.748522 26.878 1.18202 26.8001 1.66002C26.5601 2.66002 26.5401 4.30002 26.4001 4.84002C26.104 5.86071 25.7296 6.85701 25.2801 7.82002C24.5601 9.30002 23.7201 10.72 22.8801 12.1C22.839 12.1616 22.8105 12.2308 22.7963 12.3034C22.7821 12.3761 22.7824 12.4509 22.7973 12.5234C22.8122 12.596 22.8413 12.6648 22.883 12.726C22.9247 12.7872 22.9781 12.8396 23.0401 12.88C23.1676 12.9641 23.3232 12.9944 23.473 12.9645C23.6228 12.9345 23.7547 12.8467 23.8401 12.72C24.7601 11.34 25.7001 9.92002 26.5001 8.42002C27.0394 7.41273 27.4943 6.36246 27.8601 5.28003L28.5801 1.84002H30.3201C30.9553 1.90977 31.584 2.03016 32.2001 2.20002C33.7401 2.58002 35.2401 3.10002 36.7601 3.48002C37.5801 3.66002 39.1601 3.76002 40.5601 4.02002C40.953 4.08513 41.3407 4.17871 41.7201 4.30002C41.5401 4.72003 41.3601 5.14002 41.1601 5.54002C40.8001 6.30002 40.4201 7.02002 40.0001 7.74002C39.5801 8.46002 39.3601 8.78003 39.1001 9.30002C38.8459 9.79065 38.6961 10.3286 38.6601 10.88C38.6405 11.4443 38.8171 11.9978 39.1599 12.4464C39.5028 12.895 39.9905 13.2108 40.5401 13.34L41.7201 13.6H43.8801L46.4401 13.24C46.4401 13.4 46.4401 13.58 46.3001 13.76C46.0001 14.66 45.5601 15.62 45.3601 16.26C44.5991 18.894 43.6774 21.4788 42.6001 24C41.8733 25.635 41.0242 27.2128 40.0601 28.72C40.0128 28.7909 39.98 28.8705 39.9634 28.9541C39.9469 29.0377 39.947 29.1237 39.9637 29.2073C39.9804 29.2909 40.0134 29.3703 40.0608 29.4412C40.1083 29.512 40.1692 29.5728 40.2401 29.62C40.311 29.6673 40.3905 29.7001 40.4741 29.7167C40.5578 29.7332 40.6438 29.7331 40.7274 29.7164C40.8109 29.6997 40.8904 29.6667 40.9612 29.6193C41.032 29.5718 41.0928 29.5109 41.1401 29.44C42.205 27.9135 43.1415 26.3013 43.9401 24.62C45.1469 22.1259 46.2021 19.5612 47.1001 16.94C47.3601 16.2 47.9601 15.06 48.2801 14.04C48.4768 13.4891 48.5585 12.9037 48.5201 12.32C48.4323 11.6208 48.2366 10.9393 47.9401 10.3ZM43.8201 12L42.0401 11.8L41.3401 11.54C41.0201 11.4 40.8401 11.3 40.8401 11.1C40.8793 10.7144 40.9949 10.3405 41.1801 10C41.4001 9.54002 41.6201 9.04002 41.8001 8.58002C41.9801 8.12002 42.2601 7.28002 42.4601 6.58002C42.6601 5.88002 42.7201 5.66002 42.8401 5.20002C42.8401 5.30002 42.9801 5.40002 43.0401 5.52002C43.4001 6.24002 43.7201 7.04002 44.0401 7.52002C44.3601 8.00002 45.2601 9.52002 45.8201 10.48C46.0294 10.8662 46.2099 11.2673 46.3601 11.68L43.8201 12Z" fill="#A7289E"/>
<path fill-rule="evenodd" clip-rule="evenodd" d="M13.6201 14C13.5955 14.0722 13.586 14.1486 13.5919 14.2245C13.5979 14.3005 13.6194 14.3745 13.655 14.4419C13.6905 14.5093 13.7395 14.5687 13.7988 14.6165C13.8582 14.6644 13.9267 14.6996 14.0001 14.72C14.0784 14.7636 14.1664 14.787 14.2561 14.7881C14.3457 14.7891 14.4342 14.7679 14.5136 14.7262C14.593 14.6845 14.6607 14.6238 14.7108 14.5493C14.7608 14.4749 14.7915 14.3892 14.8001 14.3C15.3356 12.9508 15.731 11.5501 15.9801 10.12C16.1728 8.70039 16.293 7.27187 16.3401 5.84001C16.3401 5.54001 16.0201 4.56001 15.9801 3.96001C18.1973 4.06846 20.4071 4.29545 22.6001 4.64001C22.7697 4.67581 22.9466 4.64343 23.0926 4.54987C23.2385 4.45632 23.3418 4.30909 23.3801 4.14001C23.3942 4.05172 23.3902 3.96149 23.3683 3.8748C23.3465 3.78811 23.3072 3.70676 23.253 3.63569C23.1988 3.56462 23.1306 3.50531 23.0528 3.46136C22.9749 3.4174 22.889 3.38973 22.8001 3.38001C20.5381 2.74575 18.2408 2.24489 15.9201 1.88001C15.6026 1.83083 15.2778 1.86383 14.9767 1.97587C14.6756 2.08791 14.4082 2.27525 14.2001 2.52001C14.05 2.8325 13.9681 3.17341 13.9601 3.52001C13.9601 4.26001 14.0801 5.36001 13.9601 5.80001C14.0715 7.44479 14.0715 9.09522 13.9601 10.74C13.928 11.8336 13.8143 12.9233 13.6201 14Z" fill="#A7289E"/>
<path fill-rule="evenodd" clip-rule="evenodd" d="M32.4401 8.82004C32.9687 9.04954 33.5095 9.24984 34.0601 9.42004C34.9001 9.70004 35.7401 9.88004 36.5401 10.18C36.6824 10.2666 36.8522 10.2962 37.0154 10.2628C37.1786 10.2294 37.3232 10.1356 37.4201 10C37.462 9.92546 37.4885 9.84324 37.4981 9.75824C37.5077 9.67323 37.5001 9.58717 37.4759 9.50513C37.4517 9.42309 37.4112 9.34674 37.357 9.2806C37.3027 9.21445 37.2358 9.15986 37.1601 9.12004C36.4596 8.56977 35.7174 8.07494 34.9401 7.64004C34.6123 7.44941 34.2715 7.28232 33.9201 7.14004C33.5601 7.0067 33.2001 6.8867 32.8401 6.78004C31.9601 6.56004 31.1001 6.48004 30.2401 6.34004C30.1045 6.31582 29.9648 6.3406 29.8459 6.40993C29.727 6.47927 29.6366 6.58864 29.5909 6.71849C29.5452 6.84834 29.5472 6.99021 29.5965 7.11874C29.6458 7.24726 29.7392 7.35406 29.8601 7.42004C30.8001 7.82004 31.5201 8.38004 32.4401 8.82004Z" fill="#A7289E"/>
<path fill-rule="evenodd" clip-rule="evenodd" d="M27.7601 11.6C27.7474 11.747 27.7893 11.8936 27.8779 12.0117C27.9664 12.1297 28.0954 12.211 28.2401 12.24C29.2133 12.568 30.1681 12.9486 31.1001 13.38C31.7542 13.6421 32.4218 13.8691 33.1001 14.06C34.2201 14.42 35.3601 14.66 36.5401 14.92C36.6187 14.9516 36.7029 14.9668 36.7875 14.9646C36.8722 14.9625 36.9555 14.943 37.0323 14.9074C37.1091 14.8718 37.1779 14.8208 37.2342 14.7576C37.2906 14.6944 37.3335 14.6204 37.3601 14.54C37.392 14.46 37.4074 14.3745 37.4054 14.2884C37.4035 14.2024 37.3842 14.1176 37.3487 14.0392C37.3132 13.9608 37.2623 13.8903 37.199 13.832C37.1356 13.7738 37.0612 13.7288 36.9801 13.7C36.0001 13.22 35.1201 12.68 34.1801 12.22C33.5368 11.9091 32.8676 11.6548 32.1801 11.46C30.9734 11.186 29.737 11.0651 28.5001 11.1C28.4182 11.0721 28.331 11.0635 28.2452 11.0749C28.1594 11.0864 28.0775 11.1176 28.0058 11.166C27.9341 11.2144 27.8746 11.2788 27.832 11.3541C27.7893 11.4294 27.7647 11.5136 27.7601 11.6Z" fill="#A7289E"/>
</g>
<defs>
<clipPath id="clip0_753_663">
<rect width="48" height="48" fill="white" transform="translate(0.800049)"/>
</clipPath>
</defs>
</svg>
