<svg width="64" height="64" viewBox="0 0 64 64" fill="none" xmlns="http://www.w3.org/2000/svg">
<g clip-path="url(#clip0_2050_715)">
<path fill-rule="evenodd" clip-rule="evenodd" d="M30.8 37.8672L32 33.3605L32.64 34.6405C33.1733 35.8405 33.68 37.0939 34.2133 38.2939C36.3467 42.9872 32.8267 34.9605 41.6267 54.6672C42.5067 56.6405 43.3333 58.0539 44.2933 60.0005C45.3333 60.9605 46.32 60.4539 45.9467 59.5739C45.12 57.3872 44.5067 56.0005 43.6267 53.8405C32.7467 26.4272 40.96 47.4405 36.9333 37.1739C36.4267 35.9205 33.5467 29.5739 33.3067 29.1739C31.68 26.5072 30.5067 28.5072 30.4533 28.6939C30.4 28.8805 28.6133 35.0139 28.08 37.1205C26.64 43.1205 24.1067 54.1072 22.7467 60.0805C22.5867 61.3605 24.0267 61.1472 24.4 60.0805C24.72 58.6672 28.1067 47.7872 30.8 37.8672Z" fill="black"/>
<path fill-rule="evenodd" clip-rule="evenodd" d="M55.44 60.7734C55.4149 60.659 55.3672 60.5507 55.2997 60.455C55.2322 60.3592 55.1462 60.2779 55.0469 60.2158C54.9475 60.1537 54.8368 60.1121 54.7211 60.0933C54.6054 60.0746 54.4872 60.0792 54.3733 60.1068C53.4916 60.2615 52.6009 60.3595 51.7067 60.4001C50.3467 60.4001 49.04 60.4001 47.6533 60.5867L40.96 60.9068C28.8267 61.9201 23.44 62.0267 10.9867 62.3734C10.884 62.3732 10.7823 62.3941 10.6881 62.4349C10.5938 62.4757 10.509 62.5355 10.4389 62.6106C10.3688 62.6857 10.315 62.7744 10.2808 62.8713C10.2465 62.9681 10.2327 63.071 10.24 63.1734C10.2434 63.275 10.2669 63.3749 10.309 63.4674C10.351 63.5599 10.4109 63.6432 10.4852 63.7126C10.5595 63.7819 10.6468 63.8359 10.742 63.8716C10.8372 63.9072 10.9384 63.9236 11.04 63.9201H30.9067C33.2267 63.9201 35.4667 63.9201 37.7067 63.7601C41.0933 63.5734 44.4533 63.1734 47.8667 62.7201C49.44 62.5068 51.0133 62.4001 52.5867 62.1601C53.2873 62.0563 53.9817 61.9139 54.6667 61.7334C54.7814 61.7236 54.893 61.6906 54.9947 61.6365C55.0964 61.5824 55.186 61.5082 55.2583 61.4185C55.3306 61.3288 55.3839 61.2254 55.4151 61.1146C55.4464 61.0037 55.4548 60.8876 55.44 60.7734Z" fill="#02B6A9"/>
<path fill-rule="evenodd" clip-rule="evenodd" d="M62.4267 30.6135C62.3021 29.5349 61.8667 28.5158 61.1734 27.6802C60.6404 27.0552 59.956 26.5775 59.1856 26.2927C58.4152 26.0079 57.5847 25.9255 56.7734 26.0535C56.2551 26.1266 55.7514 26.2795 55.28 26.5068C55.079 26.6032 54.8832 26.71 54.6934 26.8268C54.6934 25.9468 54.4267 25.0935 54.24 24.1602C53.7852 22.1755 53.0772 20.2576 52.1333 18.4535L51.7067 17.7602H51.84C52.2272 17.7058 52.6102 17.6256 52.9867 17.5202L53.7867 17.2002C54.3066 16.9376 54.761 16.5617 55.1164 16.1002C55.4718 15.6386 55.719 15.1033 55.84 14.5335C56.0986 13.4571 56.0052 12.3261 55.5733 11.3068C55.0393 10.0864 54.1817 9.03512 53.0933 8.26682C51.9942 7.45822 50.671 7.01095 49.3067 6.98682C48.3156 6.9831 47.3535 7.32025 46.5815 7.94171C45.8095 8.56318 45.2747 9.43118 45.0667 10.4002C44.969 10.6848 44.9063 10.9803 44.88 11.2802C44.2667 10.9602 43.6534 10.6135 43.0134 10.3468C41.55 9.77349 40.0429 9.31869 38.5067 8.98682C38.629 8.80953 38.736 8.62219 38.8267 8.42682C39.0158 7.98255 39.1501 7.5169 39.2267 7.04016C39.3586 6.19422 39.3111 5.33 39.0874 4.5036C38.8636 3.67719 38.4686 2.90707 37.928 2.24321C37.3873 1.57935 36.7132 1.03659 35.9492 0.650165C35.1852 0.263738 34.3485 0.0422766 33.4934 0.000154957C32.1514 -0.209976 30.7772 -0.014995 29.5467 0.560155C28.5572 0.978721 27.7171 1.68639 27.1366 2.59047C26.5561 3.49454 26.2622 4.55287 26.2934 5.62682C26.242 6.05194 26.242 6.4817 26.2934 6.90682C26.3948 7.27873 26.5195 7.64389 26.6667 8.00016C26.8213 8.34621 27.0089 8.67662 27.2267 8.98682H27.0134C24.9153 9.52809 22.8978 10.344 21.0134 11.4135C20.813 10.3507 20.324 9.36357 19.6 8.56016C18.6744 7.52784 17.3832 6.89657 16 6.80016C15.0957 6.82024 14.2067 7.03838 13.3958 7.43923C12.5849 7.84007 11.8718 8.41385 11.3067 9.12016C10.7583 9.81663 10.3612 10.6198 10.1408 11.4785C9.92036 12.3371 9.88151 13.2323 10.0267 14.1068C10.1343 14.7183 10.3511 15.3055 10.6667 15.8402C10.962 16.3524 11.3405 16.812 11.7867 17.2002C12.2115 17.5787 12.6765 17.9096 13.1734 18.1868L13.68 18.4002C11.934 20.8281 10.6088 23.5325 9.76002 26.4002L9.20002 26.0802C8.73271 25.8872 8.23758 25.7702 7.73335 25.7335C6.87096 25.6243 5.99496 25.7276 5.18161 26.0344C4.36826 26.3411 3.64222 26.842 3.06668 27.4935C2.45583 28.1666 2.0082 28.9714 1.75848 29.8454C1.50876 30.7194 1.46366 31.6392 1.62668 32.5335C1.92836 33.9672 2.70892 35.2556 3.84002 36.1868C4.42259 36.6755 5.12253 37.0039 5.87076 37.1395C6.61899 37.2751 7.38964 37.2133 8.10668 36.9602C8.42034 36.8523 8.71674 36.6996 8.98668 36.5068C9.5509 40.0158 11.1051 43.2908 13.4667 45.9468H13.12C12.7511 46.1 12.4019 46.297 12.08 46.5335C11.7446 46.7803 11.4322 47.057 11.1467 47.3602C10.5669 48.0146 10.1684 48.8093 9.99062 49.6653C9.81286 50.5214 9.86207 51.409 10.1334 52.2402C10.5212 53.3075 11.2173 54.2356 12.1334 54.9068C12.6843 55.3904 13.3398 55.7398 14.0485 55.9275C14.7571 56.1153 15.4996 56.1364 16.2178 55.9892C16.9359 55.8419 17.6102 55.5303 18.1878 55.0788C18.7653 54.6273 19.2304 54.0482 19.5467 53.3868C19.7492 52.9615 19.9013 52.5141 20 52.0535C20.0262 51.734 20.0262 51.4129 20 51.0935C21.1099 51.657 22.2597 52.1383 23.44 52.5335C24.0534 52.7202 24.72 51.2802 24.0267 50.9868C22.9269 50.584 21.8575 50.1028 20.8267 49.5468C19.8911 49.0545 18.999 48.4835 18.16 47.8402L17.76 47.4668C18.4561 46.9713 19.1238 46.4371 19.76 45.8668C20.1283 45.7158 20.4849 45.5376 20.8267 45.3335C21.0959 45.0428 21.3287 44.7204 21.52 44.3735C21.7859 43.9527 22.0263 43.5164 22.24 43.0668C23.1073 43.9542 24.1282 44.677 25.2534 45.2002C26.1067 45.3602 26.64 44.0802 26.08 43.8135C24.6795 43.0509 23.4504 42.0089 22.4688 40.7521C21.4872 39.4953 20.774 38.0504 20.3734 36.5068C20.0985 35.409 19.9818 34.2776 20.0267 33.1468H22.3467C24.56 33.1468 26.0267 32.9068 28.24 32.6668C29.1734 32.6668 30.2667 30.5868 28.24 30.7735C26.2134 30.9602 25.3067 30.4268 23.28 30.2668H20.3734C20.7325 28.8271 21.3467 27.4634 22.1867 26.2402C23.3031 24.3404 24.8346 22.7177 26.6667 21.4935C27.8352 20.8559 29.126 20.4741 30.4534 20.3735V22.5335C30.4534 24.1602 30.8 24.8535 30.9067 26.5068C30.9067 27.6802 32.1867 28.0535 32.64 26.8802C32.8 25.2535 33.1467 24.0535 33.2534 22.4268L33.4134 20.3468C36.3137 20.5255 39.0679 21.6817 41.2267 23.6268C42.9047 25.1151 44.0321 27.1256 44.4267 29.3335H43.4934C42.4267 29.3335 41.3867 29.3335 40.3467 29.5468C38.5334 29.7602 37.2 30.1335 35.4134 30.4268C34.1067 30.7202 34.16 31.8935 35.4134 32.2935H41.4934C42.48 32.2935 43.44 32.2935 44.4267 32.1335C44.3037 33.8954 43.9907 35.6388 43.4934 37.3335C43.1478 38.441 42.5654 39.4601 41.7867 40.3202C41.2456 40.8991 40.5923 41.3618 39.8667 41.6802C39.2 42.1602 39.44 44.0802 40.6934 43.7602C41.6715 43.3552 42.5069 42.6682 43.0934 41.7868C43.2536 42.3238 43.4496 42.8494 43.68 43.3602C43.8229 43.6592 43.9925 43.9448 44.1867 44.2135C44.3947 44.4747 44.6173 44.724 44.8533 44.9602C45.3333 45.4668 45.8667 45.8935 46.3733 46.3735C45.3457 47.4856 44.1146 48.3908 42.7467 49.0402C41.84 49.4135 42.48 51.2535 43.3867 51.1468C44.2934 51.0402 43.6534 50.8535 44.1334 50.6135C44.3169 50.5167 44.4949 50.4099 44.6667 50.2935C44.8323 51.2526 45.22 52.1597 45.7988 52.9422C46.3776 53.7247 47.1314 54.361 48 54.8002C48.8014 55.2329 49.7156 55.4111 50.6208 55.311C51.526 55.211 52.3792 54.8374 53.0667 54.2402C54.0287 53.4277 54.6558 52.2877 54.8267 51.0402C54.9564 49.867 54.7434 48.6814 54.2133 47.6268C53.5466 46.257 52.3688 45.2037 50.9333 44.6935C52.7221 42.1682 53.9662 39.2986 54.5867 36.2668C54.5867 36.2668 54.5867 36.0002 54.5867 35.8668C55.12 36.0268 56.0267 36.2402 56.7734 36.3735C57.2077 36.419 57.6457 36.419 58.08 36.3735C58.7471 36.2887 59.3905 36.0712 59.9722 35.734C60.554 35.3967 61.0623 34.9464 61.4674 34.4096C61.8725 33.8729 62.166 33.2605 62.3307 32.6085C62.4955 31.9566 62.5281 31.2782 62.4267 30.6135ZM8.93335 29.8402C8.70602 31.4384 8.64347 33.0558 8.74668 34.6668C8.65089 34.753 8.5431 34.8249 8.42668 34.8802C8.16755 35.0136 7.88829 35.1037 7.60002 35.1468C7.2182 35.1809 6.83384 35.121 6.48055 34.9722C6.12725 34.8235 5.81577 34.5904 5.57335 34.2935C4.99355 33.6578 4.62954 32.8551 4.53335 32.0002C4.43188 31.5414 4.42934 31.0663 4.5259 30.6065C4.62247 30.1466 4.81591 29.7127 5.09335 29.3335C5.37209 28.9249 5.74033 28.5852 6.17007 28.3403C6.59981 28.0954 7.07973 27.9517 7.57335 27.9202C7.85595 27.8743 8.14408 27.8743 8.42668 27.9202C8.71621 27.9882 8.98856 28.1153 9.22668 28.2935C9.12002 28.8535 9.01335 29.3335 8.93335 29.8402ZM46.5334 12.0002C46.6001 11.7108 46.7079 11.4324 46.8533 11.1735C47.055 10.7363 47.3921 10.3756 47.8148 10.1451C48.2375 9.91453 48.7232 9.82631 49.2 9.89349C49.9944 10.0206 50.7453 10.3412 51.3867 10.8268C52.0876 11.2806 52.6722 11.8926 53.0933 12.6135C53.4054 13.0755 53.5468 13.6318 53.4933 14.1868C53.4816 14.4461 53.4134 14.6997 53.2937 14.9299C53.174 15.1602 53.0055 15.3616 52.8 15.5202L51.4667 16.0002C51.3431 16.0316 51.2273 16.0881 51.1264 16.1661C51.0255 16.244 50.9417 16.3419 50.88 16.4535C50.1111 15.365 49.216 14.3714 48.2133 13.4935C47.638 13.0108 47.0323 12.5655 46.4 12.1602C46.4368 12.1009 46.4817 12.047 46.5334 12.0002ZM13.3334 15.7868C13.1095 15.485 12.9299 15.1528 12.8 14.8002C12.678 14.4861 12.6235 14.15 12.64 13.8135C12.6214 12.7744 12.9925 11.7661 13.68 10.9868C13.9928 10.5626 14.3924 10.21 14.8523 9.95251C15.3121 9.695 15.8216 9.53852 16.3467 9.49349C16.7247 9.45855 17.1057 9.50471 17.4644 9.62887C17.8231 9.75304 18.1512 9.95235 18.4267 10.2135C18.7613 10.4591 19.0425 10.7701 19.2534 11.1277C19.4642 11.4852 19.6003 11.8818 19.6534 12.2935C19.6534 12.2935 19.6534 12.2935 19.6534 12.5068C19.1651 12.8296 18.6934 13.1767 18.24 13.5468C16.9169 14.5866 15.7019 15.7569 14.6134 17.0402C14.4267 17.0402 14.24 16.8268 14.08 16.6935C13.8005 16.4179 13.5502 16.114 13.3334 15.7868ZM18.6667 50.4535C18.5355 50.5823 18.4511 50.7513 18.4267 50.9335C18.3717 51.2418 18.2914 51.545 18.1867 51.8402C18.0767 52.1145 17.9334 52.3742 17.76 52.6135C17.5595 52.9179 17.2915 53.1721 16.9769 53.3563C16.6623 53.5404 16.3095 53.6496 15.9459 53.6754C15.5822 53.7012 15.2176 53.6429 14.8801 53.505C14.5426 53.3671 14.2415 53.1533 14 52.8802C13.4041 52.4426 12.9797 51.8106 12.8 51.0935C12.6938 50.7446 12.6604 50.3776 12.7016 50.0153C12.7429 49.6529 12.8581 49.3029 13.04 48.9868C13.1094 48.7362 13.2078 48.4946 13.3334 48.2668C13.5012 48.0608 13.699 47.881 13.92 47.7335C14.114 47.5981 14.3308 47.4988 14.56 47.4402H14.7734C15.5361 48.167 16.3373 48.8524 17.1734 49.4935C17.7067 49.7868 18.1867 50.0268 18.6667 50.3202V50.4535ZM20.7467 41.5468C20.2759 41.87 19.8219 42.2171 19.3867 42.5868C19.0996 42.8514 18.8322 43.1366 18.5867 43.4402C18.3382 43.7473 18.1068 44.0677 17.8934 44.4002C17.44 45.1202 17.0667 45.8402 16.64 46.5335L16 45.9202C14.2571 44.1894 12.9109 42.1008 12.0545 39.7987C11.1981 37.4965 10.8519 35.0359 11.04 32.5868C13.2 32.7202 15.3334 32.9068 17.4934 33.0135C17.5041 34.3889 17.7198 35.755 18.1334 37.0668C18.7103 38.6675 19.5884 40.1429 20.72 41.4135L20.7467 41.5468ZM20 24.5602C18.9312 26.2579 18.2148 28.1533 17.8934 30.1335H17.36C15.3334 30.1335 13.3067 30.4268 11.28 30.6135V30.2135C12.1621 25.2939 14.558 20.7725 18.1334 17.2802C18.5067 18.1068 18.88 18.9335 19.3334 19.7335C19.5467 20.0535 19.76 20.4002 20 20.6935C20.2455 20.9971 20.5129 21.2823 20.8 21.5468L21.7067 22.2135C21.1467 22.9068 20.5867 23.6802 20 24.5602ZM30.6667 16.5602V17.3335C28.7863 17.4312 26.957 17.9799 25.3334 18.9335C24.6334 19.3506 23.9807 19.8424 23.3867 20.4002C23.3867 20.1602 23.1467 19.9202 22.9867 19.6802C22.7885 19.361 22.5656 19.0579 22.32 18.7735C22.0828 18.4877 21.8243 18.2203 21.5467 17.9735C20.9067 17.3335 20.2134 16.8268 19.5734 16.2135L20.0267 15.8402C22.3833 13.9894 25.1124 12.6703 28.0267 11.9735C29.1927 11.7009 30.3787 11.5225 31.5734 11.4402C31.1467 13.1202 30.9067 14.8535 30.7467 16.5868L30.6667 16.5602ZM29.0667 8.56016V8.37349C28.8792 8.0528 28.7526 7.7002 28.6934 7.33349C28.625 7.06232 28.5804 6.78572 28.56 6.50682C28.5192 6.2596 28.5192 6.00737 28.56 5.76016C28.6386 5.2827 28.8263 4.82981 29.1084 4.43669C29.3905 4.04356 29.7595 3.7208 30.1867 3.49349C31.089 2.99758 32.1256 2.80146 33.1467 2.93349C35.2267 3.12015 37.3067 4.29349 37.2 6.72016C37.1901 7.04589 37.1362 7.3688 37.04 7.68016C36.9545 7.9801 36.8289 8.26713 36.6667 8.53349C34.1703 8.16867 31.6317 8.20468 29.1467 8.64016L29.0667 8.56016ZM42.4 18.9868C42.08 19.4402 41.8134 19.8935 41.5467 20.3468C39.16 18.5986 36.3354 17.5463 33.3867 17.3068C33.3867 15.3068 33.2267 13.2802 33.0667 11.2002C34.2113 11.2128 35.353 11.3199 36.48 11.5202C38.3001 11.8521 40.0855 12.352 41.8134 13.0135C43.4204 13.6468 44.9083 14.5485 46.2133 15.6802C45.5676 16.1099 44.9446 16.5727 44.3467 17.0668C43.9983 17.3567 43.6687 17.6684 43.36 18.0002C43.0936 18.3315 42.8613 18.6889 42.6667 19.0668L42.4 18.9868ZM43.28 21.8135C43.68 21.5202 44.08 21.2268 44.48 20.8802C44.8193 20.599 45.14 20.2962 45.44 19.9735L46.2667 18.9335C46.72 18.3202 47.12 17.7068 47.5467 17.1202C48.2647 17.9441 48.8989 18.8374 49.44 19.7868C50.2789 21.3871 50.932 23.0781 51.3867 24.8268C51.7543 26.361 52.0039 27.9212 52.1333 29.4935C50.32 29.3602 48.5333 29.2268 46.8 29.2002C46.5443 26.4585 45.3697 23.8836 43.4667 21.8935L43.28 21.8135ZM51.6 48.4802C51.7056 48.9993 51.7056 49.5344 51.6 50.0535C51.5621 50.7592 51.2456 51.421 50.72 51.8935C50.3416 52.1964 49.8714 52.3615 49.3867 52.3615C48.902 52.3615 48.4317 52.1964 48.0534 51.8935C47.5176 51.5991 47.0624 51.1777 46.7276 50.6662C46.3928 50.1548 46.1888 49.5689 46.1333 48.9602C47.0946 48.3142 47.988 47.5726 48.8 46.7468C49.04 46.5068 49.2 46.2402 49.4134 46.0002C50.0054 46.1857 50.5373 46.5257 50.9544 46.985C51.3715 47.4443 51.6588 48.0064 51.7867 48.6135L51.6 48.4802ZM51.8667 35.6268C51.2513 38.9959 49.7719 42.1475 47.5733 44.7735C47.3867 44.2668 47.1734 43.7602 46.9333 43.2268C46.7803 42.9333 46.6112 42.6484 46.4267 42.3735C46.2427 42.1009 46.0279 41.8504 45.7867 41.6268C45.2489 41.1194 44.6788 40.6473 44.08 40.2135C44.5697 39.5089 44.9726 38.7479 45.28 37.9468C45.9684 36.0242 46.4337 34.0289 46.6667 32.0002L52.2133 31.5735C52.2945 32.9709 52.2409 34.373 52.0534 35.7602L51.8667 35.6268ZM57.4667 34.0802C57.0233 34.1242 56.5767 34.1242 56.1333 34.0802C55.6335 34.0638 55.1349 34.0192 54.64 33.9468C54.8051 32.1729 54.8051 30.3874 54.64 28.6135C55.2568 28.323 55.9317 28.177 56.6133 28.1868C57.0228 28.2213 57.4188 28.35 57.7704 28.5627C58.1219 28.7755 58.4196 29.0667 58.64 29.4135C58.9427 29.8793 59.1343 30.4085 59.2 30.9602C59.3956 31.5976 59.3454 32.2852 59.0591 32.8875C58.7728 33.4897 58.2712 33.9628 57.6534 34.2135L57.4667 34.0802Z" fill="black"/>
<path fill-rule="evenodd" clip-rule="evenodd" d="M35.4933 45.6268C35.8019 45.5417 36.0978 45.4162 36.3733 45.2534C37.0667 44.3468 36.3733 42.8801 34.64 43.2001C34.0267 43.2001 30.0267 43.7868 30 43.7868C29.7676 43.8602 29.5647 44.0058 29.4207 44.2024C29.2766 44.399 29.199 44.6364 29.199 44.8801C29.199 45.1238 29.2766 45.3612 29.4207 45.5578C29.5647 45.7544 29.7676 45.9 30 45.9734C31.8187 46.4719 33.7517 46.3499 35.4933 45.6268Z" fill="black"/>
<path fill-rule="evenodd" clip-rule="evenodd" d="M38.7734 50.6668C37.6338 51.045 36.4656 51.3303 35.28 51.5201C33.7735 51.8665 32.238 52.0718 30.6934 52.1335C29.6544 52.1537 28.6166 52.0553 27.6 51.8401C26.6667 51.8401 26.8267 53.0135 27.6 53.5735C28.24 53.7068 28.08 53.8401 28.72 53.9201L28 55.4401C27.8074 55.9629 27.7268 56.5203 27.7636 57.0761C27.8003 57.632 27.9536 58.174 28.2134 58.6668C28.7602 59.5381 29.5474 60.2327 30.48 60.6668C32.068 61.2778 33.8159 61.3341 35.44 60.8268C36.1006 60.6579 36.7243 60.3686 37.28 59.9735C37.9967 59.5043 38.5587 58.8338 38.8956 58.0462C39.2324 57.2586 39.329 56.3891 39.1733 55.5468C39.1019 55.1236 38.9765 54.7114 38.8 54.3201C38.579 53.8298 38.3204 53.3573 38.0267 52.9068C38.5414 52.7839 39.0488 52.6326 39.5467 52.4535C41.0134 52.1868 39.7867 50.3201 38.7734 50.6668ZM35.8134 57.7335C35.3085 57.9765 34.7686 58.1385 34.2133 58.2135C33.367 58.371 32.4942 58.3067 31.68 58.0268C31.1942 57.9003 30.7576 57.6309 30.4267 57.2535C30.1251 56.8976 29.9723 56.4391 30 55.9735L30.2667 54.8268C30.3688 54.6117 30.5037 54.4137 30.6667 54.2401C30.7672 54.1358 30.874 54.0378 30.9867 53.9468C32.5666 53.8867 34.1377 53.6814 35.68 53.3335L36.4 53.1735C36.3607 53.3039 36.3607 53.443 36.4 53.5735C36.5965 54.0069 36.7657 54.4522 36.9067 54.9068C36.9344 55.1549 36.9344 55.4053 36.9067 55.6535C36.9427 56.0648 36.8586 56.4778 36.6645 56.8423C36.4704 57.2067 36.1748 57.5071 35.8134 57.7068V57.7335Z" fill="#020202"/>
</g>
<defs>
<clipPath id="clip0_2050_715">
<rect width="64" height="64" fill="white"/>
</clipPath>
</defs>
</svg>
