<svg width="49" height="48" viewBox="0 0 49 48" fill="none" xmlns="http://www.w3.org/2000/svg">
<g clip-path="url(#clip0_753_740)">
<path fill-rule="evenodd" clip-rule="evenodd" d="M23.5 28.4L24.4 25.02L24.88 25.98C25.28 26.88 25.66 27.82 26.06 28.72C27.66 32.24 25.02 26.22 31.62 41C32.28 42.48 32.9 43.54 33.62 45C34.4 45.72 35.14 45.34 34.86 44.68C34.24 43.04 33.78 42 33.12 40.38C24.96 19.82 31.12 35.58 28.1 27.88C27.72 26.94 25.56 22.18 25.38 21.88C24.16 19.88 23.28 21.38 23.24 21.52C23.2 21.66 21.86 26.26 21.46 27.84C20.38 32.34 18.48 40.58 17.46 45.06C17.34 46.02 18.42 45.86 18.7 45.06C18.94 44 21.48 35.84 23.5 28.4Z" fill="#A7289E"/>
<path fill-rule="evenodd" clip-rule="evenodd" d="M41.98 45.5799C41.9612 45.4941 41.9254 45.4129 41.8748 45.3411C41.8242 45.2693 41.7597 45.2083 41.6852 45.1617C41.6107 45.1152 41.5276 45.0839 41.4409 45.0699C41.3541 45.0558 41.2654 45.0593 41.18 45.0799C40.5188 45.196 39.8507 45.2695 39.18 45.2999C38.16 45.2999 37.18 45.2999 36.14 45.4399L31.12 45.6799C22.02 46.4399 17.98 46.5199 8.64004 46.7799C8.56301 46.7797 8.48677 46.7954 8.41608 46.8261C8.3454 46.8567 8.28178 46.9015 8.22922 46.9578C8.17666 47.0142 8.13629 47.0807 8.11062 47.1533C8.08495 47.226 8.07454 47.3031 8.08004 47.3799C8.08263 47.4561 8.1002 47.531 8.13176 47.6004C8.16332 47.6698 8.20824 47.7323 8.26397 47.7843C8.31969 47.8363 8.38512 47.8768 8.45651 47.9035C8.52791 47.9302 8.60387 47.9426 8.68004 47.9399H23.58C25.32 47.9399 27 47.9399 28.68 47.8199C31.22 47.6799 33.74 47.3799 36.3 47.0399C37.48 46.8799 38.66 46.7999 39.84 46.6199C40.3655 46.5421 40.8863 46.4353 41.4 46.2999C41.4861 46.2926 41.5698 46.2678 41.6461 46.2272C41.7223 46.1867 41.7896 46.131 41.8438 46.0638C41.898 45.9965 41.938 45.9189 41.9614 45.8358C41.9848 45.7526 41.9912 45.6656 41.98 45.5799Z" fill="#020202"/>
<path fill-rule="evenodd" clip-rule="evenodd" d="M47.22 22.96C47.1266 22.151 46.8 21.3867 46.28 20.76C45.8803 20.2913 45.367 19.933 44.7892 19.7194C44.2114 19.5058 43.5885 19.444 42.98 19.54C42.5914 19.5948 42.2136 19.7095 41.86 19.88C41.7093 19.9522 41.5624 20.0324 41.42 20.12C41.42 19.46 41.22 18.82 41.08 18.12C40.7389 16.6315 40.2079 15.1931 39.5 13.84L39.18 13.32H39.28C39.5704 13.2792 39.8577 13.2191 40.14 13.14L40.74 12.9C41.13 12.7031 41.4708 12.4211 41.7373 12.075C42.0038 11.7289 42.1893 11.3273 42.28 10.9C42.474 10.0927 42.4039 9.24448 42.08 8.47999C41.6795 7.56464 41.0363 6.77622 40.22 6.19999C39.3956 5.59354 38.4033 5.25809 37.38 5.23999C36.6367 5.23721 35.9151 5.49006 35.3361 5.95616C34.7571 6.42226 34.356 7.07326 34.2 7.79999C34.1267 8.01349 34.0797 8.23513 34.06 8.45999C33.6 8.21999 33.14 7.95999 32.66 7.75999C31.5625 7.32999 30.4322 6.9889 29.28 6.73999C29.3717 6.60702 29.452 6.46652 29.52 6.31999C29.6619 5.98679 29.7626 5.63756 29.82 5.27999C29.9189 4.64554 29.8833 3.99738 29.7155 3.37758C29.5477 2.75777 29.2515 2.18018 28.846 1.68228C28.4405 1.18439 27.9349 0.777322 27.3619 0.487502C26.7889 0.197681 26.1614 0.0315854 25.52 -5.85616e-06C24.5135 -0.157604 23.4829 -0.0113683 22.56 0.419994C21.8179 0.733919 21.1879 1.26467 20.7525 1.94273C20.3171 2.62078 20.0966 3.41453 20.12 4.21999C20.0815 4.53883 20.0815 4.86115 20.12 5.17999C20.1961 5.45892 20.2896 5.7328 20.4 5.99999C20.516 6.25954 20.6567 6.50734 20.82 6.73999H20.66C19.0865 7.14594 17.5734 7.7579 16.16 8.55999C16.0097 7.76291 15.643 7.02255 15.1 6.41999C14.4058 5.64576 13.4374 5.17231 12.4 5.09999C11.7218 5.11506 11.0551 5.27867 10.4469 5.5793C9.83872 5.87993 9.30387 6.31027 8.88002 6.83999C8.4687 7.36235 8.17088 7.96476 8.00558 8.60875C7.84028 9.25273 7.81114 9.92411 7.92002 10.58C8.00071 11.0386 8.16331 11.479 8.40002 11.88C8.62154 12.2642 8.90541 12.6089 9.24002 12.9C9.55861 13.1839 9.90736 13.4321 10.28 13.64L10.66 13.8C9.35051 15.621 8.35665 17.6493 7.72002 19.8L7.30002 19.56C6.94954 19.4153 6.5782 19.3275 6.20002 19.3C5.55323 19.2181 4.89623 19.2956 4.28622 19.5257C3.6762 19.7557 3.13167 20.1314 2.70002 20.62C2.24188 21.1249 1.90616 21.7284 1.71887 22.384C1.53158 23.0395 1.49776 23.7293 1.62002 24.4C1.84628 25.4753 2.4317 26.4416 3.28002 27.14C3.71695 27.5065 4.24191 27.7528 4.80308 27.8545C5.36425 27.9562 5.94224 27.9099 6.48002 27.72C6.71526 27.6391 6.93756 27.5246 7.14002 27.38C7.56318 30.0117 8.72886 32.468 10.5 34.46H10.24C9.96334 34.5749 9.70146 34.7226 9.46002 34.9C9.20847 35.0851 8.97419 35.2926 8.76002 35.52C8.3252 36.0108 8.02629 36.6068 7.89297 37.2489C7.75965 37.8909 7.79656 38.5566 8.00002 39.18C8.29091 39.9805 8.81298 40.6766 9.50002 41.18C9.91326 41.5427 10.4049 41.8047 10.9364 41.9455C11.4678 42.0864 12.0247 42.1022 12.5633 41.9918C13.1019 41.8813 13.6077 41.6476 14.0408 41.309C14.474 40.9704 14.8228 40.536 15.06 40.04C15.2119 39.721 15.326 39.3854 15.4 39.04C15.4197 38.8004 15.4197 38.5596 15.4 38.32C16.2324 38.7426 17.0948 39.1036 17.98 39.4C18.44 39.54 18.94 38.46 18.42 38.24C17.5952 37.9379 16.7932 37.5769 16.02 37.16C15.3183 36.7907 14.6492 36.3625 14.02 35.88L13.72 35.6C14.2421 35.2283 14.7428 34.8277 15.22 34.4C15.4963 34.2868 15.7637 34.153 16.02 34C16.2219 33.782 16.3966 33.5402 16.54 33.28C16.7394 32.9644 16.9198 32.6372 17.08 32.3C17.7305 32.9655 18.4962 33.5076 19.34 33.9C19.98 34.02 20.38 33.06 19.96 32.86C18.9096 32.288 17.9878 31.5066 17.2516 30.5639C16.5154 29.6213 15.9805 28.5377 15.68 27.38C15.4739 26.5566 15.3864 25.7081 15.42 24.86H17.16C18.82 24.86 19.92 24.68 21.58 24.5C22.28 24.5 23.1 22.94 21.58 23.08C20.06 23.22 19.38 22.82 17.86 22.7H15.68C15.9494 21.6202 16.41 20.5974 17.04 19.68C17.8773 18.2552 19.0259 17.0382 20.4 16.12C21.2764 15.6418 22.2445 15.3554 23.24 15.28V16.9C23.24 18.12 23.5 18.64 23.58 19.88C23.58 20.76 24.54 21.04 24.88 20.16C25 18.94 25.26 18.04 25.34 16.82L25.46 15.26C27.6353 15.394 29.7009 16.2612 31.32 17.72C32.5785 18.8362 33.424 20.344 33.72 22H33.02C32.22 22 31.44 22 30.66 22.16C29.3 22.32 28.3 22.6 26.96 22.82C25.98 23.04 26.02 23.92 26.96 24.22H31.52C32.26 24.22 32.98 24.22 33.72 24.1C33.6278 25.4214 33.3931 26.729 33.02 28C32.7608 28.8306 32.3241 29.595 31.74 30.24C31.3342 30.6742 30.8443 31.0212 30.3 31.26C29.8 31.62 29.98 33.06 30.92 32.82C31.6536 32.5162 32.2802 32.001 32.72 31.34C32.8402 31.7427 32.9872 32.1369 33.16 32.52C33.2672 32.7443 33.3944 32.9585 33.54 33.16C33.696 33.3559 33.863 33.5429 34.04 33.72C34.4 34.1 34.8 34.42 35.18 34.78C34.4093 35.6141 33.486 36.293 32.46 36.78C31.78 37.06 32.26 38.44 32.94 38.36C33.62 38.28 33.14 38.14 33.5 37.96C33.6377 37.8874 33.7712 37.8073 33.9 37.72C34.0243 38.4393 34.315 39.1196 34.7491 39.7065C35.1832 40.2934 35.7486 40.7706 36.4 41.1C37.001 41.4245 37.6867 41.5582 38.3656 41.4831C39.0445 41.4081 39.6844 41.1279 40.2 40.68C40.9216 40.0707 41.3918 39.2157 41.52 38.28C41.6173 37.4001 41.4575 36.5109 41.06 35.72C40.56 34.6927 39.6766 33.9027 38.6 33.52C39.9416 31.6261 40.8747 29.4738 41.34 27.2C41.34 27.2 41.34 27 41.34 26.9C41.74 27.02 42.42 27.18 42.98 27.28C43.3058 27.3141 43.6342 27.3141 43.96 27.28C44.4603 27.2164 44.9429 27.0533 45.3792 26.8003C45.8155 26.5474 46.1968 26.2097 46.5006 25.8071C46.8043 25.4045 47.0245 24.9452 47.1481 24.4563C47.2716 23.9673 47.2961 23.4586 47.22 22.96ZM7.10002 22.38C6.92953 23.5787 6.88261 24.7917 6.96002 26C6.88817 26.0646 6.80733 26.1185 6.72002 26.16C6.52568 26.2601 6.31623 26.3277 6.10002 26.36C5.81366 26.3856 5.52539 26.3406 5.26042 26.2291C4.99545 26.1175 4.76184 25.9427 4.58002 25.72C4.14517 25.2432 3.87217 24.6412 3.80002 24C3.72392 23.6559 3.72202 23.2996 3.79444 22.9547C3.86686 22.6099 4.01194 22.2844 4.22002 22C4.42908 21.6935 4.70526 21.4388 5.02756 21.2551C5.34987 21.0714 5.70981 20.9637 6.08002 20.94C6.29197 20.9056 6.50807 20.9056 6.72002 20.94C6.93717 20.991 7.14143 21.0863 7.32002 21.22C7.24002 21.64 7.16002 22 7.10002 22.38ZM35.3 8.99999C35.3501 8.78296 35.4309 8.57419 35.54 8.37999C35.6912 8.05208 35.9441 7.78161 36.2611 7.60869C36.5781 7.43578 36.9424 7.36961 37.3 7.41999C37.8958 7.51535 38.459 7.75574 38.94 8.11999C39.4657 8.46031 39.9041 8.91929 40.22 9.45999C40.4541 9.80654 40.5601 10.2238 40.52 10.64C40.5112 10.8344 40.4601 11.0246 40.3703 11.1973C40.2805 11.37 40.1541 11.5211 40 11.64L39 12C38.9073 12.0236 38.8205 12.066 38.7448 12.1244C38.6691 12.1829 38.6062 12.2563 38.56 12.34C37.9833 11.5236 37.312 10.7785 36.56 10.12C36.1285 9.75799 35.6742 9.42397 35.2 9.11999C35.2276 9.07552 35.2612 9.03513 35.3 8.99999ZM10.4 11.84C10.2321 11.6136 10.0974 11.3644 10 11.1C9.90853 10.8645 9.86764 10.6123 9.88002 10.36C9.8661 9.58071 10.1444 8.82443 10.66 8.23999C10.8946 7.92185 11.1943 7.6574 11.5392 7.46426C11.8841 7.27113 12.2662 7.15376 12.66 7.11999C12.9435 7.09379 13.2293 7.12841 13.4983 7.22153C13.7674 7.31466 14.0134 7.46414 14.22 7.65999C14.471 7.84422 14.6819 8.07748 14.84 8.34563C14.9982 8.61378 15.1002 8.91124 15.14 9.21999C15.14 9.21999 15.14 9.21999 15.14 9.37999C14.7738 9.62207 14.4201 9.8824 14.08 10.16C13.0877 10.9398 12.1764 11.8176 11.36 12.78C11.22 12.78 11.08 12.62 10.96 12.52C10.7504 12.3133 10.5627 12.0854 10.4 11.84ZM14.4 37.84C14.3017 37.9366 14.2383 38.0633 14.22 38.2C14.1788 38.4312 14.1186 38.6586 14.04 38.88C13.9576 39.0857 13.8501 39.2805 13.72 39.46C13.5696 39.6883 13.3687 39.8789 13.1327 40.0171C12.8967 40.1552 12.6321 40.2371 12.3594 40.2564C12.0867 40.2758 11.8132 40.232 11.5601 40.1286C11.307 40.0252 11.0811 39.8648 10.9 39.66C10.4531 39.3318 10.1348 38.8579 10 38.32C9.92039 38.0583 9.89528 37.7831 9.92624 37.5113C9.9572 37.2396 10.0436 36.9771 10.18 36.74C10.232 36.552 10.3059 36.3708 10.4 36.2C10.5259 36.0455 10.6742 35.9107 10.84 35.8C10.9855 35.6985 11.1481 35.624 11.32 35.58H11.48C12.0521 36.1251 12.6529 36.6392 13.28 37.12C13.68 37.34 14.04 37.52 14.4 37.74V37.84ZM15.96 31.16C15.6069 31.4024 15.2665 31.6627 14.94 31.94C14.7247 32.1384 14.5241 32.3523 14.34 32.58C14.1537 32.8103 13.9801 33.0507 13.82 33.3C13.48 33.84 13.2 34.38 12.88 34.9L12.4 34.44C11.0928 33.142 10.0831 31.5755 9.44085 29.8489C8.79856 28.1223 8.53896 26.2768 8.68002 24.44C10.3 24.54 11.9 24.68 13.52 24.76C13.5281 25.7915 13.6899 26.8161 14 27.8C14.4328 29.0005 15.0913 30.1071 15.94 31.06L15.96 31.16ZM15.4 18.42C14.5984 19.6933 14.0611 21.1148 13.82 22.6H13.42C11.9 22.6 10.38 22.82 8.86002 22.96V22.66C9.52155 18.9703 11.3185 15.5793 14 12.96C14.28 13.58 14.56 14.2 14.9 14.8C15.06 15.04 15.22 15.3 15.4 15.52C15.5841 15.7477 15.7847 15.9616 16 16.16L16.68 16.66C16.26 17.18 15.84 17.76 15.4 18.42ZM23.4 12.42V13C21.9897 13.0732 20.6178 13.4848 19.4 14.2C18.8751 14.5129 18.3855 14.8817 17.94 15.3C17.94 15.12 17.76 14.94 17.64 14.76C17.4914 14.5206 17.3242 14.2933 17.14 14.08C16.9621 13.8656 16.7682 13.6651 16.56 13.48C16.08 13 15.56 12.62 15.08 12.16L15.42 11.88C17.1875 10.4919 19.2343 9.50261 21.42 8.97999C22.2945 8.77552 23.1841 8.64176 24.08 8.57999C23.76 9.83999 23.58 11.14 23.46 12.44L23.4 12.42ZM22.2 6.41999V6.27999C22.0594 6.03948 21.9645 5.77503 21.92 5.49999C21.8688 5.29661 21.8353 5.08917 21.82 4.87999C21.7894 4.69458 21.7894 4.50541 21.82 4.31999C21.879 3.96191 22.0197 3.62224 22.2313 3.32739C22.4429 3.03255 22.7196 2.79048 23.04 2.61999C23.7167 2.24806 24.4942 2.10097 25.26 2.19999C26.82 2.33999 28.38 3.21999 28.3 5.03999C28.2926 5.2843 28.2522 5.52648 28.18 5.75999C28.1159 5.98495 28.0217 6.20023 27.9 6.39999C26.0277 6.12638 24.1238 6.15339 22.26 6.47999L22.2 6.41999ZM32.2 14.24C31.96 14.58 31.76 14.92 31.56 15.26C29.77 13.9488 27.6516 13.1596 25.44 12.98C25.44 11.48 25.32 9.95999 25.2 8.39999C26.0585 8.4095 26.9147 8.48978 27.76 8.63999C29.1251 8.88897 30.4641 9.2639 31.76 9.75999C32.9653 10.235 34.0812 10.9113 35.06 11.76C34.5757 12.0823 34.1085 12.4294 33.66 12.8C33.3987 13.0174 33.1516 13.2512 32.92 13.5C32.7202 13.7485 32.546 14.0165 32.4 14.3L32.2 14.24ZM32.86 16.36C33.16 16.14 33.46 15.92 33.76 15.66C34.0145 15.4491 34.255 15.222 34.48 14.98L35.1 14.2C35.44 13.74 35.74 13.28 36.06 12.84C36.5985 13.4579 37.0742 14.1279 37.48 14.84C38.1091 16.0402 38.599 17.3085 38.94 18.62C39.2157 19.7707 39.403 20.9407 39.5 22.12C38.14 22.02 36.8 21.92 35.5 21.9C35.3083 19.8437 34.4273 17.9126 33 16.42L32.86 16.36ZM39.1 36.36C39.1792 36.7493 39.1792 37.1506 39.1 37.54C39.0716 38.0693 38.8342 38.5656 38.44 38.92C38.1562 39.1472 37.8036 39.271 37.44 39.271C37.0765 39.271 36.7238 39.1472 36.44 38.92C36.0382 38.6992 35.6968 38.3831 35.4457 37.9995C35.1946 37.6159 35.0416 37.1766 35 36.72C35.721 36.2355 36.391 35.6793 37 35.06C37.18 34.88 37.3 34.68 37.46 34.5C37.904 34.6392 38.303 34.8941 38.6158 35.2386C38.9287 35.5831 39.1441 36.0047 39.24 36.46L39.1 36.36ZM39.3 26.72C38.8385 29.2468 37.729 31.6105 36.08 33.58C35.94 33.2 35.78 32.82 35.6 32.42C35.4852 32.1998 35.3584 31.9862 35.22 31.78C35.082 31.5756 34.9209 31.3877 34.74 31.22C34.3367 30.8394 33.9091 30.4853 33.46 30.16C33.8273 29.6316 34.1295 29.0608 34.36 28.46C34.8763 27.0181 35.2253 25.5216 35.4 24L39.56 23.68C39.6209 24.7281 39.5807 25.7796 39.44 26.82L39.3 26.72ZM43.5 25.56C43.1675 25.593 42.8325 25.593 42.5 25.56C42.1251 25.5477 41.7512 25.5143 41.38 25.46C41.5039 24.1295 41.5039 22.7905 41.38 21.46C41.8426 21.2421 42.3488 21.1327 42.86 21.14C43.1671 21.1659 43.4641 21.2624 43.7278 21.4219C43.9915 21.5815 44.2147 21.7999 44.38 22.06C44.607 22.4094 44.7507 22.8063 44.8 23.22C44.9467 23.6981 44.909 24.2138 44.6943 24.6655C44.4796 25.1171 44.1034 25.472 43.64 25.66L43.5 25.56Z" fill="#020202"/>
<path fill-rule="evenodd" clip-rule="evenodd" d="M27.02 34.22C27.2514 34.1562 27.4733 34.062 27.68 33.94C28.2 33.26 27.68 32.16 26.38 32.4C25.92 32.4 22.92 32.84 22.9 32.84C22.7257 32.8951 22.5735 33.0043 22.4655 33.1517C22.3574 33.2991 22.2992 33.4772 22.2992 33.66C22.2992 33.8427 22.3574 34.0208 22.4655 34.1682C22.5735 34.3157 22.7257 34.4249 22.9 34.48C24.264 34.8538 25.7137 34.7623 27.02 34.22Z" fill="#020202"/>
<path fill-rule="evenodd" clip-rule="evenodd" d="M29.4801 38C28.6254 38.2836 27.7492 38.4976 26.8601 38.64C25.7302 38.8997 24.5785 39.0537 23.4201 39.1C22.6409 39.1152 21.8625 39.0414 21.1001 38.88C20.4001 38.88 20.5201 39.76 21.1001 40.18C21.5801 40.28 21.4601 40.38 21.9401 40.44L21.4001 41.58C21.2556 41.972 21.1952 42.3901 21.2227 42.807C21.2503 43.2239 21.3652 43.6304 21.5601 44C21.9702 44.6535 22.5606 45.1744 23.2601 45.5C24.4511 45.9582 25.762 46.0005 26.9801 45.62C27.4755 45.4933 27.9433 45.2763 28.3601 44.98C28.8976 44.6281 29.3191 44.1252 29.5717 43.5345C29.8244 42.9439 29.8968 42.2917 29.7801 41.66C29.7265 41.3426 29.6324 41.0334 29.5001 40.74C29.3343 40.3722 29.1404 40.0179 28.9201 39.68C29.3061 39.5878 29.6867 39.4743 30.0601 39.34C31.1601 39.14 30.2401 37.74 29.4801 38ZM27.2601 43.3C26.8815 43.4823 26.4765 43.6037 26.0601 43.66C25.4253 43.7781 24.7707 43.7299 24.1601 43.52C23.7957 43.4251 23.4683 43.2231 23.2201 42.94C22.9939 42.673 22.8793 42.3292 22.9001 41.98L23.1001 41.12C23.1766 40.9586 23.2778 40.8102 23.4001 40.68C23.4754 40.6017 23.5556 40.5283 23.6401 40.46C24.825 40.4149 26.0033 40.2609 27.1601 40L27.7001 39.88C27.6706 39.9778 27.6706 40.0821 27.7001 40.18C27.8474 40.5051 27.9743 40.8391 28.0801 41.18C28.1009 41.3661 28.1009 41.5539 28.0801 41.74C28.1071 42.0485 28.044 42.3582 27.8984 42.6316C27.7529 42.9049 27.5311 43.1302 27.2601 43.28V43.3Z" fill="#020202"/>
</g>
<defs>
<clipPath id="clip0_753_740">
<rect width="48" height="48" fill="white" transform="translate(0.400024)"/>
</clipPath>
</defs>
</svg>
