<svg width="33" height="32" viewBox="0 0 33 32" fill="none" xmlns="http://www.w3.org/2000/svg">
<g clip-path="url(#clip0_109_3504)">
<path fill-rule="evenodd" clip-rule="evenodd" d="M11.6434 8.97578C12.947 7.81564 14.407 6.74658 15.7888 5.67764C15.9806 5.53204 16.0211 5.26004 15.88 5.06498C15.7346 4.87311 15.4624 4.83271 15.2674 4.97364C13.8203 5.97751 12.3342 6.99431 10.9132 8.10244C9.94736 8.83431 9.0327 9.63138 8.17563 10.488L6.65043 12.1044C6.48376 12.2603 6.3311 12.4304 6.19416 12.613C6.0831 12.7674 6.0407 12.9607 6.07683 13.1474C6.10323 13.3542 6.21123 13.5419 6.3767 13.6688C6.6163 13.8198 6.87496 13.9382 7.14576 14.0208C7.4759 14.117 7.81896 14.161 8.16256 14.1512C8.59283 14.1512 9.01003 14.086 9.4663 14.0468C11.1219 13.8514 12.8166 13.6427 14.4983 13.5515C15.6008 13.4799 16.7068 13.4799 17.8095 13.5515H19.5694H22.1766L23.5715 13.6167H24.0016C24.1706 13.6366 24.3412 13.6366 24.51 13.6167C24.7582 13.5467 24.9483 13.3467 25.0055 13.0952C25.066 12.8482 24.9859 12.5876 24.7968 12.4174C24.093 11.7526 23.3499 11.1138 22.6198 10.514C21.5248 9.61458 20.4036 8.74111 19.2956 7.82858C18.7871 7.41151 18.3439 6.89004 17.8616 6.43378C17.6302 6.21978 17.3863 6.01964 17.1315 5.83404C16.8843 5.64058 16.5234 5.70791 16.3624 5.97751C16.2039 6.20057 16.2564 6.51004 16.4798 6.66844C16.6947 6.82884 16.8954 7.00764 17.0794 7.20284C17.5618 7.68524 18.005 8.24578 18.5134 8.70204C19.5694 9.65364 20.6644 10.5662 21.7203 11.5179L22.32 12.0784H22.1114L17.8746 11.948C16.7028 11.8632 15.5266 11.8632 14.3548 11.948C12.621 12.0523 10.9132 12.287 9.21856 12.5086C8.87963 12.5086 8.50163 12.639 8.13656 12.6651L9.1403 11.4396C9.92483 10.5692 10.7607 9.74644 11.6434 8.97578Z" fill="#A7289E"/>
<path fill-rule="evenodd" clip-rule="evenodd" d="M31.9016 14.9726C30.3012 12.634 28.4331 10.4901 26.3351 8.58488C25.0906 7.44995 23.7851 6.38369 22.4243 5.39102C20.3515 3.89182 18.2006 2.54915 16.1539 1.18035C15.9844 1.04995 15.5672 0.802219 9.07523 5.89942C8.21483 6.57729 7.3935 7.29435 6.57216 8.03742C6.16803 8.44155 5.75096 8.83262 5.34683 9.26275C3.7955 10.9184 2.41363 12.7174 0.849362 14.373C0.676962 14.546 0.676962 14.8257 0.849362 14.9988C1.0251 15.1642 1.29936 15.1642 1.4751 14.9988L7.7063 9.26275L15.8279 2.22329C15.8279 2.22329 15.8279 2.14502 15.8931 2.09289C18.0311 3.83969 20.182 5.65182 22.4112 7.45075C23.9104 8.67622 25.4226 9.86248 26.8435 11.153C28.394 12.5033 29.8327 13.9769 31.1455 15.5593C31.322 15.8973 31.7982 15.9176 32.0027 15.5957C32.1292 15.3966 32.0979 15.136 31.9276 14.9726H31.9016Z" fill="#1A1A1A"/>
<path fill-rule="evenodd" clip-rule="evenodd" d="M30.4155 15.3897C28.7859 15.494 27.1434 15.4809 25.5139 15.3897C23.0239 15.2985 20.5731 15.0899 18.0702 14.9595H11.6694C8.4755 15.0899 5.2947 15.4157 2.10083 15.7548C1.8611 15.7688 1.67616 15.9711 1.68363 16.2111C1.70443 16.458 1.91856 16.6432 2.16603 16.6281H3.0263C2.88363 17.5271 3.12483 18.4447 3.69123 19.1572C3.78243 19.2484 3.9259 19.2745 4.03016 19.3528C3.89976 20.0176 3.7695 20.6564 3.69123 21.3733C3.67163 21.7207 3.67163 22.0689 3.69123 22.4163C3.70163 22.7653 3.73216 23.1136 3.78243 23.4592C3.87376 24.2804 4.03016 25.0625 4.18656 25.8708C3.90016 25.9997 3.64963 26.1967 3.45656 26.4444C3.1619 26.8745 3.00296 27.3832 3.0003 27.9045C3.02483 28.5292 3.13443 29.1476 3.32616 29.7427C3.5179 30.3377 3.32616 29.8469 3.40443 29.8991L2.02256 29.9903C1.68643 29.932 1.41323 30.2595 1.53083 30.5799C1.60456 30.7808 1.81163 30.9003 2.02256 30.8637H11.904H16.1408H20.3906C23.6888 30.7985 27 30.7203 30.2982 30.6812C30.5696 30.6885 30.7936 30.4704 30.7935 30.1989C30.7939 29.928 30.5818 29.7044 30.3112 29.6904H29.6594V29.5471C29.7708 28.8039 29.7708 28.0481 29.6594 27.3048C29.5686 26.8744 29.3396 26.4853 29.0075 26.1968C28.8224 26.0348 28.6046 25.9148 28.3688 25.8448C28.2606 25.8312 28.1511 25.8312 28.0428 25.8448C28.1342 25.1408 28.2515 24.4629 28.3296 23.7589C28.3296 23.4331 28.4079 23.1072 28.421 22.7812C28.434 22.4552 28.421 22.1425 28.421 21.8165C28.421 21.2169 28.3166 20.6433 28.2384 20.0697H28.5643C28.9124 19.9675 29.2243 19.7687 29.4638 19.4961C29.7674 19.0748 29.952 18.5795 29.9983 18.0621C30.0292 17.5572 30.0074 17.0504 29.9331 16.55H30.4546C30.727 16.5295 30.928 16.2869 30.8978 16.0155C30.9976 15.696 30.7498 15.3745 30.4155 15.3897ZM18.8523 16.6933C18.849 16.964 18.8272 17.234 18.7871 17.5016C18.7494 17.8349 18.6027 18.1465 18.37 18.388C18.2787 18.4793 18.1354 18.388 17.9919 18.4663C17.6016 18.5001 17.209 18.5001 16.8187 18.4663C16.3394 18.4772 15.8599 18.4511 15.3847 18.388C15.1435 18.3703 14.9084 18.3037 14.6938 18.1925C14.309 17.7819 14.0907 17.2429 14.0811 16.6803H17.9919L18.8523 16.6933ZM17.275 23.6287C17.3402 24.3196 17.4704 24.9323 17.5618 25.6623H17.3662H15.4368V25.5449C15.4368 24.8019 15.5542 24.0719 15.5932 23.3288V22.3901V21.4516C15.5932 21.1387 15.463 20.4739 15.3847 19.9915C15.8494 20.0776 16.3202 20.1255 16.7926 20.1349H17.3792C17.301 20.7085 17.2098 21.2691 17.1836 21.8427C17.1642 22.1509 17.1642 22.46 17.1836 22.7683C17.1967 23.0159 17.2359 23.3288 17.275 23.6287ZM8.5407 16.576H8.81443C8.81377 16.8775 8.7875 17.1784 8.73617 17.4755C8.69843 17.8088 8.55176 18.1204 8.3191 18.362C8.22777 18.4532 8.08443 18.362 7.94097 18.4401C7.55497 18.4741 7.16683 18.4741 6.78083 18.4401C6.2971 18.4515 5.81336 18.4253 5.33376 18.362C5.0859 18.3399 4.84563 18.2643 4.62976 18.1404C4.24003 17.7436 4.02016 17.2104 4.0171 16.6543C5.5163 16.6151 7.01537 16.576 8.5407 16.576ZM5.2947 21.4124C5.2947 20.904 5.1643 20.4087 5.08603 19.9133C5.62563 20.0303 6.17656 20.0871 6.7287 20.0828H7.75856C7.66723 20.6303 7.56296 21.1908 7.51083 21.7515C7.49136 22.1031 7.49136 22.4556 7.51083 22.8073V23.8633C7.51083 24.4891 7.64123 25.1669 7.70643 25.7144H7.44563C6.68203 25.6556 5.91496 25.6556 5.15123 25.7144C5.15123 24.9844 5.25563 24.2673 5.2947 23.5373V22.5075C5.2947 22.1555 5.3207 21.7513 5.2947 21.4124ZM4.13443 29.6123C4.10416 29.1783 4.10416 28.7427 4.13443 28.3087C4.15843 27.9832 4.29163 27.6753 4.51243 27.4352C4.7211 27.2396 5.02096 27.2788 5.3599 27.2527C6.05083 27.2527 6.83296 27.2527 7.40656 27.3179H8.3451C8.53643 27.4571 8.6707 27.6608 8.72323 27.8915C8.8235 28.4383 8.88443 28.9916 8.90577 29.5471C7.28923 29.6513 5.6727 29.7427 4.06923 29.886C4.11776 29.8033 4.14043 29.708 4.13443 29.6123ZM11.865 29.2993C11.2131 29.2993 10.5612 29.4037 9.9095 29.4428C10.0074 28.716 10.0074 27.9795 9.9095 27.2527C9.8187 26.8223 9.58976 26.4332 9.25763 26.1447C9.12803 26.0403 8.98283 25.9567 8.8275 25.8969C8.93177 25.206 9.03603 24.5933 9.08816 23.8241V22.7683V21.7123C9.08816 21.0344 8.90563 20.4087 8.80136 19.7047C9.0087 19.6236 9.19883 19.5043 9.3619 19.3528C9.6655 18.9313 9.85017 18.436 9.89643 17.9188C9.93417 17.4851 9.93417 17.0488 9.89643 16.6152H13.1034C12.9339 17.5396 13.1767 18.492 13.7682 19.2224C13.9452 19.3615 14.1432 19.4715 14.3548 19.5483C14.1967 20.1651 14.0834 20.7924 14.0159 21.4255C13.9899 21.7465 13.9899 22.0692 14.0159 22.3901C14.0312 22.7179 14.0662 23.0444 14.1202 23.3679C14.2246 24.118 14.3682 24.862 14.5504 25.5971C14.7327 26.3321 14.5504 25.6884 14.5504 25.7405C14.0866 25.8339 13.6683 26.082 13.364 26.4444C13.0695 26.8745 12.9106 27.3832 12.9078 27.9045C12.9179 28.3447 12.9791 28.7821 13.0903 29.2081L11.865 29.2993ZM14.042 29.2993C14.0227 28.9695 14.0227 28.6385 14.042 28.3087C14.0606 27.9819 14.1946 27.6724 14.42 27.4352C14.6286 27.2396 14.9284 27.2788 15.2674 27.2527C15.9583 27.2527 16.7404 27.2527 17.314 27.3179H18.2527C18.4439 27.4571 18.5783 27.6608 18.6307 27.8915C18.7264 28.3505 18.7788 28.8176 18.7872 29.2864H16.1799L14.042 29.2993ZM19.83 29.2993C19.9276 28.6337 19.9276 27.9575 19.83 27.2919C19.7392 26.8613 19.5103 26.4723 19.1783 26.1837C19.0068 26.0265 18.8016 25.9105 18.5786 25.8448C18.6698 25.1148 18.7871 24.3847 18.8392 23.6416V22.7031C18.8392 22.3901 18.8392 22.0773 18.7611 21.7644C18.6698 21.1648 18.5134 20.5912 18.37 20.0045H18.5134C18.8668 19.906 19.1839 19.7067 19.4259 19.4309C19.7308 19.0113 19.9116 18.5144 19.9474 17.9969C19.9898 17.5635 19.9898 17.1268 19.9474 16.6933H23.1803C23.0784 17.4424 23.2298 18.2041 23.6106 18.8573C23.4659 19.6156 23.3658 20.3817 23.3107 21.1517V22.2468C23.3107 22.6117 23.3107 22.9637 23.389 23.3288C23.4802 24.1761 23.6236 24.9973 23.7148 25.8448C23.7148 25.9099 23.7148 25.9491 23.7931 26.0143C23.5952 26.1257 23.4222 26.2767 23.2847 26.4575C22.99 26.8876 22.8311 27.3961 22.8284 27.9175C22.8378 28.4057 22.9034 28.8913 23.0239 29.3645L20.4167 29.2603L19.83 29.2993ZM28.5383 27.8915C28.6386 28.4427 28.6995 29.0003 28.7207 29.5601C28.7419 30.12 28.7207 29.5601 28.7207 29.6513L23.8974 29.4428C23.8716 29.0652 23.8716 28.6863 23.8974 28.3087C23.916 27.9819 24.0499 27.6724 24.2754 27.4352C24.484 27.2397 24.7838 27.2788 25.1228 27.2527C25.8136 27.2527 26.5959 27.2527 27.1695 27.3179H28.108C28.3114 27.4383 28.4642 27.6281 28.5383 27.8524V27.8915ZM26.7914 23.6156C26.7914 24.2935 26.9218 24.9192 27.013 25.6232C26.2375 25.5387 25.4551 25.5387 24.6795 25.6232C24.7708 24.8409 24.862 24.0588 24.9142 23.2636V22.1816C24.9142 21.8296 24.9142 21.4516 24.849 21.0996C24.7838 20.7476 24.7056 20.1088 24.6143 19.6265C24.7578 19.724 24.9107 19.8071 25.0706 19.8741C25.6482 20.0033 26.2388 20.0645 26.8306 20.0567H27.1695C27.0522 20.5651 26.9218 21.0865 26.8306 21.6211C26.8306 21.9513 26.8045 22.2772 26.7523 22.5988C26.7914 22.9508 26.7914 23.2767 26.7914 23.6156ZM28.8511 17.4755C28.8016 17.8055 28.6566 18.1136 28.4339 18.362C28.3427 18.4532 28.1863 18.362 28.0428 18.4401C27.6568 18.4741 27.2687 18.4741 26.8827 18.4401C26.4158 18.4399 25.9495 18.4049 25.4878 18.3359C25.2507 18.3183 25.0199 18.2516 24.8099 18.1404C24.4176 17.7601 24.1926 17.2396 24.1842 16.6933H25.4878C26.635 16.6933 27.7822 16.5629 28.9294 16.4587C28.9378 16.7984 28.9203 17.1384 28.8772 17.4755H28.8511Z" fill="#1A1A1A"/>
</g>
<defs>
<clipPath id="clip0_109_3504">
<rect width="32" height="32" fill="white" transform="translate(0.400024 0.000488281)"/>
</clipPath>
</defs>
</svg>
