<svg width="49" height="48" viewBox="0 0 49 48" fill="none" xmlns="http://www.w3.org/2000/svg">
<g clip-path="url(#clip0_753_790)">
<path fill-rule="evenodd" clip-rule="evenodd" d="M41.58 36.66C41.3397 36.5845 41.0913 36.5376 40.84 36.52C41.013 35.8677 41.0471 35.1863 40.94 34.52C40.8472 33.9428 40.629 33.393 40.3007 32.9092C39.9724 32.4254 39.5421 32.0195 39.04 31.72C38.4951 31.3929 37.8857 31.1878 37.2539 31.1188C36.6221 31.0497 35.9828 31.1184 35.38 31.32C33.9392 31.7456 32.585 32.4227 31.38 33.32C30.54 33.92 29.84 34.56 29.26 34.94C28 35.8 25.72 37.14 24.7 37.74C24.5658 37.8301 24.4388 37.9304 24.32 38.04C23.5463 37.9889 22.7812 37.8479 22.04 37.62C20.9181 37.4181 19.8535 36.9745 18.92 36.32C18.92 36.32 18.92 36.16 18.92 36.04C19.0485 35.8037 19.2028 35.5823 19.38 35.38C21.5 32.94 23.62 31.78 24.34 30.3C24.6193 29.7122 24.7404 29.0617 24.6913 28.4128C24.6422 27.7639 24.4246 27.1391 24.06 26.6C23.703 26.0258 23.1763 25.5768 22.5528 25.3152C21.9293 25.0537 21.2399 24.9924 20.58 25.14C18.2479 25.5817 16.0131 26.435 13.98 27.66C12.0125 28.8734 9.92051 29.8724 7.74005 30.64H7.30005H7.18005C6.49763 30.6889 5.81315 30.5793 5.18005 30.32C4.21896 30.0216 3.28817 29.6332 2.40005 29.16C2.32125 29.1114 2.23366 29.0788 2.14227 29.0641C2.05088 29.0493 1.95748 29.0528 1.86741 29.0741C1.77734 29.0955 1.69235 29.1344 1.61731 29.1886C1.54227 29.2428 1.47863 29.3112 1.43005 29.39C1.38146 29.4688 1.34886 29.5564 1.33413 29.6478C1.31939 29.7392 1.32279 29.8326 1.34415 29.9226C1.36551 30.0127 1.4044 30.0977 1.4586 30.1727C1.5128 30.2478 1.58125 30.3114 1.66005 30.36C2.65353 31.003 3.70474 31.552 4.80005 32C5.57122 32.2998 6.39269 32.4492 7.22005 32.44H7.48005C8.02622 32.3646 8.56266 32.2305 9.08005 32.04C11.1029 31.2914 13.0625 30.3818 14.94 29.32C16.5441 28.4308 18.2591 27.7582 20.04 27.32C21.1 27.1 22.04 26.96 22.48 27.7C22.6869 27.9861 22.8144 28.3218 22.8495 28.6731C22.8847 29.0243 22.8262 29.3786 22.68 29.7C21.98 31.06 19.92 32.04 17.9 34.26C16.4 35.92 16.58 37.14 17.34 38.04C18.5018 39.0054 19.8706 39.6899 21.34 40.04C22.2687 40.3358 23.2284 40.5237 24.2 40.6C25.5783 40.6995 26.9618 40.6995 28.34 40.6C29.6791 40.544 31.0143 40.4171 32.34 40.22C34.7 39.86 36.62 39.38 38 39.22C38.82 39.0293 39.6583 38.9287 40.5 38.92C40.7566 38.9565 40.997 39.0666 41.1923 39.237C41.3875 39.4074 41.5292 39.6308 41.6 39.88C41.84 40.4 41.6 40.84 41.12 41.26C40.1124 42.1683 38.9812 42.9292 37.76 43.52C34.6153 45.1143 31.1456 45.9629 27.62 46C22.1659 46.1452 16.7236 45.416 11.5 43.84C11.3884 43.8121 11.2717 43.8121 11.16 43.84L2.12005 45.4C2.03843 45.4128 1.9602 45.4418 1.88995 45.4852C1.8197 45.5287 1.75884 45.5858 1.71095 45.6531C1.66305 45.7204 1.6291 45.7966 1.61107 45.8772C1.59304 45.9578 1.59131 46.0412 1.60597 46.1225C1.62063 46.2038 1.65139 46.2814 1.69644 46.3506C1.74149 46.4199 1.79993 46.4794 1.86831 46.5258C1.9367 46.5721 2.01366 46.6043 2.09467 46.6205C2.17568 46.6367 2.2591 46.6365 2.34005 46.62L11.2 45.32C16.5139 47.0921 22.0785 47.997 27.68 48C31.5643 48.0116 35.3982 47.1216 38.88 45.4C40.6095 44.5883 42.1546 43.4312 43.42 42C43.7588 41.5431 43.9721 41.0055 44.0387 40.4406C44.1054 39.8757 44.0231 39.3032 43.8 38.78C43.6079 38.2856 43.3095 37.8394 42.9259 37.473C42.5423 37.1067 42.0828 36.8291 41.58 36.66ZM37.76 36.78C36.36 36.94 34.42 37.42 32.02 37.78C30.7883 37.9772 29.5463 38.104 28.3 38.16H27.38C28.44 37.7 29.6 37.2 30.4 36.8C31.2 36.4 31.68 36.06 32.4 35.54C33.3254 34.9643 34.2875 34.4499 35.28 34C35.6785 33.7257 36.1357 33.5485 36.615 33.4825C37.0942 33.4165 37.5823 33.4636 38.04 33.62C38.3369 33.7566 38.6022 33.9533 38.8191 34.1977C39.036 34.4422 39.1998 34.729 39.3 35.04C39.4305 35.5654 39.4305 36.1146 39.3 36.64L37.76 36.78Z" fill="#020202"/>
<path fill-rule="evenodd" clip-rule="evenodd" d="M43.56 3.65998C41.6691 2.15079 39.4774 1.06313 37.1319 0.469852C34.7864 -0.123426 32.3412 -0.208618 29.96 0.219982C27.8107 0.619261 25.8179 1.61777 24.2114 3.10042C22.6049 4.58307 21.4501 6.4895 20.88 8.59998C19.6487 12.6811 20.0651 17.0822 22.04 20.86C23.1012 22.5212 24.5219 23.9228 26.1974 24.9613C27.8728 25.9998 29.7602 26.6487 31.72 26.86C35.5656 27.5704 39.5365 26.7446 42.78 24.56C42.8567 24.5079 42.9222 24.441 42.9728 24.3634C43.0234 24.2857 43.0581 24.1988 43.0749 24.1076C43.0916 24.0164 43.0901 23.9228 43.0704 23.8323C43.0507 23.7417 43.0132 23.6559 42.96 23.58C42.8485 23.4326 42.6845 23.3338 42.502 23.304C42.3196 23.2742 42.1327 23.3158 41.98 23.42C39.002 25.2836 35.4154 25.9148 31.98 25.18C30.3285 24.9681 28.7442 24.3939 27.3405 23.4984C25.9368 22.6029 24.7483 21.4083 23.86 20C22.2562 16.7013 21.991 12.9099 23.12 9.41998C23.5538 7.69766 24.4687 6.1343 25.7578 4.9125C27.0468 3.6907 28.657 2.86089 30.4 2.51998C32.4716 2.08002 34.6131 2.08612 36.6821 2.53786C38.7512 2.9896 40.7003 3.87663 42.4 5.13998C45 7.33998 46.62 11 46.02 16.74C45.9282 17.6067 45.7335 18.4593 45.44 19.28C45.1535 20.0945 44.7492 20.8627 44.24 21.56C44.1434 21.6905 44.1019 21.8537 44.1243 22.0145C44.1468 22.1753 44.2314 22.3209 44.36 22.42C44.4236 22.4704 44.4968 22.5074 44.5752 22.5287C44.6535 22.5501 44.7353 22.5553 44.8157 22.5441C44.8961 22.5329 44.9734 22.5054 45.0429 22.4635C45.1124 22.4215 45.1727 22.3659 45.22 22.3C45.8288 21.5296 46.3207 20.6737 46.68 19.76C47.039 18.8462 47.2874 17.8928 47.42 16.92C48.22 10.46 46.4 6.25998 43.56 3.65998Z" fill="#020202"/>
<path fill-rule="evenodd" clip-rule="evenodd" d="M34.7601 13.52V12.52C34.5801 10.78 34.1801 8.51997 34.1201 7.95997C34.1201 7.79553 34.0548 7.63783 33.9385 7.52156C33.8222 7.40529 33.6645 7.33997 33.5001 7.33997C33.3356 7.33997 33.1779 7.40529 33.0617 7.52156C32.9454 7.63783 32.8801 7.79553 32.8801 7.95997C32.8801 8.49997 32.5401 10.82 32.4601 12.6V14.6C32.4683 14.8863 32.5804 15.1598 32.7754 15.3695C32.9705 15.5793 33.2351 15.711 33.5201 15.74C33.5201 15.74 34.5201 15.74 35.8801 15.74C37.2401 15.74 38.2401 15.74 39.4201 15.62C39.6043 15.6202 39.7816 15.5499 39.9156 15.4234C40.0495 15.2969 40.1298 15.1239 40.1401 14.94C40.1427 14.848 40.1273 14.7565 40.0945 14.6705C40.0618 14.5846 40.0124 14.5059 39.9493 14.4391C39.8861 14.3722 39.8104 14.3184 39.7265 14.2808C39.6425 14.2432 39.552 14.2226 39.4601 14.22L34.7601 13.52Z" fill="#A7289E"/>
</g>
<defs>
<clipPath id="clip0_753_790">
<rect width="48" height="48" fill="white" transform="translate(0.400024)"/>
</clipPath>
</defs>
</svg>
