<svg width="24" height="24" viewBox="0 0 24 24" fill="none" xmlns="http://www.w3.org/2000/svg">
<path fill-rule="evenodd" clip-rule="evenodd" d="M2 12.0005C2 6.47764 6.47715 2.00049 12 2.00049C17.5228 2.00049 22 6.47764 22 12.0005C22 17.5233 17.5228 22.0005 12 22.0005C6.47715 22.0005 2 17.5233 2 12.0005ZM12 4.00049C7.58172 4.00049 4 7.58221 4 12.0005C4 16.4188 7.58172 20.0005 12 20.0005C16.4183 20.0005 20 16.4188 20 12.0005C20 7.58221 16.4183 4.00049 12 4.00049Z" fill="#A7289E"/>
<path fill-rule="evenodd" clip-rule="evenodd" d="M16.6402 8.23229C17.0645 8.58586 17.1218 9.21642 16.7682 9.6407L11.7682 15.6407C11.5937 15.8502 11.3411 15.9793 11.0691 15.9981C10.797 16.017 10.5291 15.9239 10.3273 15.7405L7.32733 13.0132C6.91868 12.6417 6.88856 12.0092 7.26007 11.6006C7.63157 11.1919 8.26402 11.1618 8.67268 11.5333L10.9002 13.5583L15.2318 8.36033C15.5854 7.93605 16.2159 7.87873 16.6402 8.23229Z" fill="#A7289E"/>
</svg>
