<svg width="25" height="24" viewBox="0 0 25 24" fill="none" xmlns="http://www.w3.org/2000/svg">
<g clip-path="url(#clip0_362_6162)">
<path fill-rule="evenodd" clip-rule="evenodd" d="M24.39 6.91007C24.3736 5.18705 24.2467 3.46685 24.01 1.76007C23.9665 1.48454 23.8567 1.22371 23.69 1.00007C23.3205 0.715064 22.8825 0.53228 22.42 0.470074C19.0858 0.0308149 15.7206 -0.126409 12.36 7.41147e-05C9.01535 0.00685609 5.67478 0.234015 2.36 0.680074C1.90221 0.730409 1.46842 0.910864 1.11 1.20007C0.7 1.79007 0.5 5.58007 0.5 9.84007C0.5 15.5301 0.87 22.0501 1.22 22.7401C1.4978 23.0632 1.88682 23.2702 2.31 23.3201C4.91277 23.7349 7.54439 23.9422 10.18 23.9401C13.92 24.0301 18.03 23.9401 20.64 23.7501C21.5941 23.7255 22.5386 23.5535 23.44 23.2401C23.7996 23.0051 24.0651 22.6511 24.19 22.2401C24.3948 21.552 24.4992 20.838 24.5 20.1201C24.5 18.8601 24.56 12.0001 24.39 6.91007ZM23.32 20.1001C23.3324 20.5453 23.3022 20.9906 23.23 21.4301C23.17 21.7601 23.1 22.1101 22.86 22.2501C22.2488 22.4476 21.6122 22.5554 20.97 22.5701C18.89 22.7701 15.62 22.8701 12.36 22.8701C9.14009 22.9459 5.91884 22.7955 2.72 22.4201C2.48563 22.3739 2.255 22.3103 2.03 22.2301C1.68 21.2901 1.32 15.2301 1.23 9.83007C1.15 5.76007 1.23 2.13007 1.61 1.59007C1.68 1.49007 1.99 1.46007 2.44 1.38007C5.73517 0.990927 9.05221 0.817225 12.37 0.860074C15.3081 0.805612 18.2468 0.929172 21.17 1.23007C21.789 1.25554 22.3985 1.39099 22.97 1.63007C23.0364 1.90689 23.0865 2.18738 23.12 2.47007C23.24 3.47007 23.31 5.09007 23.35 6.94007C23.5 12.0001 23.36 18.8401 23.32 20.1001Z" fill="black"/>
<path fill-rule="evenodd" clip-rule="evenodd" d="M18.64 5.18999C18.5717 5.18882 18.5047 5.20823 18.4476 5.24569C18.3906 5.28314 18.3461 5.33691 18.32 5.39999L17.9 5.99999C17.08 7.14999 15.25 9.53999 13.52 11.89C12.29 13.56 11.12 15.2 10.31 16.26C10.0658 16.6481 9.79513 17.019 9.5 17.37C9.5 17.37 9.39 17.37 9.31 17.37C9.1345 17.2934 8.96702 17.1996 8.81 17.09C7.99504 16.4319 7.25703 15.6838 6.61 14.86C6.38 14.58 6.25 14.27 6.02 14.47C5.85 14.47 5.68 14.62 5.83 14.84L5.99 15.07C6.52495 15.8518 7.12009 16.5907 7.77 17.28C8.12763 17.6892 8.55829 18.0283 9.04 18.28C9.20012 18.3512 9.37551 18.3811 9.55017 18.3671C9.72484 18.3532 9.89323 18.2957 10.04 18.2C10.665 17.6177 11.2341 16.9783 11.74 16.29C12.38 15.48 13.14 14.46 13.91 13.37C15.72 10.83 17.6 7.91999 18.46 6.55999C18.6754 6.25027 18.8502 5.91419 18.98 5.55999C18.9842 5.51289 18.9785 5.46543 18.9633 5.42065C18.9481 5.37587 18.9237 5.33476 18.8917 5.29994C18.8597 5.26511 18.8208 5.23735 18.7774 5.21842C18.7341 5.19949 18.6873 5.18981 18.64 5.18999Z" fill="#A7289E"/>
</g>
<defs>
<clipPath id="clip0_362_6162">
<rect width="24" height="24" fill="white" transform="translate(0.5)"/>
</clipPath>
</defs>
</svg>
