<svg width="26" height="32" viewBox="0 0 26 32" fill="none" xmlns="http://www.w3.org/2000/svg">
<path fill-rule="evenodd" clip-rule="evenodd" d="M12.2711 23.1241C11.4624 22.7981 10.5961 22.6394 9.72444 22.6575C9.41231 22.6532 9.10245 22.6038 8.80445 22.5108C8.71138 22.4947 8.62373 22.4558 8.5493 22.3977C8.47486 22.3395 8.41595 22.2639 8.37779 22.1775C7.7778 20.6708 10.4711 20.4575 11.5511 20.7642C11.5975 20.7811 11.6467 20.7886 11.696 20.7864C11.7454 20.7841 11.7937 20.7721 11.8384 20.751C11.883 20.7299 11.923 20.7002 11.9561 20.6636C11.9892 20.6269 12.0147 20.5841 12.0311 20.5375C12.0477 20.4903 12.0546 20.4402 12.0515 20.3902C12.0484 20.3402 12.0352 20.2914 12.0128 20.2466C11.9904 20.2018 11.9593 20.162 11.9212 20.1295C11.8831 20.097 11.8388 20.0726 11.7911 20.0575C11.3643 19.8959 10.9138 19.8058 10.4578 19.7908C10.4859 19.7309 10.5082 19.6684 10.5244 19.6042C10.5607 19.4872 10.5831 19.3664 10.5911 19.2442C10.5977 19.1287 10.5977 19.013 10.5911 18.8975C10.5911 18.5909 10.4711 18.3375 10.4311 18.0442C10.4386 17.9881 10.4348 17.9311 10.42 17.8765C10.4052 17.8218 10.3797 17.7707 10.3449 17.726C10.3102 17.6814 10.2669 17.6441 10.2176 17.6163C10.1683 17.5885 10.114 17.5708 10.0578 17.5642C10.0024 17.5568 9.94612 17.5607 9.8923 17.5756C9.83848 17.5905 9.78825 17.6162 9.74463 17.6511C9.70102 17.686 9.66493 17.7294 9.63854 17.7786C9.61215 17.8278 9.59602 17.8819 9.59111 17.9375C9.45396 18.2081 9.33806 18.489 9.24445 18.7775C9.20515 18.8944 9.17834 19.015 9.16445 19.1375C9.15756 19.2619 9.15756 19.3865 9.16445 19.5109C9.18323 19.615 9.20997 19.7175 9.24445 19.8175C8.89988 19.8646 8.56341 19.9589 8.24446 20.0975C8.00278 20.1912 7.78241 20.3325 7.59645 20.5131C7.41048 20.6937 7.26273 20.9098 7.16198 21.1486C7.06123 21.3875 7.00953 21.6441 7.00996 21.9033C7.01039 22.1625 7.06293 22.419 7.16448 22.6575C7.24697 22.9334 7.3922 23.1866 7.58881 23.3971C7.78543 23.6076 8.02808 23.7697 8.29779 23.8708C9.0972 24.0933 9.92145 24.2143 10.7511 24.2308C11.2578 24.2308 11.7644 24.2308 11.8577 24.8174C11.9511 25.4041 11.4177 25.7774 10.7911 26.0041C10.0602 26.2843 9.26435 26.3491 8.49779 26.1908C8.26592 26.1228 8.05193 26.0044 7.87113 25.8441C7.6911 25.682 7.52185 25.5083 7.36447 25.3241C7.29415 25.2395 7.19385 25.1853 7.08454 25.1729C6.97522 25.1605 6.86533 25.1908 6.77782 25.2574C6.73302 25.2915 6.69539 25.334 6.66711 25.3827C6.63882 25.4313 6.62043 25.485 6.613 25.5408C6.60556 25.5966 6.60923 25.6532 6.62378 25.7076C6.63834 25.7619 6.6635 25.8128 6.69782 25.8574C6.91502 26.1721 7.17029 26.4587 7.45781 26.7108C7.67882 26.8865 7.92635 27.026 8.19113 27.1241C8.43625 27.2159 8.69134 27.2786 8.95112 27.3107V27.4041C8.93723 27.5237 8.93723 27.6445 8.95112 27.7641C8.93778 27.8792 8.93778 27.9956 8.95112 28.1107C8.95112 28.4174 9.05778 28.6707 9.11112 28.964C9.09611 29.0227 9.09374 29.0838 9.10416 29.1434C9.11458 29.203 9.13756 29.2597 9.17157 29.3097C9.20557 29.3597 9.24983 29.402 9.3014 29.4336C9.35297 29.4652 9.41068 29.4855 9.4707 29.4931C9.53071 29.5008 9.59166 29.4955 9.6495 29.4778C9.70734 29.4601 9.76075 29.4302 9.80618 29.3903C9.85161 29.3503 9.88803 29.3012 9.91302 29.2461C9.938 29.191 9.95099 29.1312 9.9511 29.0707C10.0839 28.7998 10.1953 28.519 10.2844 28.2307C10.3237 28.1139 10.3505 27.9932 10.3644 27.8707C10.3846 27.7471 10.3846 27.621 10.3644 27.4974C10.3707 27.4353 10.3707 27.3728 10.3644 27.3107C10.8866 27.2698 11.3993 27.1484 11.8844 26.9507C12.3389 26.7531 12.7151 26.4103 12.954 25.976C13.1928 25.5417 13.2809 25.0405 13.2044 24.5508C13.1754 24.2553 13.0755 23.9713 12.9129 23.7228C12.7504 23.4744 12.5302 23.269 12.2711 23.1241Z" fill="#020202"/>
<path fill-rule="evenodd" clip-rule="evenodd" d="M13.6044 13.6309C13.1511 14.1909 14.4311 14.6042 14.7911 14.1375C14.9636 13.9176 15.0864 13.6629 15.151 13.3909C15.151 13.0442 14.5777 12.8709 14.1111 13.1642C14.0711 13.2309 13.6977 13.5242 13.6044 13.6309Z" fill="#A7289E"/>
<path fill-rule="evenodd" clip-rule="evenodd" d="M25.0842 8.85782C24.9847 8.80385 24.8681 8.79036 24.7588 8.82017C24.6495 8.84997 24.556 8.92076 24.4976 9.01782C24.3197 9.33954 24.0735 9.61844 23.7764 9.83495C23.4793 10.0515 23.1384 10.2003 22.7776 10.2711C22.6053 10.2977 22.4299 10.2977 22.2576 10.2711C21.3784 10.0974 20.4867 9.99483 19.591 9.96447C18.6043 10.0711 16.9244 11.1245 15.4977 11.3778C15.177 11.4983 14.8222 11.4908 14.5069 11.3567C14.1917 11.2226 13.9401 10.9724 13.8044 10.6578C13.5911 10.2311 13.9911 10.0311 14.3911 9.77781C15.5023 9.25475 16.4887 8.50011 17.2843 7.5645C17.4542 7.28718 17.5571 6.97409 17.5848 6.65008C17.6126 6.32607 17.5645 6.00005 17.4443 5.69787C16.8844 4.09789 15.8977 3.65789 14.8977 3.81789C14.3462 3.89735 13.8199 4.10054 13.3581 4.41226C12.8963 4.72397 12.511 5.13613 12.2311 5.61787C12.0578 5.95119 12.5244 6.33786 12.9111 6.05786C13.303 5.50847 13.881 5.11999 14.5377 4.96454C15.2844 4.67121 16.0177 4.96454 16.3377 6.07119C16.551 6.83118 15.991 7.24451 15.3777 7.61784C14.7644 7.99117 12.9911 9.08448 12.8577 9.21781C12.5721 9.48368 12.388 9.84066 12.3369 10.2275C12.2858 10.6143 12.371 11.0069 12.5777 11.3378C13.8444 13.7377 16.0844 12.8044 17.6043 12.0844C18.298 11.6988 19.0255 11.3775 19.7776 11.1245C20.6124 11.1203 21.4461 11.1827 22.2709 11.3111C22.5311 11.3183 22.7911 11.2914 23.0443 11.2311C23.5311 11.1062 23.9856 10.879 24.3776 10.5645C24.7204 10.2458 25.0008 9.866 25.2042 9.44448C25.262 9.3496 25.2817 9.2364 25.2594 9.12759C25.2372 9.01878 25.1746 8.92241 25.0842 8.85782Z" fill="#020202"/>
<path fill-rule="evenodd" clip-rule="evenodd" d="M13.5111 7.5109C11.3645 4.92427 7.88454 6.17759 7.68454 6.17759C6.70838 6.57524 5.9019 7.30155 5.40457 8.23089C4.07126 10.3909 3.97793 13.1242 6.55122 14.4841C6.89788 14.6308 8.01787 14.1908 7.35121 13.8041C5.51124 12.9375 5.41791 10.7242 6.53789 8.99088C7.1174 8.11978 7.9942 7.48943 9.00452 7.21757C10.0454 6.95524 11.1455 7.06856 12.1111 7.53757C12.3654 7.6715 12.5953 7.84729 12.7911 8.05756C13.2045 8.51089 13.9111 7.99089 13.5111 7.5109Z" fill="#A7289E"/>
<path fill-rule="evenodd" clip-rule="evenodd" d="M25.6309 5.1511L22.2976 3.36446C21.3376 2.7778 20.4309 1.91115 19.4576 1.23116C18.7507 0.6948 17.9438 0.304966 17.0843 0.0845063C16.3266 -0.0623439 15.5441 -0.0172779 14.8082 0.2156C14.0723 0.448477 13.4064 0.861765 12.871 1.41782C12.1834 2.13374 11.5505 2.90034 10.9777 3.71112C10.6468 4.17861 10.3569 4.67377 10.1111 5.1911C10.2444 5.48443 10.4977 5.56443 10.8577 5.41776C11.1106 5.02059 11.3913 4.64186 11.6977 4.28445C12.2963 3.58673 12.9518 2.94006 13.6577 2.35114C14.064 1.96107 14.5592 1.67587 15.1005 1.52022C15.6418 1.36456 16.2129 1.34315 16.7643 1.45782C17.6322 1.71746 18.4455 2.13313 19.1643 2.68447C19.9867 3.27799 20.8413 3.82549 21.7242 4.32444L25.2709 5.89776C25.3206 5.92238 25.3748 5.93674 25.4302 5.93998C25.4856 5.94322 25.541 5.93527 25.5933 5.9166C25.6456 5.89794 25.6935 5.86895 25.7343 5.83135C25.7752 5.79375 25.808 5.74832 25.8309 5.69776C25.8729 5.59825 25.8757 5.48649 25.8386 5.38503C25.8014 5.28357 25.7272 5.19997 25.6309 5.1511Z" fill="#020202"/>
<path fill-rule="evenodd" clip-rule="evenodd" d="M11.6044 14.4978C10.7147 14.4703 9.82421 14.497 8.93779 14.5778C8.61779 14.5778 5.6845 15.0178 5.05785 15.1378C4.41706 15.2227 3.82443 15.5238 3.37787 15.9911C3.16454 16.3511 3.12454 16.8444 3.8312 17.4311C3.89847 17.4902 3.9822 17.5275 4.07119 17.5377C3.62055 18.077 3.21476 18.6523 2.85788 19.2577C2.42974 20.0008 2.05115 20.7714 1.72456 21.5644C1.4979 22.111 1.28457 22.671 1.0979 23.2443C0.909411 23.8252 0.757997 24.4175 0.644576 25.0176C0.561657 25.457 0.525899 25.904 0.537911 26.351C0.546883 26.8021 0.614105 27.2503 0.737908 27.6843C0.840415 27.9951 0.965181 28.2981 1.11124 28.5909C1.25765 28.8854 1.42241 29.1704 1.60456 29.4442C2.27307 30.5322 3.32401 31.3311 4.55119 31.6842C6.26188 31.9512 7.99695 32.0273 9.72445 31.9109C11.681 32.0777 13.6504 32.0106 15.591 31.7109C16.5427 31.5318 17.4172 31.0666 18.0977 30.3776C18.4969 29.9372 18.7929 29.4134 18.9643 28.8442C19.1922 28.0699 19.2957 27.2644 19.271 26.4576C19.2993 24.9552 19.1426 23.4551 18.8043 21.991C18.5636 20.978 18.1437 20.0162 17.5643 19.1511C17.3419 18.8363 17.092 18.5418 16.8177 18.2711C16.5536 18.0089 16.2731 17.764 15.9777 17.5377C15.8447 17.4417 15.7067 17.3527 15.5644 17.2711L15.8044 17.0578C15.9242 16.9506 16.0195 16.819 16.0839 16.6717C16.1484 16.5245 16.1803 16.3651 16.1777 16.2044C16.167 16.0149 16.112 15.8305 16.017 15.6661C15.9221 15.5016 15.7899 15.3618 15.631 15.2578C14.5377 14.4045 13.4444 14.5645 11.6044 14.4978ZM14.8577 16.1511C14.8621 16.191 14.8621 16.2312 14.8577 16.2711C14.71 16.3986 14.5719 16.5368 14.4444 16.6844C14.3266 16.8219 14.2443 16.9862 14.2048 17.1628C14.1653 17.3395 14.1697 17.5232 14.2177 17.6977C14.2568 17.8372 14.3355 17.9623 14.4444 18.0577C14.6044 18.2177 15.0444 18.4711 15.1377 18.5511C15.3862 18.7545 15.6221 18.9726 15.8444 19.2044C16.0617 19.4174 16.2541 19.6544 16.4177 19.911C16.8941 20.6629 17.2327 21.4937 17.4177 22.3643C17.7061 23.7178 17.8315 25.101 17.791 26.4843C17.7994 27.0447 17.7412 27.6042 17.6177 28.1509C17.5296 28.6453 17.3083 29.1063 16.9777 29.4842C16.2742 30.0936 15.3872 30.4502 14.4577 30.4976C12.869 30.6216 11.2731 30.6216 9.68445 30.4976C8.06221 30.6669 6.42675 30.6669 4.80452 30.4976C3.86581 30.2248 3.0595 29.6177 2.53788 28.7909C2.37872 28.5634 2.23185 28.3275 2.09789 28.0843C1.96431 27.8525 1.85698 27.6065 1.77789 27.3509C1.65888 27.0072 1.59148 26.6478 1.5779 26.2843C1.53768 25.912 1.53768 25.5365 1.5779 25.1643C1.66907 24.6018 1.79373 24.0453 1.95122 23.4977C2.11122 22.9377 2.29789 22.391 2.49788 21.8577C2.78557 21.0958 3.1287 20.3561 3.52453 19.6444C3.89998 18.9342 4.34671 18.2641 4.85785 17.6444C5.20451 17.2444 4.64452 17.0578 4.28452 16.7644C4.12453 16.6178 4.03119 16.5244 4.01786 16.4178C4.00453 16.3111 4.13786 16.3378 4.21786 16.2844C4.52988 16.137 4.8626 16.038 5.20451 15.9911C6.2445 15.8178 7.31115 15.6711 8.3778 15.5911C9.42386 15.496 10.4753 15.4737 11.5244 15.5244C12.2644 15.5311 13.0033 15.5801 13.7377 15.6711C14.1473 15.7278 14.5341 15.8936 14.8577 16.1511Z" fill="#020202"/>
</svg>
