<svg width="64" height="64" viewBox="0 0 64 64" fill="none" xmlns="http://www.w3.org/2000/svg">
<g clip-path="url(#clip0_251_2025)">
<path fill-rule="evenodd" clip-rule="evenodd" d="M60.9067 31.467C59.5241 30.3201 57.7957 29.672 56 29.627C55.3117 29.6584 54.6345 29.8119 54 30.0803C53.1456 30.4881 52.3551 31.0181 51.6533 31.6536C51.4629 31.8015 51.3371 32.0174 51.3023 32.256C51.2675 32.4947 51.3264 32.7375 51.4667 32.9336C51.6193 33.1259 51.8398 33.2524 52.0828 33.2871C52.3259 33.3219 52.573 33.2622 52.7733 33.1203C53.2948 32.705 53.8476 32.3305 54.4267 32.0003C54.9561 31.7612 55.5263 31.6254 56.1067 31.6003C57.4373 31.6802 58.6995 32.2172 59.68 33.1203C60.1662 33.4885 60.5661 33.9585 60.8517 34.4975C61.1373 35.0364 61.3016 35.6312 61.3333 36.2403C61.2582 37.1793 60.9759 38.0901 60.5067 38.907C60.0001 39.7826 59.3716 40.5817 58.64 41.2803C56.4533 43.4136 53.0933 46.9603 49.92 50.427C46.7467 53.8936 43.7867 57.2003 42.2933 58.6936C40.0673 59.8917 37.6322 60.6521 35.12 60.9336C35.12 51.4136 35.6533 52.667 36.4533 51.6003C39.12 48.027 45.7867 40.2936 48.8267 36.7736L50.3733 34.9603C50.4439 34.8372 50.4893 34.7012 50.5067 34.5603C50.5333 34.3829 50.4995 34.2017 50.4108 34.0458C50.322 33.8899 50.1835 33.7684 50.0174 33.7007C49.8512 33.633 49.6672 33.6231 49.4948 33.6726C49.3224 33.7221 49.1716 33.8281 49.0667 33.9736L47.4667 35.707C44.2667 39.1203 37.2267 46.6136 34.3467 50.0803C33.6842 50.7906 33.1677 51.6242 32.8267 52.5336C32.8267 53.3336 32.08 58.9603 32.0267 61.2803C31.9662 61.9813 32.1346 62.6831 32.5067 63.2803C32.9277 63.6106 33.4139 63.8479 33.9333 63.9766C34.4527 64.1053 34.9935 64.1225 35.52 64.027C37.9877 63.6013 40.4209 62.9952 42.8 62.2136C43.7542 61.6226 44.6092 60.8846 45.3333 60.027C48.8533 56.2136 56.5333 47.1736 60.4 43.147C61.2826 42.2137 62.0198 41.153 62.5867 40.0003C63.1814 38.8417 63.518 37.5681 63.5733 36.267C63.5128 35.3191 63.2422 34.3967 62.7809 33.5664C62.3197 32.7362 61.6795 32.019 60.9067 31.467Z" fill="black"/>
<path fill-rule="evenodd" clip-rule="evenodd" d="M26.4 55.2804C22.1333 55.2804 17.04 55.2804 12.7467 55.0937C10.3664 55.0617 7.98967 54.9014 5.62667 54.6137C5.17334 54.6137 4.74667 54.2671 4.58667 54.3471C4.44289 53.9533 4.3619 53.5393 4.34667 53.1204V50.8537C4.18667 48.9071 4.00001 40.6671 3.68001 32.5071C3.17334 23.7871 2.66667 15.1204 2.66667 14.2671V13.3337C3.4499 12.7696 4.37154 12.4286 5.33334 12.3471C6.18667 12.3471 7.09334 12.3471 8.00001 12.1871C7.84208 12.6509 7.70856 13.1226 7.60001 13.6004C7.54073 13.9893 7.54073 14.3849 7.60001 14.7737C7.60001 15.5471 7.81334 16.5604 7.81334 16.5604C7.85526 16.9085 8.0162 17.2313 8.26891 17.4743C8.52162 17.7173 8.85056 17.8655 9.20001 17.8937C9.20001 17.8937 16.0267 17.8937 22.32 17.8937C25.8667 17.8937 29.2267 17.8937 31.12 17.6804C31.3283 17.703 31.5371 17.6431 31.7016 17.5135C31.8662 17.3838 31.9733 17.1948 32 16.9871C31.9932 16.8819 31.9658 16.7792 31.9192 16.6847C31.8726 16.5902 31.8078 16.5058 31.7285 16.4364C31.6492 16.3671 31.557 16.314 31.4571 16.2804C31.3573 16.2467 31.2518 16.2331 31.1467 16.2404C29.6533 16.2404 27.3067 16.2404 24.6667 16.0537C19.3867 15.8137 13.3333 15.3604 10.6667 15.1471V14.3471C10.7664 13.9136 10.8911 13.4862 11.04 13.0671C11.1567 12.7272 11.3182 12.4044 11.52 12.1071C11.9323 11.5307 12.495 11.0787 13.1467 10.8004C14.3685 10.2702 15.6484 9.88536 16.96 9.65372L17.7333 9.46706C18.1151 9.36553 18.4468 9.12856 18.6667 8.80039C18.8855 8.4412 18.9616 8.01299 18.88 7.60039L18.5333 5.81372C18.537 5.47559 18.6154 5.14246 18.763 4.83819C18.9105 4.53391 19.1235 4.26603 19.3867 4.05372C20.0822 3.47204 20.904 3.06109 21.7867 2.85372C22.2213 2.72167 22.6854 2.72167 23.12 2.85372C23.5926 2.9962 24.023 3.2526 24.3733 3.60039C24.8357 4.07915 25.1504 4.68089 25.28 5.33372C25.4308 6.12424 25.4845 6.93019 25.44 7.73372C25.4374 8.02611 25.5416 8.30939 25.7331 8.53035C25.9246 8.75131 26.1902 8.89475 26.48 8.93372C27.3818 9.01125 28.2745 9.17193 29.1467 9.41372C29.9895 9.66395 30.7962 10.0225 31.5467 10.4804C32.1034 10.8641 32.5088 11.4299 32.6933 12.0804C32.913 12.871 33.0295 13.6866 33.04 14.5071C33.0771 14.7242 33.1898 14.9212 33.3582 15.0632C33.5266 15.2053 33.7397 15.2832 33.96 15.2832C34.1803 15.2832 34.3935 15.2053 34.5618 15.0632C34.7302 14.9212 34.8429 14.7242 34.88 14.5071C34.9385 13.2946 34.7666 12.0821 34.3733 10.9337C34.0565 10.0541 33.48 9.29158 32.72 8.74706C31.8313 8.1361 30.862 7.65148 29.84 7.30706C29.1896 7.07313 28.5205 6.89471 27.84 6.77372C27.905 5.8777 27.8239 4.97708 27.6 4.10706C27.3133 3.32081 26.8788 2.59668 26.32 1.97372C25.6833 1.26529 24.8885 0.717102 24 0.373722C23.0816 -0.0412083 22.0598 -0.171251 21.0667 0.000389084C19.4327 0.334617 17.9369 1.1522 16.7733 2.34706C15.9032 3.29235 15.4181 4.52892 15.4133 5.81372V6.74706C14.11 7.02839 12.8405 7.44857 11.6267 8.00039C10.5583 8.55134 9.64233 9.35738 8.96001 10.3471C8.96001 10.3471 8.96001 10.4804 8.96001 10.5604C7.38647 10.4635 5.80756 10.4992 4.24001 10.6671C3.28131 10.8302 2.37062 11.2036 1.57334 11.7604C1.28862 11.9724 1.06731 12.2583 0.93334 12.5871C0.784699 13.0462 0.686344 13.5201 0.640007 14.0004C0.640007 14.8537 0.400007 23.7071 0.640007 32.6671C0.800007 40.8804 1.20001 49.1737 1.36001 51.1471C1.41979 52.3335 1.5894 53.5119 1.86667 54.6671C2.02868 55.372 2.36834 56.0238 2.85334 56.5604C3.29803 56.9202 3.83309 57.1508 4.40001 57.2271C5.67998 57.4227 6.97195 57.5297 8.26667 57.5471C13.0133 57.5471 20.6133 57.3604 26.56 57.2004C26.8075 57.2004 27.0449 57.1021 27.22 56.927C27.395 56.752 27.4933 56.5146 27.4933 56.2671C27.4933 56.0195 27.395 55.7821 27.22 55.6071C27.0449 55.4321 26.8075 55.3337 26.56 55.3337L26.4 55.2804Z" fill="black"/>
<path fill-rule="evenodd" clip-rule="evenodd" d="M37.3333 11.3605C37.8916 11.4925 38.4235 11.7179 38.9067 12.0271C39.2557 12.2671 39.5698 12.5543 39.84 12.8805L40 13.3338C40 14.6671 40 17.4138 40.24 20.6671C40.24 21.8405 40.3733 23.0938 40.48 24.3471C40.7467 27.3338 41.12 30.3738 41.2267 32.9071C41.2267 33.0157 41.2481 33.1232 41.2896 33.2235C41.3311 33.3238 41.392 33.4149 41.4688 33.4917C41.5456 33.5684 41.6367 33.6293 41.737 33.6709C41.8373 33.7124 41.9448 33.7338 42.0533 33.7338C42.1619 33.7338 42.2694 33.7124 42.3697 33.6709C42.47 33.6293 42.5611 33.5684 42.6379 33.4917C42.7146 33.4149 42.7755 33.3238 42.8171 33.2235C42.8586 33.1232 42.88 33.0157 42.88 32.9071C43.1467 30.2405 43.4133 27.2271 43.44 24.1871V20.4538C43.2277 17.9745 42.8806 15.5086 42.4 13.0671C42.334 12.5775 42.1708 12.1061 41.92 11.6805C41.378 11.075 40.7266 10.5774 40 10.2138C39.2931 9.85106 38.5241 9.62488 37.7333 9.54712C37.6141 9.52416 37.4914 9.52538 37.3727 9.55073C37.2539 9.57607 37.1414 9.62502 37.0419 9.69466C36.9425 9.7643 36.858 9.85322 36.7935 9.95614C36.729 10.0591 36.6859 10.1739 36.6667 10.2938C36.6182 10.5233 36.6606 10.7626 36.7849 10.9615C36.9093 11.1604 37.1058 11.3034 37.3333 11.3605Z" fill="black"/>
<path fill-rule="evenodd" clip-rule="evenodd" d="M33.36 41.1203C33.5712 41.0444 33.7638 40.9243 33.9248 40.7679C34.0858 40.6116 34.2114 40.4225 34.2933 40.2136C34.3974 39.997 34.4139 39.7485 34.3394 39.52C34.2649 39.2915 34.1051 39.1006 33.8933 38.9869C33.8933 38.5603 33.5467 37.9736 33.44 37.6269C33.417 37.4372 33.3565 37.2539 33.262 37.0878C33.1674 36.9217 33.0407 36.776 32.8893 36.6594C32.7379 36.5427 32.5648 36.4573 32.3801 36.4083C32.1953 36.3592 32.0027 36.3474 31.8133 36.3736C31.4598 36.4828 31.1329 36.6645 30.8533 36.9069C30.4267 37.2536 30 37.7603 29.7333 37.9736C28.9596 38.7459 28.0572 39.3776 27.0667 39.8403C26.7048 40.0253 26.2986 40.1059 25.8935 40.073C25.4884 40.04 25.1005 39.8948 24.7733 39.6536C24.7733 39.6536 24.7733 39.6536 24.7733 39.4403C24.7348 39.1303 24.7348 38.8168 24.7733 38.5069C25.1126 37.0217 25.5765 35.5676 26.16 34.1603C26.1565 33.8513 26.0572 33.551 25.8759 33.3008C25.6945 33.0506 25.44 32.8629 25.1475 32.7634C24.8549 32.6639 24.5387 32.6576 24.2425 32.7454C23.9462 32.8332 23.6845 33.0108 23.4933 33.2536C22.0114 35.8963 20.0803 38.2605 17.7867 40.2403C16.3467 41.3869 14.9067 42.1069 13.6267 41.2803C12.7733 40.7736 12.64 39.6003 12.6133 38.3736C12.6828 36.2068 13.0599 34.0609 13.7333 32.0003C13.8334 31.6972 13.9583 31.4028 14.1067 31.1203C14.2946 30.8243 14.4994 30.5394 14.72 30.2669C15.1102 29.7439 15.5885 29.2927 16.1333 28.9336C16.3479 28.7833 16.5938 28.6837 16.8524 28.6421C17.1111 28.6005 17.3758 28.6181 17.6267 28.6936C17.8284 28.773 18.0532 28.77 18.2528 28.6852C18.4523 28.6004 18.6105 28.4406 18.6933 28.2403C18.7319 28.1387 18.7501 28.0305 18.7469 27.922C18.7436 27.8134 18.719 27.7065 18.6744 27.6074C18.6298 27.5084 18.5662 27.4191 18.4871 27.3446C18.4079 27.2702 18.3149 27.2121 18.2133 27.1736C17.8331 27.0152 17.4253 26.9336 17.0133 26.9336C16.6014 26.9336 16.1936 27.0152 15.8133 27.1736C14.7783 27.5684 13.8607 28.2199 13.1467 29.0669C12.8 29.4669 12.56 29.7336 12.3467 30.0269C12.0945 30.4143 11.8801 30.8251 11.7067 31.2536C10.5534 33.9074 9.92837 36.7606 9.86667 39.6536C9.8783 40.4457 10.0662 41.2252 10.4168 41.9355C10.7674 42.6459 11.2717 43.2692 11.8933 43.7603C12.8032 44.3481 13.8634 44.6608 14.9467 44.6608C16.0299 44.6608 17.0901 44.3481 18 43.7603C19.5813 42.8272 20.9814 41.6167 22.1333 40.1869C22.2784 40.8623 22.68 41.455 23.2533 41.8403C23.8126 42.2111 24.448 42.4515 25.1127 42.5438C25.7773 42.6361 26.4542 42.578 27.0933 42.3736C28.6227 41.7908 30.0061 40.8806 31.1467 39.7069L31.44 39.3603C31.6279 39.8165 31.8416 40.2616 32.08 40.6936C32.2078 40.9053 32.4069 41.0645 32.6414 41.1427C32.876 41.2209 33.1308 41.2129 33.36 41.1203Z" fill="#A7289E"/>
</g>
<defs>
<clipPath id="clip0_251_2025">
<rect width="64" height="64" fill="white" transform="translate(0 0.000488281)"/>
</clipPath>
</defs>
</svg>
