<svg width="64" height="64" viewBox="0 0 64 64" fill="none" xmlns="http://www.w3.org/2000/svg">
<g clip-path="url(#clip0_2046_946)">
<path fill-rule="evenodd" clip-rule="evenodd" d="M61.5467 40.5599C60.9696 39.8437 60.2286 39.2768 59.3863 38.9072C58.5441 38.5375 57.6253 38.376 56.7074 38.4361C55.7896 38.4962 54.8997 38.7763 54.1129 39.2527C53.3261 39.7291 52.6654 40.3878 52.1867 41.1732C51.2365 42.4572 50.7057 44.0031 50.6667 45.5999C50.6712 46.4783 50.8927 47.342 51.3114 48.1143C51.7301 48.8865 52.333 49.5434 53.0667 50.0265C54.3896 50.9676 56.0155 51.3824 57.6275 51.1901C59.2395 50.9979 60.7222 50.2123 61.7867 48.9865C62.3498 48.4313 62.7926 47.766 63.0874 47.0321C63.3822 46.2983 63.5228 45.5115 63.5003 44.721C63.4777 43.9304 63.2927 43.153 62.9566 42.4371C62.6205 41.7212 62.1405 41.0822 61.5467 40.5599ZM59.84 47.0932C59.2061 47.7639 58.3476 48.1781 57.428 48.2568C56.5084 48.3354 55.592 48.0732 54.8534 47.5199C54.15 46.9407 53.6987 46.1113 53.5943 45.2062C53.4898 44.3011 53.7404 43.3907 54.2934 42.6665C57.3334 37.3332 63.68 43.3332 59.84 47.0932Z" fill="black"/>
<path fill-rule="evenodd" clip-rule="evenodd" d="M47.04 41.0932C46.8796 39.9226 46.6391 38.7643 46.32 37.6266C46.2537 37.4405 46.1208 37.2855 45.947 37.1915C45.7732 37.0975 45.5708 37.0712 45.3787 37.1176C45.1867 37.1639 45.0186 37.2797 44.9068 37.4426C44.795 37.6055 44.7475 37.804 44.7733 37.9999C44.9548 39.0853 45.0705 40.1806 45.12 41.2799V46.3466C45.088 47.6241 44.8724 48.8904 44.48 50.1066C44.2133 50.7466 43.7867 51.2266 42.9333 50.9599L42.1333 50.5866C41.2566 49.8754 40.5313 48.9959 40 47.9999C39.3418 46.73 38.4349 45.6055 37.3333 44.6932C36.748 44.2803 36.081 43.9977 35.3772 43.8643C34.6734 43.7309 33.9492 43.7498 33.2533 43.9199L31.12 44.6132C30.6933 44.7999 29.4133 45.5199 28.2133 46.2399C27.5579 46.6259 26.9337 47.0628 26.3467 47.5466C26.2539 47.6219 26.1768 47.7147 26.1199 47.8198C26.063 47.9249 26.0273 48.0401 26.0149 48.159C26.0025 48.2778 26.0137 48.398 26.0477 48.5125C26.0818 48.6271 26.138 48.7338 26.2133 48.8266C26.2886 48.9194 26.3815 48.9964 26.4865 49.0534C26.5916 49.1103 26.7069 49.146 26.8257 49.1583C26.9446 49.1707 27.0647 49.1596 27.1793 49.1255C27.2938 49.0915 27.4005 49.0352 27.4933 48.9599C28.0796 48.5904 28.6949 48.2694 29.3333 47.9999C30.2004 47.5292 31.0904 47.102 32 46.7199L33.6533 46.3466C34.0139 46.2903 34.3821 46.3085 34.7353 46.4003C35.0885 46.492 35.4191 46.6553 35.7067 46.8799C36.455 47.6509 37.052 48.5554 37.4667 49.5466C38.1158 50.8452 39.0232 51.9976 40.1333 52.9332C40.401 53.1444 40.6865 53.3317 40.9867 53.4932C41.2886 53.6321 41.6006 53.748 41.92 53.8399C42.7838 54.1854 43.7459 54.1935 44.6153 53.8625C45.4848 53.5315 46.198 52.8857 46.6133 52.0532C47.3817 50.2087 47.6662 48.1985 47.44 46.2132C47.4667 45.3332 47.36 43.3332 47.04 41.0932Z" fill="#020202"/>
<path fill-rule="evenodd" clip-rule="evenodd" d="M33.68 38.64C35.4806 38.8018 37.2748 38.2674 38.6933 37.1466C39.4396 36.5002 39.9917 35.6594 40.2883 34.7178C40.5849 33.7761 40.6144 32.7707 40.3733 31.8133C40.1196 30.3474 39.4322 28.9913 38.4 27.92C37.2 26.5866 35.6 25.5466 34.2133 24.2933C33.3339 23.4792 32.5306 22.5866 31.8133 21.6266C31.0677 20.7126 30.4239 19.7201 29.8933 18.6666C29.5335 17.7803 29.0869 16.9317 28.56 16.1333C28.1162 15.4971 27.5439 14.9612 26.88 14.56C25.6156 13.9101 24.181 13.6679 22.7733 13.8666C20.9303 14.1225 19.134 14.6434 17.44 15.4133C14.4635 16.8159 11.7559 18.7293 9.44 21.0666C6.00587 24.4607 3.0296 28.2886 0.586668 32.4533C0.484862 32.6355 0.45577 32.8495 0.505234 33.0523C0.554698 33.2551 0.679056 33.4317 0.853335 33.5466C1.03806 33.6565 1.25831 33.6901 1.46739 33.6403C1.67647 33.5905 1.85794 33.4613 1.97334 33.28C4.03996 30.0001 6.46363 26.9593 9.2 24.2133C11.8066 21.4392 14.9443 19.2174 18.4267 17.68C19.8917 17.0668 21.4357 16.6629 23.0133 16.48C23.8754 16.379 24.7479 16.5368 25.52 16.9333C25.9335 17.2151 26.2648 17.6016 26.48 18.0533C26.8049 18.6248 27.0814 19.2224 27.3067 19.84C27.8654 21.1105 28.5441 22.3249 29.3333 23.4666C30.1339 24.579 31.0259 25.6226 32 26.5866C33.3067 27.7866 34.8267 28.7733 35.9467 30.0266C36.5814 30.6895 37.0079 31.5239 37.1733 32.4266C37.2925 32.8494 37.2933 33.2967 37.1757 33.7199C37.0582 34.1431 36.8268 34.5259 36.5067 34.8266C35.688 35.4368 34.6681 35.7133 33.6533 35.6C32.3157 35.4036 31.0496 34.8715 29.9733 34.0533C28.0442 32.7247 26.2169 31.2539 24.5067 29.6533C23.7299 28.8775 22.8285 28.2375 21.84 27.76C21.3634 27.5547 20.8431 27.4716 20.3262 27.5182C19.8094 27.5648 19.3123 27.7395 18.88 28.0266C17.4865 29.0716 16.3621 30.4337 15.6 32C14.4386 34.1447 13.4833 36.3948 12.7467 38.72C11.7771 41.7448 11.081 44.8506 10.6667 48C10.1722 51.0811 9.86058 54.1887 9.73334 57.3066V60.8533C9.75475 61.677 9.84394 62.4975 10 63.3066C10.046 63.5435 10.1842 63.7525 10.3842 63.8875C10.5843 64.0226 10.8297 64.0726 11.0667 64.0266C11.3036 63.9807 11.5126 63.8424 11.6476 63.6424C11.7826 63.4424 11.8326 63.1969 11.7867 62.96C11.6651 62.2466 11.6116 61.5234 11.6267 60.8C11.6267 59.6533 11.6267 58.48 11.7867 57.3866C11.9805 54.3626 12.3545 51.3528 12.9067 48.3733C13.4365 45.4104 14.2308 42.501 15.28 39.68C15.9454 37.4854 16.8206 35.3601 17.8933 33.3333C18.5303 32.1531 19.4456 31.1462 20.56 30.4C20.8267 30.24 21.04 30.4 21.2533 30.4C21.7954 30.7615 22.2884 31.1918 22.72 31.68C24.5176 33.4213 26.443 35.0258 28.48 36.48C29.9944 37.6427 31.7875 38.3875 33.68 38.64Z" fill="#020202"/>
<path fill-rule="evenodd" clip-rule="evenodd" d="M36.1067 0.879989C34.0339 1.94453 32.3667 3.65853 31.36 5.75999C30.8777 6.97676 30.6638 8.2833 30.7328 9.59035C30.8018 10.8974 31.1522 12.1741 31.76 13.3333C32.945 15.6337 34.9257 17.425 37.3333 18.3733C38.0935 18.6777 38.8922 18.8751 39.7067 18.96C40.521 19.0667 41.3457 19.0667 42.16 18.96C43.6312 18.7094 45.0369 18.1653 46.2933 17.36C47.5887 16.55 48.6539 15.4205 49.3867 14.08C50.0304 12.81 50.3901 11.4152 50.4407 9.99229C50.4914 8.56939 50.2318 7.15251 49.68 5.83999C48.4528 3.46078 46.3757 1.63004 43.8613 0.711196C41.3468 -0.207644 38.5788 -0.147393 36.1067 0.879989ZM46.9067 12.7467C46.3536 13.6367 45.5826 14.371 44.6667 14.88C43.7241 15.4431 42.6836 15.8231 41.6 16C41.0693 16.0748 40.5307 16.0748 40 16C39.4413 15.9459 38.8934 15.8112 38.3733 15.6C36.6701 14.8962 35.2716 13.6112 34.4267 11.9733C33.9484 11.1805 33.6419 10.2962 33.5271 9.37744C33.4123 8.45871 33.4916 7.52611 33.76 6.63999C34.3991 4.98213 35.5718 3.58419 37.0933 2.66666C39.0133 1.51999 45.5733 1.25332 47.4933 6.61332C47.8481 7.61669 47.9794 8.68544 47.8781 9.74485C47.7768 10.8043 47.4452 11.8287 46.9067 12.7467Z" fill="#020202"/>
<path fill-rule="evenodd" clip-rule="evenodd" d="M60.08 58.1333L45.04 58.2666H35.76C32.64 58.2666 29.5733 58.6666 26.48 58.6666H18.48C18.3749 58.6594 18.2694 58.673 18.1695 58.7066C18.0697 58.7403 17.9775 58.7933 17.8982 58.8627C17.8189 58.9321 17.7541 59.0164 17.7075 59.1109C17.6609 59.2054 17.6334 59.3082 17.6266 59.4133C17.6194 59.5184 17.633 59.6239 17.6666 59.7238C17.7003 59.8236 17.7533 59.9158 17.8227 59.9951C17.8921 60.0744 17.9764 60.1392 18.0709 60.1858C18.1654 60.2324 18.2682 60.2599 18.3733 60.2666C23.7066 60.9066 29.04 61.44 34.3733 61.5733C37.9466 61.5733 41.5466 61.5733 45.04 61.3866L60.08 60.1333C60.3204 60.1333 60.5511 60.0378 60.7211 59.8677C60.8911 59.6977 60.9866 59.4671 60.9866 59.2266C60.9866 58.9862 60.8911 58.7556 60.7211 58.5855C60.5511 58.4155 60.3204 58.32 60.08 58.32V58.1333Z" fill="#02B6A9"/>
</g>
<defs>
<clipPath id="clip0_2046_946">
<rect width="64" height="64" fill="white"/>
</clipPath>
</defs>
</svg>
