<svg width="48" height="48" viewBox="0 0 48 48" fill="none" xmlns="http://www.w3.org/2000/svg">
<g clip-path="url(#clip0_753_700)">
<path d="M22.98 22.6801C22.2 22.0201 22.2 21.5401 20.02 21.5601C19.2092 21.68 18.4526 22.039 17.8469 22.5912C17.2413 23.1434 16.8141 23.8637 16.62 24.6601C16.4392 25.2587 16.4436 25.8981 16.6328 26.4942C16.822 27.0903 17.187 27.6152 17.68 28.0001C18.3697 28.3902 19.1572 28.5732 19.9483 28.5271C20.7393 28.4809 21.5003 28.2077 22.14 27.7401C22.8207 27.3529 23.3509 26.7474 23.6449 26.0215C23.9389 25.2956 23.9794 24.4918 23.76 23.7401C23.5907 23.3282 23.3228 22.9642 22.98 22.6801ZM20.98 26.1001C20.6754 26.3273 20.3123 26.463 19.9333 26.4914C19.5543 26.5197 19.175 26.4395 18.84 26.2601C18.34 25.9401 18.42 25.2601 18.62 24.6601C18.82 24.0601 19.36 23.1001 20.04 22.9801C20.357 22.9417 20.6785 22.9798 20.9777 23.0911C21.277 23.2025 21.5452 23.3838 21.76 23.6201C21.9591 23.7928 22.099 24.0236 22.16 24.2801C22.44 25.0601 21.78 25.7001 21.06 26.1001H20.98Z" fill="#A7289E"/>
<path d="M11.14 33.16C10.36 32.5 10.36 32.02 8.16 32.04C7.35282 32.1636 6.60058 32.5243 5.99877 33.0762C5.39697 33.6282 4.97276 34.3465 4.78 35.14C4.58126 35.7497 4.57649 36.406 4.76633 37.0185C4.95617 37.6311 5.33129 38.1696 5.84 38.56C6.52969 38.9502 7.31726 39.1332 8.1083 39.087C8.89935 39.0409 9.66032 38.7677 10.3 38.3C10.9807 37.9128 11.5109 37.3073 11.8049 36.5815C12.0989 35.8556 12.1394 35.0518 11.92 34.3C11.7624 33.8592 11.4938 33.4666 11.14 33.16ZM9.14 36.58C8.83536 36.8073 8.47228 36.943 8.09328 36.9714C7.71428 36.9997 7.33505 36.9195 7 36.74C6.5 36.42 6.58 35.74 6.78 35.14C6.98 34.54 7.5 33.58 8.2 33.46C8.51377 33.425 8.83138 33.4647 9.12685 33.5759C9.42233 33.6871 9.68727 33.8667 9.9 34.1C10.1044 34.2717 10.2511 34.5021 10.32 34.76C10.6 35.54 10 36.18 9.22 36.58H9.14Z" fill="#A7289E"/>
<path d="M33.54 22.42C32.72 21.72 32.72 21.28 30.56 21.28C29.7502 21.405 28.9961 21.7687 28.394 22.3244C27.792 22.8802 27.3693 23.6028 27.18 24.4C26.9828 25.0067 26.9789 25.6597 27.1688 26.2688C27.3586 26.8778 27.733 27.4129 28.24 27.8C28.9249 28.2053 29.7152 28.397 30.5097 28.3507C31.3042 28.3044 32.0668 28.0221 32.7 27.54C33.3807 27.1528 33.9109 26.5473 34.2049 25.8215C34.4989 25.0956 34.5394 24.2918 34.32 23.54C34.1627 23.1048 33.8937 22.7185 33.54 22.42ZM31.54 25.84C31.2354 26.0673 30.8723 26.203 30.4933 26.2314C30.1143 26.2597 29.735 26.1794 29.4 26C28.9 25.68 28.98 24.98 29.18 24.38C29.38 23.78 29.9 22.82 30.6 22.72C31.0583 22.6448 31.5285 22.7313 31.9299 22.9649C32.3313 23.1985 32.6389 23.5644 32.8 24C33 24.8 32.34 25.42 31.62 25.84H31.54Z" fill="#A7289E"/>
<path d="M21.7 32.9C20.92 32.24 20.92 31.76 18.72 31.76C17.904 31.869 17.1416 32.2272 16.5367 32.7856C15.9317 33.3439 15.5139 34.0754 15.34 34.88C15.1398 35.4865 15.1343 36.1404 15.3244 36.7501C15.5145 37.3598 15.8906 37.8948 16.4 38.28C17.0869 38.6825 17.8782 38.8708 18.6727 38.8209C19.4673 38.771 20.2288 38.4852 20.86 38C21.5407 37.6128 22.0709 37.0073 22.3649 36.2815C22.6589 35.5556 22.6994 34.7518 22.48 34C22.3196 33.572 22.0508 33.193 21.7 32.9ZM19.7 36.32C19.3954 36.5473 19.0323 36.683 18.6533 36.7113C18.2743 36.7397 17.895 36.6594 17.56 36.48C17.04 36.16 17.14 35.46 17.34 34.86C17.54 34.26 18.06 33.3 18.76 33.2C19.0721 33.1625 19.3888 33.199 19.6841 33.3068C19.9795 33.4145 20.2453 33.5903 20.46 33.82C20.6644 33.9917 20.8111 34.2221 20.88 34.48C21.14 35.28 20.5 36 19.78 36.32H19.7Z" fill="#A7289E"/>
<path d="M42.6 22.62C41.82 21.94 41.8 21.48 39.62 21.48C38.804 21.589 38.0416 21.9472 37.4367 22.5055C36.8318 23.0639 36.4139 23.7953 36.24 24.6C36.0398 25.2064 36.0343 25.8604 36.2244 26.4701C36.4145 27.0798 36.7906 27.6148 37.3 28C37.9849 28.4052 38.7752 28.597 39.5697 28.5507C40.3642 28.5043 41.1268 28.2221 41.76 27.74C42.4407 27.3528 42.9709 26.7473 43.2649 26.0214C43.5589 25.2956 43.5994 24.4917 43.38 23.74C43.2227 23.3047 42.9537 22.9185 42.6 22.62ZM40.6 26.04C40.2954 26.2672 39.9323 26.403 39.5533 26.4313C39.1743 26.4596 38.795 26.3794 38.46 26.2C37.94 25.88 38.04 25.18 38.24 24.58C38.44 23.98 38.96 23.02 39.66 22.92C40.1058 22.8642 40.5574 22.9602 40.9419 23.1924C41.3265 23.4246 41.6217 23.7795 41.78 24.2C42 25 41.4 25.62 40.68 26L40.6 26.04Z" fill="#A7289E"/>
<path d="M29.1 32.0001C28.2928 32.1237 27.5406 32.4843 26.9388 33.0363C26.337 33.5882 25.9128 34.3066 25.72 35.1001C25.5213 35.7098 25.5165 36.3661 25.7063 36.9786C25.8962 37.5911 26.2713 38.1297 26.78 38.5201C27.4712 38.9054 28.2579 39.0856 29.0479 39.0396C29.8378 38.9935 30.5983 38.7231 31.24 38.2601C31.9207 37.8729 32.4509 37.2674 32.7449 36.5415C33.0389 35.8157 33.0794 35.0118 32.86 34.2601C32.5487 33.5373 32.0183 32.9303 31.3438 32.5249C30.6692 32.1194 29.8844 31.9359 29.1 32.0001ZM30.16 36.5401C29.8554 36.7673 29.4923 36.9031 29.1133 36.9314C28.7343 36.9597 28.3551 36.8795 28.02 36.7001C27.52 36.3801 27.6 35.7001 27.8 35.0801C28 34.4601 28.54 33.5401 29.22 33.4201C29.5322 33.3825 29.8488 33.4191 30.1441 33.5268C30.4395 33.6346 30.7053 33.8104 30.92 34.0401C31.1207 34.215 31.2666 34.4442 31.34 34.7001C31.54 35.4401 30.88 36.0001 30.16 36.4801V36.5401Z" fill="#A7289E"/>
<path d="M31.52 7.74004C31.2941 9.25643 31.4593 10.8054 32 12.24C32.3615 12.9434 32.9677 13.4903 33.7045 13.7777C34.4413 14.065 35.2578 14.073 36 13.8C36.5049 13.6777 36.971 13.4305 37.3554 13.081C37.7398 12.7315 38.0303 12.291 38.2 11.8C38.5271 10.6777 38.649 9.50563 38.56 8.34004V7.66004V5.42004C38.5899 4.97721 38.5231 4.53318 38.3642 4.11876C38.2053 3.70433 37.9582 3.32942 37.64 3.02004C36.5738 2.29674 35.2734 2.00378 34 2.20004C33.9143 2.19736 33.8289 2.21193 33.7489 2.24289C33.669 2.27385 33.596 2.32057 33.5345 2.38027C33.4729 2.43997 33.424 2.51143 33.3906 2.59041C33.3571 2.66939 33.34 2.75428 33.34 2.84004C33.2909 2.71671 33.1996 2.61482 33.0824 2.55255C32.9652 2.49028 32.8297 2.47167 32.7 2.50004C32.5692 2.53664 32.4496 2.60515 32.3519 2.6994C32.2541 2.79365 32.1813 2.9107 32.14 3.04004C32.0208 3.74004 31.9739 4.45044 32 5.16004L31.72 6.38004C31.6158 6.82704 31.5489 7.28194 31.52 7.74004ZM33.18 6.92004C33.18 6.92004 33.5 3.20004 33.5 3.06004C33.5504 3.17772 33.634 3.2782 33.7405 3.34922C33.8471 3.42024 33.972 3.45875 34.1 3.46004C35.9 3.46004 36.66 3.80004 36.86 4.50004C36.9249 5.77254 36.8377 7.04824 36.6 8.30004C36.6054 9.07433 36.5182 9.84649 36.34 10.6C36.2 11.08 36.02 11.56 35.52 11.68C35.3249 11.7684 35.1124 11.8122 34.8983 11.8081C34.6841 11.804 34.4735 11.7521 34.2819 11.6563C34.0903 11.5605 33.9224 11.4231 33.7906 11.2542C33.6588 11.0854 33.5664 10.8892 33.52 10.68C33.2021 9.45368 33.0872 8.18353 33.18 6.92004Z" fill="#A7289E"/>
<path d="M17.1 7.12004C17.1 7.32004 17.24 7.52004 18.02 7.60004C19.14 7.60004 19.62 7.96004 21.16 8.04004H23.68H26.18C27.56 8.04004 28.4 7.92004 29.8 7.82004C30.46 7.82004 30.98 6.54004 30.1 6.32004C28.58 6.26004 27.54 6.00004 26 6.00004H22C20.7633 5.99595 19.5275 6.06943 18.3 6.22004C17.46 6.28004 17.08 6.82004 17.1 7.12004Z" fill="#020202"/>
<path d="M46 8.13998C45.3251 7.40575 44.4366 6.90204 43.46 6.69998C42.5344 6.45518 41.5756 6.36064 40.62 6.41998C39.2 6.61998 39.58 7.59998 40.32 7.59998C40.9901 7.59327 41.6595 7.64681 42.32 7.75998C43.3176 7.83122 44.2524 8.27362 44.94 8.99998C45.4061 9.93476 45.6717 10.9566 45.72 12C45.92 13.56 46.08 15.58 46.18 17.8C43.24 17.8 37.34 17.56 30.72 17.44H23.94H17.16C10 17.5 3.78 17.74 1.82 17.82C1.80731 14.8025 2.11571 11.7922 2.74 8.83998C2.93674 8.4788 3.22521 8.17585 3.57633 7.96167C3.92745 7.74749 4.32882 7.62963 4.74 7.61998C5.57065 7.41786 6.42619 7.33702 7.28 7.37998C7.39305 7.36053 7.49697 7.30558 7.5767 7.22309C7.65642 7.14061 7.70781 7.03488 7.7234 6.92123C7.739 6.80758 7.718 6.69192 7.66345 6.59101C7.6089 6.4901 7.52363 6.40918 7.42 6.35998C6.18104 6.09159 4.89897 6.09159 3.66 6.35998C3.16924 6.47805 2.71211 6.70713 2.32378 7.02959C1.93544 7.35204 1.62626 7.75929 1.42 8.21998C0.64 10.06 -0.16 20.22 0.0200002 29.22C0.16 35.76 0.94 41.62 2.38 43.38C3.44 44.66 6.2 45.38 9.68 45.66C15.1 46.02 22.3 45.42 26.02 45.42C30.6917 45.5679 35.3681 45.4143 40.02 44.96C42.1171 44.7778 44.1568 44.1795 46.02 43.2C46.5627 42.7399 46.9242 42.1019 47.04 41.4C47.7521 37.2929 48.0736 33.1277 48 28.96C48 20 47.26 9.61998 46 8.13998ZM45.5 39.06C45.3885 39.9377 45.1668 40.7978 44.84 41.62C42.6019 42.5568 40.2059 43.0591 37.78 43.1C33.1 43.48 27.94 43.3 26.02 43.3C22.34 43.3 15.2 43.92 9.82 43.6C7.06 43.44 4.78 43.16 3.94 42.16C2.58 40.58 2 35.2 1.82 29.26C1.68 25.84 1.68 22.22 1.78 19C3.78 19 9.88 19.32 17.16 19.46H23.94H30.72C37.38 19.34 43.3 19.16 46.22 19.08C46.22 21.08 46.32 23.34 46.22 25.54C46.2601 30.0572 46.0196 34.5726 45.5 39.06Z" fill="#020202"/>
<path d="M8.95999 7.68005C8.80606 9.28153 8.96225 10.8977 9.41999 12.44C9.78146 13.1434 10.3877 13.6904 11.1245 13.9777C11.8613 14.265 12.6777 14.273 13.42 14C13.9293 13.8825 14.4004 13.6372 14.7888 13.2873C15.1772 12.9374 15.4701 12.4944 15.64 12C15.9802 10.8666 16.1023 9.67898 16 8.50005V6.38005V5.58005C16.0272 5.13748 15.9592 4.69423 15.8004 4.28021C15.6417 3.86618 15.3961 3.49102 15.08 3.18005C14.0174 2.4479 12.716 2.14757 11.44 2.34005C11.2649 2.34005 11.0971 2.40958 10.9733 2.53336C10.8495 2.65713 10.78 2.82501 10.78 3.00005C10.7309 2.87672 10.6396 2.77484 10.5224 2.71256C10.4052 2.65029 10.2697 2.63168 10.14 2.66005C10.0092 2.69666 9.88962 2.76516 9.79188 2.85941C9.69414 2.95366 9.62133 3.07071 9.57999 3.20005C9.42984 3.85692 9.34277 4.52662 9.31999 5.20005L9.09999 6.26005V6.78005L8.95999 7.68005ZM10.6 7.10005C10.6 7.10005 10.92 3.40005 10.92 3.24005C10.965 3.36304 11.0467 3.46925 11.154 3.54436C11.2613 3.61946 11.389 3.65984 11.52 3.66005C13.32 3.66005 14.08 4.00005 14.28 4.70005C14.3384 5.97335 14.2444 7.24906 14 8.50005C14.0018 9.27415 13.9145 10.0459 13.74 10.8C13.62 11.26 13.44 11.74 12.94 11.86C12.7448 11.9484 12.5324 11.9922 12.3182 11.9881C12.1041 11.984 11.8935 11.9321 11.7019 11.8363C11.5102 11.7405 11.3424 11.6031 11.2106 11.4343C11.0788 11.2654 10.9864 11.0692 10.94 10.86C10.6185 9.63432 10.5036 8.36357 10.6 7.10005Z" fill="#A7289E"/>
</g>
<defs>
<clipPath id="clip0_753_700">
<rect width="48" height="48" fill="white"/>
</clipPath>
</defs>
</svg>
