<svg width="48" height="48" viewBox="0 0 48 48" fill="none" xmlns="http://www.w3.org/2000/svg">
<g clip-path="url(#clip0_753_761)">
<path d="M2.78 19.7C3.80849 20.3887 4.88452 21.0036 6 21.54C7.66 22.36 9.38 23.06 11.06 23.72L19.5 26.98C20.5792 27.4235 21.6807 27.8107 22.8 28.14C23.3736 28.2911 23.9685 28.3452 24.56 28.3C25.6385 28.2122 26.7008 27.9836 27.72 27.62C29.16 27.14 30.56 26.48 31.92 25.92L37.68 23.3C39 22.68 40.34 22.1 41.68 21.46C42.5867 21.0334 43.4667 20.5934 44.32 20.14C45.0126 19.8226 45.681 19.4549 46.32 19.04C46.6556 18.7972 46.9409 18.4916 47.16 18.14C47.2288 18 47.2646 17.8461 47.2646 17.69C47.2646 17.534 47.2288 17.3801 47.16 17.24C46.9188 16.8017 46.6376 16.3866 46.32 16C45.8988 15.5081 45.4299 15.0593 44.92 14.66C44.1856 14.1182 43.4174 13.6239 42.62 13.18C39.36 11.28 36 9.42004 32.72 7.38004C30.561 6.05764 28.4777 4.61538 26.48 3.06004C26.3474 2.95395 26.1781 2.90489 26.0093 2.92364C25.8405 2.94239 25.6861 3.02743 25.58 3.16004C25.4739 3.29264 25.4249 3.46196 25.4436 3.63075C25.4624 3.79953 25.5474 3.95395 25.68 4.06004C27.7056 5.6707 29.8153 7.17281 32 8.56004C35.22 10.68 38.58 12.56 41.8 14.56C42.5315 14.9777 43.2332 15.4454 43.9 15.96C44.3009 16.2908 44.6692 16.6592 45 17.06L45.28 17.48L45 17.68C44.48 18 43.88 18.26 43.5 18.46C42.64 18.9 41.78 19.3 40.92 19.7C39.6 20.3 38.26 20.86 36.92 21.44L31.18 24C29.84 24.54 28.48 25.18 27.18 25.64C26.3192 25.9334 25.426 26.1215 24.52 26.2C24.0039 26.2256 23.4877 26.1509 23 25.98C22.08 25.72 21.18 25.28 20.34 24.98L11.94 21.8C10.28 21.18 8.6 20.54 6.98 19.8C5.88389 19.3112 4.82154 18.75 3.8 18.12C3.31858 17.8206 2.86951 17.4721 2.46 17.08C2.29576 16.9309 2.14206 16.7705 2 16.6L12.8 9.44004C14.8 8.24004 16.8 7.04004 18.8 5.88004C20.16 5.12004 21.52 4.38004 22.9 3.66004C23.0237 3.58873 23.1155 3.47287 23.1566 3.33614C23.1977 3.19941 23.1851 3.05213 23.1212 2.92443C23.0574 2.79672 22.9471 2.69823 22.8131 2.64909C22.679 2.59994 22.5313 2.60386 22.4 2.66004C21 3.36004 19.6 4.08004 18.22 4.82004C16.18 6.00004 14.14 7.08004 12.1 8.24004L8.4 10.38C6.58 11.48 4.76 12.6 2.96 13.74C2.11316 14.1533 1.29765 14.6279 0.52 15.16C0.36839 15.2677 0.242935 15.4081 0.152923 15.5708C0.0629116 15.7335 0.0106475 15.9144 0 16.1C0.059402 16.8095 0.355193 17.4786 0.84 18C1.40286 18.6558 2.05606 19.2281 2.78 19.7Z" fill="#020202"/>
<path d="M3.37999 28C4.41082 28.7328 5.48623 29.4007 6.59999 30C8.25999 30.84 9.95999 31.56 11.62 32.24L20 35.5C21.073 35.9651 22.1754 36.3593 23.3 36.68C23.8755 36.8199 24.4686 36.8738 25.06 36.84C26.1382 36.7502 27.2003 36.5216 28.22 36.16C29.66 35.68 31.04 35 32.42 34.42L38.14 31.74C39.46 31.12 40.78 30.52 42.14 29.88C43.02 29.46 43.9 29.02 44.76 28.54C45.4183 28.2225 46.0474 27.8477 46.64 27.42C46.9565 27.1921 47.2278 26.9073 47.44 26.58C47.4937 26.4641 47.5216 26.3378 47.5216 26.21C47.5216 26.0822 47.4937 25.9559 47.44 25.84C47.2139 25.4144 46.9459 25.0124 46.64 24.64C46.2988 24.2488 45.9312 23.8812 45.54 23.54C44.64 22.78 43.76 22.18 43.76 22.18C43.6215 22.0865 43.4519 22.0509 43.2874 22.0808C43.123 22.1107 42.9767 22.2037 42.88 22.34C42.8311 22.4077 42.7963 22.4846 42.7778 22.5661C42.7594 22.6475 42.7575 22.7319 42.7725 22.8141C42.7874 22.8963 42.8188 22.9746 42.8648 23.0444C42.9108 23.1141 42.9704 23.1739 43.04 23.22C43.04 23.22 43.68 23.68 44.38 24.3C44.9138 24.8867 45.4082 25.5081 45.86 26.16L45.5 26.4C44.98 26.72 44.36 26.98 43.98 27.18C43.1267 27.6067 42.2667 28.0067 41.4 28.38C40.06 28.98 38.72 29.52 37.4 30.1L31.64 32.54C30.3 33.08 28.94 33.7 27.54 34.14C26.6903 34.4519 25.8022 34.647 24.9 34.72C24.3844 34.7355 23.87 34.6611 23.38 34.5C22.46 34.22 21.56 33.8 20.72 33.52L12.28 30.42C10.62 29.84 8.93999 29.22 7.27999 28.42C6.20994 27.94 5.16824 27.3991 4.15999 26.8C3.5545 26.4378 2.99681 26.001 2.49999 25.5C2.29222 25.2913 2.12296 25.0476 1.99999 24.78C2.70297 24.302 3.43065 23.8614 4.17999 23.46C4.30117 23.375 4.38524 23.2468 4.41499 23.1018C4.44473 22.9568 4.4179 22.8059 4.33999 22.68C4.30145 22.6186 4.25095 22.5656 4.1915 22.5242C4.13204 22.4828 4.06486 22.4537 3.99394 22.4388C3.92302 22.4238 3.84982 22.4233 3.77871 22.4373C3.70759 22.4512 3.64001 22.4794 3.57999 22.52C2.7404 22.9574 1.93183 23.4519 1.15999 24C1.03809 24.0814 0.937932 24.1914 0.86822 24.3204C0.798508 24.4494 0.761356 24.5934 0.759995 24.74C0.803305 25.3966 1.07173 26.0182 1.51999 26.5C2.07781 27.0725 2.70227 27.5761 3.37999 28Z" fill="#A7289E"/>
<path d="M48 34.36C47.769 33.9374 47.5013 33.5358 47.2 33.16C46.7853 32.681 46.3229 32.2454 45.82 31.86C45.0836 31.3272 44.3155 30.8396 43.52 30.4C43.4494 30.357 43.3708 30.3285 43.289 30.3162C43.2072 30.304 43.1238 30.3082 43.0436 30.3288C42.9635 30.3493 42.8883 30.3856 42.8224 30.4356C42.7565 30.4856 42.7013 30.5483 42.66 30.62C42.6165 30.6922 42.5876 30.7723 42.5751 30.8556C42.5626 30.939 42.5667 31.024 42.5872 31.1057C42.6076 31.1875 42.644 31.2644 42.6943 31.3321C42.7445 31.3997 42.8076 31.4568 42.88 31.5C43.6118 31.9246 44.3134 32.399 44.98 32.92C45.5023 33.4654 45.9773 34.0542 46.4 34.68L46.06 34.92C45.54 35.24 44.92 35.5 44.54 35.7L41.94 36.92L37.94 38.62L32.2 41.08C30.86 41.6 29.5 42.22 28.1 42.68C27.2446 42.9722 26.359 43.1667 25.46 43.26C24.945 43.2654 24.4323 43.1912 23.94 43.04C23.02 42.76 22.1 42.34 21.28 42.04L12.76 38.96C11.1 38.36 9.42 37.74 7.76 36.96C6.68995 36.48 5.64824 35.9391 4.64 35.34C4.0306 34.9762 3.47803 34.5247 3 34C2.78702 33.7843 2.62327 33.525 2.52 33.24C3.22 32.6 5.2 31.24 5.34 31.24C5.462 31.1605 5.54739 31.0357 5.5774 30.8932C5.6074 30.7506 5.57956 30.602 5.5 30.48C5.4606 30.4196 5.40969 30.3676 5.35018 30.3268C5.29066 30.2861 5.22371 30.2575 5.15313 30.2426C5.01061 30.2126 4.862 30.2405 4.74 30.32C3.68551 30.9324 2.66408 31.6 1.68 32.32C1.42317 32.5063 1.25058 32.7868 1.2 33.1C1.26109 33.762 1.53472 34.3864 1.98 34.88C2.52521 35.5136 3.1583 36.0658 3.86 36.52C4.88886 37.2199 5.96474 37.8481 7.08 38.4C8.72 39.22 10.42 39.94 12.1 40.64L20.5 44C21.573 44.4651 22.6754 44.8593 23.8 45.18C24.3751 45.3223 24.9686 45.3763 25.56 45.34C26.6367 45.2405 27.6976 45.0122 28.72 44.66C30.14 44.18 31.54 43.5 32.92 42.92L38.64 40.24C39.96 39.62 41.28 39.02 42.64 38.38C43.52 37.96 44.4 37.52 45.26 37.04C45.9185 36.7186 46.5534 36.351 47.16 35.94C47.4715 35.7047 47.7361 35.413 47.94 35.08C48.0016 34.9715 48.0389 34.851 48.0493 34.7266C48.0596 34.6023 48.0428 34.4772 48 34.36Z" fill="#A7289E"/>
</g>
<defs>
<clipPath id="clip0_753_761">
<rect width="48" height="48" fill="white"/>
</clipPath>
</defs>
</svg>
