<svg width="64" height="64" viewBox="0 0 64 64" fill="none" xmlns="http://www.w3.org/2000/svg">
<g clip-path="url(#clip0_2050_1272)">
<path fill-rule="evenodd" clip-rule="evenodd" d="M19.2533 38.1598C19.9703 38.2528 20.6963 38.2528 21.4133 38.1598C22.1124 38.0572 22.8 37.8875 23.4667 37.6532C24.9603 37.084 26.3904 36.36 27.7333 35.4932C27.9345 35.39 28.0883 35.2134 28.1628 34.9999C28.2373 34.7864 28.2267 34.5524 28.1333 34.3465C28.0255 34.1498 27.8486 34 27.6369 33.9261C27.4251 33.8523 27.1934 33.8595 26.9867 33.9465C25.5705 34.4436 24.117 34.827 22.64 35.0932C21.7588 35.2738 20.8687 35.4074 19.9733 35.4932H18.64C20.1962 33.4544 21.1313 31.01 21.3333 28.4532C21.8667 23.1198 19.2267 17.7865 13.04 17.2531C11.0517 17.2414 9.08912 17.7018 7.31354 18.5966C5.53796 19.4913 4.00017 20.7948 2.82665 22.3998C1.51588 23.938 0.733328 25.8562 0.594119 27.8724C0.45491 29.8885 0.96639 31.8961 2.05332 33.5998C2.74237 34.6253 3.65388 35.4821 4.71999 36.1065L5.73332 36.6398C3.68779 38.7312 2.13849 41.2557 1.19999 44.0265C0.499349 46.1748 0.0956132 48.4088 -1.17123e-05 50.6665C-0.119097 53.9597 0.0953283 57.2565 0.639988 60.5065C0.646395 60.6271 0.677543 60.745 0.731494 60.853C0.785446 60.961 0.861048 61.0568 0.953595 61.1343C1.04614 61.2119 1.15366 61.2695 1.26945 61.3037C1.38524 61.3379 1.50683 61.348 1.62665 61.3332C1.84354 61.3064 2.04188 61.1974 2.1808 61.0287C2.31972 60.86 2.38863 60.6445 2.37332 60.4265C2.20871 57.2416 2.30682 54.0486 2.66666 50.8798C2.89928 48.85 3.30067 46.843 3.86666 44.8798C4.61274 42.1419 5.89035 39.5777 7.62666 37.3332C8.34665 37.5198 9.06666 37.7065 9.78666 37.8398C9.98115 37.8787 10.1831 37.8388 10.3482 37.7287C10.5132 37.6187 10.6278 37.4476 10.6667 37.2532C10.7056 37.0587 10.6656 36.8567 10.5556 36.6916C10.4456 36.5266 10.2745 36.4121 10.08 36.3732C4.74666 35.1465 3.78665 32.6665 3.75999 32.5865C3.00193 31.2223 2.70407 29.6501 2.91064 28.1032C3.11722 26.5563 3.8172 25.1173 4.90666 23.9998C5.83803 22.7597 7.04651 21.7545 8.43555 21.0646C9.8246 20.3747 11.3557 20.0192 12.9067 20.0265C17.4667 20.2932 19.28 24.2665 19.04 28.2132C19.067 30.2772 18.4089 32.2919 17.1689 33.9421C15.9288 35.5923 14.1767 36.7848 12.1867 37.3332C11.9674 37.3724 11.7713 37.4932 11.6376 37.6714C11.504 37.8495 11.4429 38.0717 11.4667 38.2931C11.5059 38.5105 11.6278 38.7041 11.8068 38.8334C11.9858 38.9627 12.208 39.0176 12.4267 38.9865C13.8694 38.7793 15.2362 38.2106 16.4 37.3332C17.3033 37.7527 18.2656 38.0315 19.2533 38.1598Z" fill="black"/>
<path fill-rule="evenodd" clip-rule="evenodd" d="M28.1867 39.2C27.0981 40.2301 25.8894 41.1255 24.5867 41.8666C23.2975 42.5798 21.9395 43.1605 20.5333 43.6C19.4513 43.8663 18.3833 44.1867 17.3333 44.56C16.5896 44.8338 15.9601 45.3505 15.5467 46.0266C14.9461 47.4958 14.6906 49.0832 14.8 50.6666C14.8 54 15.8933 58.1066 16.0533 60.2133C16.0567 60.3242 16.0823 60.4333 16.1287 60.5342C16.1752 60.635 16.2414 60.7254 16.3235 60.8C16.4057 60.8747 16.502 60.9321 16.6067 60.9687C16.7115 61.0053 16.8226 61.0205 16.9333 61.0133C17.0419 61.0098 17.1487 60.985 17.2477 60.9403C17.3467 60.8955 17.4359 60.8317 17.5102 60.7524C17.5845 60.6732 17.6424 60.5801 17.6807 60.4784C17.719 60.3767 17.7369 60.2685 17.7333 60.16C17.7333 58.3466 17.44 55.0133 17.44 51.9466C17.44 45.04 19.0667 46.9866 21.52 46.0266C22.9856 45.3347 24.3867 44.5137 25.7067 43.5733C27.0502 42.6182 28.2686 41.4984 29.3333 40.24C29.4077 40.1725 29.4672 40.0901 29.5079 39.9983C29.5486 39.9064 29.5696 39.8071 29.5696 39.7066C29.5696 39.6062 29.5486 39.5068 29.5079 39.4149C29.4672 39.3231 29.4077 39.2408 29.3333 39.1733C29.2613 39.0909 29.1721 39.0253 29.0719 38.9812C28.9718 38.9372 28.8631 38.9156 28.7537 38.9182C28.6443 38.9207 28.5368 38.9473 28.4388 38.996C28.3408 39.0447 28.2548 39.1143 28.1867 39.2Z" fill="black"/>
<path fill-rule="evenodd" clip-rule="evenodd" d="M55.04 35.0137C53.7724 35.1471 52.4943 35.1471 51.2267 35.0137C47.44 34.4803 42.2933 31.1737 44.1067 25.7603C44.718 24.1795 45.6973 22.7672 46.9633 21.6403C48.2293 20.5134 49.7457 19.7044 51.3867 19.2803C53.1192 18.7554 54.9757 18.8098 56.6745 19.4355C58.3734 20.0611 59.8218 21.2237 60.8 22.747C61.2859 23.5262 61.6121 24.3941 61.7598 25.3004C61.9074 26.2067 61.8736 27.1333 61.6603 28.0264C61.4469 28.9196 61.0583 29.7614 60.5169 30.5031C59.9755 31.2448 59.2922 31.8715 58.5067 32.347C58.3249 32.476 58.2009 32.671 58.161 32.8902C58.1211 33.1095 58.1686 33.3356 58.2933 33.5203C58.3522 33.6163 58.4306 33.6988 58.5234 33.7624C58.6163 33.826 58.7216 33.8692 58.8323 33.8894C58.943 33.9095 59.0568 33.906 59.1661 33.8792C59.2754 33.8524 59.3778 33.8028 59.4667 33.7337C60.4901 33.1602 61.3893 32.389 62.1121 31.4649C62.8349 30.5408 63.3668 29.4823 63.6769 28.3509C63.9871 27.2195 64.0693 26.0377 63.9187 24.8743C63.7682 23.7108 63.3879 22.5889 62.8 21.5737C61.6112 19.5162 59.7816 17.9045 57.5906 16.9848C55.3996 16.065 52.9678 15.8879 50.6667 16.4803C48.5777 17.0261 46.6554 18.078 45.0694 19.543C43.4835 21.0081 42.2827 22.8412 41.5733 24.8803C41.1278 26.2441 41.0485 27.701 41.3434 29.105C41.6382 30.5091 42.2969 31.811 43.2533 32.8803C42.8132 32.7261 42.3853 32.5389 41.9733 32.3203C40.5804 31.3932 39.4359 30.1388 38.64 28.667C37.9869 27.4916 37.1598 26.4217 36.1867 25.4937C35.4054 24.7092 34.4376 24.1361 33.374 23.8282C32.3105 23.5204 31.1862 23.4878 30.1067 23.7337C29.222 24.1076 28.4444 24.6959 27.8438 25.4454C27.2433 26.1949 26.8387 27.0821 26.6667 28.027C26.5085 28.6301 26.5085 29.2639 26.6667 29.867C26.9481 30.6035 27.2686 31.3246 27.6267 32.027C27.9851 32.7177 28.3859 33.3857 28.8267 34.027C29.9225 35.7092 31.2113 37.2574 32.6667 38.6403C34.1377 40.0275 35.7879 41.2114 37.5733 42.1603C39.0024 42.7614 40.4622 43.2866 41.9467 43.7337C42.39 43.8927 42.8112 44.1077 43.2 44.3737C43.4756 45.3583 43.6542 46.3676 43.7333 47.387C43.9329 48.9788 44.0132 50.5833 43.9733 52.187C43.9136 54.6404 43.7178 57.0886 43.3867 59.5203C43.3548 59.7184 43.403 59.9209 43.5205 60.0835C43.638 60.246 43.8153 60.3552 44.0133 60.387C44.2114 60.4188 44.4139 60.3707 44.5765 60.2532C44.739 60.1356 44.8482 59.9584 44.88 59.7603C45.28 57.307 45.68 54.8003 45.84 52.2937C45.9598 50.598 45.9598 48.896 45.84 47.2003C45.8086 46.101 45.7017 45.005 45.52 43.9203C45.4075 43.4471 45.1678 43.0137 44.8267 42.667C44.2403 42.1664 43.5846 41.7533 42.88 41.4403C41.5467 40.827 39.9733 40.427 38.8267 39.787C37.2771 38.9016 35.8439 37.8267 34.56 36.587C33.2784 35.3371 32.1259 33.9612 31.12 32.4803C30.7467 31.8937 30.4 31.307 30.08 30.6937C28.96 28.667 29.2267 28.7737 29.3867 28.2137C29.4549 27.7912 29.6237 27.3913 29.879 27.0479C30.1343 26.7044 30.4685 26.4274 30.8533 26.2403C31.76 25.8937 32.96 26.2403 34.6667 27.4403C36.3733 28.6403 37.6 32.2937 40.9333 34.0537C42.508 34.8546 44.2612 35.2402 46.0267 35.1737C46.2841 35.3405 46.5513 35.4918 46.8267 35.627C48.1393 36.2217 49.5486 36.5741 50.9867 36.667C52.3672 36.7374 53.7514 36.6748 55.12 36.4803C55.2174 36.4706 55.3117 36.4412 55.3973 36.3938C55.4829 36.3464 55.5579 36.282 55.6178 36.2047C55.6777 36.1273 55.7212 36.0385 55.7456 35.9438C55.7701 35.8491 55.775 35.7504 55.76 35.6537C55.7463 35.4745 55.6636 35.3076 55.5293 35.1882C55.395 35.0688 55.2196 35.0062 55.04 35.0137Z" fill="black"/>
<path fill-rule="evenodd" clip-rule="evenodd" d="M57.44 33.9205C57.3726 33.8355 57.2875 33.7662 57.1905 33.7174C57.0936 33.6686 56.9872 33.6415 56.8787 33.6381C56.7703 33.6346 56.6624 33.6548 56.5625 33.6973C56.4627 33.7398 56.3733 33.8036 56.3006 33.8841C56.2279 33.9647 56.1736 34.0601 56.1415 34.1638C56.1095 34.2675 56.1004 34.3769 56.115 34.4844C56.1295 34.592 56.1673 34.695 56.2257 34.7865C56.2842 34.8779 56.3619 34.9555 56.4533 35.0139C58.6698 37.5223 60.0657 40.649 60.4533 43.9739C60.8009 45.9662 61.0147 47.9796 61.0933 50.0005C61.1923 53.1314 61.1122 56.2654 60.8533 59.3872C60.8384 59.4959 60.8452 59.6065 60.8735 59.7125C60.9017 59.8185 60.9508 59.9179 61.0178 60.0047C61.0848 60.0916 61.1684 60.1643 61.2638 60.2185C61.3592 60.2727 61.4644 60.3074 61.5733 60.3205C61.792 60.3517 62.0142 60.2968 62.1932 60.1675C62.3722 60.0382 62.4941 59.8445 62.5333 59.6272C63.2175 56.4586 63.6367 53.2386 63.7867 50.0005C63.8745 47.7801 63.6774 45.5575 63.2 43.3872C62.4039 39.6718 60.3738 36.3352 57.44 33.9205Z" fill="black"/>
<path fill-rule="evenodd" clip-rule="evenodd" d="M19.04 12.3998C19.1692 12.8497 19.3388 13.287 19.5466 13.7064C19.7334 14.12 19.9472 14.5209 20.1866 14.9064C20.8003 15.8407 21.4775 16.7317 22.2133 17.5731C22.3137 17.7412 22.4741 17.8649 22.6622 17.9194C22.8503 17.9738 23.052 17.9549 23.2266 17.8664C23.3998 17.7708 23.5279 17.6104 23.5829 17.4204C23.6379 17.2305 23.6153 17.0264 23.52 16.8531C23.1733 15.8131 22.9866 14.7998 22.64 13.7864C22.4898 13.3575 22.3116 12.9388 22.1066 12.5331C21.9197 12.1282 21.7059 11.7362 21.4666 11.3598C20.9066 10.4264 20.2933 9.54643 19.68 8.6931C19.5807 8.49416 19.4078 8.34181 19.1979 8.26847C18.988 8.19513 18.7578 8.2066 18.5563 8.30042C18.3547 8.39425 18.1977 8.56302 18.1187 8.77084C18.0397 8.97865 18.045 9.20908 18.1333 9.4131C18.4533 10.3731 18.6666 11.3864 19.04 12.3998Z" fill="#02B6A9"/>
<path fill-rule="evenodd" clip-rule="evenodd" d="M31.12 13.0402C31.1199 13.2337 31.1949 13.4197 31.3292 13.559C31.4635 13.6983 31.6466 13.78 31.84 13.7869C31.9389 13.7943 32.0383 13.7811 32.1319 13.7482C32.2255 13.7153 32.3113 13.6634 32.3839 13.5958C32.4566 13.5282 32.5144 13.4464 32.5539 13.3553C32.5934 13.2643 32.6136 13.1661 32.6133 13.0669C32.8533 11.9469 33.1467 10.9069 33.28 9.76023C33.3073 9.28952 33.3073 8.81762 33.28 8.3469C33.3058 7.87614 33.3058 7.40433 33.28 6.93357C33.28 5.84023 32.96 4.77357 32.8 3.65357C32.8004 3.43619 32.7179 3.22685 32.5692 3.06827C32.4205 2.90969 32.2169 2.81382 32 2.80023C31.8892 2.79666 31.7788 2.8154 31.6754 2.85534C31.572 2.89528 31.4777 2.9556 31.3981 3.03273C31.3185 3.10985 31.2552 3.20219 31.212 3.30427C31.1688 3.40634 31.1466 3.51606 31.1467 3.6269C30.96 4.7469 30.7467 5.81357 30.64 6.93357C30.6136 7.40431 30.6136 7.87616 30.64 8.3469C30.6139 8.81765 30.6139 9.28949 30.64 9.76023C30.6933 10.8802 30.96 11.9202 31.12 13.0402Z" fill="#02B6A9"/>
<path fill-rule="evenodd" clip-rule="evenodd" d="M40.8266 16.7201C41.6116 16.1561 42.3516 15.532 43.04 14.8534C43.3093 14.5565 43.5503 14.2351 43.76 13.8934C43.9733 13.5734 44.16 13.2268 44.3466 12.8801C44.7466 12.0268 45.0666 11.2001 45.44 10.3734C45.5781 10.1974 45.644 9.97525 45.6242 9.75232C45.6044 9.52939 45.5003 9.32239 45.3333 9.17343C45.1486 9.04874 44.9224 9.00125 44.7032 9.04111C44.4839 9.08098 44.289 9.20504 44.16 9.38677C43.4666 10.0534 42.8266 10.6668 42.1866 11.3868C41.9466 11.6801 41.7066 11.9734 41.4933 12.2934C41.234 12.6205 41.0021 12.9683 40.8 13.3334C40.4 14.1601 40.1333 14.9868 39.7066 15.7868C39.6382 15.8597 39.5852 15.9457 39.5507 16.0395C39.5161 16.1334 39.5008 16.2332 39.5056 16.3331C39.5103 16.4329 39.5351 16.5309 39.5784 16.621C39.6218 16.7111 39.6828 16.7916 39.7578 16.8577C39.8328 16.9238 39.9204 16.9742 40.0152 17.0058C40.1101 17.0374 40.2104 17.0496 40.31 17.0418C40.4097 17.0339 40.5068 17.0061 40.5956 16.96C40.6843 16.9139 40.7629 16.8505 40.8266 16.7734V16.7201Z" fill="#02B6A9"/>
</g>
<defs>
<clipPath id="clip0_2050_1272">
<rect width="64" height="64" fill="white"/>
</clipPath>
</defs>
</svg>
