<svg width="24" height="24" viewBox="0 0 24 24" fill="none" xmlns="http://www.w3.org/2000/svg">
<g clip-path="url(#clip0_2033_584)">
<path d="M12 0.000976562C5.37264 0.000976562 0 5.37362 0 12.001C0 17.6285 3.87456 22.3507 9.10128 23.6477V15.6682H6.62688V12.001H9.10128V10.4208C9.10128 6.3365 10.9498 4.44338 14.9597 4.44338C15.72 4.44338 17.0318 4.59266 17.5685 4.74146V8.06546C17.2853 8.0357 16.7933 8.02082 16.1822 8.02082C14.2147 8.02082 13.4544 8.76626 13.4544 10.704V12.001H17.3741L16.7006 15.6682H13.4544V23.9131C19.3963 23.1955 24.0005 18.1363 24.0005 12.001C24 5.37362 18.6274 0.000976562 12 0.000976562Z" fill="#1A1A1A"/>
</g>
<defs>
<clipPath id="clip0_2033_584">
<rect width="24" height="24" fill="white" transform="translate(0 0.000976562)"/>
</clipPath>
</defs>
</svg>
