<svg width="49" height="48" viewBox="0 0 49 48" fill="none" xmlns="http://www.w3.org/2000/svg">
<g clip-path="url(#clip0_753_784)">
<path fill-rule="evenodd" clip-rule="evenodd" d="M7.54881 29.5354C7.03701 29.5382 6.72001 30.094 6.97841 30.5358C7.09701 30.7386 7.31381 30.8638 7.54881 30.865C17.0134 31.002 33.6352 28.7922 37.2138 30.6696C37.331 30.6696 37.5266 31.0606 37.7222 31.1584C36.3924 32.977 31.7384 32.3708 29.333 32.586C25.2656 32.977 21.1396 32.7228 17.0524 32.9184C11.8704 33.1334 7.58781 34.385 3.36401 33.6224C1.89741 33.3486 2.32761 31.6668 3.71601 31.4322C3.71601 31.4322 6.10161 30.826 6.12121 30.7478C6.22141 30.2944 5.83781 29.8804 5.37821 29.946C4.90881 29.946 3.69641 30.1806 3.42261 30.2198C0.685009 30.7282 0.0788093 34.3264 3.05101 34.9912C4.45901 35.2864 5.89541 35.4242 7.33361 35.4018C7.33361 35.5974 5.37821 41.6204 4.90881 44.2212C4.28301 47.702 9.15221 48.3082 10.4624 45.238C10.999 43.8308 11.456 42.3944 11.8314 40.936C12.3566 41.013 12.8902 41.013 13.4152 40.936C16.398 41.3122 19.4088 41.4168 22.4106 41.2488C28.2772 40.936 26.8104 41.2488 28.2772 41.0924C29.744 40.936 28.6486 39.7822 30.741 45.199C32.0318 48.2496 36.901 47.6628 36.2752 44.1626C35.884 42.3244 33.9676 35.3628 33.557 34.6392C34.6232 34.6306 35.683 34.4726 36.7054 34.1698C38.5436 33.6028 40.5186 31.8038 39.7168 30.1612C37.6832 25.5656 19.849 29.3594 7.54881 29.5354ZM8.54601 44.3776C8.23321 45.1012 7.07941 45.238 7.17721 44.5732C8.31141 37.6312 8.52641 36.0862 8.74161 35.3628C9.77801 35.3628 10.8144 35.2454 11.8312 35.1476C10.9916 38.3092 9.89281 41.3964 8.54601 44.3776ZM28.101 39.6844C23.1536 39.2542 26.6344 38.7262 12.242 39.6844C12.594 38.2178 12.9264 36.6924 13.2198 35.089C19.0862 34.5806 22.5474 35.2062 28.1598 34.913C28.4726 36.5752 28.805 38.159 29.1962 39.6844C28.8448 39.7538 28.4816 39.7336 28.1402 39.6258L28.101 39.6844ZM34.2804 44.5732C34.2804 45.238 33.2246 45.0816 32.9116 44.3776C31.5204 41.2762 30.3888 38.0646 29.5286 34.776H32.54C32.4814 34.913 32.4814 32.8206 34.3196 44.5732H34.2804Z" fill="#020202"/>
<path fill-rule="evenodd" clip-rule="evenodd" d="M4.28302 29.1834C4.35842 29.6198 4.87802 29.8112 5.21842 29.5278C5.37642 29.3962 5.45222 29.1904 5.41722 28.9878C5.29482 26.7514 5.34702 24.5086 5.57362 22.2804C5.46942 19.7068 5.58722 17.129 5.92562 14.5758C6.39502 12.6202 6.12122 12.9918 10.267 12.3856C13.7838 11.729 17.3478 11.3562 20.9244 11.271C21.4362 11.268 21.753 10.7122 21.4948 10.2704C21.3762 10.0676 21.1594 9.94239 20.9244 9.94119H20.1422C20.3376 9.82839 20.4572 9.61919 20.455 9.39359C20.5596 8.38599 20.4934 7.36779 20.2596 6.38219C18.9884 1.98219 14.7646 4.17239 15.3904 9.96079C14.1974 9.96079 7.45102 10.4496 6.29722 10.7624C3.50082 11.5056 3.97022 13.109 3.75502 14.0672C3.37162 16.7916 3.37162 19.556 3.75502 22.2804C3.75922 24.5912 3.93562 26.8986 4.28302 29.1834ZM18.1672 6.38219C19.3404 10.1562 19.2426 9.88259 19.4186 9.99979H16.9938C17.0698 8.71359 17.4736 7.46819 18.1672 6.38219Z" fill="black"/>
<path fill-rule="evenodd" clip-rule="evenodd" d="M36.7248 22.3977C36.7222 21.9461 36.2318 21.6667 35.842 21.8947C35.6632 21.9993 35.5528 22.1905 35.5516 22.3977C34.6958 23.9565 34.6958 25.8447 35.5516 27.4037C36.0208 28.4989 37.0182 27.7949 36.94 27.4037C36.9008 24.4119 37.507 25.4287 36.7248 22.3977Z" fill="black"/>
<path fill-rule="evenodd" clip-rule="evenodd" d="M47.8126 6.04978C47.226 5.09158 46.2678 4.73958 43.667 3.39018C36.9596 0.828575 36.627 0.515575 36.1382 0.926175C35.8818 1.17898 35.8818 1.59258 36.1382 1.84538C38.3706 3.02198 40.6764 4.05398 43.0412 4.93498C43.1976 5.05238 45.9158 7.02738 46.0722 7.06658C46.2286 7.10577 39.1692 10.391 38.7978 10.5474C38.2254 10.968 37.5494 11.225 36.8422 11.2904C36.6662 11.2904 27.2602 7.96618 26.439 7.37937C27.1624 7.00798 23.7794 9.11977 33.7134 2.82318C34.103 2.59458 34.0992 2.03018 33.7064 1.80698C33.5404 1.71258 33.3386 1.70498 33.1658 1.78678L27.182 4.79818C25.4808 5.58038 23.271 6.63637 24.5422 8.10297C24.247 10.8564 24.1752 13.6292 24.327 16.3944C22.0822 17.0308 21.3682 19.8586 23.0418 21.4844C23.0464 21.489 23.0512 21.4936 23.056 21.4982C24.6204 23.219 27.8274 23.1018 28.4726 20.716C29.0584 18.854 27.9312 16.8882 26.0282 16.453C26.406 14.1392 26.4848 11.7862 26.263 9.45238C27.319 10.039 29.2158 10.743 33.557 12.4638C34.476 12.7766 36.0992 13.989 37.3116 13.5784C40.9196 12.1198 44.383 10.3258 47.6562 8.22038C48.21 7.62257 48.275 6.72058 47.8126 6.04978ZM26.439 18.1152C26.9668 18.7604 26.7518 20.8138 25.8522 20.8528C24.9526 20.8918 23.8968 19.308 24.1118 18.4868C24.5226 17.0396 26.302 17.9588 26.439 18.1152Z" fill="#A7289E"/>
<path fill-rule="evenodd" clip-rule="evenodd" d="M43.7256 11.9358C42.8064 11.9358 43.0606 12.9136 42.8456 13.8912C42.6306 14.8688 41.4768 14.8494 40.1862 15.4362C38.8956 16.023 37.5658 16.9418 36.3924 17.3916C34.4426 16.927 32.5432 16.272 30.7214 15.4362C30.4476 14.0672 30.7214 13.3242 29.9198 13.3242C29.5958 13.3242 29.333 13.5868 29.333 13.9108C29.333 14.2348 29.333 15.2992 29.333 15.8664C29.3406 16.1024 29.4386 16.3264 29.6068 16.492C30.6236 17.5286 35.4734 20.0706 36.7248 19.7382C38.2872 19.156 39.7512 18.3384 41.066 17.3134C42.062 16.8812 42.975 16.279 43.7646 15.534C44.41 14.7126 44.2732 13.9696 44.2926 12.9136C44.5488 12.4878 44.2478 11.9446 43.7512 11.9358C43.7426 11.9356 43.7342 11.9356 43.7256 11.9358Z" fill="#A7289E"/>
</g>
<defs>
<clipPath id="clip0_753_784">
<rect width="48" height="48" fill="white" transform="translate(0.600006)"/>
</clipPath>
</defs>
</svg>
