<svg width="33" height="32" viewBox="0 0 33 32" fill="none" xmlns="http://www.w3.org/2000/svg">
<g clip-path="url(#clip0_112_538)">
<path fill-rule="evenodd" clip-rule="evenodd" d="M4.83265 19.6908C4.49145 19.6926 4.28012 20.0632 4.45238 20.3577C4.53145 20.4929 4.67598 20.5764 4.83265 20.5772C11.1424 20.6685 22.2236 19.1953 24.6093 20.4469C24.6875 20.4469 24.8179 20.7076 24.9482 20.7728C24.0617 21.9852 20.9591 21.581 19.3554 21.7245C16.6439 21.9851 13.8932 21.8157 11.1684 21.9461C7.71372 22.0894 4.85865 22.9238 2.04278 22.4154C1.06505 22.2329 1.35185 21.1117 2.27745 20.9553C2.27745 20.9553 3.86785 20.5512 3.88092 20.499C3.94772 20.1968 3.69198 19.9208 3.38558 19.9645C3.07265 19.9645 2.26438 20.1209 2.08185 20.147C0.256783 20.486 -0.147351 22.8848 1.83412 23.328C2.77278 23.5248 3.73038 23.6166 4.68918 23.6017C4.68918 23.7321 3.38558 27.7474 3.07265 29.4813C2.65545 31.8018 5.90158 32.2059 6.77505 30.1591C7.13278 29.221 7.43745 28.2634 7.68772 27.2912C8.03785 27.3425 8.39358 27.3425 8.74358 27.2912C10.7321 27.542 12.7393 27.6117 14.7405 27.4997C18.6516 27.2912 17.6737 27.4997 18.6516 27.3954C19.6294 27.2912 18.8992 26.522 20.2941 30.1332C21.1547 32.1669 24.4008 31.7757 23.9836 29.4422C23.7228 28.2168 22.4452 23.5757 22.1715 23.0933C22.8823 23.0875 23.5888 22.9822 24.2704 22.7804C25.4959 22.4024 26.8125 21.203 26.278 20.108C24.9222 17.0442 13.0328 19.5734 4.83265 19.6908ZM5.49745 29.5856C5.28892 30.068 4.51972 30.1592 4.58492 29.716C5.34105 25.088 5.48438 24.058 5.62785 23.5757C6.31878 23.5757 7.00972 23.4974 7.68758 23.4322C7.12785 25.5399 6.39532 27.5981 5.49745 29.5856ZM18.5341 26.4567C15.2358 26.17 17.5564 25.8179 7.96145 26.4567C8.19612 25.479 8.41772 24.4621 8.61332 23.3932C12.5242 23.0542 14.8317 23.4713 18.5733 23.2758C18.7818 24.3839 19.0035 25.4398 19.2643 26.4567C19.03 26.503 18.7878 26.4896 18.5602 26.4177L18.5341 26.4567ZM22.6537 29.716C22.6537 30.1592 21.9499 30.0549 21.7412 29.5856C20.8137 27.518 20.0593 25.3769 19.4859 23.1845H21.4935C21.4544 23.2758 21.4544 21.8809 22.6799 29.716H22.6537Z" fill="#020202"/>
<path fill-rule="evenodd" clip-rule="evenodd" d="M2.65539 19.456C2.70566 19.7469 3.05206 19.8745 3.27899 19.6856C3.38433 19.5979 3.43486 19.4607 3.41153 19.3256C3.32993 17.8347 3.36473 16.3395 3.51579 14.854C3.44633 13.1383 3.52486 11.4197 3.75046 9.7176C4.06339 8.41386 3.88086 8.6616 6.64473 8.25746C8.98926 7.81973 11.3653 7.5712 13.7497 7.5144C14.0909 7.5124 14.3021 7.14187 14.1299 6.84733C14.0509 6.71213 13.9063 6.62867 13.7497 6.62787H13.2282C13.3585 6.55267 13.4382 6.4132 13.4367 6.2628C13.5065 5.59107 13.4623 4.91226 13.3065 4.2552C12.459 1.32186 9.64313 2.782 10.0603 6.64093C9.26499 6.64093 4.76739 6.9668 3.99819 7.17533C2.13393 7.6708 2.44686 8.73973 2.30339 9.37853C2.04779 11.1948 2.04779 13.0377 2.30339 14.854C2.30619 16.3945 2.42379 17.9328 2.65539 19.456ZM11.9115 4.2552C12.6937 6.7712 12.6285 6.5888 12.7458 6.66693H11.1293C11.1799 5.80946 11.4491 4.9792 11.9115 4.2552Z" fill="#A7289E"/>
<path fill-rule="evenodd" clip-rule="evenodd" d="M24.2833 14.9324C24.2815 14.6313 23.9546 14.4451 23.6947 14.5971C23.5755 14.6668 23.5019 14.7943 23.5011 14.9324C22.9306 15.9716 22.9306 17.2304 23.5011 18.2697C23.8139 18.9999 24.4789 18.5305 24.4267 18.2697C24.4006 16.2752 24.8047 16.9531 24.2833 14.9324Z" fill="#A7289E"/>
<path fill-rule="evenodd" clip-rule="evenodd" d="M31.6752 4.03375C31.2841 3.39495 30.6453 3.16029 28.9114 2.26069C24.4398 0.552953 24.2181 0.344286 23.8922 0.61802C23.7213 0.786553 23.7213 1.06229 23.8922 1.23082C25.3805 2.01522 26.9177 2.70322 28.4942 3.29055C28.5985 3.36882 30.4106 4.68549 30.5149 4.71162C30.6192 4.73775 25.9129 6.92789 25.6653 7.03215C25.2837 7.31255 24.833 7.48389 24.3616 7.52749C24.2442 7.52749 17.9736 5.31135 17.4261 4.92015C17.9084 4.67255 15.653 6.08042 22.2757 1.88269C22.5354 1.73029 22.5329 1.35402 22.271 1.20522C22.1604 1.14229 22.0258 1.13722 21.9106 1.19175L17.9214 3.19935C16.7873 3.72082 15.3141 4.42482 16.1616 5.40255C15.9648 7.23815 15.9169 9.08669 16.0181 10.9302C14.5216 11.3544 14.0456 13.2396 15.1613 14.3235C15.1644 14.3266 15.1676 14.3296 15.1708 14.3327C16.2137 15.4799 18.3517 15.4018 18.7818 13.8112C19.1724 12.5699 18.4209 11.2594 17.1522 10.9692C17.4041 9.42669 17.4566 7.85802 17.3088 6.30215C18.0128 6.69322 19.2773 7.16255 22.1714 8.30975C22.7841 8.51829 23.8662 9.32655 24.6745 9.05282C27.0798 8.08042 29.3888 6.88442 31.5709 5.48082C31.9401 5.08229 31.9834 4.48095 31.6752 4.03375ZM17.4261 12.0774C17.778 12.5075 17.6346 13.8764 17.0349 13.9024C16.4352 13.9284 15.7313 12.8726 15.8746 12.3251C16.1485 11.3603 17.3348 11.9731 17.4261 12.0774Z" fill="#020202"/>
<path fill-rule="evenodd" clip-rule="evenodd" d="M28.9505 7.95762C28.3377 7.95762 28.5072 8.60949 28.3639 9.26122C28.2205 9.91295 27.4513 9.90002 26.5909 10.2912C25.7305 10.6824 24.844 11.295 24.0617 11.5948C22.7619 11.2851 21.4956 10.8484 20.2811 10.2912C20.0985 9.37855 20.2811 8.88322 19.7467 8.88322C19.5307 8.88322 19.3555 9.05829 19.3555 9.27429C19.3555 9.49029 19.3555 10.1999 19.3555 10.578C19.3605 10.7354 19.4259 10.8847 19.538 10.9951C20.2159 11.6862 23.4491 13.3808 24.2833 13.1592C25.3249 12.7711 26.3009 12.226 27.1775 11.5427C27.8415 11.2546 28.4501 10.8531 28.9765 10.3564C29.4068 9.80882 29.3156 9.31349 29.3285 8.60949C29.4993 8.32562 29.2987 7.96349 28.9676 7.95762C28.9619 7.95749 28.9563 7.95749 28.9505 7.95762Z" fill="#020202"/>
</g>
<defs>
<clipPath id="clip0_112_538">
<rect width="32" height="32" fill="white" transform="translate(0.200073 0.000488281)"/>
</clipPath>
</defs>
</svg>
