<svg width="64" height="64" viewBox="0 0 64 64" fill="none" xmlns="http://www.w3.org/2000/svg">
<path d="M63.8874 57.3608C63.756 56.8526 62.8159 55.2536 62.4867 54.734C60.6572 51.8531 57.7837 49.5335 55.3072 47.2254C56.2747 45.7899 57.5194 44.8541 58.3483 43.2507C62.6455 34.9282 56.1101 23.6315 47.0967 22.0899C45.5156 21.82 43.9084 22.0382 42.3648 21.9104C42.206 21.8975 42.1164 21.9779 42.1525 21.7683C43.1489 21.5157 42.5569 20.1923 42.3677 19.4703C41.3165 15.4683 37.8827 6.29175 35.2936 3.24868C32.2107 -0.375735 31.135 -0.588176 26.5893 0.771158C19.4676 2.90131 11.3019 7.45012 5.14039 11.6028C0.877752 14.475 -1.18859 15.9535 0.705918 21.4109C2.33617 26.1062 5.15772 31.799 7.32513 36.3622C10.1698 42.3464 13.6426 49.5091 17.0013 55.1646C17.6048 56.1823 18.9131 58.4574 20.139 58.6469C21.4516 58.8507 25.9236 57.4598 27.3922 56.9761C28.5733 56.5857 36.1239 53.5727 36.4474 52.9168C36.7506 52.301 36.3319 51.4397 35.594 51.4856C31.457 52.8364 27.5452 54.8646 23.1613 55.3541C22.6949 55.4072 20.8726 55.6297 20.6444 55.4259C20.1592 54.9938 18.7283 51.8991 18.3456 51.101C13.4765 40.9268 7.68902 31.0913 3.28343 20.7148C3.03795 20.1392 1.81634 17.432 2.03871 17.0588C2.09214 16.9683 3.50724 15.9937 3.75272 15.8214C10.1322 11.376 17.9759 7.26352 25.3244 4.68122C26.6398 4.22045 28.8058 3.43241 30.1343 3.28169C30.3451 3.25729 30.5415 3.1927 30.7408 3.32188C36.186 7.50323 37.5578 14.7104 40.4385 20.5267C40.749 21.1526 41.0205 21.6061 41.5735 22.0526C33.7587 23.9042 28.2282 30.5157 28.5719 38.6387C28.969 48.0435 37.2156 53.7823 46.3444 51.988C47.5906 51.7426 48.844 51.1914 50.1002 50.9703C52.3514 55.4804 53.4661 64.5508 60.2789 63.9737C61.7561 63.8474 63.5134 62.5555 63.8874 61.1015C64.0375 60.5158 64.0375 57.945 63.8874 57.3608ZM58.227 60.2603C55.1065 58.855 52.5969 49.7919 50.6677 48.9708C49.7537 48.5818 45.7033 49.7933 44.3864 49.8981C30.4895 51.0062 27.4369 33.1354 38.3 26.91C47.6628 21.543 57.8948 29.2684 57.1671 39.4928C56.923 42.9234 55.5282 43.4847 53.7058 45.8129C52.4467 47.4234 53.3737 47.9832 54.4856 49.2665C56.6963 51.8215 60.2976 55.0081 60.8579 58.5048C61.1582 60.3866 59.8543 60.9938 58.227 60.2603Z" fill="#020202"/>
<path d="M47.4924 3.53922C46.3054 3.4086 45.1416 3.1129 43.9546 2.96506C43.0175 2.84879 39.1115 2.79568 38.6754 2.18563C38.2394 1.57558 38.6538 0.943998 39.344 0.819117C40.9887 0.520552 43.8276 0.322465 45.5459 0.237776C49.2396 0.0569139 50.2923 0.669834 50.532 4.46506C50.8309 9.20909 49.3912 14.0737 48.8728 18.7603C48.818 19.422 47.9213 19.6976 47.4101 19.3374C47.1733 19.1077 47.0939 18.8622 47.0563 18.5407C46.7011 15.489 47.5328 11.8947 47.1978 8.77129L47.4909 3.53922H47.4924Z" fill="#020202"/>
<path d="M33.7384 17.4953C34.6857 17.3432 35.4336 17.8958 34.9023 18.7958C34.6871 19.1604 32.6496 20.3317 32.1414 20.6432C28.5097 22.8681 24.6817 24.9408 20.8335 26.7709C19.7534 27.2848 14.3732 29.8312 13.6252 29.7939C13.1313 29.7695 13.0375 29.1509 13.1573 28.759C13.2151 28.5695 13.7392 28.1001 13.9255 27.9422C17.3478 25.0456 22.3714 22.3097 26.4593 20.4494C28.0982 19.703 32.176 17.7451 33.7399 17.4953H33.7384Z" fill="#020202"/>
<path d="M27.9639 10.0354C28.6801 9.93781 29.4758 9.89331 29.5552 10.8105C29.6028 11.366 28.657 11.7794 28.2412 12.0306C25.3734 13.7617 21.879 15.3737 18.8538 16.9096C15.8619 18.4297 12.7501 19.723 9.90404 21.5187C8.82394 21.5503 8.59146 20.9819 9.22826 20.1163C10.8643 17.8886 16.555 14.3704 19.1398 13.1747C21.0054 12.312 26.0795 10.2924 27.9639 10.034V10.0354Z" fill="#020202"/>
<path d="M18.5593 36.4976C20.6675 34.3373 23.7879 32.1928 26.9185 31.9602C28 31.8798 28.8087 32.6019 27.9885 33.4559C27.4759 33.9899 25.5424 35.1555 24.8103 35.6076C23.0457 36.6942 20.8018 37.8842 18.8582 38.589C18.4495 38.7368 17.9802 38.9478 17.6005 38.6378C17.0287 37.6904 17.9788 37.0933 18.5593 36.4976Z" fill="#020202"/>
<path d="M51.4026 31.597C51.3333 32.4152 50.2475 31.4549 49.7767 31.3401C46.5509 30.5449 43.3178 32.9291 42.0066 35.6908H46.2664C46.3256 35.6908 47.2642 35.9635 47.3162 36.0109C47.8172 36.8836 46.8209 37.0602 46.1205 37.1248C44.5986 37.2655 42.912 37.2066 41.3756 37.2884C41.0291 37.4061 40.9814 38.5057 40.9959 38.8487H45.6888C45.9155 38.8487 47.0909 39.11 47.2728 39.2851C47.6613 39.6597 47.3176 39.8937 46.9234 40.0774L41.1403 40.5726C42.6059 44.0549 47.358 44.3176 50.3355 42.7473C51.3709 43.221 50.5305 43.8282 49.8778 44.1612C46.4584 45.9009 40.4847 44.8143 39.406 40.6444C38.6349 40.353 37.6386 40.4162 36.8848 40.1363C36.6495 40.0502 36.2654 39.8994 36.4401 39.565C36.6596 39.1387 38.6985 39.2047 39.2645 39.1372L39.5042 37.3329C39.4306 36.875 36.1137 36.7358 35.656 36.0497C35.656 35.5875 39.6486 35.6033 40.1309 35.4769C41.6702 32.5573 44.8094 29.8946 48.2937 30.087C49.0605 30.13 51.4907 30.5721 51.4026 31.597Z" fill="#02B6A9"/>
</svg>
