<svg width="49" height="48" viewBox="0 0 49 48" fill="none" xmlns="http://www.w3.org/2000/svg">
<path d="M48.1155 43.0206C48.017 42.6395 47.312 41.4402 47.065 41.0505C45.6929 38.8898 43.5378 37.1501 41.6804 35.419C42.406 34.3425 43.3396 33.6405 43.9612 32.438C47.1842 26.1961 42.2826 17.7236 35.5226 16.5674C34.3367 16.365 33.1313 16.5287 31.9736 16.4328C31.8545 16.4231 31.7873 16.4834 31.8144 16.3263C32.5617 16.1368 32.1177 15.1442 31.9758 14.6027C31.1874 11.6012 28.612 4.71881 26.6702 2.43651C24.3581 -0.281801 23.5512 -0.441132 20.142 0.578368C14.8007 2.17598 8.67641 5.58759 4.0553 8.70208C0.858326 10.8563 -0.691428 11.9651 0.729451 16.0582C1.95214 19.5796 4.0683 23.8492 5.69386 27.2716C7.82735 31.7598 10.4319 37.1318 12.951 41.3735C13.4036 42.1367 14.3848 43.8431 15.3043 43.9852C16.2887 44.1381 19.6427 43.0949 20.7441 42.7321C21.63 42.4392 27.293 40.1796 27.5355 39.6876C27.763 39.2257 27.4489 38.5798 26.8955 38.6142C23.7927 39.6273 20.8589 41.1485 17.571 41.5156C17.2212 41.5554 15.8544 41.7223 15.6833 41.5694C15.3194 41.2453 14.2462 38.9243 13.9592 38.3257C10.3074 30.6951 5.96677 23.3185 2.66258 15.5361C2.47847 15.1044 1.56227 13.074 1.72905 12.7941C1.76912 12.7262 2.83045 11.9953 3.01455 11.8661C7.79919 8.53198 13.682 5.44764 19.1933 3.51091C20.1799 3.16534 21.8044 2.57431 22.8007 2.46127C22.9588 2.44297 23.1061 2.39452 23.2556 2.49141C27.3395 5.62743 28.3684 11.0328 30.5289 15.395C30.7618 15.8644 30.9654 16.2046 31.3801 16.5394C25.519 17.9282 21.3712 22.8868 21.6289 28.979C21.9268 36.0326 28.1117 40.3367 34.9583 38.991C35.893 38.8069 36.833 38.3935 37.7752 38.2278C39.4636 41.6103 40.2996 48.4131 45.4092 47.9803C46.5171 47.8856 47.835 46.9167 48.1155 45.8261C48.2282 45.3869 48.2282 43.4587 48.1155 43.0206ZM43.8702 45.1952C41.5299 44.1413 39.6477 37.3439 38.2008 36.7281C37.5153 36.4364 34.4775 37.345 33.4898 37.4236C23.0671 38.2547 20.7777 24.8515 28.925 20.1825C35.9471 16.1572 43.6211 21.9513 43.0753 29.6196C42.8923 32.1926 41.8461 32.6135 40.4794 34.3597C39.535 35.5676 40.2303 35.9874 41.0642 36.9499C42.7223 38.8661 45.4232 41.2561 45.8434 43.8786C46.0687 45.29 45.0908 45.7454 43.8702 45.1952Z" fill="#020202"/>
<path d="M35.8193 2.65435C34.9291 2.55639 34.0562 2.33462 33.166 2.22373C32.4631 2.13653 29.5336 2.0967 29.2066 1.63916C28.8795 1.18162 29.1903 0.707937 29.708 0.614277C30.9415 0.390353 33.0707 0.241788 34.3594 0.178271C37.1297 0.0426244 37.9192 0.502315 38.099 3.34873C38.3232 6.90676 37.2434 10.5552 36.8546 14.0702C36.8135 14.5665 36.1409 14.7732 35.7576 14.503C35.5799 14.3307 35.5204 14.1466 35.4922 13.9055C35.2258 11.6167 35.8496 8.921 35.5984 6.57841L35.8182 2.65435H35.8193Z" fill="#020202"/>
<path d="M25.5038 13.1215C26.2142 13.0074 26.7752 13.4219 26.3767 14.0969C26.2153 14.3703 24.6872 15.2488 24.306 15.4824C21.5823 17.151 18.7113 18.7056 15.8251 20.0782C15.015 20.4636 10.9798 22.3734 10.4188 22.3454C10.0485 22.3271 9.97807 21.8631 10.068 21.5692C10.1113 21.4271 10.5044 21.0751 10.6441 20.9567C13.2108 18.7842 16.9785 16.7323 20.0444 15.337C21.2736 14.7772 24.332 13.3088 25.5049 13.1215H25.5038Z" fill="#020202"/>
<path d="M21.1729 7.5265C21.7101 7.4533 22.3068 7.41992 22.3664 8.10785C22.4021 8.52447 21.6928 8.83452 21.3809 9.02292C19.2301 10.3212 16.6092 11.5302 14.3404 12.6821C12.0964 13.8222 9.76258 14.7922 7.62801 16.139C6.81794 16.1627 6.64358 15.7363 7.12118 15.0872C8.3482 13.4164 12.6163 10.7777 14.5548 9.88094C15.954 9.23393 19.7596 7.71921 21.1729 7.52543V7.5265Z" fill="#020202"/>
<path d="M14.1195 27.3732C15.7006 25.753 18.041 24.1446 20.3889 23.9702C21.2001 23.9099 21.8065 24.4514 21.1914 25.0919C20.8069 25.4924 19.3568 26.3666 18.8077 26.7057C17.4843 27.5207 15.8014 28.4131 14.3437 28.9417C14.0372 29.0526 13.6852 29.2109 13.4004 28.9783C12.9715 28.2678 13.6841 27.8199 14.1195 27.3732Z" fill="#020202"/>
<path d="M38.752 23.6978C38.7 24.3114 37.8856 23.5912 37.5325 23.5051C35.1132 22.9086 32.6883 24.6968 31.705 26.7681H34.8998C34.9442 26.7681 35.6481 26.9727 35.6871 27.0082C36.0629 27.6627 35.3157 27.7951 34.7904 27.8436C33.649 27.9491 32.384 27.905 31.2317 27.9663C30.9718 28.0546 30.9361 28.8792 30.9469 29.1365H34.4666C34.6366 29.1365 35.5182 29.3325 35.6546 29.4638C35.946 29.7448 35.6882 29.9203 35.3926 30.0581L31.0552 30.4295C32.1544 33.0412 35.7185 33.2382 37.9517 32.0605C38.7282 32.4157 38.0979 32.8711 37.6084 33.1209C35.0438 34.4257 30.5635 33.6107 29.7545 30.4833C29.1762 30.2648 28.429 30.3121 27.8636 30.1022C27.6871 30.0376 27.399 29.9246 27.5301 29.6737C27.6947 29.354 29.2239 29.4035 29.6484 29.3529L29.8282 27.9997C29.7729 27.6563 27.2853 27.5518 26.942 27.0372C26.942 26.6906 29.9365 26.7024 30.2982 26.6077C31.4527 24.418 33.8071 22.421 36.4203 22.5652C36.9954 22.5975 38.8181 22.9291 38.752 23.6978Z" fill="#A7289E"/>
</svg>
