<svg width="33" height="32" viewBox="0 0 33 32" fill="none" xmlns="http://www.w3.org/2000/svg">
<path fill-rule="evenodd" clip-rule="evenodd" d="M20.2881 17.0703C20.0912 17.2684 20.0912 17.5884 20.2881 17.7866C21.1264 18.5096 22.1896 18.9192 23.2963 18.9456C23.2963 19.2582 23.2963 19.5836 23.3875 19.8962C23.3875 20.2871 23.8107 20.5315 24.1493 20.336C24.3064 20.2454 24.4032 20.0776 24.4032 19.8962V18.9716C24.7463 18.9396 25.0861 18.8786 25.4189 18.7894C26.9496 18.4707 27.8891 16.921 27.4635 15.4166C27.3008 14.7194 26.772 14.1656 26.0831 13.9711C25.6104 13.8562 25.1227 13.8166 24.6376 13.8539V12.9814V12.2131C25.0871 12.2468 25.5273 12.357 25.9399 12.5386C26.1596 12.6442 26.4236 12.5582 26.5388 12.3432C26.654 12.1275 26.5723 11.8594 26.3565 11.7443C25.8027 11.4524 25.2041 11.2543 24.5855 11.1583V9.25697C24.6084 9.00963 24.4288 8.7895 24.1819 8.76217C23.9369 8.7395 23.7207 8.92083 23.7 9.16577C23.5697 9.79083 23.4787 10.468 23.3615 11.0802C23.0269 11.0876 22.6947 11.1356 22.3717 11.2234C21.1564 11.439 20.3639 12.6218 20.6268 13.8278C20.6943 14.532 21.1603 15.1348 21.8248 15.3775C22.1939 15.5022 22.5812 15.5639 22.9708 15.5598V16.1458C22.9708 16.6927 23.0749 17.2136 23.14 17.7475C22.356 17.7854 21.5829 17.5507 20.9523 17.0834C20.7648 16.9148 20.4821 16.9092 20.2881 17.0703ZM25.4971 15.5338C25.6924 15.5338 25.8617 15.6119 25.9268 15.8332C26.2393 16.7839 25.4711 17.3178 24.5464 17.5652L24.6245 16.1327V15.5076C24.9153 15.4775 25.2087 15.4862 25.4971 15.5338ZM22.1633 13.5152C21.9811 12.773 22.528 12.4214 23.1921 12.2131C23.1921 12.4214 23.114 12.6167 23.088 12.8251C23.062 13.0335 23.088 13.4892 23.0228 13.8148C22.8756 13.8278 22.7275 13.8278 22.5801 13.8148C22.3977 13.8148 22.2155 13.7496 22.1633 13.5152Z" fill="#A7289E"/>
<path fill-rule="evenodd" clip-rule="evenodd" d="M30.7841 8.90558C30.6279 6.43131 30.3675 3.97011 29.9637 1.45678C29.9459 1.37745 29.9051 1.30505 29.8465 1.24851C29.788 1.19198 29.8465 1.24851 29.8465 1.17038C29.6748 0.948379 29.3581 0.902246 29.1303 1.06611C28.6876 1.37865 27.9844 2.04278 27.2941 2.55065C26.6039 3.05851 26.9556 3.29291 24.6897 1.14425C24.4911 0.934246 24.2779 0.738379 24.0516 0.558246C23.8243 0.397046 23.532 0.358113 23.2703 0.454113C22.866 0.616513 22.5048 0.870646 22.2155 1.19638C21.6945 1.73025 21.1997 2.49865 20.8091 2.87625C20.3196 2.21905 19.7751 1.60478 19.1813 1.04011C18.6733 0.508779 17.9445 0.248113 17.2149 0.336913C16.7625 0.443046 16.3509 0.678246 16.0299 1.01411C15.5027 1.62438 15.0155 2.26825 14.5713 2.94131C14.4109 3.20758 14.1928 3.43451 13.9333 3.60545C13.764 3.41011 13.5947 3.13665 13.5556 3.09758L10.86 0.779713C10.6853 0.619579 10.4156 0.625313 10.248 0.792646C10.0804 0.959979 10.248 0.870779 10.248 0.896913C10.0936 0.973313 9.9936 1.12838 9.9876 1.30051C9.9876 4.30878 9.9876 7.31691 10.0787 10.325V13.2941V16.2762C10.0787 17.5133 10.0787 18.7374 9.90947 19.9876C9.87734 20.2266 10.0372 20.4493 10.274 20.4954C10.5156 20.5201 10.736 20.3562 10.7819 20.1178C11.3028 17.6273 11.5992 15.0952 11.6675 12.5518C11.6675 11.0413 11.6675 9.51758 11.5241 8.00705C11.5503 6.09278 11.2897 4.24358 11.0944 2.27718L12.7352 3.94411C12.9509 4.21678 13.1813 4.47771 13.4255 4.72545C13.5884 4.87158 13.8076 4.93825 14.0244 4.90771C14.4612 4.82598 14.8641 4.61771 15.1835 4.30865C15.6561 3.84451 16.0916 3.34371 16.4856 2.81118C16.8243 2.43345 17.1237 2.04278 17.5013 1.99078C17.6056 1.99078 17.6967 2.05585 17.7879 2.12091C17.9907 2.26185 18.1783 2.42331 18.3479 2.60278C19.1032 3.37118 19.8193 4.41291 20.2752 4.77758C20.6657 5.00438 21.1593 4.94598 21.4863 4.63425L22.0071 4.03531C22.3848 3.61851 22.8536 2.83718 23.3093 2.27718C23.3631 2.20185 23.4241 2.13211 23.4916 2.06891C23.5305 2.13225 23.5788 2.18931 23.6349 2.23811C23.8563 2.42051 24.6636 3.43625 25.2627 3.93105C25.5307 4.17998 25.8748 4.33131 26.2393 4.36078C26.7444 4.27531 27.2168 4.05491 27.6067 3.72265C28.1016 3.33198 28.5964 2.85025 29.0392 2.42051C29.2475 4.62131 29.3908 6.78291 29.4299 8.93158C29.4299 11.3798 29.4299 13.828 29.2605 16.3282C29.1824 18.2165 29.1043 20.1438 28.8699 22.0321C28.7255 23.2556 28.4683 24.463 28.1016 25.6392C27.6631 26.8654 26.8173 27.9044 25.7055 28.5822C24.6984 29.331 23.3313 29.3726 22.2805 28.6864C21.7783 28.3104 21.3795 27.813 21.1216 27.2409C20.7109 26.2986 20.4559 25.2958 20.3663 24.2718C20.3323 23.9942 20.0851 23.793 19.8063 23.8161C19.6909 23.8304 19.5845 23.8858 19.5068 23.9724C19.7175 23.7529 19.9392 23.5442 20.1709 23.3473C20.5149 23.1616 20.5289 22.673 20.196 22.468C19.9963 22.345 19.7384 22.3748 19.5719 22.5398C19.064 22.8785 18.2697 23.6598 17.5535 24.1546L17.2149 24.389C17.0427 24.2201 16.8552 24.0676 16.6549 23.9333C15.9817 23.1794 15.2643 22.4662 14.5063 21.7976C14.1608 21.5144 13.7288 21.3581 13.2821 21.3549C12.8591 21.435 12.4693 21.6389 12.1623 21.9409C11.6275 22.5093 11.1439 23.1238 10.7168 23.777C10.4043 23.4385 10.0396 22.8916 9.64894 22.4748C9.37734 22.18 9.03747 21.9565 8.6592 21.8237C8.41694 21.7494 8.15414 21.7877 7.94307 21.9278C7.73814 22.0904 7.54654 22.2689 7.37 22.4618L5.89854 24.363L5.66414 24.2328L3.242 22.4748C3.06894 22.3665 2.84294 22.3996 2.708 22.5529H2.64294C2.58267 22.6222 2.54614 22.7089 2.5388 22.8004L2.682 26.3816C2.812 28.1381 3.78187 29.724 5.28654 30.6398C6.74707 31.472 8.4344 31.8186 10.1047 31.6294C10.8209 31.5644 12.1753 31.5384 13.764 31.4862C15.3527 31.4341 17.5795 31.304 19.3636 31.1868C21.4549 31.0152 23.5337 30.715 25.5883 30.2882C27.4951 29.5697 29.0152 28.0873 29.7815 26.1992C30.2191 24.9318 30.5245 23.6226 30.6929 22.2925C30.9247 20.3476 31.0464 18.391 31.0576 16.4325C31.0836 13.867 30.9664 11.3928 30.7841 8.90558ZM20.6659 29.8324H13.2301C11.8367 29.8324 10.6256 29.8324 9.9876 29.9105C8.65334 30.1165 7.28814 29.9026 6.0808 29.2985C4.91627 28.6833 4.10334 27.5624 3.88014 26.2642L3.5936 23.8942L3.6848 23.9724C4.12747 24.363 4.54427 24.7668 4.98694 25.1704C4.98694 25.1704 5.36467 25.5741 5.50787 25.7044C5.67534 25.8609 5.914 25.9156 6.13294 25.8476C6.4212 25.7401 6.68 25.5661 6.88827 25.3397C7.40907 24.8449 8.06027 23.9333 8.43787 23.6338L9.74014 25.1184C9.74014 25.1184 10.1047 25.483 10.248 25.6132C10.6209 25.939 11.1772 25.939 11.5501 25.6132C11.8107 25.3528 12.4227 24.4542 13.0477 23.725C13.2136 23.5189 13.3965 23.3272 13.5947 23.152C13.6317 23.1237 13.6627 23.0882 13.6859 23.0478C14.5133 23.6209 15.2851 24.2705 15.9908 24.9881C16.2245 25.2285 16.4724 25.4546 16.7331 25.6653C16.8813 25.7802 17.0669 25.836 17.254 25.8216C17.7369 25.7132 18.1849 25.4848 18.5561 25.1574C18.9468 24.8318 19.3375 24.4412 19.7152 24.0766C19.6341 24.1748 19.5965 24.3017 19.6109 24.4282C19.6736 25.5756 19.9197 26.7056 20.3403 27.7749C20.6611 28.5381 21.1668 29.2093 21.8117 29.7282L21.942 29.8194C21.3951 29.8064 21.0304 29.8324 20.6659 29.8324Z" fill="#1A1A1A"/>
<path fill-rule="evenodd" clip-rule="evenodd" d="M16.6028 7.06924C16.1512 6.97204 15.6948 6.89817 15.2355 6.84791H14.6365C14.4329 6.82804 14.228 6.82804 14.0244 6.84791C13.5728 6.98524 13.1365 7.16857 12.7223 7.39484C12.3995 7.53231 12.3467 7.96777 12.6272 8.17844C12.6928 8.22791 12.7707 8.25857 12.8524 8.26724C13.3083 8.26724 13.7119 8.41057 14.1547 8.44964H14.7016L15.2616 8.38444L16.5637 8.08497C16.8472 8.09991 17.0851 7.87391 17.0847 7.59017C17.0855 7.31697 16.8752 7.08977 16.6028 7.06924Z" fill="#A7289E"/>
<path fill-rule="evenodd" clip-rule="evenodd" d="M15.3007 9.93433C15.058 9.91447 14.814 9.91447 14.5713 9.93433C13.9892 10.0758 13.4153 10.2497 12.8524 10.4553C12.5116 10.4802 12.3257 10.8649 12.5179 11.1475C12.6069 11.2787 12.7593 11.3523 12.9176 11.3407C13.4905 11.4319 14.0115 11.5621 14.5975 11.6273C14.8273 11.6403 15.0577 11.6403 15.2876 11.6273C15.5216 11.6477 15.7568 11.6477 15.9908 11.6273C16.5637 11.5491 17.0977 11.4319 17.6576 11.3277C18.0436 11.3901 18.3524 11.0113 18.2135 10.6458C18.1277 10.4206 17.8956 10.2866 17.6576 10.325C17.0977 10.2078 16.5508 10.0906 15.9777 10.0255C15.7537 9.9834 15.5277 9.953 15.3007 9.93433Z" fill="#A7289E"/>
</svg>
