<svg width="48" height="48" viewBox="0 0 48 48" fill="none" xmlns="http://www.w3.org/2000/svg">
<path fill-rule="evenodd" clip-rule="evenodd" d="M46.84 34.7801C46.84 34.6201 46.62 29.9801 46.5 29.8201C45.8604 29.1453 45.1496 28.5418 44.38 28.0201C44.3222 27.9689 44.2549 27.9295 44.1819 27.9043C44.109 27.8791 44.0317 27.8685 43.9547 27.8732C43.8776 27.8778 43.8022 27.8976 43.7327 27.9314C43.6633 27.9652 43.6012 28.0123 43.55 28.0701C43.4988 28.1278 43.4595 28.1952 43.4343 28.2681C43.409 28.3411 43.3985 28.4183 43.4031 28.4954C43.4078 28.5725 43.4275 28.6479 43.4613 28.7173C43.4951 28.7868 43.5422 28.8489 43.6 28.9001C43.84 29.1201 44.3 30.0601 44.78 30.5001C43.98 30.8601 40.02 32.0401 39.24 32.2401C37.9425 31.0453 36.4811 30.0419 34.9 29.2601C36.998 28.7628 39.0516 28.0939 41.04 27.2601C49.04 23.1001 41.04 14.3601 35.48 23.7401C33.32 20.3201 28.02 17.4001 25.04 20.3201C22.06 23.2401 25.98 26.3201 29.38 28.2001C30.261 28.6217 31.1698 28.9826 32.1 29.2801C30 30.0801 28.4 29.8201 26.8 31.0601C22.8 28.6201 22.8 28.3001 22.48 28.2001C23.0192 27.8394 23.624 27.5879 24.26 27.4601C24.4404 27.4601 24.6133 27.3884 24.7408 27.2609C24.8684 27.1334 24.94 26.9604 24.94 26.7801C24.94 26.5997 24.8684 26.4268 24.7408 26.2992C24.6133 26.1717 24.4404 26.1001 24.26 26.1001C22.86 26.1001 20.36 26.5401 20.26 27.9801C19.9499 30.3869 19.8296 32.8144 19.9 35.2401C19.8308 37.0806 20.102 38.918 20.7 40.6601C23.4325 42.9915 26.3637 45.0794 29.46 46.9001C29.9397 47.3257 30.5078 47.6397 31.1233 47.8195C31.7389 47.9993 32.3866 48.0405 33.02 47.9401C34.8218 47.5638 36.5985 47.0762 38.34 46.4801C41.0874 45.7167 43.6799 44.4779 46 42.8201C46.48 42.5001 47.86 42.2401 47.72 40.6001C47.309 38.6797 47.0151 36.7361 46.84 34.7801ZM37.2 25.2801C40 19.4201 43.72 21.7401 42.26 24.0001C40.7731 25.7916 38.7078 27.0082 36.42 27.4401C36.7219 26.7359 36.9823 26.0146 37.2 25.2801ZM26.36 21.7001C28.36 19.9001 32.36 22.7801 33.58 24.9801C34.26 26.1401 34.44 27.7201 33.14 28.1601C32.1114 27.8039 31.1089 27.3762 30.14 26.8801C28.36 25.8001 24.8 23.1001 26.36 21.7001ZM33.62 30.1601C34.2 30.7801 35.78 31.8201 36.78 32.7001C31.6 33.4601 32.78 34.5201 28.78 32.2601C30 31.5801 33.02 30.6401 33.62 30.1601ZM22.24 38.1601C21.9108 35.1916 21.7505 32.2068 21.76 29.2201C23.0709 30.4083 24.4463 31.5233 25.88 32.5601C25.3952 35.5924 25.0947 38.6514 24.98 41.7201C21.44 38.6601 22.4 39.4201 22.24 38.1201V38.1601ZM26.24 42.7001C26.56 42.2201 27.96 34.2201 27.98 33.9801C28.6632 34.4445 29.3708 34.8718 30.1 35.2601C30.1405 38.078 30.0203 40.8959 29.74 43.7001C29.69 44.3057 29.69 44.9144 29.74 45.5201C28.74 44.7401 27.44 43.7201 26.16 42.6601L26.24 42.7001ZM32.5 45.9001C32.1 46.0001 31.86 45.9001 31.78 45.7201C31.34 44.6201 31.78 40.4401 31.46 35.7201C32.9505 35.8168 34.4455 35.6198 35.86 35.1401C36.76 35.0201 37.62 34.9001 38.48 34.7001C39.707 37.3379 40.4779 40.1646 40.76 43.0601C38.0505 44.1916 35.2634 45.1273 32.42 45.8601L32.5 45.9001ZM42 42.5801C42.3405 39.6455 41.8557 36.6742 40.6 34.0001L44.74 32.2601C46.06 31.8201 44.88 32.2601 45.4 34.8201L46 40.3201C44.7437 41.2022 43.404 41.9592 42 42.5801Z" fill="#020202"/>
<path fill-rule="evenodd" clip-rule="evenodd" d="M18.7399 10.68C20.5199 10.68 22.3399 10.5 24.1199 10.56C29.6399 10.7 28.4399 11.08 28.6199 11.64L29.3999 15.48C29.4374 15.6215 29.5252 15.7443 29.6468 15.8256C29.7685 15.9068 29.9156 15.9408 30.0606 15.9211C30.2056 15.9014 30.3383 15.8295 30.434 15.7188C30.5296 15.6081 30.5815 15.4663 30.5799 15.32C30.0199 10.18 30.1399 9.78003 29.0799 9.32003C27.8256 8.89976 26.5326 8.60498 25.2199 8.44003C25.2299 6.36636 24.5234 4.35288 23.2199 2.74003C22.7089 2.19001 22.0899 1.75128 21.4017 1.45128C20.7135 1.15127 19.9707 0.99643 19.2199 0.99643C18.4692 0.99643 17.7264 1.15127 17.0382 1.45128C16.35 1.75128 15.731 2.19001 15.2199 2.74003C13.9349 4.55106 12.9989 6.58584 12.4599 8.74003C12.4599 9.02003 13.0599 8.88003 8.25995 9.26003C8.75177 7.31607 9.42125 5.42143 10.2599 3.60003C10.6383 2.8662 11.2443 2.27471 11.987 1.91416C12.7297 1.5536 13.5693 1.44339 14.3799 1.60003C14.4679 1.61711 14.5584 1.61668 14.6462 1.59878C14.7341 1.58088 14.8175 1.54586 14.8918 1.49572C14.9661 1.44558 15.0298 1.38129 15.0792 1.30654C15.1286 1.23178 15.1629 1.14802 15.1799 1.06003C15.197 0.972049 15.1966 0.881562 15.1787 0.793741C15.1608 0.705919 15.1258 0.622483 15.0756 0.548197C15.0255 0.47391 14.9612 0.410227 14.8864 0.360784C14.8117 0.311341 14.7279 0.277106 14.6399 0.260034C13.6399 -0.0394633 12.5803 -0.0807473 11.5599 0.140034C10.421 0.439981 9.39835 1.07506 8.62453 1.96299C7.85072 2.85091 7.36139 3.95076 7.21995 5.12003C6.98255 6.54263 6.83558 7.97884 6.77995 9.42003C5.31995 9.42003 5.13995 9.42003 4.97995 9.74003C4.81995 10.06 4.55995 10 4.15995 12.24C2.63995 18.48 2.15995 19.4 1.53995 22.1C0.852854 24.9741 0.444299 27.9076 0.319946 30.86C0.699946 34.48 4.65995 33.78 7.75995 33.84L15.1599 34.2C15.3257 34.1991 15.4854 34.1377 15.6091 34.0274C15.7327 33.917 15.8118 33.7653 15.8315 33.6007C15.8511 33.4361 15.81 33.27 15.7158 33.1336C15.6216 32.9972 15.4808 32.8999 15.3199 32.86L9.99995 32.34C10.0356 30.8923 9.9955 29.4436 9.87995 28C9.75156 22.6433 9.29067 17.2997 8.49995 12C8.49995 11.5 8.49995 11.24 8.33995 10.88C12.6999 10.88 13.9999 10.92 18.7399 10.68ZM16.2999 4.78003C18.5199 2.14003 22.8199 2.78003 23.7599 8.36003C20.4583 8.23355 17.152 8.40087 13.8799 8.86003C14.5372 7.41679 15.3486 6.04884 16.2999 4.78003ZM8.63995 32.18C6.81995 32 5.53995 32 4.19995 31.86C2.35995 31.56 2.43995 31.18 2.51995 30.02C2.59995 28.86 3.65995 22.16 4.81995 17.04C5.87995 9.86003 5.57995 11.04 6.35995 10.86H6.99995C6.97813 11.298 7.02537 11.7367 7.13995 12.16C7.13995 16.16 7.13995 20.16 7.29995 22.62C7.41995 24 8.39995 31.38 8.63995 32.18Z" fill="#A7289E"/>
</svg>
