<svg width="48" height="48" viewBox="0 0 48 48" fill="none" xmlns="http://www.w3.org/2000/svg">
<g clip-path="url(#clip0_377_3734)">
<path fill-rule="evenodd" clip-rule="evenodd" d="M3.21997 17.9999C4.45138 18.5002 5.80948 18.5982 7.09997 18.2799C7.70622 18.1013 8.26155 17.7817 8.72044 17.3472C9.17932 16.9126 9.52871 16.3755 9.73997 15.7799C10.0244 14.9891 10.1129 14.1412 9.99798 13.3087C9.88304 12.4762 9.56804 11.684 9.07997 10.9999C8.42247 10.1523 7.46167 9.59303 6.39997 9.43987C5.28422 9.23867 4.13332 9.40477 3.11999 9.91324C2.10666 10.4217 1.28557 11.2451 0.779971 12.2599C0.458942 13.5103 0.586326 14.8337 1.13997 15.9999C1.56032 16.9021 2.30195 17.6152 3.21997 17.9999ZM2.31997 12.6999C2.58942 11.9924 3.12664 11.4194 3.81535 11.105C4.50406 10.7906 5.28888 10.76 5.99997 11.0199C6.61269 11.1417 7.15612 11.4921 7.51997 11.9999C7.93456 12.7429 8.04222 13.6186 7.81997 14.4399C7.76053 14.7946 7.60655 15.1266 7.37425 15.4012C7.14195 15.6757 6.83992 15.8825 6.49997 15.9999C5.84313 16.1617 5.15682 16.1617 4.49997 15.9999C4.19671 15.9525 3.90599 15.845 3.64494 15.6835C3.38389 15.5221 3.15779 15.31 2.97997 15.0599C2.46707 14.3862 2.23097 13.5419 2.31997 12.6999Z" fill="#A7289E"/>
<path fill-rule="evenodd" clip-rule="evenodd" d="M38 9.61989C37.8435 9.75636 37.6965 9.90337 37.56 10.0599C36.9007 10.7975 36.2926 11.5793 35.74 12.3999L34.56 14.1999C34.56 14.1999 34.06 14.6199 34 14.8199C33.266 14.4137 32.4677 14.1363 31.64 13.9999C29.8739 13.6985 28.0589 13.8922 26.3961 14.5594C24.7334 15.2266 23.2879 16.3413 22.22 17.7799L22 17.6599L19.6 16.4199C18.658 16.1078 17.6957 15.8606 16.72 15.6799C15.745 15.5531 14.7632 15.4863 13.78 15.4799L12.28 15.0799C12.0996 15.0799 11.9267 15.1515 11.7992 15.2791C11.6716 15.4066 11.6 15.5795 11.6 15.7599C11.6031 15.9313 11.6672 16.0959 11.7809 16.2242C11.8945 16.3525 12.0502 16.4361 12.22 16.4599C12.22 16.6399 12.64 16.7599 12.92 16.8999C13.1152 17.0117 13.3234 17.099 13.54 17.1599C14.48 17.3799 15.36 17.6999 16.28 17.9199C17.2 18.1399 18.1 18.2599 19.04 18.4799L21.38 18.9799H21.6V19.1399C20.9878 21.4278 21.2075 23.8588 22.22 25.9999C22.5117 26.575 22.8819 27.1067 23.32 27.5799L24.38 28.5199C24.8071 28.8288 25.2625 29.0967 25.74 29.3199C26.7975 29.7475 27.9204 29.991 29.06 30.0399H30.62C31.2953 29.985 31.9645 29.8712 32.62 29.6999C33.9769 29.2761 35.1663 28.4365 36.02 27.2999C36.24 27.5399 36.6 28.0199 37.14 28.6199C37.2907 28.8079 37.458 28.982 37.64 29.1399C37.92 29.3799 38.2 29.5999 38.48 29.7999C40.28 30.2799 40.48 29.4599 40.36 28.3999L40 27.9999C39.7389 27.7569 39.4579 27.5361 39.16 27.3399L38.5 26.9799C37.76 26.5999 37.16 26.3599 36.86 26.2399C37.2298 25.5342 37.4991 24.7802 37.66 23.9999C38.1761 21.5131 37.7026 18.9231 36.34 16.7799C36.039 16.3364 35.6752 15.9389 35.26 15.5999L35.7 15.2399L37.56 13.6599C38.12 12.9599 38.78 12.2799 39.38 11.5399C39.58 11.3199 39.76 11.0799 39.94 10.8399C40.48 8.87989 40 8.35989 38 9.61989ZM28.9 31.3199V32.1799V33.4599C28.9 33.8799 29.08 34.6999 29.18 35.3199C29.28 35.9399 31.08 36.4199 31.18 35.4999C31.28 34.5799 31.18 34.0599 31.18 33.3399C31.1698 32.8977 31.1297 32.4567 31.06 32.0199C31.0055 31.7222 30.9321 31.4282 30.84 31.1399C30.56 30.3399 29.08 30.5199 28.9 31.3199ZM21.58 28.7399L20.98 29.1199C20.06 29.6799 19.14 30.1999 18.24 30.7999C17.34 31.3999 16.48 31.9999 15.64 32.6399C14 33.9999 12.32 35.3599 10.74 36.7799L10.24 37.2199C8.4 39.2199 8.88 39.5599 11.22 38.6799L12 38.1999C13.02 37.4399 14 36.7399 15.1 35.9999C16.2 35.2599 17.1 34.5199 18.14 33.7599C19.48 32.7199 20.76 31.6399 22.14 30.5999L22.8 30.0599C23.34 28.7399 22.98 28.3199 21.58 28.7399ZM35.44 23.5399C35.2775 24.4536 34.8725 25.307 34.2674 26.0106C33.6622 26.7143 32.8791 27.2425 32 27.5399C30.5057 27.935 28.9343 27.935 27.44 27.5399C26.7314 27.4077 26.0587 27.1274 25.4659 26.7172C24.8731 26.3071 24.3735 25.7764 24 25.1599C23.0368 23.4988 22.7031 21.5466 23.06 19.6599C24 15.9199 28.42 14.8999 31.28 15.6599C31.9654 15.7788 32.619 16.0372 33.2004 16.4191C33.7818 16.8009 34.2786 17.2982 34.66 17.8799C35.6078 19.6062 35.8855 21.6215 35.44 23.5399Z" fill="#020202"/>
<path fill-rule="evenodd" clip-rule="evenodd" d="M29.4 36.5799C28.7292 36.5088 28.051 36.563 27.4 36.7399C26.7078 36.8818 26.0656 37.2046 25.5386 37.6753C25.0117 38.1461 24.6188 38.748 24.4 39.4199C24.0706 40.7759 24.2709 42.2065 24.96 43.4199C25.4543 44.2682 26.2341 44.9133 27.16 45.2399C28.402 45.6392 29.738 45.6392 30.98 45.2399C31.8013 44.9886 32.5088 44.458 32.98 43.7399C33.3721 43.0623 33.5983 42.3016 33.64 41.5199C33.6454 41.4279 33.6326 41.3358 33.6024 41.2488C33.5721 41.1618 33.5249 41.0816 33.4636 41.0129C33.4023 40.9441 33.328 40.8882 33.2451 40.8482C33.1621 40.8082 33.072 40.785 32.98 40.7799C32.8891 40.7717 32.7974 40.7819 32.7105 40.8099C32.6236 40.8379 32.5432 40.8831 32.4742 40.9428C32.4051 41.0025 32.3488 41.0756 32.3086 41.1575C32.2683 41.2395 32.245 41.3287 32.24 41.4199C32.1832 41.9321 31.9821 42.4176 31.66 42.8199C31.3685 43.1697 30.9664 43.4096 30.52 43.4999C29.8026 43.6119 29.0687 43.5502 28.38 43.3199C28.0909 43.2438 27.8208 43.1085 27.5867 42.9226C27.3526 42.7367 27.1596 42.5042 27.02 42.2399C26.6313 41.5841 26.4894 40.811 26.62 40.0599C26.7206 39.7142 26.9045 39.3985 27.1556 39.1404C27.4067 38.8824 27.7172 38.6899 28.06 38.5799C28.6833 38.2875 29.3784 38.1833 30.06 38.2799C30.7245 38.3279 31.3429 38.6371 31.78 39.1399C31.8799 39.2495 32.0157 39.3197 32.1629 39.3377C32.3101 39.3557 32.4588 39.3204 32.5822 39.2381C32.7056 39.1559 32.7954 39.0322 32.8353 38.8894C32.8753 38.7466 32.8628 38.5942 32.8 38.4599C32.4105 37.8108 31.821 37.3056 31.12 37.0199L29.4 36.5799Z" fill="#A7289E"/>
<path fill-rule="evenodd" clip-rule="evenodd" d="M46.66 1.61995C46.018 0.754302 45.0637 0.173133 44 -5.35697e-05C42.8863 -0.20624 41.7357 -0.0445925 40.7219 0.460495C39.7081 0.965582 38.8861 1.7867 38.38 2.79995C38.0422 4.05755 38.1774 5.39536 38.76 6.55995C39.0283 7.10739 39.4182 7.58626 39.9 7.95995L41.46 8.69995C42.5234 8.96748 43.6365 8.96748 44.7 8.69995C45.282 8.53917 45.82 8.24873 46.2737 7.8504C46.7275 7.45208 47.0852 6.9562 47.32 6.39995C47.6044 5.60917 47.6929 4.76123 47.578 3.92876C47.463 3.09628 47.148 2.30406 46.66 1.61995ZM45.4 5.09995C45.342 5.44603 45.1872 5.76865 44.9537 6.03054C44.7201 6.29243 44.4172 6.48289 44.08 6.57995C43.422 6.73205 42.738 6.73205 42.08 6.57995C41.7767 6.53261 41.486 6.42506 41.2249 6.26362C40.9639 6.10218 40.7378 5.89012 40.56 5.63995C38.84 3.05995 40.84 0.879946 43.7 1.63995C44.3003 1.77818 44.8237 2.14381 45.16 2.65995C45.5464 3.41345 45.6322 4.2856 45.4 5.09995Z" fill="#A7289E"/>
<path fill-rule="evenodd" clip-rule="evenodd" d="M8.75999 40.6399L7.71999 39.6599C7.19392 39.3402 6.60903 39.1294 5.99999 39.0399C4.88685 38.8367 3.7378 39.002 2.72716 39.511C1.71653 40.0199 0.899483 40.8446 0.39999 41.8599C0.0661418 43.1151 0.216044 44.45 0.81999 45.5999C1.2096 46.4956 1.92429 47.2103 2.81999 47.5999C4.08858 48.1207 5.49122 48.2189 6.81999 47.8799C7.42358 47.7101 7.97881 47.4009 8.44087 46.977C8.90293 46.5532 9.25888 46.0266 9.47999 45.4399C9.76113 44.6419 9.84249 43.7871 9.71698 42.9504C9.59147 42.1136 9.2629 41.3203 8.75999 40.6399ZM7.47999 43.9999C7.42042 44.3485 7.26272 44.6728 7.02539 44.9349C6.78806 45.1971 6.48093 45.3861 6.13999 45.4799C5.48242 45.6356 4.79757 45.6356 4.13999 45.4799C3.83568 45.4359 3.54369 45.3298 3.28218 45.1681C3.02068 45.0063 2.79527 44.7925 2.61999 44.5399C2.14879 43.8854 1.92873 43.0832 1.99999 42.2799C2.12594 41.9199 2.32414 41.5893 2.58241 41.3086C2.84068 41.0279 3.15359 40.8029 3.50193 40.6475C3.85027 40.4921 4.22669 40.4094 4.60811 40.4047C4.98953 40.3999 5.36789 40.4732 5.71999 40.6199C6.31947 40.7601 6.84216 41.1252 7.17999 41.6399C7.57563 42.3601 7.68286 43.2037 7.47999 43.9999Z" fill="#A7289E"/>
<path fill-rule="evenodd" clip-rule="evenodd" d="M46.98 29.4599C46.5545 28.9203 45.9647 28.5342 45.3 28.3599C44.6016 28.2007 43.8755 28.2083 43.1805 28.382C42.4856 28.5557 41.8413 28.8908 41.3 29.3599L40.48 30.8799C40.3395 31.7314 40.4436 32.6052 40.78 33.3999C41.1164 34.0967 41.6911 34.65 42.4 34.9599C43.3696 35.3588 44.4401 35.4427 45.46 35.1999C45.9487 35.0627 46.3969 34.8091 46.7661 34.4608C47.1353 34.1125 47.4146 33.6798 47.58 33.1999C47.7881 32.5742 47.8422 31.9075 47.7378 31.2565C47.6333 30.6054 47.3734 29.9891 46.98 29.4599ZM45.54 32.0999C45.5057 32.2975 45.4162 32.4813 45.2816 32.6299C45.1471 32.7786 44.9732 32.8861 44.78 32.9399C44.3391 33.0416 43.8809 33.0416 43.44 32.9399C43.2556 32.924 43.0767 32.8694 42.9147 32.7799C42.7528 32.6903 42.6115 32.5676 42.5 32.4199C42.321 32.209 42.1877 31.9632 42.1085 31.6981C42.0293 31.4331 42.006 31.1545 42.04 30.8799C42.24 29.8199 43.46 29.5199 44.5 29.8199C44.8802 29.9132 45.2098 30.1496 45.42 30.4799C45.5522 30.7265 45.6312 30.9981 45.6519 31.2772C45.6726 31.5562 45.6344 31.8365 45.54 32.0999Z" fill="#A7289E"/>
</g>
<defs>
<clipPath id="clip0_377_3734">
<rect width="48" height="48" fill="white"/>
</clipPath>
</defs>
</svg>
