<svg width="42" height="42" viewBox="0 0 42 42" fill="none" xmlns="http://www.w3.org/2000/svg">
<path d="M0 21C0 9.40202 9.40202 0 21 0C32.598 0 42 9.40202 42 21C42 32.598 32.598 42 21 42C9.40202 42 0 32.598 0 21Z" fill="#F5F5F5"/>
<path fill-rule="evenodd" clip-rule="evenodd" d="M22.9036 13.8567C21.7971 12.9483 20.2029 12.9483 19.0964 13.8567L13.7309 18.2617C13.2682 18.6416 13 19.2088 13 19.8075V27.0001C13 28.1046 13.8954 29.0001 15 29.0001H27C28.1046 29.0001 29 28.1046 29 27.0001V19.8075C29 19.2088 28.7318 18.6416 28.2691 18.2617L22.9036 13.8567ZM17.8273 12.3109C19.6715 10.7969 22.3285 10.7969 24.1727 12.3109L29.5381 16.7159C30.4636 17.4757 31 18.6101 31 19.8075V27.0001C31 29.2092 29.2091 31.0001 27 31.0001H15C12.7909 31.0001 11 29.2092 11 27.0001V19.8075C11 18.6101 11.5364 17.4757 12.4619 16.7159L17.8273 12.3109Z" fill="black"/>
</svg>
