<svg width="33" height="32" viewBox="0 0 33 32" fill="none" xmlns="http://www.w3.org/2000/svg">
<g clip-path="url(#clip0_109_3521)">
<path fill-rule="evenodd" clip-rule="evenodd" d="M21.9333 27.0538C18.7465 26.6429 15.5202 26.6429 12.3333 27.0538C11.6667 27.1071 11 27.1871 10.3333 27.2938C10.2273 27.2938 10.1255 27.3359 10.0505 27.411C9.97549 27.486 9.93335 27.5877 9.93335 27.6938C9.93335 27.7999 9.97549 27.9016 10.0505 27.9766C10.1255 28.0517 10.2273 28.0938 10.3333 28.0938H11.8267C11.3467 30.2938 11.9467 31.8938 12.5333 31.7871C13.32 31.6538 12.9733 28.9338 12.8 28.1605C16 28.3605 13.8267 28.3605 21.32 28.1605C20.92 29.8005 21.4534 32.1605 21.8934 32.0138C22.3334 31.8671 22.6533 30.5605 22.72 29.3471C22.72 28.9338 22.6267 28.2805 22.72 28.1605C22.8133 28.0405 22.72 28.1605 25.3867 28.2538C25.9467 28.2538 25.8534 27.1871 25.3867 27.2005C24.1467 27.1071 24.6 27.2938 21.9333 27.0538Z" fill="#1A1A1A"/>
<path fill-rule="evenodd" clip-rule="evenodd" d="M30.9601 12.4405C29.4934 9.77378 26.6267 8.29378 24.0267 9.86712C20.7334 11.8271 18.9334 17.9871 21.5201 21.8671C22.2144 22.9313 23.1225 23.8395 24.1867 24.5338C24.5683 24.7313 24.9773 24.8706 25.4001 24.9471C25.8534 25.0271 26.0134 24.4405 25.4001 24.1071C25.1308 24.0366 24.8711 23.9336 24.6267 23.8005C23.7229 23.1399 22.9649 22.3003 22.4001 21.3338C20.5334 18.1871 22.0001 13.2538 24.4267 11.4405C28.5201 8.37378 32.5601 16.1071 30.5734 21.8538C29.6534 24.5205 28.1734 24.5205 28.0267 25.0538C28.0082 25.1213 28.0055 25.1922 28.019 25.2609C28.0324 25.3296 28.0616 25.3943 28.1042 25.4498C28.1469 25.5053 28.2018 25.5502 28.2647 25.581C28.3276 25.6118 28.3967 25.6276 28.4667 25.6271C29.238 25.306 29.9231 24.8082 30.4667 24.1738C32.6001 21.6138 33.0267 16.2405 30.9601 12.4405Z" fill="#A7289E"/>
<path fill-rule="evenodd" clip-rule="evenodd" d="M26.4267 31.1471C26.409 31.2673 26.4398 31.3897 26.5123 31.4872C26.5849 31.5847 26.6931 31.6494 26.8134 31.6671C26.9336 31.6848 27.0559 31.654 27.1534 31.5815C27.251 31.5089 27.3157 31.4007 27.3334 31.2804C27.7082 29.2359 27.7935 27.1488 27.5867 25.0804C27.4667 24.1871 27.2934 23.3071 27.1867 22.6004C27.84 22.2538 27.8534 21.8138 29.0667 18.2138C29.1467 17.7871 29.6267 16.4538 29.32 16.0538C29.2623 15.9879 29.1876 15.939 29.1041 15.9126C29.0205 15.8861 28.9313 15.883 28.8462 15.9036C28.761 15.9242 28.6831 15.9677 28.6209 16.0295C28.5587 16.0912 28.5146 16.1688 28.4934 16.2538C28.0933 17.6784 27.5202 19.0486 26.7867 20.3338C26.7867 20.4271 26.72 20.7071 26.6667 20.9338C26.4267 20.3604 26.7867 20.9338 25.04 18.2671C24.5867 17.4271 24.3334 16.7204 23.9334 16.7071C23.8586 16.6992 23.783 16.7101 23.7135 16.7387C23.644 16.7672 23.5826 16.8127 23.535 16.8709C23.4874 16.9291 23.455 16.9982 23.4408 17.072C23.4265 17.1458 23.4308 17.222 23.4534 17.2938C23.4534 17.4271 23.2134 16.7871 24.0534 18.6938C24.3067 19.4538 25.52 22.2004 26.2534 22.5738C26.4134 25.6804 26.5467 29.1604 26.4267 31.1471Z" fill="#1A1A1A"/>
<path fill-rule="evenodd" clip-rule="evenodd" d="M14.12 9.0673C14.48 9.50731 14.92 14.2406 15.12 15.9073C15.4706 18.5384 15.6753 21.1869 15.7334 23.8406C15.7334 23.9609 15.7811 24.0762 15.8661 24.1612C15.9512 24.2462 16.0665 24.294 16.1867 24.294C16.3069 24.294 16.4222 24.2462 16.5072 24.1612C16.5923 24.0762 16.64 23.9609 16.64 23.8406C16.661 21.1692 16.5364 18.4985 16.2667 15.8406C16.04 13.4806 15.8667 9.17397 15.2134 8.28064C14.5028 7.54478 13.5617 7.07426 12.5467 6.9473C12.6711 6.29093 12.6711 5.61702 12.5467 4.96064C12.5012 4.64786 12.3787 4.35128 12.1902 4.09759C12.0017 3.8439 11.7531 3.64106 11.4667 3.5073C10.6051 3.23147 9.70464 3.0964 8.80003 3.1073C9.13084 2.2492 9.13084 1.29875 8.80003 0.440638C8.80003 0.381105 8.7883 0.322156 8.76552 0.267155C8.74274 0.212154 8.70934 0.162179 8.66725 0.120083C8.62515 0.0779871 8.57518 0.0445948 8.52018 0.0218126C8.46518 -0.0009695 8.40623 -0.0126953 8.34669 -0.0126953C8.28716 -0.0126953 8.22821 -0.0009695 8.17321 0.0218126C8.11821 0.0445948 8.06823 0.0779871 8.02614 0.120083C7.98404 0.162179 7.95065 0.212154 7.92787 0.267155C7.90509 0.322156 7.89336 0.381105 7.89336 0.440638C7.54074 1.29456 7.54074 2.25339 7.89336 3.1073C7.44449 3.14009 6.99876 3.20695 6.56003 3.3073C5.46669 3.5873 4.46669 3.6273 4.30669 4.76064C4.26801 5.51343 4.30374 6.2682 4.41336 7.01397C1.62669 7.68064 1.44003 8.4273 1.24003 10.0006C0.813206 16.7576 0.786492 23.5339 1.16003 30.294C1.16003 30.4001 1.20217 30.5018 1.27718 30.5768C1.3522 30.6518 1.45394 30.694 1.56003 30.694C1.66611 30.694 1.76785 30.6518 1.84287 30.5768C1.91788 30.5018 1.96003 30.4001 1.96003 30.294C1.85336 26.0406 2.16003 14.8673 2.68003 10.6673C2.86669 9.13397 2.68003 9.1473 4.17336 8.73397C7.26669 7.84064 13.2267 8.00064 14.12 9.0673ZM5.42669 4.96064C7.29739 4.63214 9.2051 4.5693 11.0934 4.77397C11.4667 4.85397 11.7067 6.3473 11.68 6.77397C9.51954 6.52399 7.3351 6.56885 5.18669 6.9073C5.34669 6.36064 5.80003 5.25397 5.42669 4.96064Z" fill="#1A1A1A"/>
<path fill-rule="evenodd" clip-rule="evenodd" d="M8.42669 10.5206C8.06669 9.80061 7.66669 9.96061 5.41335 10.2006C4.33335 10.2006 4.08002 11.3739 3.98669 12.0539C3.89905 12.6865 3.89905 13.3281 3.98669 13.9606C4.16002 14.5606 5.60002 14.6139 6.29335 14.6273C6.98669 14.6406 8.17335 14.6673 8.60002 14.0539C8.91393 13.1424 8.91393 12.1521 8.60002 11.2406C8.56995 10.9948 8.51179 10.7532 8.42669 10.5206ZM5.01335 13.1873C4.95974 12.6241 4.95974 12.0571 5.01335 11.4939C5.01335 11.4006 5.09335 11.2939 5.01335 11.2673C5.03316 11.2209 5.04337 11.171 5.04337 11.1206C5.04337 11.0702 5.03316 11.0203 5.01335 10.9739C5.10378 11.0587 5.22277 11.1063 5.34669 11.1073C7.21335 11.1073 6.81335 11.1073 7.16002 11.2139C7.27333 11.5712 7.31413 11.9474 7.28002 12.3206V13.0273C6.90669 13.1073 5.26669 13.1873 5.01335 13.1873Z" fill="#A7289E"/>
<path fill-rule="evenodd" clip-rule="evenodd" d="M12.9867 20.2674C13.6133 20.0541 13.7867 19.4941 13.8 18.8274C13.7825 17.9828 13.6524 17.1443 13.4133 16.3341C13.0533 15.6141 12.6667 15.7741 10.4 16.0141C9.32 16.0141 9.06667 17.1874 8.98667 17.8674C8.86759 18.4957 8.84064 19.138 8.90667 19.7741C9.14667 20.6141 12.1733 20.5341 12.9867 20.2674ZM10 19.0008C9.926 18.4485 9.90368 17.8905 9.93333 17.3341C9.93333 17.2408 10.0133 17.1341 9.93333 17.1074C9.95314 17.0611 9.96335 17.0112 9.96335 16.9608C9.96335 16.9103 9.95314 16.8604 9.93333 16.8141C10.1067 17.0008 10.1333 16.9474 11.8133 16.9874C11.902 16.9785 11.9913 16.9785 12.08 16.9874C12.08 17.0941 12.08 17.2141 12.16 17.2541C12.24 17.2941 12.2267 18.7341 12.2267 18.8008C11.488 18.9026 10.745 18.9693 10 19.0008Z" fill="#A7289E"/>
<path fill-rule="evenodd" clip-rule="evenodd" d="M7.89336 22.1075C7.56003 21.4008 7.13336 21.5341 4.88003 21.7875C3.80003 21.7875 3.5467 22.9475 3.4667 23.6408C3.3545 24.2654 3.32758 24.9023 3.3867 25.5341C3.57336 26.1341 5.01336 26.1875 5.69336 26.2008C6.37336 26.2141 7.65336 26.2008 8.01336 25.6408C8.34897 24.7368 8.37243 23.7464 8.08003 22.8275C8.03964 22.5823 7.97717 22.3414 7.89336 22.1075ZM4.48003 24.7741C4.38513 24.0308 4.42579 23.2763 4.60003 22.5475C4.63987 22.5933 4.68902 22.6301 4.7442 22.6553C4.79938 22.6806 4.85933 22.6939 4.92003 22.6941C6.73336 22.6941 6.76003 22.6008 6.81336 23.0541C6.81336 23.2141 6.89336 24.5608 6.89336 24.6008C6.09262 24.7001 5.28687 24.7535 4.48003 24.7608V24.7741Z" fill="#A7289E"/>
</g>
<defs>
<clipPath id="clip0_109_3521">
<rect width="32" height="32" fill="white" transform="translate(0.600037 0.000488281)"/>
</clipPath>
</defs>
</svg>
