<svg width="24" height="24" viewBox="0 0 24 24" fill="none" xmlns="http://www.w3.org/2000/svg">
<g clip-path="url(#clip0_2033_586)">
<path d="M12 2.16191C15.2063 2.16191 15.5859 2.17598 16.8469 2.23223C18.0188 2.28379 18.6516 2.48066 19.0734 2.64473C19.6313 2.86035 20.0344 3.12285 20.4516 3.54004C20.8734 3.96191 21.1313 4.36035 21.3469 4.91816C21.5109 5.34004 21.7078 5.97754 21.7594 7.14473C21.8156 8.41035 21.8297 8.79004 21.8297 11.9916C21.8297 15.1979 21.8156 15.5775 21.7594 16.8385C21.7078 18.0104 21.5109 18.6432 21.3469 19.065C21.1313 19.6229 20.8687 20.026 20.4516 20.4432C20.0297 20.865 19.6313 21.1229 19.0734 21.3385C18.6516 21.5025 18.0141 21.6994 16.8469 21.751C15.5813 21.8072 15.2016 21.8213 12 21.8213C8.79375 21.8213 8.41406 21.8072 7.15313 21.751C5.98125 21.6994 5.34844 21.5025 4.92656 21.3385C4.36875 21.1229 3.96563 20.8604 3.54844 20.4432C3.12656 20.0213 2.86875 19.6229 2.65313 19.065C2.48906 18.6432 2.29219 18.0057 2.24063 16.8385C2.18438 15.5729 2.17031 15.1932 2.17031 11.9916C2.17031 8.78535 2.18438 8.40566 2.24063 7.14473C2.29219 5.97285 2.48906 5.34004 2.65313 4.91816C2.86875 4.36035 3.13125 3.95723 3.54844 3.54004C3.97031 3.11816 4.36875 2.86035 4.92656 2.64473C5.34844 2.48066 5.98594 2.28379 7.15313 2.23223C8.41406 2.17598 8.79375 2.16191 12 2.16191ZM12 0.000976562C8.74219 0.000976562 8.33438 0.0150391 7.05469 0.0712891C5.77969 0.127539 4.90313 0.333789 4.14375 0.629102C3.35156 0.938477 2.68125 1.34629 2.01563 2.0166C1.34531 2.68223 0.9375 3.35254 0.628125 4.14004C0.332812 4.9041 0.126563 5.77598 0.0703125 7.05098C0.0140625 8.33535 0 8.74316 0 12.001C0 15.2588 0.0140625 15.6666 0.0703125 16.9463C0.126563 18.2213 0.332812 19.0979 0.628125 19.8572C0.9375 20.6494 1.34531 21.3197 2.01563 21.9854C2.68125 22.651 3.35156 23.0635 4.13906 23.3682C4.90313 23.6635 5.775 23.8697 7.05 23.926C8.32969 23.9822 8.7375 23.9963 11.9953 23.9963C15.2531 23.9963 15.6609 23.9822 16.9406 23.926C18.2156 23.8697 19.0922 23.6635 19.8516 23.3682C20.6391 23.0635 21.3094 22.651 21.975 21.9854C22.6406 21.3197 23.0531 20.6494 23.3578 19.8619C23.6531 19.0979 23.8594 18.226 23.9156 16.951C23.9719 15.6713 23.9859 15.2635 23.9859 12.0057C23.9859 8.74785 23.9719 8.34004 23.9156 7.06035C23.8594 5.78535 23.6531 4.90879 23.3578 4.14941C23.0625 3.35254 22.6547 2.68223 21.9844 2.0166C21.3188 1.35098 20.6484 0.938477 19.8609 0.633789C19.0969 0.338477 18.225 0.132227 16.95 0.0759766C15.6656 0.0150391 15.2578 0.000976562 12 0.000976562Z" fill="#1A1A1A"/>
<path d="M12 5.83691C8.59688 5.83691 5.83594 8.59785 5.83594 12.001C5.83594 15.4041 8.59688 18.165 12 18.165C15.4031 18.165 18.1641 15.4041 18.1641 12.001C18.1641 8.59785 15.4031 5.83691 12 5.83691ZM12 15.9994C9.79219 15.9994 8.00156 14.2088 8.00156 12.001C8.00156 9.79316 9.79219 8.00254 12 8.00254C14.2078 8.00254 15.9984 9.79316 15.9984 12.001C15.9984 14.2088 14.2078 15.9994 12 15.9994Z" fill="#1A1A1A"/>
<path d="M19.8469 5.59336C19.8469 6.39024 19.2 7.03243 18.4078 7.03243C17.6109 7.03243 16.9688 6.38555 16.9688 5.59336C16.9688 4.79649 17.6156 4.1543 18.4078 4.1543C19.2 4.1543 19.8469 4.80117 19.8469 5.59336Z" fill="#1A1A1A"/>
</g>
<defs>
<clipPath id="clip0_2033_586">
<rect width="24" height="24" fill="white" transform="translate(0 0.000976562)"/>
</clipPath>
</defs>
</svg>
