<svg width="49" height="48" viewBox="0 0 49 48" fill="none" xmlns="http://www.w3.org/2000/svg">
<g clip-path="url(#clip0_377_3721)">
<path d="M37.58 18.62C37.2166 18.4238 36.8127 18.3143 36.4 18.3C35.42 18.3 33.92 18.58 33.34 18.62C32.9937 18.5959 32.6462 18.5959 32.3 18.62C32.0292 18.685 31.7848 18.8316 31.6 19.04C31.12 19.64 30.92 20.54 30.5 21.2C30.4345 21.3141 30.3418 21.4104 30.2301 21.4802C30.1185 21.5499 29.9913 21.5911 29.86 21.6C29.38 21.6 29.1 21.6 28.94 21.3C28.34 20.5 28.18 19.3 27.14 18.86C26.5745 18.6674 25.9755 18.5925 25.38 18.64C24.5 18.64 23.48 18.82 22.7 18.9C22.7981 18.6527 22.8783 18.3987 22.94 18.14C23.18 16.94 22.94 15.64 23.2 14.42L23.56 14.54C23.9414 14.6302 24.3386 14.6302 24.72 14.54C26.129 14.0763 27.2996 13.078 27.98 11.76C28.2356 11.2797 28.3693 10.744 28.3693 10.2C28.3693 9.65591 28.2356 9.1202 27.98 8.63995C27.818 8.35716 27.5894 8.11822 27.3141 7.94394C27.0387 7.76965 26.7249 7.6653 26.4 7.63995C25.7886 7.57024 25.1713 7.57024 24.56 7.63995H24.04C23.4981 6.76658 23.1124 5.80558 22.9 4.79995C22.7323 4.19869 22.4392 3.63976 22.04 3.15995C21.5179 2.73578 20.907 2.43461 20.2526 2.27881C19.5983 2.12301 18.9172 2.11656 18.26 2.25995C18.092 2.27518 17.9363 2.35413 17.8247 2.48059C17.7131 2.60704 17.6542 2.77141 17.66 2.93995C17.6651 3.02406 17.6867 3.10632 17.7237 3.18204C17.7607 3.25776 17.8122 3.32543 17.8754 3.38117C17.9386 3.43692 18.0121 3.47964 18.0919 3.50689C18.1716 3.53414 18.2559 3.54537 18.34 3.53995C19.84 3.53995 20.62 3.53995 21.04 4.09995C21.3683 4.5704 21.5807 5.11179 21.66 5.67995C21.8958 6.77642 22.3442 7.81603 22.98 8.73995C23.0843 8.87772 23.2167 8.99176 23.3684 9.07451C23.5201 9.15726 23.6877 9.20683 23.86 9.21995H25.74C26.06 9.21995 26.4 9.21995 26.54 9.43995C26.6908 9.76752 26.7409 10.1325 26.6839 10.4886C26.6269 10.8447 26.4655 11.1758 26.22 11.44C25.7244 12.1128 25.0218 12.6046 24.22 12.84C24.06 12.84 23.84 12.84 23.62 12.7C23.2206 12.6054 22.8083 12.5784 22.4 12.62C22.1313 12.6369 21.8758 12.7421 21.6733 12.9194C21.4707 13.0967 21.3324 13.3359 21.28 13.6C20.94 14.96 21.12 16.44 20.82 17.82C20.7286 18.1875 20.5802 18.5384 20.38 18.86C19.86 18.86 19.02 18.5 18.92 18.5C18.3413 18.3325 17.7424 18.245 17.14 18.24C16.8496 17.301 16.4324 16.4061 15.9 15.58C15.574 15.1453 15.1512 14.7925 14.6652 14.5495C14.1792 14.3065 13.6433 14.18 13.1 14.18C12.6206 14.1509 12.1416 14.2439 11.7079 14.4502C11.2742 14.6566 10.8999 14.9696 10.62 15.36C9.98719 16.4806 9.5923 17.7198 9.45999 19L8.65999 19.14H5.41999C4.74503 19.138 4.07302 19.0506 3.41999 18.88C2.91999 18.76 2.81999 18.32 2.81999 17.84C2.94047 16.673 3.2442 15.5323 3.71999 14.46C4.65436 12.234 6.08391 10.2504 7.89999 8.65995C9.71825 7.01843 11.8662 5.78423 14.2 5.03995C14.3077 4.97571 14.3908 4.87715 14.4358 4.76007C14.4809 4.64299 14.4853 4.51418 14.4484 4.39428C14.4115 4.27438 14.3355 4.17034 14.2324 4.09884C14.1293 4.02734 14.0052 3.99252 13.88 3.99995C11.3577 4.70965 9.0134 5.94314 6.99999 7.61995C4.94653 9.31133 3.31081 11.4535 2.21999 13.88C1.46816 15.3674 1.08409 17.0134 1.09999 18.68C1.15798 19.1804 1.36703 19.6514 1.6993 20.0301C2.03158 20.4088 2.47132 20.6773 2.95999 20.8C3.73082 21.014 4.52167 21.1481 5.31999 21.2H8.67999C9.20616 21.2323 9.73382 21.2323 10.26 21.2C10.4982 21.1842 10.7263 21.0978 10.9151 20.9517C11.1039 20.8056 11.2449 20.6066 11.32 20.38C11.4883 19.2199 11.7765 18.0805 12.18 16.98C12.2431 16.7792 12.3679 16.6035 12.5367 16.4778C12.7055 16.3521 12.9096 16.2829 13.12 16.28C13.3452 16.2792 13.5675 16.3312 13.769 16.432C13.9704 16.5327 14.1455 16.6793 14.28 16.86C14.8057 17.7701 15.2283 18.7361 15.54 19.74C15.629 19.9293 15.763 20.0939 15.9304 20.2194C16.0977 20.3449 16.2933 20.4275 16.5 20.46C17.299 20.5151 18.1009 20.5151 18.9 20.46C19.1 20.46 20.42 20.64 20.9 20.62C21.0935 20.6241 21.2855 20.5849 21.462 20.5053C21.6385 20.4257 21.795 20.3077 21.92 20.16V20.04C22.7 20.04 24.06 19.9 25.2 19.92C25.5947 19.903 25.989 19.9641 26.36 20.1C26.82 20.32 26.88 20.82 27.04 21.26C27.1941 21.8019 27.4911 22.2923 27.9 22.68C28.4192 23.095 29.0776 23.2953 29.74 23.24C30.3396 23.2295 30.9151 23.0021 31.36 22.6C31.8576 21.9854 32.2805 21.3141 32.62 20.6C33.42 20.6 36 20.34 36 20.34C36 20.68 35.56 23.14 35.34 24.12C35.1226 25.1061 34.8556 26.0807 34.54 27.04L32.4 33.4C32.2522 33.9526 32.065 34.494 31.84 35.02C31.7396 35.2555 31.5814 35.4619 31.38 35.62C30.7359 36.0187 30.0123 36.2713 29.26 36.36C27.9895 36.4799 26.7105 36.4799 25.44 36.36H22.68C22.3803 36.3805 22.0796 36.3805 21.78 36.36C22.1061 35.6096 22.3152 34.8137 22.4 34C22.6659 32.5185 22.6659 31.0014 22.4 29.52C22.3195 29.3172 22.1861 29.1398 22.0138 29.0061C21.8414 28.8725 21.6364 28.7875 21.42 28.76L19.9 28.56C19.3458 28.4669 18.8273 28.2249 18.4 27.86C18.2244 27.7149 18.0805 27.5354 17.9773 27.3323C17.8741 27.1293 17.8137 26.9073 17.8 26.68C17.8 26.12 17.8 25.82 18.16 25.76C18.8318 25.7241 19.5054 25.7847 20.16 25.94C20.6003 26.0468 21.0597 26.0468 21.5 25.94C21.7171 25.8034 21.8967 25.6148 22.0224 25.3913C22.1481 25.1678 22.2161 24.9164 22.22 24.66C22.2928 23.5612 22.2928 22.4587 22.22 21.36C22.2149 21.2759 22.1933 21.1936 22.1563 21.1179C22.1193 21.0421 22.0678 20.9745 22.0046 20.9187C21.9414 20.863 21.8679 20.8203 21.7881 20.793C21.7084 20.7658 21.6241 20.7545 21.54 20.76C21.3738 20.7703 21.2181 20.845 21.1061 20.9682C20.994 21.0914 20.9345 21.2535 20.94 21.42C21.0038 22.4946 20.9636 23.573 20.82 24.64C20.2393 24.5677 19.6645 24.4541 19.1 24.3C18.4165 24.1646 17.7071 24.2781 17.1 24.62C16.7798 24.8701 16.5289 25.1982 16.3714 25.5728C16.2138 25.9474 16.1548 26.3561 16.2 26.76C16.2029 27.4829 16.4416 28.1851 16.88 28.76C17.5248 29.5508 18.3978 30.1234 19.38 30.4L20.58 30.62C20.6681 31.4309 20.6681 32.249 20.58 33.06C20.5222 34.0209 20.2341 34.9538 19.74 35.78C19.74 35.88 19.54 35.88 19.42 35.92C19.0025 36.0394 18.5734 36.1132 18.14 36.14H15.64C14.6579 36.1656 13.6752 36.1188 12.7 36C12.1511 35.9496 11.6159 35.8005 11.12 35.56C10.8291 35.4028 10.5818 35.1761 10.4 34.9C9.95999 34.22 9.61999 33.44 9.23999 32.9C7.68098 30.8193 6.27719 28.6267 5.03999 26.34C4.24414 24.8185 3.61386 23.216 3.15999 21.56C3.15139 21.4808 3.12602 21.4045 3.08559 21.336C3.04515 21.2674 2.99058 21.2083 2.9255 21.1625C2.86042 21.1167 2.78633 21.0853 2.70817 21.0704C2.63001 21.0555 2.54957 21.0575 2.47221 21.0761C2.39485 21.0947 2.32234 21.1296 2.25953 21.1784C2.19671 21.2273 2.14503 21.289 2.10792 21.3593C2.0708 21.4297 2.04912 21.5072 2.0443 21.5866C2.03949 21.6661 2.05166 21.7456 2.07999 21.82C2.45043 23.5882 3.02773 25.3067 3.79999 26.94C4.96601 29.365 6.30271 31.7042 7.79999 33.94C8.21999 34.58 8.55999 35.56 9.05999 36.32C9.34412 36.7676 9.72731 37.1439 10.18 37.42C10.8733 37.7854 11.6242 38.0289 12.4 38.14L13.34 38.26V39.72C13.3516 40.1391 13.4397 40.5525 13.6 40.94C13.772 41.3557 14.0474 41.7206 14.4 42L14.76 42.2C14.7503 42.2596 14.7503 42.3203 14.76 42.38C14.8343 43.5434 15.1619 44.6765 15.72 45.7C16.1726 46.4558 16.8318 47.0664 17.62 47.46C18.5737 47.8804 19.6118 48.0739 20.6529 48.0253C21.694 47.9767 22.7096 47.6873 23.62 47.18C24.5794 46.7095 25.3498 45.9261 25.8043 44.959C26.2588 43.9919 26.3701 42.8988 26.12 41.86C26.4345 41.7088 26.7299 41.5209 27 41.3C27.448 40.8759 27.8035 40.3639 28.0444 39.7961C28.2853 39.2282 28.4064 38.6168 28.4 38H29.48C30.4856 37.9162 31.4612 37.616 32.34 37.12C32.8219 36.8221 33.2155 36.4009 33.48 35.9C33.7642 35.3161 34.0113 34.7149 34.22 34.1C34.8 32.6399 35.46 31.2 36.04 29.74C36.3 29.08 36.54 28.44 36.76 27.74C37.1 26.72 37.4 25.74 37.64 24.62C37.8781 23.553 38.0385 22.4701 38.12 21.38C38.1843 20.7483 38.1843 20.1117 38.12 19.48C38.0923 19.3077 38.0302 19.1428 37.9374 18.995C37.8447 18.8473 37.7231 18.7197 37.58 18.62ZM23.44 44.98C22.701 45.4568 21.8563 45.7452 20.98 45.82C20.113 45.9398 19.23 45.8577 18.4 45.58C17.7517 45.3722 17.1941 44.9487 16.82 44.38C16.4864 43.8527 16.2304 43.2802 16.06 42.68H16.18C16.9804 42.8078 17.7894 42.8747 18.6 42.88C19.78 42.88 20.96 42.74 22.08 42.66C23.014 42.5841 23.9425 42.4505 24.86 42.26C24.8797 42.7976 24.7591 43.3311 24.5101 43.808C24.2611 44.2849 23.8924 44.6888 23.44 44.98ZM25.94 40C24.6894 40.5712 23.3014 40.7725 21.94 40.58C20.66 40.68 19.32 40.78 17.94 40.8C17.4004 40.8299 16.8596 40.8299 16.32 40.8C16.0173 40.7847 15.7195 40.717 15.44 40.6C15.195 40.5272 14.9784 40.3805 14.82 40.18C14.6761 39.9007 14.5942 39.5937 14.58 39.28C14.5607 38.9536 14.5607 38.6263 14.58 38.3H15.6C16.8639 38.33 18.1281 38.2564 19.38 38.08C19.9654 37.9701 20.5188 37.731 21 37.38C21.0884 37.4861 21.2069 37.5629 21.34 37.6C21.7626 37.6784 22.1904 37.7252 22.62 37.74H25.34L27.04 37.9C27.0113 38.3069 26.8987 38.7035 26.7094 39.0649C26.5201 39.4263 26.2582 39.7446 25.94 40Z" fill="#020202"/>
<path d="M47.56 8.60001C47.2287 7.7097 46.8412 6.84129 46.4 6.00001C45.8092 4.6416 44.9139 3.43725 43.7834 2.48009C42.6528 1.52294 41.3173 0.838603 39.88 0.480008C37.1011 -0.22415 34.1825 -0.154989 31.44 0.680008C31.3582 0.702987 31.2817 0.742034 31.2152 0.79487C31.1486 0.847707 31.0932 0.913274 31.0522 0.987746C31.0113 1.06222 30.9856 1.1441 30.9766 1.22862C30.9676 1.31314 30.9756 1.3986 31 1.48001C31.0509 1.63799 31.1594 1.771 31.3039 1.85254C31.4485 1.93409 31.6185 1.95817 31.78 1.92001C34.2854 1.22037 36.9346 1.22037 39.44 1.92001C40.6348 2.24736 41.7372 2.84769 42.6604 3.67371C43.5836 4.49973 44.3023 5.52886 44.76 6.68001C44.9 7.02001 45.22 7.72001 45.46 8.42001C45.7 9.12001 45.86 9.34001 45.78 9.60001C45.7 9.86001 45.52 9.82001 45.36 9.94001C44.9 10.24 44.32 10.52 43.86 10.8C43.578 10.9768 43.3222 11.1922 43.1 11.44C42.9826 11.5695 42.892 11.7211 42.8337 11.8859C42.7753 12.0507 42.7503 12.2254 42.76 12.4C42.76 12.72 42.9 13.24 42.9 13.48C42.8761 13.9307 42.7459 14.3693 42.52 14.76C42.463 14.9011 42.3704 15.0251 42.2512 15.1197C42.1321 15.2144 41.9904 15.2765 41.84 15.3C41.38 15.3 41.18 15.02 40.98 14.72C40.6909 14.2295 40.356 13.7675 39.98 13.34C39.6253 12.957 39.1666 12.6859 38.66 12.56C38.3384 12.4787 38.0016 12.4787 37.68 12.56C36.955 12.8459 36.2529 13.1869 35.58 13.58C35.4117 13.6793 35.2298 13.7534 35.04 13.8C35.04 13.8 34.94 13.8 34.9 13.8C34.7464 13.5859 34.6125 13.3583 34.5 13.12C34.16 12.38 33.9 11.5 33.58 10.86L33.44 10.58C34.4621 9.98271 35.3423 9.17069 36.02 8.20001C36.3594 7.67533 36.4881 7.04188 36.3806 6.42635C36.2731 5.81081 35.9371 5.25855 35.44 4.88001C35.1898 4.63326 34.8929 4.43893 34.5666 4.30843C34.2404 4.17792 33.8913 4.11386 33.54 4.12001C32.4957 4.32288 31.4765 4.63804 30.5 5.06001L30.4 4.72001L29.28 1.62001C29.2296 1.47679 29.1244 1.35946 28.9875 1.29382C28.8506 1.22818 28.6932 1.21962 28.55 1.27001C28.4068 1.3204 28.2894 1.42562 28.2238 1.56252C28.1582 1.69942 28.1496 1.85679 28.2 2.00001L29.18 5.14001C29.18 5.14001 29.36 5.78001 29.46 6.00001C29.513 6.13684 29.6065 6.25421 29.728 6.33642C29.8495 6.41863 29.9933 6.46175 30.14 6.46001C31.12 6.46001 32.14 5.78001 33.16 5.62001C33.3817 5.56499 33.6142 5.57128 33.8326 5.63822C34.0511 5.70515 34.2472 5.83021 34.4 6.00001C34.5978 6.16424 34.7291 6.39475 34.7696 6.64862C34.8101 6.90249 34.7569 7.16242 34.62 7.38001C33.88 8.29321 32.9524 9.03668 31.9 9.56001C31.7369 9.65267 31.6045 9.79107 31.5192 9.95812C31.4339 10.1252 31.3994 10.3136 31.42 10.5C31.5188 10.9508 31.6733 11.3874 31.88 11.8C32.16 12.44 32.4 13.32 32.7 14.08C32.8683 14.4773 33.0832 14.8533 33.34 15.2C33.5283 15.4511 33.7731 15.6544 34.0545 15.7934C34.3359 15.9323 34.6461 16.0031 34.96 16C35.7588 15.9114 36.5258 15.6375 37.2 15.2C37.6 14.98 38.26 14.72 38.26 14.72C38.5366 14.9556 38.7672 15.2404 38.94 15.56C39.2167 16.028 39.5528 16.4583 39.94 16.84C40.2227 17.0997 40.5595 17.2936 40.926 17.4077C41.2925 17.5218 41.6798 17.5533 42.06 17.5C42.4564 17.459 42.8396 17.3343 43.1843 17.1344C43.5291 16.9345 43.8275 16.6637 44.06 16.34C44.6533 15.5391 44.9882 14.5762 45.02 13.58C45.0702 13.2486 45.0702 12.9115 45.02 12.58C45.58 12.18 46.42 11.8 47.02 11.34C47.3288 11.0664 47.5686 10.7238 47.72 10.34C47.8442 9.7572 47.7884 9.15039 47.56 8.60001Z" fill="#A7289E"/>
</g>
<defs>
<clipPath id="clip0_377_3721">
<rect width="48" height="48" fill="white" transform="translate(0.399994)"/>
</clipPath>
</defs>
</svg>
