<svg width="49" height="48" viewBox="0 0 49 48" fill="none" xmlns="http://www.w3.org/2000/svg">
<g clip-path="url(#clip0_753_648)">
<path fill-rule="evenodd" clip-rule="evenodd" d="M44.1092 21.0768C46.287 19.8038 47.7366 17.5784 48.021 15.0722C48.3388 12.6416 47.8874 10.1724 46.7302 8.01138C45.6918 6.00638 44.0498 4.37798 42.036 3.35638C39.9758 2.33458 37.6212 2.07138 35.386 2.61318C33.55 3.02498 31.7886 3.71778 30.1638 4.66698C29.0386 5.34458 28.0502 6.22678 27.2496 7.26818C25.6076 9.68378 25.0082 12.6592 25.5872 15.522C26.018 18.4022 27.7102 20.9402 30.203 22.4458C31.5578 23.1504 33.0574 23.532 34.5842 23.5606C36.7564 23.5764 38.919 23.2666 40.9994 22.6414C41.1966 22.5826 41.3416 22.4146 41.371 22.2112C41.6744 22.9192 42.0138 23.611 42.3882 24.2844C42.5806 24.6122 42.7962 24.926 43.0336 25.2232C43.2658 25.5292 43.5138 25.823 43.7768 26.1032C44.4026 26.7682 45.0676 27.3746 45.7326 28.0592C45.9786 28.3134 46.3864 28.3134 46.6324 28.0592C46.8734 27.8154 46.8734 27.4228 46.6324 27.179C46.163 26.4162 45.7522 25.6338 45.2828 24.8906C45.0836 24.567 44.8682 24.2538 44.6374 23.9518C44.4244 23.6416 44.1892 23.3474 43.9332 23.0716C43.4834 22.5828 43.014 22.1524 42.5446 21.7026H42.7792C43.2448 21.545 43.691 21.3352 44.1092 21.0768ZM34.6232 22.1916C33.3276 22.1256 32.0668 21.75 30.9462 21.0962C28.9614 19.7586 27.6718 17.6096 27.4256 15.2286C27.0182 12.8964 27.5528 10.4976 28.9122 8.55918C29.74 7.52478 30.7894 6.68938 31.9828 6.11418C33.2248 5.48798 34.5384 5.01518 35.8946 4.70598C37.6582 4.24918 39.5258 4.42218 41.1754 5.19498C42.8246 6.01058 44.1882 7.30598 45.0872 8.91118C46.1466 10.7176 46.6118 12.811 46.4172 14.8962C46.2468 16.9582 45.1262 18.8234 43.3856 19.9422C42.9852 20.185 42.5588 20.3818 42.1142 20.529C39.7868 21.2528 39.376 22.5828 34.5254 22.1916H34.6232Z" fill="#A7289E"/>
<path fill-rule="evenodd" clip-rule="evenodd" d="M38.6328 27.3746C38.2516 27.5482 37.8388 27.6414 37.4202 27.6484C36.2858 27.8636 34.897 27.8636 33.2932 27.8636H30.4182H29.0098C27.4452 28.0006 26.0174 28.1374 24.9416 28.2744V27.492C24.7146 26.098 23.7246 24.9494 22.3794 24.519C21.0066 24.1182 19.5296 24.6184 18.6828 25.7708C18.1006 26.4904 17.7284 27.3568 17.6072 28.2744C17.486 29.192 17.6072 28.47 17.6072 28.5678C16.0228 28.4504 12.5022 28.294 9.37282 27.9418C8.27602 27.83 7.18562 27.6602 6.10662 27.4334C5.53082 27.3516 4.97822 27.1518 4.48322 26.8466C3.60442 26.0588 3.05302 24.97 2.93802 23.7954C2.75102 21.7572 2.78382 19.7048 3.03582 17.6736C3.05822 17.5836 3.05822 17.4896 3.03582 17.3996C5.57862 17.5952 8.10162 17.8104 10.6638 17.8692H15.4556C17.8614 17.8692 20.2476 17.693 22.6338 17.6736C22.987 17.6958 23.2884 17.421 23.2988 17.0672C23.3266 16.673 22.9866 16.3518 22.5946 16.4022C20.2866 16.1284 17.9592 15.9524 15.5926 15.835H13.4606C13.5692 14.9748 13.7458 14.1246 13.9888 13.2924C14.0946 12.7854 14.3706 12.3298 14.7712 12.0014C15.1838 11.7244 15.6504 11.5376 16.1402 11.4538C16.7318 11.3068 17.3332 11.2022 17.9396 11.1408C19.2388 11.004 20.5452 10.9452 21.8514 10.9648C22.219 11.0362 22.5664 10.771 22.5946 10.3976C22.6178 10.0442 22.3598 9.73439 22.0078 9.69359C20.385 9.37099 18.7336 9.2136 17.0792 9.2242C15.7986 9.2496 14.554 9.651 13.4998 10.378C12.9584 10.9086 12.5902 11.5904 12.4436 12.334C12.2436 13.4964 12.1976 14.6802 12.3068 15.8546H9.64682C7.24102 15.9132 4.99182 16.1284 2.58602 16.2458C1.78422 16.2458 1.08002 22.4068 1.08002 23.9518C1.13682 25.6226 1.83762 27.2066 3.03582 28.3722C4.44242 29.2646 6.06482 29.758 7.73002 29.8C10.9878 29.9642 14.2516 29.9642 17.5094 29.8C17.5094 30.504 17.6268 31.2082 17.7244 31.7558C17.7646 32.0566 18.0276 32.2772 18.3308 32.2644C18.5934 32.2394 18.8042 32.0368 18.8394 31.7754C18.7568 30.6948 18.8292 29.6082 19.0544 28.5482C19.2194 27.944 19.5358 27.392 19.9738 26.9444C20.4246 26.493 21.098 26.3476 21.695 26.5728C22.2872 26.7822 22.7158 27.3012 22.8098 27.9222C22.8098 28.2548 22.9076 28.6264 22.9466 28.998V29.135V29.3306C23.0052 29.8896 23.0052 30.4534 22.9466 31.0126C22.8832 31.6412 22.6686 32.2452 22.3208 32.7728C22.0186 33.1498 21.6382 33.4568 21.206 33.6726C20.8728 33.8972 20.457 33.9616 20.0716 33.8486C19.942 33.791 19.833 33.6954 19.7586 33.5748C19.6412 33.3792 19.5434 33.164 19.4456 32.9684C19.2956 32.6544 18.9236 32.516 18.6046 32.6556C18.2728 32.7886 18.1276 33.1788 18.2918 33.4966C18.4072 33.8216 18.5512 34.1356 18.722 34.4354C18.8916 34.6864 19.1114 34.8994 19.3674 35.0612C19.9654 35.3904 20.672 35.461 21.3234 35.2568C22.1994 35.0028 22.9902 34.5162 23.6118 33.8486C24.2038 33.1438 24.6136 32.3042 24.8048 31.4038C24.9192 30.8696 24.9848 30.3264 25.0004 29.7804C26.0762 29.7804 27.504 29.976 29.0882 29.9954C30.34 29.9954 31.6504 29.9954 32.9022 29.8586C35.1592 29.8194 37.381 29.2922 39.4152 28.3134C39.6462 28.0656 39.6462 27.6812 39.4152 27.4332C39.1976 27.2392 38.877 27.2152 38.6328 27.3746Z" fill="#020202"/>
<path fill-rule="evenodd" clip-rule="evenodd" d="M38.1048 30.328C37.7514 30.3058 37.45 30.5806 37.4398 30.9344L37.029 38.9534C37.0566 39.7408 36.9908 40.5286 36.8334 41.3004C36.7608 41.6926 36.5616 42.0498 36.2662 42.3176C35.6174 42.7792 34.8652 43.0746 34.0756 43.1782C32.7218 43.3764 31.356 43.4808 29.9878 43.491H24.6678C20.4628 43.3542 16.2772 43.0608 12.072 43.0412C10.4244 43.1492 8.77142 43.1492 7.12362 43.0412C6.18382 43.0174 5.27742 42.6878 4.54202 42.1024C4.28862 41.8268 4.13082 41.4772 4.09202 41.1048C4.01402 40.3506 4.01402 39.5904 4.09202 38.836V32.9684C4.09202 32.1666 4.09202 31.345 4.18982 30.5236C4.21262 30.2172 3.98722 29.9482 3.68142 29.9172C3.37122 29.8832 3.09542 30.1146 3.07502 30.4258C2.97722 31.2668 2.91862 32.1078 2.87942 32.9294C2.78162 34.8852 2.76202 36.841 2.64482 38.797C2.57522 39.643 2.57522 40.4934 2.64482 41.3396C2.68642 42.0628 2.96862 42.7512 3.44662 43.2954C4.16762 44.024 5.08522 44.5268 6.08702 44.7428C8.10242 45.0828 10.1466 45.2204 12.1894 45.1536C16.375 45.1536 20.5606 45.5642 24.7462 45.662C26.565 45.662 28.384 45.662 30.2226 45.5642C31.687 45.5158 33.1454 45.3522 34.5842 45.0754C35.672 44.8794 36.6936 44.4156 37.5572 43.7258C38.0862 43.1916 38.4408 42.5096 38.5742 41.7698C38.72 40.8714 38.7724 39.9604 38.7306 39.0512L38.8284 31.0908C38.9356 30.6492 38.5514 30.2442 38.1048 30.328Z" fill="#020202"/>
</g>
<defs>
<clipPath id="clip0_753_648">
<rect width="48" height="48" fill="white" transform="translate(0.600006)"/>
</clipPath>
</defs>
</svg>
