<svg width="64" height="64" viewBox="0 0 64 64" fill="none" xmlns="http://www.w3.org/2000/svg">
<path fill-rule="evenodd" clip-rule="evenodd" d="M58.0123 28.1024C60.916 26.405 62.8488 23.4378 63.228 20.0962C63.6518 16.8554 63.0499 13.5632 61.507 10.6818C60.1224 8.0085 57.9331 5.8373 55.248 4.47517C52.5011 3.11277 49.3616 2.76184 46.3814 3.48424C43.9334 4.0333 41.5848 4.95704 39.4184 6.22264C37.9182 7.1261 36.6003 8.30237 35.5328 9.6909C33.3435 12.9117 32.5443 16.8789 33.3163 20.696C33.8907 24.5362 36.147 27.9202 39.4707 29.9277C41.2771 30.8672 43.2766 31.376 45.3123 31.4141C48.2086 31.4352 51.092 31.0221 53.8659 30.1885C54.1288 30.1101 54.3222 29.8861 54.3614 29.6149C54.7659 30.5589 55.2184 31.4813 55.7176 32.3792C55.9742 32.8162 56.2616 33.2346 56.5782 33.6309C56.8878 34.0389 57.2184 34.4306 57.5691 34.8042C58.4035 35.6909 59.2901 36.4994 60.1768 37.4122C60.5048 37.7512 61.0485 37.7512 61.3765 37.4122C61.6979 37.0872 61.6979 36.5637 61.3765 36.2386C60.7507 35.2216 60.203 34.1784 59.5771 33.1874C59.3115 32.756 59.0243 32.3384 58.7166 31.9357C58.4326 31.5221 58.1189 31.1298 57.7776 30.7621C57.1779 30.1104 56.552 29.5365 55.9262 28.9368H56.239C56.8598 28.7266 57.4547 28.4469 58.0123 28.1024ZM45.3643 29.5888C43.6368 29.5008 41.9558 29 40.4616 28.1282C37.8152 26.3448 36.0958 23.4794 35.7675 20.3048C35.2243 17.1952 35.9371 13.9968 37.7496 11.4122C38.8534 10.033 40.2526 8.91917 41.8438 8.15224C43.4998 7.3173 45.2512 6.6869 47.0595 6.27464C49.411 5.66557 51.9011 5.89624 54.1006 6.92664C56.2995 8.0141 58.1176 9.7413 59.3163 11.8816C60.7288 14.2901 61.3491 17.0813 61.0896 19.8616C60.8624 22.6109 59.3683 25.0978 57.0475 26.5896C56.5136 26.9133 55.9451 27.1757 55.3523 27.372C52.2491 28.337 51.7014 30.1104 45.2339 29.5888H45.3643Z" fill="#02B6A9"/>
<path fill-rule="evenodd" clip-rule="evenodd" d="M50.7104 36.4994C50.2021 36.7309 49.6518 36.8552 49.0936 36.8645C47.5811 37.1514 45.7293 37.1514 43.591 37.1514H39.7576H37.8797C35.7936 37.3341 33.8899 37.5165 32.4555 37.6992V36.656C32.1528 34.7973 30.8328 33.2658 29.0392 32.692C27.2088 32.1576 25.2395 32.8245 24.1104 34.361C23.3341 35.3205 22.8379 36.4757 22.6763 37.6992C22.5147 38.9226 22.6763 37.96 22.6763 38.0904C20.5637 37.9338 15.8696 37.7253 11.6971 37.2557C10.2347 37.1066 8.78082 36.8802 7.34215 36.5778C6.57441 36.4688 5.83761 36.2024 5.17761 35.7954C4.00588 34.745 3.27068 33.2933 3.11735 31.7272C2.86801 29.0096 2.91175 26.273 3.24775 23.5648C3.27761 23.4448 3.27761 23.3194 3.24775 23.1994C6.63815 23.4602 10.0021 23.7472 13.4184 23.8256H19.8075C23.0152 23.8256 26.1968 23.5906 29.3784 23.5648C29.8493 23.5944 30.2512 23.228 30.2651 22.7562C30.3021 22.2306 29.8488 21.8024 29.3261 21.8696C26.2488 21.5045 23.1456 21.2698 19.9902 21.1133H17.1475C17.2923 19.9664 17.5277 18.8328 17.8517 17.7232C17.9928 17.0472 18.3608 16.4397 18.8949 16.0018C19.4451 15.6325 20.0672 15.3834 20.7203 15.2717C21.5091 15.0757 22.3109 14.9362 23.1195 14.8544C24.8517 14.672 26.5936 14.5936 28.3352 14.6197C28.8253 14.7149 29.2885 14.3613 29.3261 13.8634C29.3571 13.3922 29.0131 12.9792 28.5438 12.9248C26.38 12.4946 24.1782 12.2848 21.9723 12.2989C20.2648 12.3328 18.6054 12.868 17.1997 13.8373C16.4779 14.5448 15.9869 15.4538 15.7915 16.4453C15.5248 17.9952 15.4635 19.5736 15.6091 21.1394H12.0624C8.85468 21.2176 5.85575 21.5045 2.64801 21.661C1.57895 21.661 0.640015 29.8757 0.640015 31.9357C0.715748 34.1634 1.65015 36.2754 3.24775 37.8296C5.12321 39.0194 7.28642 39.6773 9.50668 39.7333C13.8504 39.9522 18.2022 39.9522 22.5459 39.7333C22.5459 40.672 22.7024 41.6109 22.8325 42.341C22.8861 42.7421 23.2368 43.0362 23.6411 43.0192C23.9912 42.9858 24.2723 42.7157 24.3192 42.3672C24.2091 40.9264 24.3056 39.4776 24.6059 38.0642C24.8259 37.2586 25.2477 36.5226 25.8317 35.9258C26.4328 35.324 27.3307 35.1301 28.1267 35.4304C28.9163 35.7096 29.4878 36.4016 29.6131 37.2296C29.6131 37.673 29.7435 38.1685 29.7955 38.664V38.8466V39.1074C29.8736 39.8528 29.8736 40.6045 29.7955 41.3501C29.7109 42.1882 29.4248 42.9936 28.9611 43.697C28.5581 44.1997 28.051 44.609 27.4747 44.8968C27.0304 45.1962 26.476 45.2821 25.9621 45.1314C25.7893 45.0546 25.644 44.9272 25.5448 44.7664C25.3883 44.5056 25.2579 44.2186 25.1275 43.9578C24.9275 43.5392 24.4315 43.3546 24.0061 43.5408C23.5637 43.7181 23.3701 44.2384 23.5891 44.6621C23.7429 45.0954 23.9349 45.5141 24.1627 45.9138C24.3888 46.2485 24.6819 46.5325 25.0232 46.7482C25.8206 47.1872 26.7627 47.2813 27.6312 47.009C28.7992 46.6704 29.8536 46.0216 30.6824 45.1314C31.4718 44.1917 32.0181 43.0722 32.2731 41.8717C32.4256 41.1594 32.5131 40.4352 32.5339 39.7072C33.9683 39.7072 35.872 39.968 37.9843 39.9938C39.6533 39.9938 41.4006 39.9938 43.0696 39.8114C46.0789 39.7592 49.0414 39.0562 51.7536 37.7512C52.0616 37.4208 52.0616 36.9082 51.7536 36.5776C51.4635 36.3189 51.036 36.2869 50.7104 36.4994Z" fill="black"/>
<path fill-rule="evenodd" clip-rule="evenodd" d="M50.0064 40.4373C49.5352 40.4077 49.1333 40.7741 49.1197 41.2458L48.572 51.9378C48.6088 52.9877 48.5211 54.0381 48.3112 55.0672C48.2144 55.5901 47.9488 56.0664 47.5549 56.4234C46.6899 57.0389 45.6869 57.4328 44.6341 57.5709C42.8291 57.8352 41.008 57.9744 39.1837 57.988H32.0904C26.4837 57.8056 20.9029 57.4144 15.296 57.3882C13.0992 57.5322 10.8952 57.5322 8.69813 57.3882C7.44507 57.3565 6.23653 56.917 5.256 56.1365C4.91813 55.769 4.70773 55.3029 4.656 54.8064C4.552 53.8008 4.552 52.7872 4.656 51.7813V43.9578C4.656 42.8888 4.656 41.7933 4.7864 40.6981C4.8168 40.2896 4.51627 39.9309 4.10853 39.8896C3.69493 39.8442 3.3272 40.1528 3.3 40.5677C3.1696 41.689 3.09147 42.8104 3.0392 43.9058C2.9088 46.5136 2.88267 49.1213 2.7264 51.7293C2.6336 52.8573 2.6336 53.9912 2.7264 55.1194C2.78187 56.0837 3.15813 57.0016 3.79547 57.7272C4.7568 58.6986 5.98027 59.369 7.316 59.657C10.0032 60.1104 12.7288 60.2938 15.4525 60.2048C21.0333 60.2048 26.6141 60.7522 32.1949 60.8826C34.62 60.8826 37.0453 60.8826 39.4968 60.7522C41.4493 60.6877 43.3939 60.4696 45.3123 60.1005C46.7627 59.8392 48.1248 59.2208 49.2763 58.301C49.9816 57.5888 50.4544 56.6794 50.6323 55.693C50.8267 54.4952 50.8965 53.2805 50.8408 52.0682L50.9712 41.4544C51.1141 40.8656 50.6019 40.3256 50.0064 40.4373Z" fill="black"/>
</svg>
