<svg width="62" height="62" viewBox="0 0 62 62" fill="none" xmlns="http://www.w3.org/2000/svg">
<path fill-rule="evenodd" clip-rule="evenodd" d="M60.1917 18.6262C58.6644 15.1261 56.4305 11.9792 53.6298 9.3831C50.8292 6.78696 47.5224 4.79752 43.9167 3.53955C36.8473 0.819234 29.2049 -0.0694183 21.7 0.95622C16.9301 1.85182 12.5121 4.08217 8.95905 7.38827C5.40603 10.6944 2.86377 14.9405 1.6275 19.6337C-1.16281 28.7961 -0.234817 38.6885 4.21083 47.1721C8.215 54.6896 16.8692 59.5462 26.2983 60.9929C30.6889 61.7864 35.1936 61.6971 39.5493 60.7301C43.9049 59.7632 48.0243 57.938 51.6667 55.3612C51.7947 55.2044 51.8646 55.0082 51.8646 54.8058C51.8646 54.6034 51.7947 54.4072 51.6667 54.2504C51.5982 54.159 51.5121 54.0824 51.4135 54.0249C51.3148 53.9674 51.2056 53.9304 51.0924 53.9159C50.9791 53.9015 50.8642 53.9099 50.7542 53.9407C50.6443 53.9716 50.5417 54.0242 50.4525 54.0954C46.9838 56.4561 43.0803 58.1035 38.9691 58.9418C34.8579 59.78 30.621 59.7923 26.505 58.9779C17.8767 57.5312 9.92 53.0362 6.355 46.0612C2.41551 38.1576 1.71124 29.0298 4.39167 20.6154C6.975 12.3229 13.0717 5.52872 22.165 4.00455C29.1626 2.94102 36.3154 3.66074 42.9608 6.09705C46.2892 7.17535 49.3588 8.92979 51.9772 11.2503C54.5956 13.5708 56.7062 16.4074 58.1767 19.5821C59.8987 24.3141 60.4828 29.385 59.8817 34.3846C59.4699 39.46 58.0097 44.3948 55.5933 48.8771C55.4906 49.0552 55.4628 49.2669 55.5161 49.4655C55.5693 49.6641 55.6994 49.8335 55.8775 49.9362C56.0556 50.039 56.2673 50.0668 56.4659 50.0135C56.6646 49.9602 56.8339 49.8302 56.9367 49.6521C59.5555 45.0188 61.1747 39.8884 61.69 34.5912C62.4697 29.2262 61.956 23.7525 60.1917 18.6262Z" fill="#A7289E"/>
<path fill-rule="evenodd" clip-rule="evenodd" d="M17.4892 36.1673V37.1748C17.5061 37.5247 17.594 37.8674 17.7475 38.1823C17.7475 38.1823 18.9875 40.9206 20.0208 40.4814C20.5892 40.2231 20.4858 37.3039 20.4858 37.2523C20.3909 36.742 20.2527 36.2407 20.0725 35.7539C19.2717 33.9973 19.2717 34.1264 19.2717 34.1264C17.6183 31.9823 17.515 36.1673 17.4892 36.1673Z" fill="black"/>
<path fill-rule="evenodd" clip-rule="evenodd" d="M22.2683 28.9855C22.1133 28.9855 21.7 29.1663 21.4675 29.8638C21.4675 30.0705 21.2867 30.6388 21.2608 30.7163C21.0384 31.4438 20.9853 32.2126 21.1058 32.9638C21.1579 33.3133 21.2624 33.653 21.4158 33.9713C21.6014 34.2784 21.8086 34.5719 22.0358 34.8496L22.785 35.7796C22.94 35.9346 22.9917 36.0638 23.0433 36.0896C23.56 36.3738 23.8958 36.3738 24.0767 36.0896C24.2575 35.8055 24.335 35.6505 24.0767 33.9196C23.8866 32.5091 23.6106 31.1115 23.25 29.7346C23.2118 29.5086 23.0892 29.3054 22.907 29.1664C22.7247 29.0273 22.4964 28.9626 22.2683 28.9855Z" fill="black"/>
<path fill-rule="evenodd" clip-rule="evenodd" d="M44.1492 35.2373C44.5666 34.9074 44.9141 34.4976 45.1714 34.0319C45.4286 33.5661 45.5905 33.0538 45.6475 32.5248C45.945 30.8197 46.049 29.0865 45.9575 27.3581C45.6756 23.3925 44.9299 19.4735 43.7358 15.6815C43.2772 14.1133 42.6355 12.6046 41.8242 11.1865C41.5571 10.799 41.1788 10.5018 40.7392 10.334C40.3465 10.194 39.9176 10.194 39.525 10.334C38.7321 10.7455 38.0015 11.2674 37.355 11.884C34.9398 14.1282 32.646 16.4996 30.4833 18.9881C30.055 19.6246 29.8971 20.4052 30.0442 21.1581C30.0442 22.0881 30.5867 23.2506 30.845 24.3098V24.594C29.8375 24.1806 28.5717 23.5865 27.9 23.354C27.6105 23.2193 27.2825 23.1921 26.9748 23.2773C26.6671 23.3625 26.3998 23.5545 26.2208 23.819C25.9285 24.7011 25.7973 25.6287 25.8333 26.5573C25.9068 27.8048 26.0534 29.0469 26.2725 30.2773C26.2725 30.8198 26.2725 31.5431 26.5308 32.189C26.5921 32.527 26.7147 32.8509 26.8925 33.1448C26.9433 33.233 27.0111 33.3104 27.0919 33.3724C27.1726 33.4345 27.2648 33.48 27.3632 33.5064C27.4616 33.5328 27.5642 33.5395 27.6651 33.5262C27.7661 33.513 27.8635 33.4799 27.9517 33.429C28.0404 33.3785 28.118 33.3105 28.1795 33.229C28.241 33.1475 28.2852 33.0543 28.3094 32.9551C28.3336 32.8559 28.3372 32.7528 28.3202 32.6522C28.3031 32.5515 28.2656 32.4554 28.21 32.3698C28.1044 32.1332 28.0431 31.8793 28.0292 31.6206C28.0292 31.104 28.0292 30.5356 27.9 30.0965C27.745 28.9141 27.6587 27.7238 27.6417 26.5315C27.6152 26.153 27.6152 25.7732 27.6417 25.3948C28.6492 25.8598 30.225 26.6606 30.9483 26.9965C31.2592 27.1491 31.6128 27.1914 31.9509 27.1163C32.289 27.0411 32.5914 26.8531 32.8083 26.5831C33.051 25.9769 33.1225 25.3156 33.015 24.6715C33.015 23.7415 32.55 22.5531 32.3433 21.5456C32.3433 21.1065 32.5242 20.5381 32.3433 20.409C34.6578 17.9742 37.1072 15.6714 39.68 13.5115C39.68 13.5115 39.68 13.7698 39.8092 13.8731C40.7414 16.2431 41.4674 18.6891 41.9792 21.184C42.4619 23.2472 42.773 25.3469 42.9092 27.4615C42.978 28.5626 42.978 29.667 42.9092 30.7681C42.8705 31.3597 42.7841 31.9471 42.6508 32.5248C42.6508 32.7056 42.3925 32.8606 42.4442 32.964L39.1633 33.584C38.9513 33.6097 38.7494 33.6899 38.5774 33.8166C38.4055 33.9433 38.2691 34.1124 38.1817 34.3073C38.0799 34.4935 38.0266 34.7022 38.0266 34.9144C38.0266 35.1265 38.0799 35.3353 38.1817 35.5215L40.3775 38.9573C38.9099 41.0145 37.1014 42.8056 35.03 44.2531C32.6952 45.7048 30.0265 46.5321 27.28 46.6556C27.0471 46.6556 26.8236 46.7482 26.6589 46.9129C26.4942 47.0776 26.4017 47.301 26.4017 47.534C26.4017 47.7669 26.4942 47.9903 26.6589 48.155C26.8236 48.3197 27.0471 48.4123 27.28 48.4123C30.4026 48.4119 33.4692 47.5829 36.1667 46.0098C38.7233 44.3447 40.97 42.2466 42.8058 39.8098C42.9507 39.6109 43.0288 39.3712 43.0288 39.1252C43.0288 38.8792 42.9507 38.6395 42.8058 38.4406L41.3075 35.8573L42.78 35.6248C43.2529 35.5632 43.7142 35.4326 44.1492 35.2373Z" fill="black"/>
<path fill-rule="evenodd" clip-rule="evenodd" d="M14.5442 48.3086C14.588 48.4004 14.6499 48.4822 14.7264 48.5492C14.8028 48.6163 14.8921 48.667 14.9887 48.6984C15.0854 48.7299 15.1874 48.7413 15.2887 48.732C15.3899 48.7227 15.4882 48.6929 15.5775 48.6445C15.5775 48.6445 18.3417 47.4303 20.9767 46.0611C22.32 45.3895 23.56 44.6661 24.5675 44.072C25.9367 43.0903 27.3058 42.057 28.5717 40.9461C29.8448 39.8279 31.0443 38.6285 32.1625 37.3553C34.4287 34.838 36.4045 32.0736 38.0525 29.1145C38.114 29.0162 38.1555 28.9068 38.1745 28.7924C38.1935 28.6781 38.1897 28.5611 38.1633 28.4482C38.1369 28.3353 38.0884 28.2288 38.0206 28.1348C37.9528 28.0407 37.8671 27.9611 37.7683 27.9003C37.5752 27.7817 37.3437 27.7424 37.1222 27.7906C36.9008 27.8387 36.7065 27.9706 36.58 28.1586C35.0741 30.2732 33.4072 32.2683 31.5942 34.1261C30.225 35.4953 28.8042 36.7095 27.3575 38.0786C25.9108 39.4478 24.4383 40.662 22.9142 41.8503C22.1133 42.522 21.0025 43.3228 19.84 44.1236C17.4117 45.7511 14.88 47.2753 14.88 47.2753C14.7883 47.3191 14.7064 47.3811 14.6394 47.4575C14.5724 47.5339 14.5216 47.6232 14.4902 47.7199C14.4588 47.8165 14.4474 47.9186 14.4566 48.0198C14.4659 48.121 14.4957 48.2193 14.5442 48.3086Z" fill="black"/>
</svg>
