<svg width="24" height="24" viewBox="0 0 24 24" fill="none" xmlns="http://www.w3.org/2000/svg">
<g clip-path="url(#clip0_2033_590)">
<path d="M22.2234 0.000976562H1.77187C0.792187 0.000976562 0 0.774414 0 1.73066V22.2666C0 23.2229 0.792187 24.001 1.77187 24.001H22.2234C23.2031 24.001 24 23.2229 24 22.2713V1.73066C24 0.774414 23.2031 0.000976562 22.2234 0.000976562ZM7.12031 20.4525H3.55781V8.99629H7.12031V20.4525ZM5.33906 7.43535C4.19531 7.43535 3.27188 6.51191 3.27188 5.37285C3.27188 4.23379 4.19531 3.31035 5.33906 3.31035C6.47813 3.31035 7.40156 4.23379 7.40156 5.37285C7.40156 6.50723 6.47813 7.43535 5.33906 7.43535ZM20.4516 20.4525H16.8937V14.8838C16.8937 13.5572 16.8703 11.8463 15.0422 11.8463C13.1906 11.8463 12.9094 13.2947 12.9094 14.79V20.4525H9.35625V8.99629H12.7687V10.5619H12.8156C13.2891 9.66191 14.4516 8.71035 16.1813 8.71035C19.7859 8.71035 20.4516 11.0822 20.4516 14.1666V20.4525Z" fill="#1A1A1A"/>
</g>
<defs>
<clipPath id="clip0_2033_590">
<rect width="24" height="24" fill="white" transform="translate(0 0.000976562)"/>
</clipPath>
</defs>
</svg>
