<svg width="33" height="32" viewBox="0 0 33 32" fill="none" xmlns="http://www.w3.org/2000/svg">
<g clip-path="url(#clip0_109_3480)">
<path fill-rule="evenodd" clip-rule="evenodd" d="M19.8801 7.07982C19.9042 7.02473 19.9171 6.96539 19.9181 6.90526C19.9191 6.84512 19.9081 6.7854 19.8858 6.72955C19.8634 6.67371 19.8302 6.62287 19.788 6.58C19.7458 6.53713 19.6955 6.50307 19.6401 6.47982C18.9639 6.17173 18.2444 5.96937 17.5067 5.87982V4.71982C17.5185 4.59857 17.4837 4.47738 17.4094 4.38082C17.3352 4.28426 17.227 4.21956 17.1067 4.19982C17.0479 4.19044 16.9877 4.19311 16.9299 4.20768C16.8721 4.22224 16.8179 4.2484 16.7705 4.28456C16.7232 4.32072 16.6836 4.36612 16.6543 4.41803C16.625 4.46993 16.6066 4.52724 16.6001 4.58649C16.4934 4.98649 16.4267 5.41316 16.3201 5.82649C16.1693 5.81315 16.0176 5.81315 15.8667 5.82649C15.3083 5.85373 14.7765 6.07294 14.361 6.44707C13.9456 6.82121 13.6721 7.32731 13.5867 7.87982C13.5243 8.16855 13.5229 8.46714 13.5826 8.75645C13.6423 9.04576 13.7618 9.3194 13.9334 9.55982C14.1311 9.78717 14.3747 9.97006 14.6482 10.0965C14.9217 10.2229 15.2188 10.2899 15.5201 10.2932H15.6667V11.0932C15.6667 11.5998 15.7467 12.0798 15.8001 12.5732H15.4534C15.0388 12.4553 14.6498 12.2608 14.3067 11.9998C14.1999 11.9169 14.0649 11.8789 13.9305 11.8938C13.7961 11.9088 13.6728 11.9755 13.5867 12.0798C13.5436 12.1331 13.5115 12.1945 13.4922 12.2602C13.4729 12.326 13.4668 12.395 13.4742 12.4631C13.4816 12.5313 13.5025 12.5973 13.5355 12.6574C13.5686 12.7174 13.6132 12.7704 13.6667 12.8132C14.1183 13.207 14.6442 13.5062 15.2134 13.6932C15.4654 13.7689 15.7246 13.818 15.9867 13.8398C15.9867 14.0932 15.9867 14.3465 16.0534 14.5865C16.0533 14.6553 16.0673 14.7235 16.0944 14.7867C16.1215 14.85 16.1612 14.9071 16.2111 14.9545C16.261 15.0019 16.3201 15.0387 16.3847 15.0625C16.4492 15.0864 16.518 15.0968 16.5867 15.0932C16.6556 15.0933 16.7237 15.0793 16.787 15.0522C16.8503 15.0251 16.9074 14.9854 16.9548 14.9355C17.0022 14.8855 17.0389 14.8265 17.0628 14.7619C17.0866 14.6973 17.097 14.6286 17.0934 14.5598C17.0934 14.2932 17.0934 14.0265 17.1601 13.7598C17.6163 13.6738 18.0507 13.4974 18.4377 13.2409C18.8247 12.9844 19.1564 12.6531 19.4134 12.2665C19.5831 11.9415 19.6794 11.5832 19.6955 11.2169C19.7116 10.8506 19.6472 10.4852 19.5067 10.1465C19.4146 9.8799 19.2706 9.63422 19.0829 9.42367C18.8953 9.21311 18.6677 9.04186 18.4134 8.91982C18.1217 8.80989 17.8169 8.73819 17.5067 8.70649V8.17316V7.03982C18.1029 7.04681 18.6953 7.13656 19.2667 7.30649C19.3783 7.3566 19.505 7.36093 19.6197 7.31854C19.7344 7.27615 19.8279 7.19043 19.8801 7.07982ZM17.9334 11.7598C17.7609 11.9781 17.5424 12.1556 17.2934 12.2798C17.2934 11.8932 17.3601 11.5198 17.3867 11.1198C17.4134 10.7198 17.3867 10.6532 17.3867 10.4265C17.4899 10.4378 17.5884 10.4757 17.6725 10.5365C17.7566 10.5973 17.8236 10.6788 17.8667 10.7732C17.9663 10.9161 18.0252 11.0834 18.0369 11.2572C18.0486 11.4311 18.0129 11.6048 17.9334 11.7598ZM15.6667 8.54649C15.5067 8.54649 15.3601 8.54649 15.3067 8.45316C15.2583 8.40506 15.2222 8.34605 15.2013 8.28109C15.1804 8.21613 15.1754 8.14711 15.1867 8.07982C15.2079 7.85178 15.3047 7.63735 15.4617 7.47065C15.6188 7.30395 15.827 7.19454 16.0534 7.15982C15.9867 7.46649 15.8934 7.75982 15.8534 8.06649C15.8134 8.37316 15.8534 8.39982 15.8534 8.55982L15.6667 8.54649Z" fill="#020202"/>
<path fill-rule="evenodd" clip-rule="evenodd" d="M9.93342 12.9065C10.1201 14.5598 10.3468 16.2132 10.6401 17.8398C10.6497 17.8998 10.6713 17.9572 10.7035 18.0086C10.7357 18.0601 10.778 18.1046 10.8277 18.1394C10.8775 18.1742 10.9337 18.1987 10.9931 18.2114C11.0525 18.224 11.1138 18.2246 11.1734 18.2132C11.2328 18.2052 11.29 18.1851 11.3414 18.1543C11.3928 18.1234 11.4373 18.0824 11.4723 18.0337C11.5072 17.985 11.5319 17.9297 11.5447 17.8711C11.5575 17.8126 11.5582 17.752 11.5468 17.6932C11.2668 16.0665 11.1334 14.4398 11.0134 12.7998C10.8534 10.3465 10.8001 7.87982 10.7601 5.41316C10.7601 4.74649 10.6134 3.74649 10.6001 2.81316C10.5713 2.47599 10.5713 2.13699 10.6001 1.79982C11.4262 1.75527 12.254 1.75527 13.0801 1.79982L20.6934 1.89316L22.8268 1.79982C22.8934 2.94649 22.6001 5.25316 22.6001 5.54649C22.6452 8.28778 22.5428 11.0295 22.2934 13.7598C22.0925 15.5629 21.7447 17.3466 21.2534 19.0932C21.2309 19.1587 21.2221 19.2282 21.2276 19.2974C21.2331 19.3665 21.2526 19.4337 21.2851 19.495C21.3176 19.5562 21.3623 19.6101 21.4165 19.6534C21.4707 19.6967 21.5332 19.7283 21.6001 19.7465C21.6649 19.7669 21.733 19.774 21.8006 19.7675C21.8682 19.761 21.9338 19.741 21.9935 19.7087C22.0532 19.6764 22.1058 19.6324 22.1482 19.5793C22.1905 19.5262 22.2218 19.4652 22.2401 19.3998C22.8193 17.613 23.2431 15.7795 23.5068 13.9198C23.8908 11.1614 24.1222 8.3838 24.2001 5.59982C24.4246 4.21001 24.5582 2.80703 24.6001 1.39982C24.5949 1.19282 24.5417 0.989865 24.4445 0.807033C24.3473 0.624202 24.2088 0.466522 24.0401 0.346489C23.7589 0.201454 23.4495 0.119547 23.1334 0.106489C22.4134 0.106489 21.3201 0.199822 20.8801 0.186489L13.2001 0.0931554C12.1947 0.0578691 11.188 0.0890482 10.1868 0.186489C10.0029 0.209589 9.82686 0.274472 9.67201 0.376165C9.51716 0.477857 9.38766 0.613658 9.29342 0.773155C9.09308 1.28678 8.99787 1.83539 9.01342 2.38649C9.01342 3.43982 9.25342 4.69316 9.29342 5.46649C9.44009 7.99982 9.61342 10.4398 9.93342 12.9065Z" fill="#020202"/>
<path fill-rule="evenodd" clip-rule="evenodd" d="M32.0934 17.2532C32.1912 17.1788 32.2576 17.0706 32.2798 16.9497C32.302 16.8289 32.2783 16.7041 32.2134 16.5998C32.2134 16.5998 31.0934 14.5865 30.6934 14.0132C30.4447 13.6658 30.1777 13.332 29.8934 13.0132C29.6205 12.6918 29.3265 12.3889 29.0134 12.1065C28.281 11.4321 27.4963 10.8169 26.6667 10.2665C26.6268 10.2233 26.5783 10.1888 26.5244 10.1652C26.4705 10.1416 26.4122 10.1294 26.3534 10.1294C26.2945 10.1294 26.2363 10.1416 26.1824 10.1652C26.1285 10.1888 26.08 10.2233 26.0401 10.2665C25.9943 10.3078 25.9578 10.3582 25.9328 10.4144C25.9078 10.4707 25.8948 10.5316 25.8948 10.5932C25.8948 10.6548 25.9078 10.7157 25.9328 10.7719C25.9578 10.8282 25.9943 10.8786 26.0401 10.9198C26.0401 10.9198 26.8534 12.1198 28.0401 13.5865C28.4401 14.0665 28.8934 14.5465 29.3734 15.0265C29.8534 15.5065 30.5067 16.2132 31.0001 16.7865C31.0001 18.5198 31.0001 20.4932 30.8667 22.4932C30.8428 23.8409 30.6729 25.182 30.3601 26.4932C30.0634 27.5327 29.555 28.4996 28.8667 29.3332C27.5334 29.9865 24.4667 29.9732 22.8134 30.0398C20.7334 30.1198 18.6401 30.1065 16.5467 30.1065H12.8001H10.2934C8.88006 30.1065 7.49339 29.9865 6.08006 29.9332H4.60006C3.64006 29.6532 3.26672 29.4132 2.68006 27.3998C2.5344 26.5181 2.45419 25.6268 2.44006 24.7332C2.44006 24.0532 2.44006 23.3998 2.36006 22.6532C2.28006 21.9065 2.36006 21.5065 2.36006 20.9465V18.2798L2.25339 15.9598C2.30784 15.9848 2.36683 15.9984 2.42672 15.9998C3.00586 15.3315 3.63429 14.7075 4.30672 14.1332C4.77339 13.7198 5.22672 13.3198 5.64006 12.9198C6.82672 11.7198 7.70672 10.6665 7.70672 10.6665C7.75634 10.632 7.79855 10.5879 7.83086 10.5368C7.86317 10.4857 7.88494 10.4286 7.89488 10.369C7.90482 10.3093 7.90273 10.2483 7.88874 10.1895C7.87474 10.1307 7.84912 10.0753 7.81339 10.0265C7.74138 9.92919 7.63438 9.86366 7.51496 9.84375C7.39554 9.82385 7.27307 9.85113 7.17339 9.91984C6.33067 10.3327 5.53117 10.8285 4.78672 11.3998C4.47157 11.6373 4.16894 11.891 3.88006 12.1598C3.60006 12.4398 3.33339 12.7332 3.06672 13.0398C0.786724 15.9065 1.22672 15.5598 0.946724 18.4265C0.853391 19.4532 0.600057 20.7732 0.600057 22.1865C0.565736 23.4851 0.686591 24.7832 0.960057 26.0532C1.93339 30.3732 1.25339 30.4798 5.93339 31.0798C7.36006 31.2665 8.76006 31.5465 10.1867 31.6665C11.3601 31.7598 12.5867 31.8532 13.8001 31.8932C15.5867 31.8932 17.4134 31.8932 19.2267 31.8265C28.4001 31.3598 31.0401 31.2398 32.2534 25.3865C32.5166 24.1332 32.6329 22.8534 32.6001 21.5732C32.5128 20.1248 32.3436 18.6825 32.0934 17.2532Z" fill="#020202"/>
<path fill-rule="evenodd" clip-rule="evenodd" d="M4.68003 28.1331C5.84003 27.3331 6.7867 26.2798 7.88003 25.4664C8.97336 24.6531 10.16 23.4398 11.5467 22.3064C11.8 22.1064 12.0534 21.8931 12.3067 21.7064C13.1888 20.9016 14.2488 20.3168 15.4 19.9998C15.8559 20.0112 16.2957 20.1703 16.6534 20.4531C17.4382 20.9886 18.1824 21.5814 18.88 22.2264C23.96 26.5064 22.9734 25.5064 25.68 27.8531C26.28 28.3864 26.28 28.3864 26.8534 28.9331C27.4267 29.4798 28.2934 28.6531 27.64 28.1064C26.7334 27.1598 26.56 26.9864 25.5867 26.0798C24.6134 25.1731 23.44 24.1198 22.36 23.1464C23.1067 22.5331 23.8667 21.9331 24.56 21.2798C25.2534 20.6264 25.7867 20.0664 26.3734 19.4531C27.2452 18.5064 28.1759 17.6158 29.16 16.7864C29.2163 16.699 29.245 16.5968 29.2426 16.4929C29.2401 16.389 29.2066 16.2882 29.1463 16.2035C29.0861 16.1188 29.0018 16.0542 28.9044 16.0179C28.8071 15.9815 28.701 15.9752 28.6 15.9998C27.2898 16.7263 26.0568 17.584 24.92 18.5598C24.2552 19.1379 23.6315 19.7616 23.0534 20.4264C22.5067 21.0531 22 21.7598 21.4934 22.3731C20.9867 21.9198 20.48 21.4664 19.9867 21.0398C19.1115 20.1404 18.1363 19.3441 17.08 18.6664C16.4841 18.3185 15.7931 18.1691 15.1067 18.2398C14.0227 18.464 12.9995 18.9187 12.1067 19.5731C11.5978 19.9377 11.1124 20.334 10.6534 20.7598C10.04 20.1998 9.45336 19.6398 8.77336 19.0531C8.33336 18.6664 7.8667 18.3064 7.44003 17.9331C7.01336 17.5598 6.49336 17.2131 6.1067 16.8398C5.67624 16.4522 5.27514 16.0333 4.9067 15.5864C4.87156 15.5286 4.82489 15.4785 4.76959 15.4395C4.71429 15.4004 4.65155 15.3732 4.58526 15.3594C4.51897 15.3457 4.45056 15.3457 4.38429 15.3595C4.31801 15.3733 4.25529 15.4006 4.20003 15.4398C4.08668 15.5136 4.00657 15.6287 3.97669 15.7606C3.94682 15.8926 3.96954 16.031 4.04003 16.1464C4.57529 17.1232 5.24393 18.0207 6.0267 18.8131C6.35053 19.1611 6.69803 19.4863 7.0667 19.7864C7.41956 20.0927 7.79384 20.3734 8.1867 20.6264C8.76003 20.9864 9.28003 21.2531 9.84003 21.5464C8.80003 22.5331 7.85336 23.5464 7.09336 24.2131C5.95256 25.098 4.91093 26.1039 3.9867 27.2131C3.45336 27.9998 3.80003 28.7464 4.68003 28.1331Z" fill="#A7289E"/>
</g>
<defs>
<clipPath id="clip0_109_3480">
<rect width="32" height="32" fill="white" transform="translate(0.600037)"/>
</clipPath>
</defs>
</svg>
