<svg width="33" height="32" viewBox="0 0 33 32" fill="none" xmlns="http://www.w3.org/2000/svg">
<g clip-path="url(#clip0_109_3469)">
<path fill-rule="evenodd" clip-rule="evenodd" d="M32.2534 16.6665C32.1734 15.7732 32.3467 14.5732 32.2534 13.5332C32.2266 13.0031 32.0999 12.4829 31.88 11.9999C31.7065 11.6558 31.4191 11.3825 31.0667 11.2265C30.5683 11.0309 30.0495 10.8923 29.52 10.8132C28.6753 10.6589 27.8187 10.5786 26.96 10.5732C25.6978 10.5808 24.4374 10.6699 23.1867 10.8399C20.3467 11.1732 21.3334 11.5865 21.3334 8.34652L21.16 4.25319C21.159 3.60548 21.1054 2.95893 21 2.31986C20.8909 1.79162 20.598 1.31919 20.1734 0.986524C19.8779 0.760119 19.5367 0.600864 19.1734 0.519857C18.72 0.399857 18.2267 0.359857 17.84 0.279857C17.4873 0.221764 17.1308 0.190563 16.7734 0.186523H15.72C14.801 0.288686 13.9023 0.526843 13.0534 0.89319C12.4425 1.12231 11.8943 1.49233 11.4534 1.97319C11.2873 2.17199 11.1769 2.41121 11.1334 2.66652C11.0925 3.11003 11.0925 3.55635 11.1334 3.99986L11.4534 10.3999C11.4707 10.4951 11.5209 10.5812 11.5952 10.6433C11.6695 10.7053 11.7632 10.7393 11.86 10.7393C11.9568 10.7393 12.0506 10.7053 12.1249 10.6433C12.1992 10.5812 12.2494 10.4951 12.2667 10.3999L12.04 3.99986V2.97319C12.041 2.8291 12.0877 2.68903 12.1734 2.57319C12.5253 2.22148 12.9545 1.95669 13.4267 1.79986C14.4589 1.3656 15.5745 1.16525 16.6934 1.21319C17.6531 1.24693 18.5982 1.45945 19.48 1.83986C19.7008 2.03479 19.8508 2.29734 19.9067 2.58652C19.978 3.17037 20.0092 3.75841 20 4.34652L20.1067 8.34652C20.0035 9.23188 19.9456 10.1219 19.9334 11.0132C19.9207 11.39 20.0333 11.7604 20.2534 12.0665C20.5016 12.2846 20.8167 12.4115 21.1467 12.4265C21.8763 12.4137 22.6035 12.3379 23.32 12.1999C24.4 11.9999 25.36 11.9999 26.32 11.9999C27.3 11.9869 28.2786 12.0763 29.24 12.2665C31.0134 12.5999 30.7734 13.4665 30.7867 13.6665C30.8534 14.7332 30.6667 15.9465 30.7867 16.8399C30.7867 17.3865 30.92 18.0665 30.92 18.7065C30.9243 19.0466 30.8702 19.3848 30.76 19.7065C30.76 19.8799 30.4667 19.8932 30.28 19.9332C29.8534 20.0399 29.4 20.0665 29.0667 20.1332C28.4134 20.2399 27.7334 20.3332 26.9867 20.3865C25.8934 20.4665 24.7734 20.4932 23.7734 20.4932C23.36 20.4932 22.72 20.3732 22.16 20.3465C21.8356 20.3334 21.5112 20.3739 21.2 20.4665C21.0327 20.5184 20.8831 20.6156 20.7677 20.7474C20.6524 20.8792 20.5759 21.0405 20.5467 21.2132C20.5022 21.5941 20.5022 21.9789 20.5467 22.3599C20.5467 23.3332 20.64 24.3199 20.6534 25.3065V26.4799C20.6193 27.3503 20.5077 28.2159 20.32 29.0665C20.2365 29.5347 20.0294 29.972 19.72 30.3332C19.6134 30.4399 19.4 30.3332 19.2134 30.3332C19.0267 30.3332 18.6667 30.2665 18.4667 30.2532C17.4542 30.1935 16.4391 30.1935 15.4267 30.2532C15.0257 30.2558 14.6249 30.2335 14.2267 30.1865C13.44 30.0932 13.0667 29.3599 12.8 28.5065C12.4606 27.0123 12.2554 25.4907 12.1867 23.9599C12.225 23.3516 12.225 22.7415 12.1867 22.1332C12.1517 21.9254 12.0759 21.7265 11.9638 21.548C11.8517 21.3695 11.7054 21.215 11.5334 21.0932C11.2263 20.9045 10.8874 20.7735 10.5334 20.7065C9.83065 20.5576 9.11735 20.464 8.40002 20.4265C7.58669 20.3465 6.73336 20.2265 5.89336 20.0932C5.05336 19.9599 4.20002 19.7732 3.40002 19.5865L1.58669 19.1999C1.55032 18.9346 1.52806 18.6675 1.52002 18.3999C1.52002 17.6532 1.64002 16.8132 1.64002 16.5065C1.59364 15.7231 1.6249 14.9371 1.73336 14.1599C1.76565 13.7175 1.93851 13.297 2.22669 12.9599C2.40339 12.7938 2.61882 12.6747 2.85336 12.6132C3.30669 12.4932 3.81336 12.4799 4.26669 12.3999C5.26307 12.2376 6.27054 12.1529 7.28002 12.1465C8.29429 12.1678 9.30574 12.2613 10.3067 12.4265C10.3662 12.4362 10.4271 12.434 10.4858 12.4201C10.5444 12.4062 10.5998 12.3809 10.6487 12.3456C10.6976 12.3103 10.7391 12.2657 10.7708 12.2144C10.8025 12.1631 10.8237 12.1061 10.8334 12.0465C10.843 11.987 10.8408 11.9261 10.8269 11.8675C10.813 11.8088 10.7877 11.7534 10.7524 11.7045C10.7171 11.6556 10.6726 11.6141 10.6213 11.5824C10.5699 11.5507 10.5129 11.5295 10.4534 11.5199C9.40588 11.3282 8.34468 11.2212 7.28002 11.1999C6.21307 11.1764 5.14625 11.2523 4.09336 11.4265C3.58273 11.4658 3.07507 11.5371 2.57336 11.6399C2.16023 11.7344 1.78162 11.9421 1.48002 12.2399C1.04249 12.7223 0.763293 13.3272 0.680024 13.9732C0.56023 14.812 0.515608 15.6598 0.546691 16.5065C0.45321 17.3567 0.404255 18.2112 0.400024 19.0665C0.407521 19.4077 0.529631 19.7365 0.746691 19.9999C0.9231 20.1592 1.13254 20.2776 1.36002 20.3465C1.90669 20.5199 2.77336 20.6265 3.13336 20.7199C3.94669 20.9199 4.81336 21.1199 5.69336 21.2799C6.57336 21.4399 7.44002 21.5732 8.29336 21.6532C8.72003 21.6532 9.34669 21.7465 9.92002 21.8532C10.2062 21.8869 10.4827 21.9776 10.7334 22.1199C10.8534 22.1999 10.84 22.3732 10.8667 22.5332V24.0665C10.8791 25.9774 11.1849 27.8751 11.7734 29.6932C11.9478 30.1798 12.2505 30.6102 12.6495 30.9388C13.0486 31.2674 13.529 31.482 14.04 31.5599C14.482 31.6199 14.9274 31.651 15.3734 31.6532C16.3416 31.6018 17.3118 31.6018 18.28 31.6532C18.7771 31.7412 19.2826 31.7726 19.7867 31.7465C20.1462 31.7087 20.4834 31.5542 20.7467 31.3065C21.2347 30.7668 21.5746 30.1099 21.7334 29.3999C21.9514 28.4675 22.0809 27.5166 22.12 26.5599C22.1472 26.1158 22.1472 25.6706 22.12 25.2265C22.12 24.2532 22.0267 23.2665 22.0267 22.3065V21.8399C22.5867 21.8399 23.2534 21.9865 23.68 21.9865C24.72 21.9865 25.88 21.9865 27.0134 21.8665C27.7867 21.7999 28.5467 21.7199 29.2534 21.5865C29.9107 21.5299 30.5569 21.3818 31.1734 21.1465C31.5855 20.9675 31.9143 20.6387 32.0934 20.2265C32.2883 19.7291 32.3922 19.2007 32.4 18.6665C32.4 17.9865 32.3067 17.2532 32.2534 16.6665Z" fill="#A7289E"/>
</g>
<defs>
<clipPath id="clip0_109_3469">
<rect width="32" height="32" fill="white" transform="translate(0.400024)"/>
</clipPath>
</defs>
</svg>
