<svg width="48" height="48" viewBox="0 0 48 48" fill="none" xmlns="http://www.w3.org/2000/svg">
<g clip-path="url(#clip0_753_780)">
<path d="M17.6745 17.8637C15.4202 18.6955 13.4794 20.2057 12.1192 22.1864C10.8528 23.9763 11.5113 23.7567 10.819 23.7399C10.6839 23.7399 5.06108 23.8412 6.22617 24.5504C7.62132 25.0165 9.0573 25.35 10.5151 25.5466C10.3157 26.3016 10.2135 27.079 10.2111 27.8599C7.6952 28.0963 7.01978 27.7248 6.96913 28.434C6.96213 28.5006 6.96841 28.5679 6.98759 28.632C7.00676 28.6962 7.03847 28.7559 7.08086 28.8077C7.12326 28.8595 7.1755 28.9024 7.23458 28.9339C7.29365 28.9654 7.35839 28.9849 7.42503 28.9912C8.41195 29.203 9.40967 29.3608 10.4138 29.464C12.44 37.2313 24.7157 34.04 23.2973 32.1995C23.2012 32.0815 23.0634 32.0051 22.9124 31.9862C22.7614 31.9674 22.609 32.0074 22.4868 32.0981C22.0895 32.3625 21.6497 32.5567 21.1866 32.6722C18.046 33.5841 13.47 32.8749 12.3893 29.464L18.9915 28.9743C19.129 28.9508 19.2538 28.8795 19.3437 28.7729C19.4337 28.6663 19.483 28.5313 19.483 28.3918C19.483 28.2523 19.4337 28.1173 19.3437 28.0107C19.2538 27.9041 19.129 27.8327 18.9915 27.8092C16.716 27.421 14.3979 27.3471 12.1023 27.5897C12.1269 26.9702 12.2348 26.3568 12.4231 25.7661C13.6701 25.832 14.9205 25.7698 16.1548 25.5804C16.4081 25.5804 18.1304 25.6817 18.5525 25.3777C18.6415 25.4196 18.7386 25.4415 18.837 25.4419C18.9353 25.4424 19.0326 25.4213 19.122 25.3802C19.2114 25.3391 19.2907 25.279 19.3544 25.2041C19.4181 25.1292 19.4647 25.0412 19.4909 24.9464C19.5171 24.8516 19.5223 24.7522 19.5061 24.6552C19.4899 24.5582 19.4527 24.4659 19.397 24.3847C19.3414 24.3036 19.2688 24.2356 19.1842 24.1854C19.0995 24.1353 19.005 24.1042 18.9071 24.0945C18.2317 23.8749 16.8977 24.0945 13.2674 23.8749C14.3615 21.8455 16.0696 20.2142 18.1473 19.2146C19.211 18.7756 22.5206 18.5223 23.1285 19.451C23.1639 19.5075 23.2102 19.5565 23.2646 19.5952C23.319 19.6338 23.3805 19.6614 23.4456 19.6763C23.5107 19.6912 23.578 19.6931 23.6439 19.682C23.7097 19.6709 23.7727 19.6469 23.8292 19.6114C23.8857 19.5759 23.9347 19.5296 23.9734 19.4752C24.0121 19.4208 24.0396 19.3593 24.0545 19.2942C24.0694 19.2292 24.0714 19.1618 24.0602 19.096C24.0491 19.0302 24.0251 18.9672 23.9896 18.9106C23.1116 17.391 19.2617 17.3403 17.6745 17.8637Z" fill="#020202"/>
<path d="M28.36 44.56C26.8412 45.1204 25.2748 45.5421 23.68 45.82C22.1281 46.1382 20.5422 46.2591 18.96 46.18C17.394 46.0114 15.8384 45.7576 14.3 45.42C13.3063 45.2252 12.3298 44.951 11.38 44.6C9.70934 43.9584 8.21011 42.9384 6.99999 41.62C6.20372 40.7421 5.53086 39.7597 4.99999 38.7C4.83999 38.38 4.71999 38.04 4.57999 37.7C4.77999 37.94 4.95999 38.18 5.17999 38.4C5.95066 39.1496 6.79493 39.8197 7.69999 40.4C8.5513 41.0115 9.45478 41.5469 10.4 42C11.6786 42.5682 13.0219 42.9779 14.4 43.22C15.7645 43.4748 17.1525 43.582 18.54 43.54C20.6056 43.5334 22.6621 43.2646 24.66 42.74C26.0156 42.3587 27.2993 41.7574 28.46 40.96C28.5312 40.9154 28.5926 40.8569 28.6405 40.7879C28.6884 40.7189 28.7218 40.6409 28.7387 40.5586C28.7555 40.4763 28.7554 40.3914 28.7385 40.3091C28.7215 40.2269 28.688 40.1489 28.64 40.08C28.5432 39.9437 28.397 39.8506 28.2326 39.8207C28.0681 39.7908 27.8985 39.8265 27.76 39.92C26.4171 40.7618 24.9223 41.3326 23.36 41.6C21.7627 41.884 20.1423 42.0179 18.52 42C17.2489 41.9899 15.9823 41.8492 14.74 41.58C13.5076 41.3216 12.3119 40.9118 11.18 40.36C10.3073 39.9519 9.47091 39.4701 8.67999 38.92C7.90757 38.3789 7.19073 37.7626 6.53999 37.08C0.959992 31.4 3.15999 24.48 8.33999 20.3C10.9418 18.1494 14.1325 16.8345 17.4941 16.5276C20.8557 16.2207 24.2317 16.9361 27.18 18.58C27.3087 18.6481 27.4582 18.6654 27.599 18.6283C27.7398 18.5913 27.8615 18.5026 27.94 18.38C27.9793 18.316 28.0054 18.2447 28.0167 18.1704C28.0279 18.0961 28.0241 18.0203 28.0054 17.9476C27.9867 17.8748 27.9536 17.8065 27.908 17.7468C27.8624 17.6871 27.8053 17.6372 27.74 17.6C24.5929 15.6731 20.9331 14.7518 17.2488 14.9591C13.5645 15.1663 10.0311 16.4923 7.11999 18.76C2.61999 22.24 0.139992 27.56 1.63999 32.76C1.81928 35.8036 2.70979 38.7628 4.23999 41.4C5.7519 43.7587 7.97105 45.5788 10.58 46.6C11.6901 46.9945 12.8353 47.2825 14 47.46C15.5951 47.7313 17.2044 47.9116 18.82 48C20.5676 47.9995 22.3081 47.7778 24 47.34C25.6586 46.9549 27.2787 46.4194 28.84 45.74C28.9807 45.666 29.0888 45.5424 29.1433 45.3931C29.1978 45.2438 29.1949 45.0796 29.135 44.9324C29.0751 44.7851 28.9626 44.6655 28.8193 44.5966C28.6761 44.5278 28.5123 44.5147 28.36 44.56Z" fill="#A7289E"/>
<path d="M40.7 23.2001C40.7 23.0303 40.6326 22.8675 40.5125 22.7475C40.3925 22.6275 40.2297 22.5601 40.06 22.5601C39.8903 22.5601 39.7275 22.6275 39.6074 22.7475C39.4874 22.8675 39.42 23.0303 39.42 23.2001C39.26 24.1601 39.1 25.2001 39 26.1001C39 26.5001 39 26.9201 38.9 27.3401C38.8 27.7601 38.9 28.1601 38.9 28.5601C38.9 29.5401 39.16 30.5601 39.26 31.4401C39.2545 31.5136 39.2637 31.5876 39.2869 31.6576C39.3101 31.7276 39.347 31.7924 39.3953 31.8481C39.4436 31.9039 39.5025 31.9496 39.5685 31.9825C39.6345 32.0154 39.7064 32.035 39.78 32.0401C39.8525 32.0455 39.9254 32.0362 39.9943 32.0128C40.0632 31.9893 40.1266 31.9522 40.1808 31.9036C40.2349 31.8551 40.2787 31.7961 40.3095 31.7301C40.3403 31.6642 40.3575 31.5928 40.36 31.5201C40.58 30.5401 40.82 29.5201 40.94 28.6201V27.3601V26.1201C40.92 25.1001 40.78 24.1601 40.7 23.2001Z" fill="#020202"/>
<path d="M46.38 11.54C45.7701 10.6881 45.1018 9.87945 44.38 9.12004L42 6.68004C40.86 5.46004 39.72 4.32004 38.6 3.10004C38 2.22004 37.14 1.36004 36.38 0.440036C36.3074 0.321387 36.2095 0.220312 36.0932 0.144096C35.9768 0.067881 35.8451 0.018425 35.7073 -0.000706202C35.5696 -0.0198374 35.4293 -0.00816716 35.2966 0.0334632C35.1639 0.0750936 35.0421 0.145647 34.94 0.240036C33.18 2.14004 31.44 4.00004 29.76 6.00004C28.64 7.30004 27.58 8.64004 26.48 10C26.1423 10.4221 25.8284 10.8628 25.54 11.32C25.3365 11.6401 25.156 11.9743 25 12.32C25 12.32 24.72 12.98 24.66 13.24C24.5869 13.4574 24.5908 13.6932 24.6709 13.908C24.751 14.1228 24.9025 14.3036 25.1 14.42C25.3507 14.533 25.6258 14.5812 25.9 14.56C26.4 14.56 27.16 14.38 27.44 14.34C28.72 14.34 29.3 14.34 30.04 14.16C30.4026 14.1261 30.7631 14.0727 31.12 14C31.12 15.02 30.96 16 30.9 16.88V18.22V19.56C30.9 20.6 31.16 21.56 31.3 22.74C31.3 22.8886 31.359 23.031 31.464 23.136C31.569 23.241 31.7115 23.3 31.86 23.3C32.0085 23.3 32.1509 23.241 32.256 23.136C32.361 23.031 32.42 22.8886 32.42 22.74C32.62 21.6 32.84 20.6 32.94 19.56C32.97 19.1005 32.97 18.6395 32.94 18.18V16.82C32.82 15.78 32.62 14.82 32.42 13.62C32.42 13.62 32.24 12.66 31.62 12.76C31 12.86 30.4 12.76 29.98 12.76C29.24 12.76 28.7 12.76 27.44 12.64C27.3204 12.6252 27.1995 12.6252 27.08 12.64L28.16 11.2C28.96 10.2 29.78 9.20004 30.56 8.18004C32.24 6.00004 33.86 3.74004 35.58 1.50004C36.64 3.08004 37.72 4.58004 38.88 6.02004C40.04 7.46004 41.38 9.02004 42.72 10.56C42.96 10.8 43.62 11.4 44.22 12L40.22 12.44C39.8852 12.4253 39.5566 12.5328 39.2953 12.7426C39.034 12.9523 38.8579 13.25 38.8 13.58C38.8 14.36 38.6 15.1 38.56 15.9C38.54 16.2264 38.54 16.5537 38.56 16.88C38.5402 17.1997 38.5402 17.5203 38.56 17.84C38.7 18.62 38.92 19.32 39.06 20.1C39.06 20.2486 39.119 20.391 39.224 20.496C39.329 20.601 39.4715 20.66 39.62 20.66C39.7685 20.66 39.9109 20.601 40.016 20.496C40.121 20.391 40.18 20.2486 40.18 20.1C40.3797 19.3252 40.5201 18.5362 40.6 17.74C40.6301 17.4074 40.6301 17.0727 40.6 16.74C40.5729 16.4109 40.5262 16.0836 40.46 15.76C40.34 14.98 40.14 14.26 39.96 13.5H40.16H44.56H45.74C45.9563 13.4871 46.1632 13.4069 46.3317 13.2706C46.5003 13.1344 46.622 12.9489 46.68 12.74C46.7093 12.3184 46.6043 11.8983 46.38 11.54Z" fill="#020202"/>
<path d="M36.74 24.38C36.7454 24.296 36.7342 24.2116 36.7069 24.1319C36.6797 24.0522 36.637 23.9786 36.5812 23.9154C36.5255 23.8523 36.4578 23.8007 36.3821 23.7637C36.3064 23.7268 36.2241 23.7051 36.14 23.7C36.0569 23.6946 35.9736 23.706 35.8951 23.7335C35.8165 23.761 35.7443 23.804 35.6827 23.86C35.6211 23.916 35.5714 23.9838 35.5366 24.0594C35.5017 24.135 35.4825 24.2168 35.48 24.3C35.2 26.3 34.94 28.3 34.84 30.42V34.08C34.84 35.92 35.06 37.72 35.04 39.54C35.0288 39.6908 35.0769 39.8399 35.174 39.9557C35.2711 40.0715 35.4096 40.1448 35.56 40.16C35.6336 40.1655 35.7075 40.1563 35.7775 40.1331C35.8476 40.1099 35.9123 40.0731 35.9681 40.0248C36.0238 39.9764 36.0695 39.9176 36.1024 39.8515C36.1354 39.7855 36.1549 39.7136 36.16 39.64C36.5391 37.617 36.7995 35.5735 36.94 33.52V29.84C36.88 28 36.74 26.2 36.74 24.38Z" fill="#020202"/>
<path d="M32.68 32.34C32.68 30.46 32.46 28.58 32.4 26.7C32.4027 26.617 32.3886 26.5342 32.3587 26.4566C32.3287 26.3791 32.2835 26.3084 32.2256 26.2487C32.1678 26.1889 32.0985 26.1415 32.022 26.1091C31.9454 26.0767 31.8631 26.06 31.78 26.06C31.6135 26.0545 31.4515 26.1141 31.3283 26.2261C31.205 26.3382 31.1303 26.4938 31.12 26.66C30.96 28.56 30.76 30.44 30.68 32.36V34.8C30.68 35.62 30.68 36.42 30.8 37.24C30.96 39.14 31.28 41.02 31.58 42.9C31.5998 43.0485 31.6744 43.1841 31.7891 43.2803C31.9039 43.3765 32.0504 43.4264 32.2 43.42C32.2737 43.4126 32.3452 43.3906 32.4103 43.3553C32.4755 43.32 32.5329 43.2721 32.5794 43.2144C32.6259 43.1568 32.6605 43.0905 32.6812 43.0193C32.7019 42.9482 32.7083 42.8737 32.7 42.8C32.7 40.92 32.8 39.06 32.84 37.16V34.76C32.84 33.96 32.72 33.14 32.68 32.34Z" fill="#020202"/>
</g>
<defs>
<clipPath id="clip0_753_780">
<rect width="48" height="48" fill="white"/>
</clipPath>
</defs>
</svg>
