<svg width="48" height="48" viewBox="0 0 48 48" fill="none" xmlns="http://www.w3.org/2000/svg">
<g clip-path="url(#clip0_753_794)">
<path fill-rule="evenodd" clip-rule="evenodd" d="M14.44 28.6201C14.9778 28.6898 15.5223 28.6898 16.06 28.6201C16.5843 28.5431 17.1001 28.4159 17.6 28.2401C18.7203 27.8132 19.7928 27.2703 20.8 26.6201C20.9509 26.5428 21.0663 26.4103 21.1221 26.2502C21.178 26.09 21.1701 25.9145 21.1 25.7601C21.0192 25.6126 20.8865 25.5003 20.7277 25.4448C20.5688 25.3894 20.3951 25.3949 20.24 25.4601C19.1779 25.8329 18.0878 26.1205 16.98 26.3201C16.3192 26.4556 15.6515 26.5558 14.98 26.6201H13.98C15.1472 25.091 15.8485 23.2578 16 21.3401C16.4 17.3401 14.42 13.3401 9.78001 12.9401C8.28883 12.9313 6.81685 13.2766 5.48517 13.9477C4.15349 14.6187 3.00014 15.5963 2.12001 16.8001C1.13692 17.9537 0.550011 19.3924 0.445604 20.9045C0.341198 22.4166 0.724808 23.9223 1.54001 25.2001C2.05679 25.9692 2.74043 26.6118 3.54001 27.0801L4.30001 27.4801C2.76586 29.0487 1.60388 30.942 0.900006 33.0201C0.374527 34.6314 0.0717252 36.3069 6.47269e-06 38.0001C-0.0893075 40.47 0.0715114 42.9426 0.480006 45.3801C0.484811 45.4705 0.508172 45.559 0.548636 45.64C0.5891 45.721 0.645801 45.7928 0.715212 45.851C0.784622 45.9091 0.865258 45.9524 0.952101 45.9781C1.03894 46.0037 1.13014 46.0112 1.22001 46.0001C1.38267 45.98 1.53142 45.8983 1.63561 45.7718C1.7398 45.6453 1.79149 45.4836 1.78001 45.3201C1.65655 42.9314 1.73013 40.5367 2.00001 38.1601C2.17447 36.6377 2.47552 35.1325 2.90001 33.6601C3.45957 31.6067 4.41778 29.6835 5.72001 28.0001C6.26001 28.1401 6.80001 28.2801 7.34001 28.3801C7.48588 28.4093 7.63736 28.3793 7.76113 28.2968C7.88491 28.2143 7.97083 28.086 8.00001 27.9401C8.02918 27.7942 7.99921 27.6428 7.9167 27.519C7.83418 27.3952 7.70588 27.3093 7.56001 27.2801C3.56001 26.3601 2.84001 24.5001 2.82001 24.4401C2.25146 23.417 2.02807 22.2378 2.183 21.0776C2.33793 19.9174 2.86292 18.8382 3.68001 18.0001C4.37854 17.07 5.28489 16.3161 6.32668 15.7987C7.36847 15.2813 8.51682 15.0147 9.68001 15.0201C13.1 15.2201 14.46 18.2001 14.28 21.1601C14.3002 22.7081 13.8067 24.2192 12.8767 25.4568C11.9466 26.6945 10.6325 27.5889 9.14001 28.0001C8.9756 28.0295 8.82846 28.1202 8.72825 28.2538C8.62804 28.3874 8.58221 28.554 8.60001 28.7201C8.62941 28.8831 8.72086 29.0284 8.85513 29.1253C8.9894 29.2223 9.15603 29.2634 9.32001 29.2401C10.402 29.0847 11.4272 28.6582 12.3 28.0001C12.9775 28.3148 13.6992 28.5238 14.44 28.6201Z" fill="#020202"/>
<path fill-rule="evenodd" clip-rule="evenodd" d="M21.14 29.4001C20.3236 30.1727 19.4171 30.8442 18.44 31.4001C17.4732 31.935 16.4547 32.3705 15.4 32.7001C14.5885 32.8999 13.7875 33.1402 13 33.4201C12.4423 33.6255 11.9701 34.013 11.66 34.5201C11.2096 35.622 11.018 36.8125 11.1 38.0001C11.1 40.5001 11.92 43.5801 12.04 45.1601C12.0425 45.2433 12.0618 45.3251 12.0966 45.4007C12.1314 45.4763 12.1811 45.5442 12.2427 45.6002C12.3043 45.6561 12.3765 45.6992 12.4551 45.7266C12.5337 45.7541 12.617 45.7655 12.7 45.7601C12.7815 45.7575 12.8616 45.7389 12.9358 45.7053C13.0101 45.6717 13.077 45.6239 13.1327 45.5644C13.1884 45.505 13.2319 45.4352 13.2606 45.3589C13.2893 45.2827 13.3027 45.2015 13.3 45.1201C13.3 43.7601 13.08 41.2601 13.08 38.9601C13.08 33.7801 14.3 35.2401 16.14 34.5201C17.2392 34.0012 18.29 33.3854 19.28 32.6801C20.2877 31.9638 21.2015 31.1239 22 30.1801C22.0558 30.1295 22.1005 30.0677 22.131 29.9988C22.1615 29.9299 22.1773 29.8554 22.1773 29.7801C22.1773 29.7047 22.1615 29.6302 22.131 29.5613C22.1005 29.4924 22.0558 29.4307 22 29.3801C21.946 29.3183 21.8791 29.2691 21.804 29.2361C21.7289 29.203 21.6474 29.1868 21.5654 29.1888C21.4833 29.1907 21.4027 29.2106 21.3292 29.2471C21.2557 29.2836 21.1911 29.3358 21.14 29.4001Z" fill="#020202"/>
<path fill-rule="evenodd" clip-rule="evenodd" d="M41.28 26.26C40.3293 26.3601 39.3707 26.3601 38.42 26.26C35.58 25.86 31.72 23.38 33.08 19.32C33.5385 18.1344 34.2729 17.0751 35.2225 16.2299C36.172 15.3848 37.3092 14.778 38.54 14.46C39.8394 14.0663 41.2318 14.1071 42.5059 14.5763C43.78 15.0456 44.8663 15.9175 45.6 17.06C45.9644 17.6444 46.209 18.2953 46.3198 18.9751C46.4306 19.6548 46.4052 20.3497 46.2452 21.0196C46.0852 21.6894 45.7937 22.3208 45.3877 22.8771C44.9816 23.4333 44.4692 23.9034 43.88 24.26C43.7437 24.3568 43.6506 24.503 43.6207 24.6674C43.5908 24.8319 43.6265 25.0015 43.72 25.14C43.7641 25.212 43.8229 25.2738 43.8926 25.3215C43.9622 25.3692 44.0411 25.4017 44.1242 25.4168C44.2073 25.4319 44.2926 25.4293 44.3746 25.4092C44.4565 25.389 44.5334 25.3518 44.6 25.3C45.3675 24.8699 46.042 24.2915 46.5841 23.5984C47.1261 22.9054 47.5251 22.1115 47.7577 21.263C47.9903 20.4144 48.0519 19.5281 47.939 18.6555C47.8261 17.7829 47.5409 16.9414 47.1 16.18C46.2084 14.6369 44.8362 13.4281 43.193 12.7383C41.5497 12.0485 39.7258 11.9157 38 12.36C36.4333 12.7694 34.9915 13.5583 33.802 14.657C32.6126 15.7558 31.712 17.1306 31.18 18.66C30.8459 19.6828 30.7864 20.7755 31.0075 21.8285C31.2287 22.8816 31.7226 23.858 32.44 24.66C32.1099 24.5443 31.789 24.4039 31.48 24.24C30.4353 23.5446 29.5769 22.6039 28.98 21.5C28.4902 20.6184 27.8698 19.816 27.14 19.12C26.554 18.5316 25.8281 18.1018 25.0305 17.8709C24.2329 17.64 23.3896 17.6156 22.58 17.8C21.9165 18.0805 21.3333 18.5217 20.8829 19.0838C20.4324 19.6459 20.129 20.3113 20 21.02C19.8814 21.4724 19.8814 21.9477 20 22.4C20.2111 22.9524 20.4514 23.4932 20.72 24.02C20.9888 24.5381 21.2894 25.039 21.62 25.52C22.4419 26.7816 23.4084 27.9428 24.5 28.98C25.6033 30.0204 26.8409 30.9083 28.18 31.62C29.2518 32.0708 30.3466 32.4647 31.46 32.8C31.7925 32.9192 32.1084 33.0806 32.4 33.28C32.6067 34.0185 32.7407 34.7754 32.8 35.54C32.9497 36.7338 33.0099 37.9372 32.98 39.14C32.9352 40.9801 32.7883 42.8162 32.54 44.64C32.5161 44.7885 32.5522 44.9404 32.6404 45.0623C32.7285 45.1842 32.8615 45.2661 33.01 45.29C33.1585 45.3139 33.3104 45.2778 33.4323 45.1896C33.5542 45.1015 33.6361 44.9685 33.66 44.82C33.96 42.98 34.26 41.1 34.38 39.22C34.4698 37.9483 34.4698 36.6718 34.38 35.4C34.3564 34.5755 34.2763 33.7535 34.14 32.94C34.0556 32.5851 33.8758 32.2601 33.62 32C33.1802 31.6246 32.6884 31.3147 32.16 31.08C31.16 30.62 29.98 30.32 29.12 29.84C27.9578 29.176 26.8829 28.3698 25.92 27.44C24.9588 26.5025 24.0944 25.4707 23.34 24.36C23.06 23.92 22.8 23.48 22.56 23.02C21.72 21.5 21.92 21.58 22.04 21.16C22.0911 20.8432 22.2178 20.5433 22.4092 20.2857C22.6007 20.0281 22.8513 19.8203 23.14 19.68C23.82 19.42 24.72 19.68 26 20.58C27.28 21.48 28.2 24.22 30.7 25.54C31.881 26.1407 33.1959 26.4299 34.52 26.38C34.7131 26.5051 34.9134 26.6186 35.12 26.72C36.1044 27.1661 37.1615 27.4303 38.24 27.5C39.2754 27.5528 40.3135 27.5059 41.34 27.36C41.413 27.3527 41.4838 27.3306 41.548 27.2951C41.6121 27.2595 41.6684 27.2113 41.7133 27.1533C41.7583 27.0952 41.7909 27.0287 41.8092 26.9576C41.8276 26.8866 41.8312 26.8125 41.82 26.74C41.8097 26.6056 41.7477 26.4805 41.647 26.3909C41.5462 26.3014 41.4146 26.2544 41.28 26.26Z" fill="#020202"/>
<path fill-rule="evenodd" clip-rule="evenodd" d="M43.08 25.44C43.0295 25.3763 42.9656 25.3243 42.8929 25.2877C42.8202 25.2511 42.7404 25.2308 42.6591 25.2282C42.5777 25.2256 42.4968 25.2408 42.4219 25.2726C42.347 25.3045 42.28 25.3523 42.2254 25.4127C42.1709 25.4731 42.1302 25.5447 42.1062 25.6225C42.0821 25.7002 42.0753 25.7823 42.0862 25.863C42.0971 25.9436 42.1255 26.0209 42.1693 26.0895C42.2132 26.1581 42.2714 26.2163 42.34 26.26C44.0024 28.1414 45.0493 30.4864 45.34 32.98C45.6007 34.4743 45.761 35.9843 45.82 37.5C45.8942 39.8482 45.8341 42.1987 45.64 44.54C45.6288 44.6216 45.6339 44.7045 45.6551 44.784C45.6763 44.8635 45.7131 44.938 45.7633 45.0032C45.8136 45.0683 45.8763 45.1228 45.9479 45.1635C46.0194 45.2042 46.0983 45.2302 46.18 45.24C46.344 45.2634 46.5106 45.2222 46.6449 45.1253C46.7792 45.0283 46.8706 44.883 46.9 44.72C47.4131 42.3436 47.7275 39.9286 47.84 37.5C47.9059 35.8347 47.7581 34.1678 47.4 32.54C46.803 29.7535 45.2804 27.2511 43.08 25.44Z" fill="#020202"/>
<path fill-rule="evenodd" clip-rule="evenodd" d="M14.2801 9.30007C14.377 9.63749 14.5042 9.96549 14.6601 10.2801C14.8001 10.5903 14.9605 10.8909 15.1401 11.1801C15.6003 11.8808 16.1082 12.549 16.6601 13.1801C16.7354 13.3061 16.8557 13.3989 16.9967 13.4398C17.1378 13.4806 17.2891 13.4664 17.4201 13.4001C17.5499 13.3284 17.646 13.2081 17.6872 13.0656C17.7285 12.9231 17.7115 12.7701 17.6401 12.6401C17.3801 11.8601 17.2401 11.1001 16.9801 10.3401C16.8674 10.0183 16.7338 9.70432 16.5801 9.40007C16.4399 9.09636 16.2795 8.80237 16.1001 8.52007C15.6801 7.82007 15.2201 7.16007 14.7601 6.52007C14.6856 6.37087 14.5559 6.2566 14.3985 6.2016C14.2411 6.14659 14.0684 6.15519 13.9173 6.22556C13.7661 6.29593 13.6484 6.42251 13.5891 6.57837C13.5299 6.73423 13.5338 6.90706 13.6001 7.06007C13.8401 7.78007 14.0001 8.54007 14.2801 9.30007Z" fill="#A7289E"/>
<path fill-rule="evenodd" clip-rule="evenodd" d="M23.3399 9.78005C23.3399 9.92517 23.3961 10.0647 23.4968 10.1691C23.5976 10.2736 23.7349 10.3349 23.8799 10.3401C23.9541 10.3456 24.0287 10.3357 24.0989 10.311C24.1691 10.2864 24.2335 10.2475 24.2879 10.1968C24.3424 10.1461 24.3858 10.0846 24.4154 10.0164C24.445 9.94811 24.4601 9.87446 24.4599 9.80005C24.6399 8.96005 24.8599 8.18005 24.9599 7.32005C24.9804 6.96702 24.9804 6.61309 24.9599 6.26005C24.9793 5.90699 24.9793 5.55312 24.9599 5.20005C24.9599 4.38005 24.7199 3.58005 24.5999 2.74005C24.6003 2.57702 24.5384 2.42002 24.4269 2.30108C24.3153 2.18214 24.1627 2.11024 23.9999 2.10005C23.9169 2.09737 23.8341 2.11143 23.7565 2.14138C23.679 2.17134 23.6083 2.21658 23.5486 2.27442C23.4888 2.33226 23.4414 2.40152 23.409 2.47808C23.3766 2.55463 23.3599 2.63692 23.3599 2.72005C23.2199 3.56005 23.0599 4.36005 22.9799 5.20005C22.9601 5.55311 22.9601 5.907 22.9799 6.26005C22.9603 6.61312 22.9603 6.96699 22.9799 7.32005C23.0199 8.16005 23.2199 8.94005 23.3399 9.78005Z" fill="#A7289E"/>
<path fill-rule="evenodd" clip-rule="evenodd" d="M30.62 12.5401C31.2087 12.1171 31.7637 11.649 32.28 11.1401C32.482 10.9174 32.6627 10.6763 32.82 10.4201C32.98 10.1801 33.12 9.92007 33.26 9.66007C33.56 9.02007 33.8 8.40007 34.08 7.78007C34.1836 7.64801 34.233 7.48144 34.2181 7.31424C34.2033 7.14704 34.1253 6.99179 34 6.88007C33.8615 6.78655 33.6918 6.75093 33.5274 6.78083C33.363 6.81073 33.2167 6.90378 33.12 7.04007C32.6 7.54007 32.12 8.00007 31.64 8.54007C31.46 8.76007 31.28 8.98007 31.12 9.22007C30.9255 9.46536 30.7516 9.72624 30.6 10.0001C30.3 10.6201 30.1 11.2401 29.78 11.8401C29.7287 11.8948 29.6889 11.9593 29.663 12.0296C29.6371 12.1 29.6256 12.1749 29.6292 12.2498C29.6328 12.3247 29.6513 12.3981 29.6838 12.4657C29.7163 12.5333 29.7621 12.5937 29.8184 12.6433C29.8746 12.6928 29.9403 12.7306 30.0114 12.7543C30.0826 12.778 30.1578 12.7872 30.2326 12.7813C30.3073 12.7754 30.3801 12.7546 30.4467 12.72C30.5132 12.6854 30.5722 12.6379 30.62 12.5801V12.5401Z" fill="#A7289E"/>
</g>
<defs>
<clipPath id="clip0_753_794">
<rect width="48" height="48" fill="white"/>
</clipPath>
</defs>
</svg>
