<svg width="73" height="64" viewBox="0 0 73 64" fill="none" xmlns="http://www.w3.org/2000/svg">
<g clip-path="url(#clip0_883_3278)">
<path d="M57.7109 4.37835C60.2138 6.49436 63.1597 9.72852 64.223 12.8516C64.7438 14.3816 65.0516 16.7737 65.1402 18.3992C65.1667 18.882 65.2086 19.6747 64.9288 20.0788C64.6163 20.5307 63.8282 20.6494 63.4458 20.2376C62.9374 19.687 62.8332 17.3428 62.6996 16.5161C62.1337 13.0012 61.0781 11.2137 58.5535 8.7646C55.8688 6.16123 52.6539 3.81542 48.8172 3.46378C39.0234 2.56771 30.607 6.13964 21.8485 9.7825C20.2286 10.4565 18.8186 10.714 17.1335 11.0888C16.4821 11.2338 15.767 11.5083 15.111 11.6024C15.0193 11.6147 14.5156 11.6471 14.4472 11.6348C14.3508 11.6163 14.0088 11.3988 13.9031 11.3309C11.8075 9.96295 9.98246 7.8053 7.93664 6.38486C7.44695 6.04401 7.60552 6.4558 7.57132 6.79973C7.29927 9.42623 7.23242 12.0543 6.77227 14.6684C6.35409 17.0451 4.25697 18.8974 3.61649 21.4067C3.47658 21.9526 3.41284 22.9921 3.06617 23.4332C2.7195 23.8743 1.72613 23.6476 1.5629 23.1016C1.4945 22.8749 1.51937 21.9881 1.54424 21.7136C1.77277 19.1673 3.50456 16.9094 4.49793 14.6175C4.20567 11.5561 3.54964 8.31271 3.98492 5.2374C4.15748 4.01591 4.96119 2.51836 6.37896 2.51682C7.93975 2.51682 10.4115 4.33054 11.6381 5.28213C12.5693 6.00391 13.7212 7.21615 14.6959 7.75903C15.2773 8.08291 15.4079 7.81301 15.9691 7.67883C17.5268 7.3056 18.8062 7.10665 20.3126 6.47585C23.4824 5.14641 26.4174 3.8185 29.71 2.72811C35.8288 0.703097 40.9387 -0.234609 47.4445 0.0491705C51.6745 0.234244 54.552 1.70712 57.7125 4.37835H57.7109Z" fill="#020202"/>
<path d="M71.6756 40.1577C72.4965 37.6453 72.5493 36.6367 71.8249 34.0765C71.2264 31.9605 71.9368 30.5416 70.4226 28.4873C67.1036 23.99 58.1742 23.0554 53.3426 25.2762C50.804 26.4422 48.5125 29.0332 48.5763 31.9451C48.598 32.9738 49.0442 33.9146 49.1079 34.934C49.3007 38.0756 48.6478 40.2086 51.1428 42.6793C55.1505 46.6476 64.1173 46.6121 68.7017 43.6648C69.0437 43.4443 69.3795 43.0202 69.793 42.9955C69.9905 43.1343 69.4277 44.6874 69.3127 44.9527C68.9023 45.9058 68.3193 46.6893 67.5964 47.4234C65.6097 49.4422 63.6572 49.8926 60.8807 50.1301C60.5915 50.1563 60.2931 50.0946 60.0055 50.1548C59.3712 50.2874 59.1271 51.3315 59.836 51.5351C60.5231 51.731 61.8305 51.788 62.5721 51.8127C65.0127 51.8975 67.0119 51.7572 68.8976 50.1054C71.1284 48.1529 72.2633 45.7161 72.013 42.7102C71.9399 41.8403 71.4067 40.9859 71.6756 40.1577ZM51.8688 29.9046C54.1043 26.0628 61.0315 25.9024 64.834 26.9434C68.3271 27.8997 71.8093 30.9086 68.5618 34.4173C66.1709 36.9991 61.8849 37.468 58.5504 37.2197C55.065 36.9606 49.3737 34.1952 51.8688 29.9046ZM69.364 39.7536C66.5533 43.7851 57.3114 43.7296 53.411 41.5303C51.6139 40.5171 50.6159 38.7959 50.6143 36.7431C50.6687 36.6691 50.7309 36.6907 50.804 36.7153C50.9205 36.7523 51.6403 37.4387 51.8346 37.5836C56.4175 40.9952 65.1449 40.224 69.3749 36.5102C69.622 36.2927 69.863 35.9658 70.1133 35.773C70.1661 35.7329 70.1817 35.6728 70.2719 35.6959C70.4988 37.1503 70.205 38.546 69.364 39.7536Z" fill="#02B6A9"/>
<path d="M28.7042 29.2184C32.9404 33.1111 33.116 39.9697 27.9595 43.1915C24.314 45.4694 20.6017 45.7193 16.3826 45.4586C11.7173 45.1702 5.58922 42.5607 3.45168 38.1822C3.14543 37.5529 2.77855 36.825 3.44391 36.299C4.50724 35.457 5.14928 37.1334 5.61409 37.8244C9.48809 43.5925 22.1967 44.3281 26.9739 39.6165C29.4892 37.135 27.9206 32.5189 25.1768 30.8579C21.051 28.3594 15.0224 27.2381 10.2452 27.7193C7.59928 27.9861 5.3778 29.9202 4.77307 32.4757C4.6145 33.1466 4.7 34.1784 4.01133 34.5547C3.74239 34.7012 3.34131 34.5671 3.12522 34.3635C2.82985 34.0843 2.89048 33.0448 2.9138 32.6269C3.0677 29.8847 4.88811 27.2597 7.37853 26.0845C10.3011 24.7057 15.7779 24.9587 18.9679 25.4167C21.9682 25.847 26.4625 27.1626 28.7042 29.2231V29.2184Z" fill="#020202"/>
<path d="M56.2901 54.5289C56.2279 54.2482 56.0429 53.9074 56.0351 53.6221C56.0258 53.2797 56.245 52.9003 56.2994 52.5687C56.7021 50.1504 54.8366 48.1238 52.9664 46.9085C49.7251 44.8002 45.0676 43.7052 41.2123 43.8995C37.7192 44.0769 33.4876 46.1451 33.4426 50.1041C33.4363 50.6686 33.6353 51.1313 33.6959 51.6418C33.7737 52.3188 33.4503 53.0098 33.3928 53.676C33.1192 56.8562 33.7115 59.4519 36.3605 61.4399C40.7071 64.7033 48.4551 64.836 52.9991 61.8918C55.5159 60.26 56.957 57.5487 56.2901 54.5289ZM37.2839 48.0853C38.7794 46.8067 40.8781 46.4597 42.7995 46.3672C45.9164 46.2176 49.293 46.8283 52.001 48.3906C55.6216 50.4789 55.5221 53.4833 51.4476 54.8405C47.8581 56.0357 42.5477 55.5268 39.2302 53.71C38.1685 53.1285 36.4802 51.8022 36.3558 50.5252C36.2454 49.3916 36.4273 48.8179 37.2839 48.0853ZM54.664 55.7735C54.6034 57.2603 53.7111 58.5404 52.5436 59.3933C48.965 62.0044 40.2873 61.7267 36.9372 58.7671C35.5754 57.5657 34.8867 55.7627 34.98 53.9644C35.2847 54.04 35.4433 54.3238 35.6671 54.515C39.4152 57.7153 45.192 58.2181 49.9132 57.4145C51.6093 57.1261 53.1856 56.4105 54.5847 55.4342C54.6982 55.5175 54.6687 55.6517 54.664 55.7735Z" fill="#02B6A9"/>
<path d="M1.42139 41.0602C1.7634 41.014 2.20334 41.2638 2.37901 41.5569C2.67127 42.0442 2.54846 43.3983 2.59976 44.0152C2.81274 46.5847 3.83564 49.3068 4.47924 51.8099C4.60049 52.2819 4.66734 52.8294 4.79171 53.2859C5.02023 54.1249 6.21414 53.1378 6.51417 52.7831C7.9848 51.0419 7.89929 49.0508 10.2887 47.9188C11.8386 47.1846 12.9812 47.5147 14.57 47.8895C16.1447 48.2611 17.6807 48.7855 19.2259 49.2559C19.9363 49.4718 21.5718 49.7757 22.0692 50.2152C22.5667 50.6548 22.461 51.5555 21.8236 51.6973C21.0012 51.8793 18.6974 51.3395 17.7537 51.1899C16.2831 50.957 14.5218 50.5468 13.0527 50.499C12.1806 50.4697 11.9474 50.4604 11.467 51.1884C11.0395 51.8392 10.7675 52.5888 10.3866 53.2658C8.93153 55.8538 6.64942 58.3291 3.41125 56.7545C1.9686 56.0527 1.74163 54.9994 1.44627 53.5589C0.749818 50.1551 0.174626 46.1174 0.373611 42.6503C0.417139 41.89 0.515077 41.1852 1.42139 41.0618V41.0602Z" fill="#020202"/>
<path d="M34.5355 13.7757C34.3707 13.5829 34.265 13.458 34.3163 13.1742C34.5137 12.0792 36.6994 10.4305 37.6322 9.84753C39.6453 8.58749 43.3592 8.1063 45.6724 8.57978C46.3269 8.71396 46.7653 9.00853 46.6704 9.7334C46.6129 10.1699 46.3782 10.3164 46.0066 10.4907C44.9666 10.978 43.4711 11.3173 42.3394 11.7337C40.6029 12.3722 38.8774 13.2267 37.1487 13.8282C36.2906 14.1274 35.2257 14.5792 34.5355 13.7742V13.7757Z" fill="#020202"/>
<path d="M29.6027 26.2805C28.7508 25.5325 28.2813 24.8092 27.0579 24.527C26.4205 24.3789 25.225 24.4637 24.7198 24.1167C23.3922 23.2037 24.8954 21.8712 25.881 21.4979C27.7621 20.7869 30.0395 21.319 30.9163 23.2191C31.2226 23.8854 31.5568 25.0205 31.5444 25.7454C31.5366 26.1849 30.9692 26.7957 30.551 26.8682C30.3194 26.9083 29.7892 26.4425 29.6042 26.2805H29.6027Z" fill="#020202"/>
<path d="M13.9031 19.2309C14.6011 19.8833 14.9058 21.4426 13.7243 21.7202C12.7978 21.9376 11.6287 21.8744 10.6727 22.0009C10.0291 22.0857 8.73877 22.6471 8.22265 22.189C7.98946 21.9823 8.02055 21.2775 8.04854 20.9722C8.11072 20.3013 8.65326 19.2186 9.13052 18.7389C10.2716 17.5915 12.8273 18.2284 13.9015 19.2309H13.9031Z" fill="#020202"/>
<path d="M12.6377 30.8241C13.0637 30.784 13.5798 32.0934 13.684 32.442C14.1472 34.0074 13.586 35.7887 12.6424 37.0796C12.2662 37.5932 11.8574 38.0065 11.2044 37.5778C10.1209 36.8653 10.6728 34.2156 11.0257 33.1653C11.2169 32.5947 11.9693 30.8874 12.6377 30.8241Z" fill="#020202"/>
<path d="M21.0976 33.5632C21.8345 34.2758 21.976 36.7018 21.7365 37.6503C21.4458 38.8024 19.9535 39.9375 19.2275 38.4893C18.5015 37.0411 18.6429 35.2705 19.6363 34.0429C20.0063 33.5864 20.5411 33.0234 21.0976 33.5617V33.5632Z" fill="#020202"/>
</g>
<defs>
<clipPath id="clip0_883_3278">
<rect width="72" height="64" fill="white" transform="translate(0.333252)"/>
</clipPath>
</defs>
</svg>
