<svg width="55" height="48" viewBox="0 0 55 48" fill="none" xmlns="http://www.w3.org/2000/svg">
<g clip-path="url(#clip0_883_3267)">
<path d="M43.6333 3.28389C45.5104 4.87089 47.7198 7.29651 48.5173 9.63885C48.9079 10.7863 49.1388 12.5804 49.2052 13.7995C49.2251 14.1616 49.2565 14.7561 49.0467 15.0592C48.8123 15.3981 48.2212 15.4872 47.9344 15.1783C47.5531 14.7654 47.475 13.0072 47.3747 12.3872C46.9503 9.75105 46.1587 8.41043 44.2652 6.57357C42.2516 4.62104 39.8405 2.86169 36.963 2.59796C29.6176 1.92591 23.3053 4.60485 16.7364 7.337C15.5215 7.84248 14.4641 8.03565 13.2002 8.31673C12.7117 8.42546 12.1753 8.63136 11.6833 8.70192C11.6145 8.71117 11.2368 8.73546 11.1855 8.72621C11.1132 8.71233 10.8567 8.54923 10.7774 8.49833C9.20571 7.47233 7.83691 5.8541 6.30255 4.78877C5.93528 4.53313 6.05421 4.84197 6.02856 5.09992C5.82452 7.0698 5.77438 9.04083 5.42927 11.0015C5.11563 12.7839 3.5428 14.1732 3.06243 16.0551C2.9575 16.4646 2.9097 17.2442 2.64969 17.575C2.38969 17.9059 1.64466 17.7358 1.52224 17.3263C1.47094 17.1563 1.48959 16.4912 1.50825 16.2853C1.67964 14.3756 2.97849 12.6822 3.72352 10.9633C3.50432 8.66721 3.0123 6.23465 3.33876 3.92817C3.46818 3.01206 4.07096 1.88889 5.13429 1.88774C6.30488 1.88774 8.15871 3.24803 9.07863 3.96172C9.77702 4.50306 10.641 5.41223 11.372 5.81939C11.8081 6.0623 11.906 5.85988 12.3269 5.75925C13.4952 5.47932 14.4547 5.33011 15.5845 4.85701C17.9618 3.85993 20.1631 2.864 22.6326 2.04621C27.2216 0.527445 31.0541 -0.175835 35.9335 0.037C39.106 0.175805 41.2641 1.28046 43.6344 3.28389H43.6333Z" fill="#020202"/>
<path d="M54.1068 30.1184C54.7224 28.2341 54.7621 27.4776 54.2188 25.5575C53.7699 23.9705 54.3027 22.9063 53.1671 21.3656C50.6778 17.9926 43.9807 17.2916 40.357 18.9573C38.4531 19.8318 36.7345 21.775 36.7823 23.9589C36.7986 24.7304 37.1332 25.436 37.181 26.2006C37.3256 28.5568 36.8359 30.1566 38.7072 32.0096C41.713 34.9858 48.4381 34.9592 51.8764 32.7488C52.1329 32.5833 52.3848 32.2653 52.6949 32.2467C52.843 32.3508 52.4209 33.5157 52.3346 33.7146C52.0268 34.4295 51.5896 35.0171 51.0474 35.5677C49.5574 37.0818 48.093 37.4196 46.0106 37.5977C45.7938 37.6174 45.5699 37.5711 45.3542 37.6162C44.8785 37.7157 44.6954 38.4988 45.2271 38.6514C45.7425 38.7984 46.723 38.8412 47.2791 38.8597C49.1097 38.9233 50.609 38.818 52.0233 37.5792C53.6964 36.1148 54.5476 34.2872 54.3598 32.0328C54.305 31.3804 53.9051 30.7396 54.1068 30.1184ZM39.2517 22.4286C40.9283 19.5472 46.1237 19.4269 48.9756 20.2077C51.5954 20.9249 54.2071 23.1816 51.7715 25.8131C49.9783 27.7495 46.7638 28.1011 44.2629 27.9149C41.6489 27.7205 37.3804 25.6466 39.2517 22.4286ZM52.3731 29.8153C50.2651 32.839 43.3336 32.7973 40.4083 31.1479C39.0605 30.3879 38.312 29.097 38.3108 27.5574C38.3516 27.5019 38.3983 27.5181 38.4531 27.5366C38.5405 27.5644 39.0803 28.0791 39.2261 28.1878C42.6632 30.7465 49.2088 30.1681 52.3813 27.3828C52.5666 27.2197 52.7474 26.9745 52.9351 26.8299C52.9747 26.7998 52.9864 26.7547 53.054 26.772C53.2242 27.8628 53.0039 28.9096 52.3731 29.8153Z" fill="#A7289E"/>
<path d="M21.8782 21.9138C25.0554 24.8334 25.1871 29.9773 21.3197 32.3936C18.5856 34.1021 15.8014 34.2895 12.6371 34.094C9.1381 33.8777 4.54201 31.9205 2.93886 28.6366C2.70917 28.1647 2.43401 27.6187 2.93303 27.2243C3.73053 26.5927 4.21205 27.8501 4.56067 28.3683C7.46616 32.6944 16.9976 33.2461 20.5805 29.7124C22.467 27.8512 21.2906 24.3892 19.2327 23.1434C16.1383 21.2695 11.6169 20.4286 8.03397 20.7895C6.04956 20.9896 4.38345 22.4401 3.9299 24.3568C3.81097 24.86 3.8751 25.6338 3.35859 25.916C3.15689 26.0259 2.85608 25.9253 2.69401 25.7726C2.47249 25.5632 2.51796 24.7836 2.53545 24.4702C2.65088 22.4135 4.01618 20.4448 5.884 19.5634C8.07594 18.5293 12.1835 18.719 14.576 19.0625C16.8262 19.3853 20.1969 20.3719 21.8782 21.9173V21.9138Z" fill="#020202"/>
<path d="M42.5676 40.8967C42.521 40.6862 42.3822 40.4305 42.3764 40.2165C42.3694 39.9598 42.5338 39.6752 42.5746 39.4265C42.8766 37.6128 41.4775 36.0929 40.0749 35.1814C37.6439 33.6002 34.1508 32.7789 31.2593 32.9246C28.6394 33.0577 25.4658 34.6088 25.432 37.5781C25.4273 38.0014 25.5765 38.3485 25.622 38.7313C25.6803 39.2391 25.4378 39.7573 25.3946 40.257C25.1894 42.6422 25.6337 44.5889 27.6204 46.0799C30.8803 48.5275 36.6913 48.627 40.0993 46.4188C41.987 45.195 43.0678 43.1615 42.5676 40.8967ZM28.313 36.064C29.4346 35.105 31.0086 34.8448 32.4497 34.7754C34.7874 34.6632 37.3198 35.1212 39.3508 36.293C42.0663 37.8592 41.9916 40.1124 38.9357 41.1303C36.2436 42.0268 32.2608 41.6451 29.7727 40.2825C28.9764 39.8464 27.7102 38.8516 27.6169 37.8939C27.5341 37.0437 27.6705 36.6134 28.313 36.064ZM41.348 41.8302C41.3026 42.9452 40.6333 43.9053 39.7577 44.545C37.0738 46.5033 30.5655 46.2951 28.053 44.0753C27.0316 43.1743 26.5151 41.8221 26.5851 40.4733C26.8136 40.53 26.9325 40.7428 27.1004 40.8863C29.9114 43.2865 34.244 43.6635 37.785 43.0609C39.057 42.8446 40.2392 42.3079 41.2886 41.5757C41.3737 41.6381 41.3515 41.7388 41.348 41.8302Z" fill="#A7289E"/>
<path d="M1.41614 30.7951C1.67265 30.7604 2.0026 30.9477 2.13435 31.1675C2.35355 31.533 2.26144 32.5486 2.29992 33.0113C2.45965 34.9384 3.22683 36.98 3.70952 38.8573C3.80047 39.2113 3.8506 39.6219 3.94388 39.9643C4.11527 40.5935 5.0107 39.8533 5.23573 39.5872C6.33869 38.2813 6.27457 36.788 8.0666 35.9389C9.22903 35.3884 10.086 35.6359 11.2776 35.917C12.4587 36.1957 13.6106 36.589 14.7695 36.9418C15.3024 37.1038 16.5289 37.3316 16.902 37.6613C17.2751 37.9909 17.1958 38.6665 16.7178 38.7729C16.101 38.9094 14.3731 38.5045 13.6654 38.3923C12.5624 38.2177 11.2414 37.91 10.1396 37.8741C9.48554 37.8521 9.31065 37.8452 8.95038 38.3912C8.62975 38.8793 8.42571 39.4415 8.14005 39.9493C7.04875 41.8902 5.33716 43.7467 2.90853 42.5657C1.82655 42.0394 1.65632 41.2494 1.4348 40.169C0.912461 37.6162 0.481067 34.5879 0.630306 31.9876C0.662952 31.4174 0.736406 30.8887 1.41614 30.7962V30.7951Z" fill="#020202"/>
<path d="M26.2516 10.3318C26.128 10.1872 26.0488 10.0935 26.0872 9.88067C26.2353 9.05941 27.8746 7.82288 28.5742 7.38565C30.084 6.44062 32.8694 6.07972 34.6043 6.43483C35.0952 6.53547 35.424 6.7564 35.3529 7.30005C35.3097 7.6274 35.1337 7.73729 34.855 7.868C34.075 8.23352 32.9534 8.48799 32.1046 8.8003C30.8022 9.27918 29.5081 9.92 28.2116 10.3711C27.568 10.5955 26.7693 10.9344 26.2516 10.3306V10.3318Z" fill="#020202"/>
<path d="M22.5521 19.7103C21.9132 19.1493 21.5611 18.6068 20.6435 18.3951C20.1655 18.2841 19.2689 18.3477 18.8899 18.0874C17.8942 17.4026 19.0217 16.4033 19.7609 16.1233C21.1717 15.5901 22.8797 15.9892 23.5373 17.4142C23.767 17.9139 24.0177 18.7653 24.0084 19.3089C24.0025 19.6386 23.577 20.0966 23.2633 20.151C23.0896 20.1811 22.692 19.8317 22.5533 19.7103H22.5521Z" fill="#020202"/>
<path d="M10.7774 14.4231C11.3009 14.9124 11.5294 16.0818 10.6433 16.29C9.94841 16.4531 9.07163 16.4057 8.35459 16.5005C7.87189 16.5641 6.90417 16.9852 6.51708 16.6416C6.34219 16.4866 6.36551 15.958 6.3865 15.729C6.43314 15.2258 6.84005 14.4138 7.19799 14.0541C8.05378 13.1935 9.97056 13.6712 10.7762 14.4231H10.7774Z" fill="#020202"/>
<path d="M9.82835 23.118C10.1478 23.0879 10.5349 24.07 10.613 24.3314C10.9605 25.5054 10.5396 26.8414 9.83185 27.8096C9.54969 28.1948 9.24305 28.5048 8.75336 28.1832C7.94071 27.6488 8.35461 25.6616 8.61928 24.8739C8.76269 24.4459 9.327 23.1654 9.82835 23.118Z" fill="#020202"/>
<path d="M16.1733 25.1723C16.726 25.7067 16.8321 27.5262 16.6525 28.2376C16.4345 29.1017 15.3152 29.953 14.7707 28.8668C14.2262 27.7807 14.3323 26.4528 15.0773 25.532C15.3548 25.1897 15.7559 24.7675 16.1733 25.1712V25.1723Z" fill="#020202"/>
</g>
<defs>
<clipPath id="clip0_883_3267">
<rect width="54" height="48" fill="white" transform="translate(0.600006)"/>
</clipPath>
</defs>
</svg>
