<svg width="32" height="32" viewBox="0 0 32 32" fill="none" xmlns="http://www.w3.org/2000/svg">
<g clip-path="url(#clip0_109_3510)">
<path fill-rule="evenodd" clip-rule="evenodd" d="M16 5.08049H17.5466C17.7333 5.08049 17.9333 5.08049 18.0133 5.28049C18.0933 5.48049 18.0133 5.41382 17.92 5.46715C17.7904 5.59483 17.6362 5.69465 17.4666 5.76049C17.0768 5.93343 16.6528 6.0155 16.2266 6.00049C15.8085 5.97425 15.4083 5.82071 15.08 5.56049C14.9825 5.4636 14.8507 5.40921 14.7133 5.40921C14.5759 5.40921 14.4441 5.4636 14.3466 5.56049C14.252 5.66175 14.1993 5.7952 14.1993 5.93382C14.1993 6.07245 14.252 6.20589 14.3466 6.30716C14.7912 6.77769 15.3674 7.10301 16 7.24049C16 7.24049 16 7.34716 16 7.40049C16.017 7.48948 16.0485 7.57506 16.0933 7.65382C16.6266 8.69382 16.8533 8.68049 17.0533 8.64049C17.5333 8.64049 17.7733 7.30716 17.7733 7.22716H17.9466C18.4689 7.08059 18.934 6.77826 19.28 6.36049C19.4423 6.15979 19.5527 5.92225 19.6015 5.6688C19.6504 5.41535 19.6361 5.15378 19.56 4.90716C19.4983 4.64169 19.3775 4.39354 19.2067 4.18117C19.0359 3.9688 18.8194 3.79766 18.5733 3.68049C17.7829 3.46652 16.965 3.37214 16.1466 3.40049C15.9957 3.41143 15.8442 3.41143 15.6933 3.40049C15.7139 3.321 15.7453 3.24473 15.7866 3.17382C15.9327 3.00419 16.1124 2.86681 16.3144 2.7704C16.5164 2.67399 16.7362 2.62067 16.96 2.61382C17.4886 2.60593 18.0064 2.76452 18.44 3.06715C18.539 3.14142 18.6634 3.1733 18.786 3.1558C18.9085 3.13829 19.019 3.07284 19.0933 2.97382C19.1304 2.92669 19.1578 2.87266 19.1739 2.81486C19.19 2.75706 19.1944 2.69664 19.187 2.63711C19.1795 2.57758 19.1604 2.52012 19.1305 2.46806C19.1007 2.41599 19.0609 2.37037 19.0133 2.33382C18.5505 1.85918 17.9712 1.51435 17.3333 1.33382V1.18716C17.3522 1.12183 17.3522 1.05248 17.3333 0.987155C17.3333 0.987155 16.9066 0.000488281 16.5733 0.000488281C16.24 0.000488281 15.7066 0.827155 15.6666 0.907155C15.648 0.981562 15.648 1.05941 15.6666 1.13382C15.648 1.20823 15.648 1.28608 15.6666 1.36049V1.45382C15.301 1.56955 14.9614 1.75521 14.6666 2.00049C14.4503 2.1718 14.2654 2.37931 14.12 2.61382C13.9612 2.846 13.8732 3.11928 13.8666 3.40049C13.8639 3.60192 13.9069 3.80135 13.9924 3.98379C14.0778 4.16622 14.2035 4.32692 14.36 4.45382C14.8281 4.8283 15.4014 5.04738 16 5.08049Z" fill="#1A1A1A"/>
<path fill-rule="evenodd" clip-rule="evenodd" d="M29.88 5.57405C29.9461 5.5354 30.0086 5.49077 30.0666 5.44071C30.1024 5.38417 30.1251 5.32042 30.1333 5.25405C30.1333 5.25405 30.2266 4.20071 29.9466 4.01405C29.6666 3.82738 28.8 4.29405 28.7066 4.34738C28.6448 4.38718 28.5943 4.44229 28.56 4.50738C28.5162 4.57484 28.493 4.65361 28.4933 4.73405C28.4868 4.7693 28.4868 4.80546 28.4933 4.84071C28.1146 4.76699 27.7253 4.76699 27.3466 4.84071C27.0728 4.88376 26.8074 4.96923 26.56 5.09405C26.3089 5.22341 26.1006 5.42249 25.96 5.66738C25.8596 5.8367 25.7981 6.02614 25.7796 6.22209C25.7612 6.41804 25.7863 6.61564 25.8533 6.80071C26.0564 7.33307 26.4081 7.79587 26.8666 8.13405C27.2533 8.41405 27.7866 8.65405 28.2 8.93405C28.36 9.04071 28.5466 9.12071 28.5066 9.34738C28.4666 9.57405 28.4133 9.45405 28.3333 9.46738C28.1571 9.5009 27.9762 9.5009 27.8 9.46738C27.3774 9.43434 26.9696 9.29689 26.6133 9.06738C26.2606 8.84304 25.9894 8.51112 25.84 8.12071C25.7817 8.00753 25.6849 7.91893 25.567 7.87091C25.4491 7.82289 25.3179 7.81862 25.1971 7.85887C25.0764 7.89913 24.974 7.98125 24.9085 8.09041C24.843 8.19956 24.8187 8.32854 24.84 8.45405C25.0088 9.04173 25.3419 9.56904 25.8 9.97405C25.7656 10.0134 25.7385 10.0585 25.72 10.1074C25.7 10.1951 25.7 10.2863 25.72 10.374C25.72 11.534 25.8666 11.6274 26.0533 11.7074C26.5066 11.894 27.3866 10.854 27.3866 10.8407C27.3866 10.8274 27.48 10.9074 27.5466 10.9207C28.0797 11.093 28.6535 11.093 29.1866 10.9207C29.4273 10.8265 29.6415 10.6754 29.811 10.4804C29.9805 10.2853 30.1002 10.0521 30.16 9.80071C30.2401 9.53941 30.2602 9.26337 30.2186 8.99323C30.177 8.72309 30.075 8.46584 29.92 8.24071C29.3335 7.61065 28.6491 7.07937 27.8933 6.66738C27.7639 6.59057 27.6392 6.50597 27.52 6.41405C27.5718 6.35321 27.6353 6.30335 27.7066 6.26738C27.9217 6.18224 28.1532 6.14643 28.3839 6.16258C28.6147 6.17873 28.8389 6.24644 29.04 6.36071C29.5091 6.61271 29.8835 7.01051 30.1066 7.49405C30.1565 7.60397 30.2459 7.69109 30.3571 7.73804C30.4683 7.78499 30.5931 7.78832 30.7066 7.74738C30.7645 7.72675 30.8175 7.69458 30.8625 7.65283C30.9075 7.61109 30.9436 7.56063 30.9686 7.50453C30.9935 7.44842 31.0068 7.38783 31.0076 7.32644C31.0084 7.26505 30.9967 7.20413 30.9733 7.14738C30.7487 6.53844 30.3724 5.9969 29.88 5.57405Z" fill="#1A1A1A"/>
<path fill-rule="evenodd" clip-rule="evenodd" d="M12.48 21.2407C12.48 20.894 12.48 20.094 11.28 20.1607C10.08 20.2273 10.2667 22.1073 11.28 22.134C12.0667 22.1607 12.4934 21.9073 12.48 21.2407Z" fill="#A7289E"/>
<path fill-rule="evenodd" clip-rule="evenodd" d="M15.7467 21.2407C15.7467 20.894 15.7467 20.094 14.5333 20.1607C13.32 20.2273 13.52 22.1073 14.5333 22.134C15.3333 22.1607 15.76 21.9073 15.7467 21.2407Z" fill="#A7289E"/>
<path fill-rule="evenodd" clip-rule="evenodd" d="M17.1467 18.4404C16.3514 17.908 15.4337 17.5868 14.48 17.507C13.1121 17.4229 11.7433 17.6556 10.48 18.187C10.3662 18.2292 10.2733 18.3141 10.221 18.4236C10.1688 18.5331 10.1612 18.6587 10.2 18.7737C10.2194 18.8311 10.2501 18.884 10.2904 18.9294C10.3306 18.9747 10.3795 19.0115 10.4342 19.0376C10.4889 19.0637 10.5483 19.0786 10.6088 19.0813C10.6693 19.0841 10.7298 19.0747 10.7867 19.0537C11.7293 18.7524 12.7181 18.6215 13.7067 18.667C14.6359 18.7305 15.5239 19.0746 16.2533 19.6537C16.5509 19.8625 16.7685 20.1664 16.8703 20.5154C16.9721 20.8644 16.952 21.2376 16.8133 21.5737C16.6756 21.9519 16.4612 22.2975 16.1836 22.5889C15.906 22.8803 15.5711 23.1112 15.2 23.267C14.353 23.6055 13.4449 23.7644 12.5333 23.7337C11.6445 23.75 10.7713 23.4992 10.0267 23.0137C9.79725 22.8289 9.61483 22.5924 9.49433 22.3236C9.37382 22.0548 9.31865 21.7612 9.33333 21.467C9.32872 20.8218 9.56666 20.1984 10 19.7204C10.05 19.6719 10.0897 19.6139 10.1169 19.5497C10.144 19.4856 10.158 19.4167 10.158 19.347C10.158 19.2774 10.144 19.2084 10.1169 19.1443C10.0897 19.0802 10.05 19.0222 10 18.9737C9.9003 18.876 9.76626 18.8212 9.62666 18.8212C9.48706 18.8212 9.35302 18.876 9.25333 18.9737C8.55685 19.6124 8.13608 20.497 8.08 21.4404C8.02447 21.9287 8.08219 22.4233 8.24867 22.8858C8.41515 23.3482 8.68593 23.7661 9.04 24.107C9.98035 24.8785 11.1342 25.3437 12.3467 25.4404C13.5168 25.5314 14.693 25.377 15.8 24.987C16.4174 24.7358 16.9744 24.3562 17.4341 23.8735C17.8939 23.3908 18.2458 22.816 18.4667 22.187C18.7215 21.5069 18.7289 20.7588 18.4875 20.0738C18.2462 19.3888 17.7715 18.8105 17.1467 18.4404Z" fill="#A7289E"/>
<path fill-rule="evenodd" clip-rule="evenodd" d="M9.65332 15.7604C9.77997 15.7774 9.9085 15.7483 10.0155 15.6785C10.1226 15.6087 10.201 15.5028 10.2365 15.3801C10.272 15.2574 10.2623 15.1259 10.2091 15.0098C10.1559 14.8936 10.0628 14.8004 9.94665 14.7471C9.51545 14.5074 9.0262 14.392 8.53332 14.4137C8.32372 14.4202 8.11657 14.4607 7.91999 14.5337C7.72073 14.593 7.53809 14.698 7.38665 14.8404C7.01218 15.1715 6.74714 15.6086 6.62665 16.0937C6.5949 16.1444 6.57351 16.2009 6.56369 16.26C6.55388 16.319 6.55585 16.3794 6.56948 16.4376C6.58312 16.4959 6.60815 16.5508 6.64313 16.5994C6.67812 16.6479 6.72236 16.689 6.77332 16.7204C6.82388 16.7563 6.88146 16.781 6.94226 16.7931C7.00307 16.8052 7.06574 16.8042 7.12617 16.7904C7.18659 16.7765 7.24341 16.7501 7.2929 16.7127C7.34238 16.6754 7.38342 16.628 7.41332 16.5737C7.41332 16.5737 9.54665 15.7604 9.65332 15.7604Z" fill="#1A1A1A"/>
<path fill-rule="evenodd" clip-rule="evenodd" d="M18.0667 14.8937C17.9592 14.7635 17.828 14.6549 17.68 14.5737C17.5377 14.4888 17.3854 14.4216 17.2267 14.3737C16.8644 14.287 16.4925 14.2467 16.12 14.2537C16.0544 14.2332 15.9853 14.2259 15.9168 14.2322C15.8483 14.2385 15.7817 14.2584 15.721 14.2906C15.6602 14.3229 15.6064 14.3669 15.5628 14.42C15.5191 14.4732 15.4865 14.5345 15.4667 14.6004C15.4444 14.6669 15.4361 14.7372 15.4424 14.8071C15.4487 14.8769 15.4694 14.9447 15.5033 15.0061C15.5371 15.0675 15.5833 15.1212 15.639 15.1638C15.6947 15.2065 15.7586 15.2371 15.8267 15.2537L17.8267 16.5071C17.8599 16.5582 17.9035 16.6019 17.9545 16.6353C18.0056 16.6687 18.063 16.6912 18.1232 16.7012C18.1834 16.7112 18.245 16.7086 18.3041 16.6936C18.3633 16.6785 18.4186 16.6513 18.4667 16.6137C18.5173 16.5802 18.5608 16.5369 18.5943 16.4863C18.6279 16.4357 18.651 16.3788 18.6622 16.3191C18.6734 16.2594 18.6725 16.1981 18.6595 16.1388C18.6465 16.0794 18.6218 16.0233 18.5867 15.9737C18.4976 15.5789 18.3197 15.2096 18.0667 14.8937Z" fill="#1A1A1A"/>
<path fill-rule="evenodd" clip-rule="evenodd" d="M22.36 13.4539C22.4667 12.8539 22.5467 12.2672 22.68 11.6805C22.7733 11.3072 22.88 10.9339 23 10.5739C23.68 8.85387 23.8133 9.05387 23.6 8.53387C23.5402 8.39772 23.4484 8.27808 23.3323 8.18519C23.2162 8.09231 23.0793 8.02895 22.9333 8.00054C22.5232 7.94425 22.1059 7.96945 21.7055 8.0747C21.3051 8.17995 20.9295 8.36317 20.6 8.61387C19.7831 9.22289 19.0715 9.96155 18.4933 10.8005C17.4242 10.0061 16.2237 9.40582 14.9467 9.02721C14.3812 8.86475 13.8002 8.76197 13.2133 8.72054C12.6234 8.6671 12.0299 8.6671 11.44 8.72054C10.0731 8.95964 8.78621 9.5321 7.69333 10.3872C7.69333 10.3872 7.69333 10.3872 7.69333 10.4672C7.14713 9.73846 6.4903 9.09962 5.74666 8.57387C5.06939 8.08351 4.22708 7.87772 3.39999 8.00054C3.25131 8.02681 3.11188 8.0909 2.99513 8.18664C2.87837 8.28238 2.78822 8.40655 2.73333 8.54721C2.39999 9.32054 2.99999 9.01388 3.63999 11.6939C3.77333 12.2805 3.86666 12.8672 3.97333 13.4672C2.52344 14.8213 1.54273 16.6021 1.17351 18.5513C0.804292 20.5005 1.06577 22.5167 1.91999 24.3072C2.09231 24.6424 2.28373 24.9673 2.49333 25.2805C2.72605 25.5991 2.98471 25.8979 3.26666 26.1739L4.10666 26.7739L6.46666 30.4672C6.63999 30.7205 6.82666 31.1739 7.03999 31.4805C7.12549 31.6178 7.23369 31.7395 7.35999 31.8405C7.51628 31.9444 7.70596 31.9856 7.89126 31.956C8.07657 31.9263 8.24392 31.828 8.35999 31.6805C8.45333 31.5072 8.73333 31.0805 8.74666 31.0539L9.99999 28.5605C10.0267 28.4737 10.0267 28.3808 9.99999 28.2939C10.4 28.3739 10.7733 28.4805 11.1867 28.5339C11.788 28.6096 12.3948 28.6319 13 28.6005C13.6087 28.5815 14.2151 28.5147 14.8133 28.4005C15.36 28.3072 15.8667 28.1739 16.3867 28.0405C16.3234 28.1095 16.281 28.1949 16.2645 28.287C16.248 28.3791 16.258 28.4739 16.2933 28.5605L17.5467 31.0539L17.9467 31.6805L18.0533 31.8005C18.1095 31.8611 18.1776 31.9095 18.2533 31.9425C18.329 31.9756 18.4107 31.9926 18.4933 31.9926C18.5759 31.9926 18.6577 31.9756 18.7334 31.9425C18.8091 31.9095 18.8772 31.8611 18.9333 31.8005C19.063 31.7031 19.1718 31.5807 19.2533 31.4405C19.4667 31.1339 19.6667 30.6805 19.8267 30.4272L22.1867 26.7339L23.0267 26.1339C23.3123 25.8614 23.5712 25.5623 23.8 25.2405C24.0096 24.9273 24.201 24.6024 24.3733 24.2672C25.2292 22.478 25.4928 20.4627 25.126 18.5136C24.7592 16.5645 23.781 14.7829 22.3333 13.4272L22.36 13.4539ZM22.8133 23.5072C22.6897 23.769 22.5424 24.0189 22.3733 24.2539C22.2176 24.4847 22.0389 24.6991 21.84 24.8939C21.6267 25.1072 21.2667 25.2939 21.04 25.5205C20.9223 25.6413 20.8194 25.7756 20.7333 25.9205L18.6667 29.6805L18.4667 30.1205L17.3333 28.0939C17.2767 27.9921 17.1874 27.9122 17.08 27.8672C17.722 27.6772 18.3539 27.4547 18.9733 27.2005C19.039 27.181 19.1001 27.1482 19.1528 27.1043C19.2055 27.0605 19.2487 27.0063 19.2799 26.9453C19.3111 26.8842 19.3295 26.8174 19.3341 26.749C19.3387 26.6806 19.3294 26.6119 19.3067 26.5472C19.2639 26.4166 19.1712 26.3082 19.0488 26.2457C18.9263 26.1833 18.7842 26.1718 18.6533 26.2139C17.3576 26.4911 16.0427 26.6694 14.72 26.7472C14.1733 26.7472 13.6133 26.7472 13.0533 26.8272H11.3067C10.0014 26.8649 8.69681 26.7304 7.42666 26.4272C7.31149 26.3871 7.18537 26.3924 7.07393 26.4419C6.96249 26.4914 6.87408 26.5815 6.82666 26.6939C6.78311 26.8088 6.78669 26.9364 6.83663 27.0487C6.88656 27.1611 6.97881 27.2492 7.09333 27.2939C7.73284 27.6066 8.39738 27.8652 9.07999 28.0672L7.86666 30.0939L7.66666 29.6539L5.59999 25.9205C5.51874 25.7758 5.42024 25.6415 5.30666 25.5205C5.06666 25.2939 4.71999 25.1072 4.49333 24.8939C4.29438 24.6991 4.11569 24.4847 3.95999 24.2539C3.79575 24.0158 3.64871 23.7662 3.51999 23.5072C2.68817 21.9091 2.41142 20.0798 2.73333 18.3072C3.0452 16.4675 3.95983 14.7836 5.33333 13.5205C5.41883 13.4333 5.46673 13.316 5.46673 13.1939C5.46673 13.0717 5.41883 12.9544 5.33333 12.8672C5.27774 12.8051 5.20519 12.7607 5.12462 12.7393C5.04406 12.718 4.95902 12.7208 4.87999 12.7472V11.5072C4.87999 11.0939 4.87999 10.6539 4.79999 10.1739V9.97387C5.13297 10.1802 5.44948 10.412 5.74666 10.6672C6.49918 11.2305 7.18376 11.8793 7.78666 12.6005C7.82087 12.661 7.86713 12.7137 7.92259 12.7556C7.97804 12.7974 8.0415 12.8273 8.10902 12.8436C8.17654 12.8598 8.24667 12.862 8.31508 12.85C8.38348 12.838 8.44869 12.8121 8.50666 12.7739C8.57026 12.7358 8.62546 12.6852 8.66889 12.6251C8.71231 12.565 8.74307 12.4967 8.75928 12.4244C8.7755 12.3521 8.77683 12.2772 8.7632 12.2043C8.74957 12.1315 8.72126 12.0621 8.67999 12.0005C8.54666 11.7739 8.35999 11.4672 8.13333 11.1339C9.21332 10.6431 10.3871 10.3929 11.5733 10.4005C12.0663 10.3739 12.5604 10.3739 13.0533 10.4005C13.57 10.4541 14.0823 10.5432 14.5867 10.6672C15.739 10.8537 16.8576 11.2086 17.9067 11.7205C17.8267 11.8539 17.72 12.0139 17.6667 12.1205C17.5954 12.2381 17.5723 12.3785 17.6021 12.5127C17.6319 12.6468 17.7124 12.7643 17.8267 12.8405C17.8846 12.8788 17.9498 12.9047 18.0182 12.9167C18.0866 12.9287 18.1568 12.9265 18.2243 12.9102C18.2918 12.894 18.3553 12.864 18.4107 12.8222C18.4662 12.7804 18.5125 12.7276 18.5467 12.6672C19.1509 11.9228 19.84 11.2516 20.6 10.6672C20.8954 10.4398 21.2073 10.2347 21.5333 10.0539V10.2539C21.5333 10.6939 21.4667 11.1205 21.4533 11.5872C21.44 12.0539 21.4533 12.4139 21.4533 12.8272C21.3745 12.7989 21.2889 12.7953 21.208 12.8167C21.127 12.8381 21.0545 12.8836 21 12.9472C20.956 12.9895 20.9211 13.0402 20.8972 13.0964C20.8733 13.1525 20.861 13.2129 20.861 13.2739C20.861 13.3349 20.8733 13.3953 20.8972 13.4514C20.9211 13.5075 20.956 13.5582 21 13.6005C22.3636 14.8657 23.2648 16.5507 23.56 18.3872C23.8851 20.1295 23.6225 21.9304 22.8133 23.5072Z" fill="#1A1A1A"/>
</g>
<defs>
<clipPath id="clip0_109_3510">
<rect width="32" height="32" fill="white" transform="translate(0 0.000488281)"/>
</clipPath>
</defs>
</svg>
