<svg width="32" height="32" viewBox="0 0 32 32" fill="none" xmlns="http://www.w3.org/2000/svg">
<g clip-path="url(#clip0_109_3472)">
<path fill-rule="evenodd" clip-rule="evenodd" d="M4.30667 11.6399C4.30667 11.7601 4.35443 11.8755 4.43945 11.9605C4.52447 12.0455 4.63977 12.0933 4.76001 12.0933C4.88024 12.0933 4.99554 12.0455 5.08056 11.9605C5.16558 11.8755 5.21334 11.7601 5.21334 11.6399C5.58619 9.50732 5.5636 7.32434 5.14667 5.19992C11.8133 2.53325 24.3867 3.86659 26.7733 5.65325C26.8114 5.78857 26.8382 5.92683 26.8533 6.06659C27.24 11.8133 26.7867 12.4933 27.4933 12.4933C27.5994 12.4933 27.7012 12.4511 27.7762 12.3761C27.8512 12.3011 27.8933 12.1993 27.8933 12.0933C28 5.74659 28.1867 5.33325 27.8267 4.93325C25.6933 2.67992 19.4 2.19992 16.28 2.26659C10.16 2.22659 4.56001 3.99992 4.36001 4.74659C4.11301 5.66825 3.99191 6.6191 4.00001 7.57325C3.98083 8.93524 4.08346 10.2962 4.30667 11.6399Z" fill="#1A1A1A"/>
<path fill-rule="evenodd" clip-rule="evenodd" d="M25.7067 22.2798C25.7822 22.1905 25.8204 22.0755 25.8131 21.9587C25.8058 21.842 25.7536 21.7326 25.6675 21.6534C25.5815 21.5742 25.4681 21.5313 25.3512 21.5338C25.2342 21.5362 25.1227 21.5838 25.04 21.6665C23.2134 23.5465 18.0667 27.2131 16.24 27.4265C15.0354 26.9055 13.8946 26.2479 12.84 25.4665C7.24003 21.5998 7.3867 20.8931 6.9067 21.4665C6.83341 21.5412 6.79236 21.6418 6.79236 21.7465C6.79236 21.8512 6.83341 21.9517 6.9067 22.0265C8.5067 23.5598 14.2534 29.2931 16.4267 28.9998C17.9475 28.5374 19.3709 27.8008 20.6267 26.8265C22.4795 25.4991 24.1828 23.9746 25.7067 22.2798Z" fill="#1A1A1A"/>
<path fill-rule="evenodd" clip-rule="evenodd" d="M2.36 20.8931C3.13333 22.1198 4.82667 20.8931 5.52 20.6798C8.18667 19.9331 11.44 18.5331 14.2 18.7864C15.76 18.9331 15.5333 19.4798 15.7867 20.1198C16.1312 20.6891 16.6328 21.1467 17.2313 21.4377C17.8297 21.7286 18.4995 21.8405 19.16 21.7598C20.6 21.7598 23.5067 20.8264 26.2267 20.6131C26.96 20.6131 27.68 20.3598 28.4 20.2531C29.7333 20.0531 29.56 20.3598 30.3067 20.2531C31.5333 20.2531 31.24 18.6398 31.24 18.0398C31.24 15.6931 31.9733 12.7864 28.4533 12.7064C26.3876 12.8451 24.3339 13.1257 22.3067 13.5464C20.1067 14.1064 19.8 14.2531 19.4667 14.0131C19.1333 13.7731 18.7733 12.6798 17.68 12.1064C14.9736 11.0053 11.9584 10.9295 9.2 11.8931C7.27265 12.4099 5.41476 13.1575 3.66667 14.1198C1.90667 15.1731 1 15.5464 1.22667 16.0931C1.33775 17.7446 1.72067 19.3664 2.36 20.8931ZM17.12 13.2398C18.08 13.7331 18.0667 15.6398 20.1733 15.4664C21.0267 15.4664 21.8133 15.0798 22.5867 14.9464C30.9067 13.7464 29.7067 13.6131 29.6933 18.0531C29.6933 18.1331 29.6267 18.3998 29.6 18.6398C28.4193 18.6448 27.2429 18.7835 26.0933 19.0531C21.48 19.4398 19.1867 20.9998 17.4667 19.9731C16.8 19.5731 16.9467 19.1731 16.6667 18.6398C14.7867 15.2131 3.66667 20.4531 3.25333 20.3598C2.63312 18.9821 2.25859 17.5065 2.14667 15.9998C2.28 15.9198 11.16 10.1998 17.12 13.2398Z" fill="#A7289E"/>
<path fill-rule="evenodd" clip-rule="evenodd" d="M8.69335 25.56C7.98668 26.2133 5.90668 28.3333 4.76001 28.4C4.75186 28.3291 4.75186 28.2575 4.76001 28.1866C6.21335 25.3333 5.97335 26 6.09335 25.6533C6.15876 25.5041 6.18009 25.3393 6.15484 25.1784C6.12959 25.0174 6.05879 24.8671 5.95083 24.7451C5.84286 24.6231 5.70223 24.5346 5.54556 24.49C5.38889 24.4454 5.22272 24.4465 5.06668 24.4933C4.1298 24.9472 3.10729 25.1971 2.06668 25.2266C3.30573 24.435 4.30955 23.3253 4.97335 22.0133C5.02639 21.9214 5.04074 21.8121 5.01323 21.7096C4.98573 21.6071 4.91862 21.5197 4.82668 21.4666C4.73474 21.4136 4.62549 21.3993 4.52297 21.4268C4.42045 21.4543 4.33306 21.5214 4.28001 21.6133C3.84956 22.3053 3.30392 22.9186 2.66668 23.4266C1.89777 23.9527 1.09615 24.4292 0.26668 24.8533C-0.599987 25.5466 0.693346 27.2133 3.90668 26.52C3.37335 27.7066 2.66668 29.3333 4.00001 29.6666C5.60001 30.0533 6.97335 28.5466 8.18668 27.44C8.74668 26.9333 9.89335 25.92 9.41335 25.4533C9.29591 25.3994 9.16533 25.3808 9.03751 25.3997C8.90968 25.4187 8.79011 25.4743 8.69335 25.56Z" fill="#A7289E"/>
<path fill-rule="evenodd" clip-rule="evenodd" d="M31.7334 24.9601C31.6134 24.8668 31.1467 24.6134 31.3867 24.7734C29.8516 24.1933 28.5494 23.1253 27.68 21.7334C27.6538 21.6879 27.6188 21.648 27.5771 21.616C27.5354 21.584 27.4878 21.5605 27.4371 21.5469C27.3863 21.5333 27.3334 21.5298 27.2813 21.5366C27.2291 21.5435 27.1789 21.5605 27.1334 21.5868C27.0878 21.613 27.0479 21.648 27.0159 21.6897C26.9839 21.7314 26.9604 21.779 26.9468 21.8297C26.9332 21.8805 26.9297 21.9334 26.9366 21.9855C26.9434 22.0376 26.9604 22.0879 26.9867 22.1334C27.635 23.4357 28.6203 24.5407 29.84 25.3334C28.8197 25.3029 27.8166 25.0623 26.8934 24.6268C26.6899 24.5657 26.4708 24.5841 26.2804 24.6781C26.0899 24.7721 25.9421 24.9348 25.8667 25.1334C25.68 25.7201 26.0534 26.1468 26.32 26.5601L27.2267 28.3068C27.44 28.7868 26.7734 28.5068 26.3734 28.3068C24.76 27.4534 24.24 26.2801 23.7067 26.8934C23.6251 26.98 23.5797 27.0945 23.5797 27.2134C23.5797 27.3324 23.6251 27.4468 23.7067 27.5334C24.4478 28.2905 25.2758 28.9573 26.1734 29.5201C27.04 29.9468 28.2134 30.0134 28.56 29.1068C28.6249 28.2555 28.4296 27.4046 28 26.6668C31.2667 27.3868 32.6267 25.6934 31.7334 24.9601Z" fill="#A7289E"/>
</g>
<defs>
<clipPath id="clip0_109_3472">
<rect width="32" height="32" fill="white"/>
</clipPath>
</defs>
</svg>
