<svg width="33" height="32" viewBox="0 0 33 32" fill="none" xmlns="http://www.w3.org/2000/svg">
<g clip-path="url(#clip0_109_3487)">
<path fill-rule="evenodd" clip-rule="evenodd" d="M31.0401 22.3733C30.8555 22.2764 30.6484 22.2303 30.4401 22.24C30.1467 22.24 29.6934 22.36 29.5201 22.3733C28.9156 22.4267 28.3156 22.4933 27.7201 22.5733H27.6001C27.6001 22.12 27.6801 21.6533 27.6934 21.24C27.7067 20.8267 27.6934 20.6 27.6934 20.28C27.6934 19.96 27.6934 19.64 27.5867 19.3333C27.4801 18.5733 27.2934 17.8533 27.1867 17.1067C27.1867 16.9864 27.139 16.8711 27.054 16.7861C26.9689 16.7011 26.8536 16.6533 26.7334 16.6533C26.6132 16.6533 26.4979 16.7011 26.4128 16.7861C26.3278 16.8711 26.2801 16.9864 26.2801 17.1067C26.1203 17.8672 26.0134 18.638 25.9601 19.4133C25.9401 19.7419 25.9401 20.0714 25.9601 20.4C25.9803 20.7221 26.0204 21.0428 26.0801 21.36C26.1601 21.8667 26.2667 22.36 26.3734 22.8533C26.2267 22.8533 26.0801 22.8533 25.9334 22.9333C25.8166 22.9561 25.7129 23.0226 25.6435 23.1192C25.5741 23.2159 25.5443 23.3354 25.5601 23.4533C25.5797 23.5717 25.6454 23.6775 25.7429 23.7475C25.8404 23.8174 25.9616 23.8459 26.0801 23.8267C27.1675 23.7472 28.2593 23.7472 29.3467 23.8267L28.9067 24.52C28.4401 25.1733 27.9734 25.8533 27.5734 26.5067C26.6401 27.9067 25.7601 29.3467 24.9067 30.76C24.2134 29.5867 23.5734 28.4533 22.7734 27.36C22.2001 26.56 21.5867 25.7867 20.9734 24.9867L20.2134 24.1867V24.12L22.2801 23.8533C22.2801 23.8533 23.2534 23.4267 23.2401 23.0267C23.2267 22.6267 23.4134 22.0133 23.4534 21.4933C23.5015 21.0502 23.5015 20.6031 23.4534 20.16C23.3467 19.6533 23.1734 19.2 23.0534 18.6933C23.0553 18.6333 23.0448 18.5735 23.0227 18.5177C23.0005 18.4618 22.9672 18.4111 22.9247 18.3687C22.8823 18.3262 22.8316 18.2929 22.7757 18.2707C22.7199 18.2486 22.6601 18.2381 22.6001 18.24C22.5418 18.2381 22.4837 18.2482 22.4295 18.2697C22.3753 18.2912 22.3261 18.3235 22.2848 18.3647C22.2436 18.406 22.2112 18.4552 22.1898 18.5094C22.1683 18.5637 22.1582 18.6217 22.1601 18.68C21.9086 19.1772 21.699 19.6946 21.5334 20.2267C21.5135 20.444 21.5135 20.6627 21.5334 20.88C21.5334 21.0933 21.5334 21.32 21.6134 21.5333C21.7067 22 21.8534 22.44 21.9734 22.8667L19.4534 22.8H18.7467C18.5775 22.8044 18.4152 22.8683 18.2884 22.9805C18.1616 23.0926 18.0784 23.2459 18.0534 23.4133C18.0161 23.7439 18.0913 24.0774 18.2667 24.36C18.6285 24.9336 19.0295 25.4816 19.4667 26C22.6667 29.8533 24.4934 32.7733 25.2401 31.8C26.4667 30.3467 27.6801 28.9067 28.8401 27.4C29.3201 26.76 29.7867 26.0667 30.2667 25.4533C30.4267 25.2267 30.5867 24.9867 30.7334 24.7333C30.8896 24.472 31.0277 24.2002 31.1467 23.92C31.1467 23.92 31.3067 23.48 31.3467 23.3067C31.3961 23.1383 31.3932 22.959 31.3384 22.7923C31.2837 22.6257 31.1796 22.4796 31.0401 22.3733Z" fill="#1A1A1A"/>
<path fill-rule="evenodd" clip-rule="evenodd" d="M8.56008 13.3334C8.51083 13.3796 8.47157 13.4353 8.44474 13.4973C8.4179 13.5592 8.40405 13.6259 8.40405 13.6934C8.40405 13.7609 8.4179 13.8277 8.44474 13.8896C8.47157 13.9515 8.51083 14.0073 8.56008 14.0534C9.60929 14.9317 10.9386 15.4047 12.3067 15.3868C12.3067 15.8134 12.3734 16.2534 12.4134 16.7201C12.4151 16.7878 12.4303 16.8545 12.4582 16.9162C12.4862 16.9779 12.5261 17.0334 12.5759 17.0794C12.6256 17.1254 12.684 17.161 12.7477 17.184C12.8114 17.207 12.8791 17.217 12.9467 17.2134C13.0823 17.2065 13.2098 17.1469 13.302 17.0472C13.3942 16.9476 13.4437 16.8158 13.4401 16.6801V15.4134C13.8916 15.3715 14.338 15.2867 14.7734 15.1601C15.2011 15.0697 15.6054 14.8916 15.9607 14.637C16.316 14.3824 16.6147 14.0568 16.8377 13.6808C17.0608 13.3049 17.2034 12.8868 17.2566 12.4529C17.3098 12.019 17.2724 11.5788 17.1467 11.1601C17.0559 10.7706 16.8619 10.4128 16.5851 10.1243C16.3082 9.83568 15.9588 9.62699 15.5734 9.5201C14.9503 9.3663 14.306 9.31674 13.6667 9.37343V8.0401V6.98677C14.2998 7.01415 14.9228 7.15412 15.5067 7.4001C15.5541 7.44549 15.6106 7.48038 15.6724 7.50248C15.7341 7.52458 15.7999 7.53341 15.8653 7.52837C15.9308 7.52334 15.9944 7.50456 16.0521 7.47327C16.1098 7.44198 16.1602 7.39887 16.2001 7.34677C16.2459 7.23755 16.2509 7.11549 16.2142 7.00288C16.1775 6.89027 16.1015 6.79463 16.0001 6.73343C15.2929 6.36415 14.5252 6.1248 13.7334 6.02677V3.57343C13.7408 3.51352 13.7358 3.45273 13.7187 3.39483C13.7016 3.33693 13.6728 3.28318 13.634 3.2369C13.5952 3.19063 13.5474 3.15283 13.4933 3.12585C13.4393 3.09888 13.3804 3.0833 13.3201 3.0801C13.2622 3.0746 13.2039 3.08061 13.1484 3.09777C13.0929 3.11494 13.0414 3.14292 12.9967 3.18011C12.9521 3.21729 12.9153 3.26295 12.8884 3.31444C12.8615 3.36593 12.8451 3.42223 12.8401 3.4801C12.6801 4.29343 12.5867 5.13343 12.4534 5.9601C12.0038 5.96635 11.5564 6.02452 11.1201 6.13343C10.7843 6.19837 10.465 6.32991 10.181 6.52029C9.89693 6.71067 9.6539 6.95603 9.46623 7.24188C9.27856 7.52773 9.15006 7.84828 9.08832 8.18461C9.02658 8.52094 9.03284 8.86623 9.10674 9.2001C9.13963 9.59281 9.28201 9.96842 9.51771 10.2843C9.7534 10.6001 10.073 10.8435 10.4401 10.9868C10.9325 11.1574 11.4526 11.2343 11.9734 11.2134V12.1068C11.9734 12.8134 12.0934 13.5201 12.1601 14.2268C11.1257 14.2707 10.108 13.955 9.28008 13.3334C9.23297 13.2859 9.17689 13.2481 9.1151 13.2223C9.05331 13.1966 8.98703 13.1833 8.92008 13.1833C8.85313 13.1833 8.78684 13.1966 8.72505 13.2223C8.66326 13.2481 8.60719 13.2859 8.56008 13.3334ZM14.9334 11.1734C15.0818 11.1769 15.2256 11.2262 15.3449 11.3145C15.4643 11.4028 15.5534 11.5258 15.6001 11.6668C16.0401 13.0001 14.8801 13.7868 13.5601 14.0801L13.6401 12.0934V11.1468H13.8401C14.2049 11.1231 14.5713 11.1365 14.9334 11.1868V11.1734ZM10.6134 8.90677C10.3734 7.85343 11.1867 7.3601 12.1601 7.17343H12.2001C12.2001 7.4801 12.0801 7.78677 12.0534 8.10677C12.0267 8.42677 12.0534 9.05343 11.9734 9.53343C11.3734 9.57343 10.7734 9.58677 10.6134 8.90677Z" fill="#1A1A1A"/>
<path fill-rule="evenodd" clip-rule="evenodd" d="M7.48007 20.1334C8.37555 20.5298 9.31572 20.8164 10.2801 20.9868C11.2387 21.161 12.2127 21.237 13.1867 21.2134C14.6142 21.215 16.0356 21.0267 17.4134 20.6534C18.3621 20.3897 19.2624 19.9755 20.0801 19.4268C20.139 19.3857 20.1891 19.3331 20.2272 19.2722C20.2654 19.2113 20.2908 19.1433 20.302 19.0723C20.3132 19.0014 20.31 18.9288 20.2925 18.8591C20.2749 18.7894 20.2435 18.724 20.2001 18.6668C20.1636 18.6104 20.1163 18.5617 20.061 18.5238C20.0056 18.4858 19.9432 18.4592 19.8774 18.4456C19.8117 18.4319 19.7439 18.4315 19.6779 18.4443C19.612 18.4571 19.5493 18.4828 19.4934 18.5201C18.5754 19.0923 17.5575 19.4858 16.4934 19.6801C15.3992 19.8904 14.2876 19.9976 13.1734 20.0001C12.277 19.9915 11.3836 19.8932 10.5067 19.7068C9.6541 19.5256 8.82606 19.2436 8.04007 18.8668C7.4399 18.5768 6.86463 18.2378 6.32007 17.8534C5.78147 17.462 5.28542 17.0151 4.84007 16.5201C1.06674 12.6534 2.4934 7.42676 5.9734 4.25343C7.71191 2.58811 9.9822 1.58949 12.3846 1.4334C14.7869 1.27731 17.1673 1.97374 19.1067 3.4001C19.7028 3.8205 20.214 4.34979 20.6134 4.9601C21.0422 5.5848 21.4084 6.25024 21.7067 6.94676C21.7259 7.00737 21.7575 7.06328 21.7996 7.11087C21.8417 7.15845 21.8934 7.19666 21.9512 7.22299C22.0091 7.24933 22.0718 7.26321 22.1353 7.26373C22.1989 7.26426 22.2618 7.25142 22.3201 7.22605C22.3783 7.20067 22.4306 7.16333 22.4735 7.11645C22.5164 7.06957 22.549 7.01419 22.5691 6.95391C22.5892 6.89363 22.5964 6.82979 22.5903 6.76654C22.5841 6.70329 22.5648 6.64204 22.5334 6.58676C22.1955 5.67365 21.7478 4.80504 21.2001 4.0001C20.8066 3.43803 20.3301 2.939 19.7867 2.5201C17.6543 0.800505 14.9756 -0.0968132 12.2377 -0.00872839C9.49969 0.0793564 6.88422 1.147 4.86674 3.0001C3.35309 4.23658 2.21694 5.87314 1.58757 7.72352C0.958205 9.57391 0.860903 11.5638 1.30674 13.4668C1.36887 15.6644 1.97348 17.8126 3.06674 19.7201C4.1531 21.3923 5.74649 22.6726 7.6134 23.3734C8.21009 23.5871 8.82033 23.7608 9.44007 23.8934C10.0469 24.0256 10.6614 24.1191 11.2801 24.1734C12.0449 24.2717 12.8157 24.3163 13.5867 24.3068C14.1286 24.3009 14.667 24.2201 15.1867 24.0668C15.3163 24.0294 15.4262 23.9431 15.4934 23.8262C15.5606 23.7093 15.5797 23.5708 15.5467 23.4401C15.5065 23.3124 15.4198 23.2045 15.3037 23.1378C15.1876 23.0711 15.0506 23.0505 14.9201 23.0801C14.4819 23.1717 14.0334 23.2031 13.5867 23.1734C12.8775 23.1275 12.173 23.025 11.4801 22.8668C10.9168 22.7621 10.3603 22.6241 9.8134 22.4534C9.26012 22.3035 8.72043 22.1072 8.20007 21.8668C7.25845 21.4693 6.39929 20.8995 5.66674 20.1868C4.92009 19.478 4.29806 18.6487 3.82674 17.7334C4.34913 18.2288 4.91596 18.6751 5.52007 19.0668C6.14381 19.4742 6.79925 19.8309 7.48007 20.1334Z" fill="#A7289E"/>
<path fill-rule="evenodd" clip-rule="evenodd" d="M21.9334 10.6669C21.8734 10.6614 21.813 10.6682 21.7558 10.687C21.6986 10.7059 21.6459 10.7362 21.6009 10.7762C21.5559 10.8162 21.5196 10.865 21.4942 10.9196C21.4689 10.9741 21.455 11.0334 21.4534 11.0935C21.2723 11.7206 21.1254 12.3571 21.0134 13.0002C20.9931 13.2709 20.9931 13.5428 21.0134 13.8135C20.9935 14.0843 20.9935 14.3561 21.0134 14.6269C21.0801 15.2669 21.1867 15.8802 21.2667 16.5202C21.2547 16.5946 21.259 16.6706 21.2792 16.7431C21.2995 16.8157 21.3353 16.8829 21.3841 16.9403C21.4329 16.9976 21.4936 17.0437 21.562 17.0753C21.6303 17.1068 21.7047 17.1232 21.7801 17.1232C21.8554 17.1232 21.9298 17.1068 21.9981 17.0753C22.0665 17.0437 22.1272 16.9976 22.176 16.9403C22.2248 16.8829 22.2606 16.8157 22.2809 16.7431C22.3011 16.6706 22.3054 16.5946 22.2934 16.5202C22.4134 15.8802 22.5467 15.2669 22.6267 14.6269C22.6462 14.3561 22.6462 14.0843 22.6267 13.8135V13.0002C22.5601 12.3469 22.4001 11.7469 22.3201 11.1069C22.3181 10.9996 22.2781 10.8966 22.2073 10.816C22.1365 10.7355 22.0395 10.6826 21.9334 10.6669Z" fill="#1A1A1A"/>
<path fill-rule="evenodd" clip-rule="evenodd" d="M24.3467 16.0002C24.4132 16.0038 24.4799 15.9942 24.5427 15.972C24.6056 15.9499 24.6634 15.9155 24.713 15.8709C24.7625 15.8263 24.8028 15.7724 24.8314 15.7122C24.8601 15.652 24.8766 15.5868 24.88 15.5202C25.0534 14.3336 25.2134 13.1735 25.2934 11.9869C25.2934 11.4936 25.3734 10.9869 25.3734 10.4802V8.98688C25.3067 7.81355 25.1867 6.68022 25.1467 5.50688C25.1522 5.44731 25.1458 5.38723 25.128 5.33012C25.1102 5.27302 25.0812 5.22 25.0428 5.17414C25.0043 5.12828 24.9572 5.09048 24.9041 5.06292C24.851 5.03536 24.793 5.01858 24.7334 5.01355C24.6756 5.00994 24.6176 5.01778 24.5628 5.03662C24.5081 5.05545 24.4576 5.08492 24.4142 5.12332C24.3708 5.16172 24.3355 5.2083 24.3102 5.26039C24.2849 5.31249 24.2701 5.36907 24.2667 5.42688C23.991 6.74672 23.7995 8.08275 23.6934 9.42688V11.8402C23.6934 13.0402 23.84 14.2269 23.88 15.4269C23.8727 15.4952 23.8789 15.5644 23.8984 15.6303C23.9179 15.6962 23.9503 15.7576 23.9937 15.8109C24.0371 15.8642 24.0907 15.9084 24.1513 15.9409C24.2118 15.9734 24.2783 15.9936 24.3467 16.0002Z" fill="#1A1A1A"/>
<path fill-rule="evenodd" clip-rule="evenodd" d="M26.9601 13.9599C26.9565 14.0275 26.9665 14.0952 26.9895 14.1589C27.0126 14.2226 27.0481 14.281 27.0941 14.3308C27.1401 14.3805 27.1956 14.4205 27.2573 14.4484C27.319 14.4763 27.3857 14.4915 27.4534 14.4932C27.5891 14.4933 27.7193 14.4403 27.8165 14.3457C27.9136 14.251 27.97 14.1221 27.9734 13.9865C28.1068 12.7465 28.2534 11.5199 28.3201 10.2665V8.65321C28.3201 8.11988 28.3201 7.58655 28.2534 7.05321C28.1201 5.71988 27.8934 4.57322 27.6801 3.33322C27.6751 3.2736 27.6583 3.21556 27.6307 3.16246C27.6032 3.10936 27.5654 3.06224 27.5195 3.02381C27.4736 2.98539 27.4206 2.95642 27.3635 2.93859C27.3064 2.92075 27.2463 2.91439 27.1868 2.91988C27.0688 2.93009 26.9596 2.98602 26.8824 3.07571C26.8051 3.16541 26.766 3.28175 26.7734 3.39988C26.7734 4.63988 26.6401 5.85321 26.6001 7.10655V8.67988C26.6001 9.19988 26.6001 9.73321 26.6668 10.2665C26.7734 11.5065 26.8668 12.7332 26.9601 13.9599Z" fill="#1A1A1A"/>
</g>
<defs>
<clipPath id="clip0_109_3487">
<rect width="32" height="32" fill="white" transform="translate(0.200073)"/>
</clipPath>
</defs>
</svg>
