<svg width="53" height="62" viewBox="0 0 53 62" fill="none" xmlns="http://www.w3.org/2000/svg">
<path fill-rule="evenodd" clip-rule="evenodd" d="M52.1645 6.88889C52.1645 6.88889 51.9838 6.63076 51.8289 6.57913C51.2246 6.3131 50.6868 5.91638 50.2543 5.41754C49.8497 4.91841 49.559 4.33699 49.4024 3.71387C48.7055 1.13256 49.1185 0.900238 48.1892 0.306536C47.9251 0.107596 47.6035 0 47.2729 0C46.9422 0 46.6206 0.107596 46.3565 0.306536C45.9757 0.597331 45.674 0.978957 45.4788 1.4165C45.1175 2.11346 44.911 3.30086 44.6528 3.7655C44.3684 4.48031 43.8956 5.10473 43.2847 5.57242C42.545 6.06043 41.7229 6.41026 40.8583 6.60495C40.6414 6.63704 40.4452 6.75154 40.3105 6.92464C40.1759 7.09773 40.1132 7.31607 40.1355 7.53422C40.1483 7.64304 40.1825 7.74824 40.2363 7.84368C40.2901 7.93913 40.3623 8.02293 40.4488 8.09019C40.5353 8.15746 40.6343 8.20685 40.74 8.23548C40.8458 8.26412 40.9562 8.27143 41.0648 8.25699C41.0943 8.39066 41.1537 8.51589 41.2387 8.62321C41.3237 8.73053 41.4319 8.81714 41.5552 8.87651C42.1903 9.24286 42.7722 9.69449 43.2847 10.2188C43.734 10.6766 44.0853 11.2212 44.3172 11.8192L44.8077 13.3422L45.0658 13.9617C45.1745 14.2163 45.3426 14.4411 45.5562 14.6172C45.7698 14.7933 46.0225 14.9156 46.2931 14.9738C46.5637 15.032 46.8444 15.0243 47.1114 14.9515C47.3785 14.8787 47.6242 14.7429 47.8278 14.5554C48.0922 14.2346 48.2936 13.8668 48.4215 13.4712C48.5764 13.0066 48.6281 12.4387 48.7829 12.0773C49.0058 11.0558 49.4957 10.1116 50.2027 9.34114C50.657 8.83734 51.2495 8.47827 51.9063 8.30862C52.014 8.29911 52.1187 8.26787 52.214 8.21679C52.3093 8.1657 52.3933 8.09583 52.4608 8.01139C52.5284 7.92695 52.5781 7.8297 52.607 7.7255C52.636 7.62131 52.6435 7.51233 52.6291 7.40516C52.5991 7.28797 52.5412 7.17979 52.4603 7.08987C52.3794 6.99996 52.2778 6.931 52.1645 6.88889ZM48.2409 8.0763C47.5525 8.63255 46.9671 9.30529 46.5114 10.0639C46.1517 9.60078 45.7355 9.18453 45.2723 8.82488C44.7499 8.48195 44.1969 8.18814 43.6203 7.94723C44.108 7.81792 44.5832 7.64514 45.04 7.43097C45.9028 6.95081 46.6445 6.27978 47.2083 5.46917C47.5989 6.08599 48.0871 6.63522 48.6539 7.0954C48.8784 7.22269 49.1113 7.33479 49.3508 7.43097C48.9636 7.61498 48.5923 7.83083 48.2409 8.0763Z" fill="#02B6A9"/>
<path fill-rule="evenodd" clip-rule="evenodd" d="M48.1635 38.4326C47.0844 36.3056 45.7588 34.3128 44.2141 32.4956C44.1278 32.4089 44.0252 32.3402 43.9122 32.2933C43.7993 32.2464 43.6782 32.2223 43.5559 32.2223C43.4335 32.2223 43.3124 32.2464 43.1995 32.2933C43.0865 32.3402 42.9839 32.4089 42.8976 32.4956C42.802 32.5731 42.7228 32.6688 42.6644 32.7771C42.6061 32.8855 42.5699 33.0044 42.5579 33.1268C42.5459 33.2493 42.5583 33.3729 42.5945 33.4906C42.6306 33.6082 42.6898 33.7175 42.7685 33.812C43.7342 35.0567 44.5975 36.3774 45.3499 37.7615C45.8774 38.6719 46.2934 39.6426 46.5889 40.6525C46.5889 40.8849 46.7438 41.0655 46.5889 41.1946C45.9717 42.1073 45.0608 42.7813 44.0076 43.1048C43.4913 43.2855 38.8449 43.8276 38.1996 43.8792C34.6116 44.1889 30.9203 44.2406 27.2032 44.2406H23.1247C18.9172 44.2406 14.658 44.2406 10.6053 43.9308C10.0633 43.9308 9.31468 43.9308 8.5661 43.7243C8.5661 43.7243 5.52015 43.0532 5.0297 42.8467C4.52199 42.6968 4.04985 42.4457 3.64172 42.1085C3.2336 41.7714 2.89791 41.3551 2.65489 40.8849C2.51062 40.0051 2.64605 39.1022 3.04209 38.3035C3.68741 36.6257 4.71994 34.922 5.21039 33.8637C5.8495 34.0816 6.50573 34.2456 7.17219 34.3541C7.49004 34.3798 7.80943 34.3798 8.12728 34.3541L9.05655 34.1992C11.9993 33.6314 12.2316 33.399 12.2574 32.7795C12.2832 32.16 12.4639 31.7212 8.97911 31.2307C8.65332 31.1915 8.324 31.1915 7.99821 31.2307C7.67169 31.2066 7.34384 31.2066 7.01731 31.2307C6.57331 31.3106 6.13386 31.414 5.70084 31.5405C5.4169 30.3531 5.15876 29.1657 4.84901 27.9525C4.69413 27.3846 4.53925 26.8167 4.33274 26.2746C4.16026 25.7166 3.94449 25.1728 3.68741 24.6484C3.27008 23.7632 2.80475 22.9015 2.2935 22.0671C4.66831 22.0671 7.01731 21.8347 9.3405 21.8347C12.5155 21.8347 15.6131 21.9638 18.7365 22.0412C21.8599 22.1187 25.0091 22.0412 28.1841 22.0412C31.3591 22.0412 34.8697 22.0412 38.2771 21.8089C40.3937 21.8089 42.433 21.5766 44.4464 21.3701C43.866 22.2936 43.3402 23.2503 42.8718 24.2354C42.6911 24.6742 42.5362 25.113 42.3813 25.5776C42.2265 26.0423 42.1748 26.5069 42.0974 26.9974C41.9167 28.1073 41.8393 29.1915 41.7102 30.2756C41.1165 30.1466 40.5228 30.0175 39.9033 29.9401C39.5429 29.902 39.1795 29.902 38.8191 29.9401H37.735C34.276 30.5596 34.4309 31.05 34.4309 31.3598C34.4309 31.6696 34.4309 32.4181 37.7608 32.9602C38.1298 32.9978 38.5017 32.9978 38.8708 32.9602L39.9549 32.8311C40.8326 32.6763 41.607 32.4181 42.5362 32.2374C42.785 32.2307 43.0214 32.1271 43.195 31.9487C43.3685 31.7703 43.4656 31.5313 43.4655 31.2824C43.4655 31.2824 43.4655 31.1533 43.4655 31.0759C43.4655 30.9984 43.6462 30.921 43.6978 30.7919C44.1883 29.7594 44.7045 28.7785 45.1175 27.746C45.312 27.3074 45.4843 26.8595 45.6338 26.4037C45.77 25.9452 45.882 25.48 45.9694 25.0098C46.1501 23.874 46.1501 22.7898 46.2791 21.6282C46.3171 21.469 46.3052 21.3019 46.2452 21.1496C46.1852 20.9973 46.0799 20.867 45.9436 20.7764C46.042 20.6108 46.1036 20.4259 46.1243 20.2343C46.1145 20.1121 46.0807 19.9931 46.0247 19.884C45.9687 19.775 45.8918 19.6781 45.7982 19.5989C45.7046 19.5197 45.5963 19.4598 45.4795 19.4227C45.3627 19.3855 45.2397 19.3719 45.1175 19.3825H38.4577C35.1278 19.3825 31.798 19.0727 28.6229 18.9179C28.6375 18.6944 28.6375 18.4702 28.6229 18.2467C28.5191 17.7416 28.3634 17.2485 28.1583 16.7754C27.7889 15.8964 27.1834 15.137 26.4089 14.5811C25.6343 14.0252 24.721 13.6947 23.7701 13.6262C22.883 13.5377 21.9877 13.6652 21.1606 13.9978C20.3335 14.3305 19.5992 14.8583 19.0204 15.5363C18.5099 16.1668 18.1165 16.8837 17.8588 17.653C17.7648 18.0962 17.6959 18.5443 17.6523 18.9953H14.6322C10.0844 19.1993 5.55152 19.656 1.05447 20.3634C0.893361 20.324 0.725132 20.324 0.564021 20.3634C0.362984 20.4443 0.200349 20.5988 0.10923 20.7954C0.0181106 20.9921 0.00535895 21.216 0.0735713 21.4217C0.331703 22.8156 0.486582 24.1579 0.822153 25.5518C0.955013 26.1224 1.12752 26.6831 1.33842 27.2297C1.54492 27.7976 1.77724 28.3397 2.03537 28.8817C2.62907 30.1208 3.30022 31.2824 3.97136 32.4698V32.5988C2.87245 34.3393 1.90604 36.16 1.08028 38.0454C0.608902 39.0054 0.420866 40.0799 0.538208 41.143C0.538208 42.8208 0.254263 44.731 0.30589 46.7444C0.340826 47.5579 0.427041 48.3683 0.564021 49.1709C1.01177 51.9245 2.01281 54.5588 3.50672 56.9148C3.62311 57.1339 3.82175 57.2978 4.05895 57.3704C4.17641 57.4063 4.29979 57.4188 4.42206 57.4071C4.54433 57.3953 4.66309 57.3596 4.77157 57.302C4.88004 57.2444 4.9761 57.166 5.05427 57.0712C5.13243 56.9765 5.19117 56.8672 5.22712 56.7498C5.26308 56.6323 5.27555 56.509 5.26382 56.3867C5.25209 56.2644 5.21639 56.1457 5.15876 56.0372C4.80405 55.1177 4.53614 54.1671 4.35856 53.1977C4.15205 52.2426 4.0488 51.2359 3.89392 50.2034C3.73904 49.1709 3.63579 48.19 3.4551 47.1833C3.2744 46.1766 3.11952 45.0666 2.83558 43.9308C3.22399 44.2414 3.63855 44.5177 4.07461 44.7568C6.16074 45.4758 8.29028 46.0621 10.4505 46.5121C13.0318 46.7444 15.6131 46.9251 18.1944 47.08V48.7062C18.2405 49.4533 18.4151 50.1869 18.7107 50.8745C19.1883 51.8296 19.9268 52.6299 20.8404 53.1826C21.7541 53.7354 22.8056 54.0181 23.8733 53.9979C24.8842 53.9731 25.8758 53.7156 26.7711 53.2456C27.6664 52.7755 28.4414 52.1055 29.0359 51.2876C29.5164 50.6602 29.8355 49.9245 29.9652 49.1451C30.0296 48.5013 30.0296 47.8528 29.9652 47.2091C32.8563 47.2091 35.7215 46.9251 38.5352 46.6154C40.7011 46.4654 42.8414 46.0581 44.911 45.4022C45.1692 45.4022 45.3757 45.1182 45.608 45.015C45.4273 45.7119 45.2208 46.4089 45.0917 47.1316C44.9117 48.3458 44.8082 49.57 44.782 50.7971V56.2953C44.7714 56.4174 44.785 56.5404 44.8222 56.6572C44.8593 56.7741 44.9192 56.8824 44.9984 56.976C45.0775 57.0695 45.1745 57.1465 45.2835 57.2025C45.3926 57.2584 45.5116 57.2923 45.6338 57.302C45.8832 57.3237 46.1312 57.2466 46.3243 57.0872C46.5174 56.9279 46.6402 56.6992 46.6663 56.4502C47.0019 54.7207 47.3633 52.9912 47.6472 51.2876C47.7763 50.539 47.8537 49.8162 47.957 49.0676C48.0602 48.319 48.0861 47.5705 48.1377 46.8219C48.1377 45.4022 48.1377 44.0341 48.3184 42.6402L48.5507 42.382C48.7818 41.736 48.8669 41.0468 48.7999 40.3639C48.733 39.681 48.5156 39.0215 48.1635 38.4326ZM21.1887 17.5756C21.507 17.283 21.8848 17.0627 22.2962 16.93C22.7077 16.7973 23.1429 16.7553 23.5722 16.8068C24.0014 16.8583 24.4144 17.0021 24.7827 17.2284C25.1511 17.4547 25.4661 17.7581 25.706 18.1176C25.9202 18.4158 26.1019 18.736 26.2481 19.0727H20.053H19.8723C20.1805 18.4725 20.6328 17.958 21.1887 17.5756ZM27.8743 48.1384C27.7075 48.6669 27.4254 49.1518 27.0483 49.5581C26.6324 49.964 26.1396 50.2826 25.5988 50.4954C25.058 50.7082 24.4801 50.8108 23.8991 50.7971C23.3584 50.845 22.8146 50.7512 22.3212 50.5249C21.8278 50.2985 21.4019 49.9475 21.0855 49.5065C20.7595 49.0408 20.5311 48.514 20.4143 47.9577V47.1316C21.8083 47.1316 23.228 47.2865 24.6477 47.3123H28.1325C28.0347 47.5971 27.9139 47.8733 27.7711 48.1384H27.8743Z" fill="#020202"/>
<path fill-rule="evenodd" clip-rule="evenodd" d="M9.9084 40.9366C10.9926 39.5427 8.02404 40.317 16.0003 40.0073L19.5367 39.5427C19.6658 39.7233 20.053 39.8782 20.1562 40.0073L22.7375 42.8984C23.5636 44.06 25.0091 43.6986 26.2739 43.1565C27.3581 40.9366 27.3065 39.8266 28.3906 39.8008C30.2005 39.9767 32.0192 40.0457 33.8372 40.0073L37.3736 39.5427C37.3736 39.7233 37.8899 39.8782 37.9931 40.0073L40.0582 42.8467C40.6777 43.3114 42.2523 42.9758 41.9167 42.2788L40.0065 38.4585C39.7237 38.0124 39.395 37.5971 39.0256 37.2195C38.7756 37.0207 38.4847 36.8797 38.1738 36.8065C37.66 36.6742 37.1289 36.622 36.5992 36.6516C35.8248 36.6516 35.0504 36.6516 34.3018 36.8065C34.3766 36.677 34.416 36.5301 34.416 36.3805C34.416 36.231 34.3766 36.0841 34.3018 35.9546C33.5016 34.8188 32.9079 33.2184 32.1077 31.8761C31.7175 31.1763 31.2113 30.5478 30.6106 30.0176C30.2548 29.7842 29.8469 29.6423 29.4231 29.6046H27.4613L23.3312 29.4497H20.4918C19.6233 29.4685 18.7588 29.5723 17.9105 29.7595C17.456 29.8873 17.0453 30.1373 16.7231 30.4822C16.1244 31.3531 15.663 32.3108 15.355 33.3217C14.9678 34.5091 14.6838 35.7223 14.4257 36.8065C13.4549 36.7291 12.4796 36.7291 11.5088 36.8065C10.7333 36.8985 9.97613 37.1074 9.26307 37.426C8.94874 37.5519 8.68534 37.779 8.51449 38.0713C8.2697 38.6069 8.06269 39.1589 7.89497 39.7233L7.30127 41.5819C7.30127 42.5112 8.77262 43.0274 9.23726 42.2788L9.9084 40.9366ZM17.2393 34.251C17.548 33.6315 17.9293 33.0509 18.3751 32.5215C18.3751 32.6764 18.8398 32.5215 19.0721 32.5215H20.3885H27.229C28.4681 32.5215 28.4422 31.3341 29.8103 33.2184C30.7396 34.38 31.4882 35.7997 32.3917 36.8065C31.2658 36.7296 30.136 36.7296 29.0101 36.8065C28.2346 36.8985 27.4775 37.1074 26.7644 37.426C26.4501 37.5519 26.1867 37.779 26.0158 38.0713C25.7835 38.4843 25.4737 39.491 25.3705 39.7233L24.2605 41.4012L22.1697 38.3294C21.8867 37.9227 21.5576 37.5503 21.1888 37.2195C20.9358 37.0254 20.6459 36.8849 20.3369 36.8065C19.8231 36.6742 19.292 36.622 18.7623 36.6516C17.8589 36.6516 16.9296 36.8065 16.181 36.8323C16.4908 35.9548 16.844 35.0933 17.2393 34.251Z" fill="#02B6A9"/>
<path fill-rule="evenodd" clip-rule="evenodd" d="M43.3622 58.5408C42.0898 58.7389 40.8036 58.8339 39.516 58.8248C37.5284 58.8248 35.5408 58.8248 33.5273 58.6957H28.9326L22.4019 58.8764H18.0911C15.7421 58.8764 13.2898 59.212 10.8376 59.0829C9.29695 59.0132 7.77493 58.7175 6.32027 58.2053C6.22028 58.1628 6.1129 58.1404 6.00426 58.1394C5.89562 58.1385 5.78786 58.159 5.68715 58.1997C5.58644 58.2405 5.49477 58.3007 5.41737 58.377C5.33997 58.4532 5.27838 58.544 5.23611 58.6441C5.14866 58.8428 5.14296 59.068 5.22025 59.2709C5.29755 59.4738 5.45161 59.6381 5.64913 59.7282C7.21309 60.4774 8.88587 60.974 10.6053 61.1996C13.0342 61.5872 15.4808 61.8542 17.9362 61.9998H24.2346C27.358 61.9998 30.4814 61.6126 33.579 61.4319C35.644 61.3028 37.6316 61.2512 39.6451 61.0447C41.0271 60.9307 42.399 60.715 43.7494 60.3994C43.8697 60.374 43.9839 60.3251 44.0853 60.2555C44.1867 60.186 44.2735 60.0972 44.3406 59.9941C44.4077 59.891 44.4539 59.7757 44.4765 59.6548C44.499 59.5339 44.4976 59.4098 44.4721 59.2894C44.4467 59.1691 44.3978 59.0549 44.3283 58.9535C44.2587 58.852 44.1699 58.7653 44.0668 58.6981C43.9638 58.631 43.8485 58.5849 43.7276 58.5623C43.6067 58.5397 43.4825 58.5412 43.3622 58.5666V58.5408Z" fill="#020202"/>
<path fill-rule="evenodd" clip-rule="evenodd" d="M3.30038 19.4597C3.80274 18.3032 4.39841 17.1896 5.08149 16.1298C5.48598 15.5069 6.00235 14.9643 6.60447 14.5294C8.50475 13.3565 10.6956 12.7395 12.9287 12.7483C16.6458 12.4902 20.7243 12.9548 23.7702 12.9548C27.0726 12.6295 30.3901 12.4831 33.7083 12.516C35.7262 12.5197 37.6962 13.1314 39.3614 14.2713C39.8338 14.6282 40.2665 15.035 40.652 15.4845C41.2378 16.2273 41.7808 17.003 42.2783 17.8077C42.3441 17.9218 42.4329 18.021 42.5389 18.0992C42.645 18.1773 42.7661 18.2327 42.8946 18.2618C43.0231 18.2909 43.1562 18.2931 43.2856 18.2682C43.4149 18.2434 43.5378 18.192 43.6464 18.1174C43.8552 17.9844 44.0043 17.7755 44.0621 17.5347C44.1199 17.2939 44.0819 17.0401 43.9561 16.8268C43.4701 15.9266 42.9179 15.0638 42.3041 14.2454C41.8821 13.6371 41.3783 13.0899 40.8069 12.6192C38.9033 11.0241 36.5659 10.0352 34.0955 9.77977C30.6569 9.57048 27.2088 9.57048 23.7702 9.77977C20.0697 9.65131 16.365 9.71162 12.6706 9.96046C9.97586 10.1589 7.39925 11.1465 5.26218 12.7999C4.51468 13.446 3.89329 14.2249 3.42945 15.0973C2.78163 16.2819 2.22921 17.5162 1.77741 18.7886C1.73082 18.8899 1.70524 18.9996 1.70221 19.1111C1.69918 19.2226 1.71875 19.3336 1.75976 19.4373C1.80076 19.541 1.86235 19.6353 1.9408 19.7146C2.01925 19.7939 2.11294 19.8564 2.21623 19.8985C2.41881 19.9776 2.64395 19.9762 2.84552 19.8946C3.04709 19.813 3.20983 19.6574 3.30038 19.4597Z" fill="#020202"/>
</svg>
