<svg width="24" height="24" viewBox="0 0 24 24" fill="none" xmlns="http://www.w3.org/2000/svg">
<path fill-rule="evenodd" clip-rule="evenodd" d="M3.6005 11.5309C4.18347 12.0789 4.81746 12.5683 5.49356 12.9922C5.55818 13.0509 5.6337 13.096 5.71571 13.1249C5.79772 13.1537 5.88457 13.1657 5.97119 13.1601C6.05782 13.1545 6.14247 13.1315 6.22022 13.0923C6.29796 13.0532 6.36724 12.9987 6.424 12.9321C6.48076 12.8655 6.52387 12.7881 6.55081 12.7044C6.57774 12.6207 6.58797 12.5325 6.58089 12.4447C6.57381 12.357 6.54956 12.2716 6.50957 12.1934C6.46957 12.1153 6.41463 12.046 6.34795 11.9897C5.89604 11.5815 5.47597 11.1384 5.09149 10.6644C4.93008 10.458 4.82597 10.2116 4.78994 9.95077L5.07474 9.50901C5.37754 9.04005 5.78503 8.65005 6.26418 8.37061C6.81964 8.03583 7.42504 7.79481 8.05672 7.65699L8.77709 7.53806C8.77709 7.53806 8.64307 7.70797 8.59281 7.80991C7.83062 9.12206 7.26596 10.5423 6.91754 12.0237C6.7653 12.5944 6.76249 13.1954 6.90939 13.7676C7.05629 14.3397 7.34782 14.863 7.75517 15.2859L9.04513 16.6282C9.47138 17.0709 10.0087 17.3872 10.5992 17.5429C11.1896 17.6986 11.8108 17.6878 12.3957 17.5117C13.8682 17.1133 15.2741 16.4949 16.5671 15.6767C16.7011 15.6767 16.8184 15.4898 16.9524 15.4219L16.8016 16.2884C16.6658 16.9291 16.4281 17.5431 16.098 18.1064C15.8164 18.6171 15.4204 19.0536 14.9421 19.3807L14.5065 19.6696C14.2493 19.6331 14.0064 19.5275 13.8029 19.3638C13.3395 18.9694 12.9029 18.5436 12.4962 18.0894C12.3819 17.9601 12.2221 17.8815 12.0512 17.8705C11.8803 17.8595 11.712 17.9169 11.5825 18.0305C11.4529 18.144 11.3725 18.3047 11.3586 18.4777C11.3446 18.6508 11.3982 18.8226 11.5078 18.956C11.9257 19.6417 12.4082 20.2847 12.9485 20.876C13.2776 21.1979 13.6806 21.4315 14.1212 21.5556C14.4303 21.6236 14.7502 21.6236 15.0594 21.5556C15.4382 21.4778 15.801 21.3341 16.1315 21.1308C16.9164 20.6574 17.5593 19.976 17.9911 19.1599C18.2823 18.3495 18.4187 17.4903 18.3932 16.6282L18.2591 14.9291C18.2509 14.8273 18.2509 14.7251 18.2591 14.6233C19.3647 13.8384 20.3669 12.9134 21.2411 11.8707C22.5939 10.19 23.5097 8.19214 23.9048 6.05985C24.0317 5.12409 24.0317 4.17511 23.9048 3.23935C23.8794 2.3885 23.5659 1.57248 23.0169 0.92858C22.4248 0.409709 21.6858 0.0944507 20.9061 0.0280596C19.9875 -0.0382687 19.0645 0.0131092 18.1586 0.180978C16.0797 0.649222 14.1464 1.62959 12.5297 3.03546C11.4951 3.94591 10.5777 4.98487 9.799 6.12781H9.61473L7.93945 5.92392C7.04376 5.91808 6.1557 6.09129 5.32603 6.43365C4.48405 6.86671 3.78528 7.53998 3.3157 8.37061C3.12467 8.69655 2.98877 9.05262 2.91364 9.42405C2.84633 9.73182 2.84633 10.0508 2.91364 10.3586C3.04938 10.7983 3.28459 11.1998 3.6005 11.5309ZM13.6521 4.4627C15.0757 3.35232 16.7422 2.60631 18.5104 2.28786C19.0966 2.18525 19.6918 2.14539 20.2862 2.16892C20.6976 2.13412 21.1091 2.23546 21.4589 2.45777C21.6936 2.82527 21.7998 3.26207 21.7604 3.6981C21.8006 4.31668 21.7725 4.93787 21.6767 5.55012C21.4291 7.34917 20.7376 9.0557 19.6664 10.5115C18.5537 12.0002 17.1792 13.2675 15.6122 14.2495C14.4886 15.0325 13.2582 15.645 11.9601 16.0675C11.6236 16.1919 11.2607 16.2244 10.9079 16.1618C10.5551 16.0992 10.2247 15.9436 9.94978 15.7107L8.59281 14.4024C8.35166 14.1097 8.19066 13.7578 8.12597 13.382C8.06128 13.0062 8.09517 12.6198 8.22425 12.2615C8.6444 10.9454 9.26017 9.70212 10.0503 8.57451C11.0186 7.00557 12.2554 5.62462 13.7024 4.49668L13.6521 4.4627Z" fill="white"/>
<path fill-rule="evenodd" clip-rule="evenodd" d="M1.50661 18.1236C1.66509 18.2405 1.84021 18.3321 2.02595 18.3954L1.89193 18.5823C1.23314 19.3902 0.670819 20.2742 0.216655 21.2159C-0.0157016 21.8162 -0.0624458 22.474 0.0826332 23.1019C0.138511 23.2765 0.236392 23.4341 0.36743 23.5607C0.493883 23.6915 0.648799 23.7904 0.819753 23.8495C1.50479 24.0713 2.24419 24.0473 2.91384 23.7816C3.83732 23.3212 4.7034 22.7508 5.49376 22.0825L5.67804 21.9466C5.74357 22.1389 5.83369 22.3217 5.94609 22.4903C6.11992 22.8463 6.42223 23.1208 6.79031 23.2569C7.15838 23.3929 7.56396 23.38 7.92291 23.2209C8.63289 22.8448 9.17283 22.2059 9.43065 21.4368C9.61296 20.8907 9.68142 20.3121 9.63168 19.7377C9.57151 19.001 9.4652 18.2689 9.31338 17.5459C9.30347 17.4596 9.27604 17.3764 9.23282 17.3014C9.1896 17.2264 9.13153 17.1613 9.06228 17.1102C8.99302 17.0592 8.91408 17.0232 8.83043 17.0046C8.74678 16.986 8.66024 16.9852 8.57626 17.0022C8.49237 17.0126 8.41136 17.0399 8.33797 17.0825C8.26458 17.125 8.20028 17.1819 8.14882 17.2499C8.09736 17.318 8.05977 17.3957 8.03824 17.4786C8.01671 17.5615 8.01167 17.6479 8.02342 17.7328C8.11715 18.4027 8.16752 19.0781 8.1742 19.7547C8.17697 20.1325 8.10874 20.5073 7.97317 20.8591C7.97317 21.0121 7.6046 21.148 7.43708 21.3009L7.35331 20.1795C7.27533 19.9025 7.09218 19.6682 6.84405 19.5281C6.59592 19.3879 6.30309 19.3533 6.02985 19.4319L5.56077 19.6018L4.33782 20.3154C3.93576 20.5703 3.34941 20.9951 2.66255 21.3349H2.57879C2.8864 20.7488 3.22762 20.1814 3.6007 19.6358L4.28757 18.3615C4.35546 18.2134 4.41149 18.0599 4.45509 17.9027C4.46294 17.852 4.46294 17.8005 4.45509 17.7498C4.48962 17.6187 4.4961 17.4817 4.47411 17.3478C4.45212 17.214 4.40217 17.0865 4.32759 16.9738C4.25302 16.8612 4.15556 16.766 4.04175 16.6947C3.92794 16.6234 3.80041 16.5776 3.66772 16.5604L2.46152 16.6284C2.46152 16.6284 2.46152 16.5434 2.361 16.6284C2.26049 16.7133 2.361 16.7983 2.361 16.7813C2.361 16.7643 2.81333 16.2206 3.06462 16.1187C3.41522 15.9698 3.79029 15.8891 4.1703 15.8808C4.83703 15.882 5.50297 15.9274 6.16387 16.0167C6.23878 16.0287 6.31529 16.0254 6.38893 16.0071C6.46257 15.9887 6.53185 15.9556 6.59271 15.9097C6.65357 15.8638 6.70477 15.806 6.74333 15.7398C6.78188 15.6736 6.807 15.6002 6.81723 15.524C6.83713 15.4382 6.83798 15.349 6.81972 15.2628C6.80146 15.1766 6.76453 15.0956 6.71162 15.0257C6.65871 14.9558 6.59114 14.8987 6.51379 14.8585C6.43644 14.8183 6.35125 14.7961 6.26439 14.7934C5.55601 14.6418 4.84023 14.5284 4.12004 14.4535C3.55498 14.4076 2.98647 14.471 2.44477 14.6404C1.72752 14.9188 1.13291 15.4495 0.769494 16.1357C0.618796 16.4998 0.611201 16.9086 0.748266 17.2783C0.885332 17.6479 1.15667 17.9504 1.50661 18.1236Z" fill="white"/>
</svg>
