<svg width="49" height="48" viewBox="0 0 49 48" fill="none" xmlns="http://www.w3.org/2000/svg">
<g clip-path="url(#clip0_377_3753)">
<path d="M48.0599 7.46006C48.0911 6.95961 48.0019 6.45899 47.7999 6.00006C47.6879 5.77298 47.518 5.57946 47.3073 5.439C47.0966 5.29855 46.8526 5.21613 46.5999 5.20006C46.0534 5.18372 45.5153 5.33746 45.0599 5.64006C44.1884 6.28558 43.1239 6.61691 42.0399 6.58006C41.6859 6.57036 41.3408 6.46683 41.0399 6.28006C40.4599 5.81417 39.9716 5.24449 39.5999 4.60006C39.2198 4.10413 38.6726 3.76301 38.0599 3.64006C37.8051 3.5885 37.542 3.59404 37.2895 3.65628C37.0371 3.71853 36.8016 3.83593 36.5999 4.00006C36.0584 4.60495 35.4397 5.13615 34.7599 5.58006C34.2673 5.81135 33.7221 5.90797 33.1799 5.86006C31.7052 5.69725 30.3126 5.0984 29.1799 4.14006C29.0343 4.02689 28.8649 3.94821 28.6845 3.90992C28.5041 3.87164 28.3174 3.87475 28.1384 3.91903C27.9594 3.9633 27.7927 4.04759 27.6509 4.16554C27.5092 4.2835 27.396 4.43206 27.3199 4.60006C27.0025 5.23232 26.7736 5.90532 26.6399 6.60006C26.5543 7.59779 26.541 8.6004 26.5999 9.60006C26.5999 10.3801 26.3799 13.6001 26.4199 16.5601C26.367 18.1357 26.4272 19.713 26.5999 21.2801C27.0528 22.6935 27.9076 23.9445 29.0599 24.8801C30.6663 26.2713 32.5569 27.2952 34.5999 27.8801C34.6708 27.9045 34.7459 27.9139 34.8205 27.9077C34.8952 27.9015 34.9677 27.8799 35.0336 27.8441C35.0994 27.8084 35.1571 27.7593 35.2029 27.7001C35.2488 27.6409 35.2818 27.5727 35.2999 27.5001C35.3379 27.3569 35.3197 27.2047 35.2491 27.0745C35.1784 26.9444 35.0607 26.8462 34.9199 26.8001C33.388 26.3222 31.9526 25.5774 30.6799 24.6001C29.4295 23.7477 28.5002 22.5016 28.0399 21.0601C27.9558 19.5679 27.9558 18.0722 28.0399 16.5801C28.0399 13.5601 28.4199 10.5801 28.4799 9.70006C28.5138 8.80814 28.6073 7.91948 28.7599 7.04006C28.8203 6.68536 28.9141 6.33715 29.0399 6.00006C30.1798 6.99855 31.5572 7.68725 33.0399 8.00006C33.9483 8.06384 34.8578 7.89159 35.6799 7.50006C36.272 7.20292 36.8069 6.80344 37.2599 6.32006C37.4122 6.14998 37.5526 5.96955 37.6799 5.78006C37.9599 5.88006 38.0599 6.22006 38.2599 6.52006C38.6811 7.1482 39.2171 7.69106 39.8399 8.12006C40.448 8.48251 41.1335 8.69503 41.8399 8.74006C42.7122 8.79477 43.5859 8.65825 44.3999 8.34006C44.8891 8.13275 45.3636 7.89219 45.8199 7.62006C45.9285 8.06623 45.9955 8.52151 46.0199 8.98006C46.0199 10.0201 46.0199 10.9801 45.8999 11.3801C45.7799 11.7801 45.4599 15.1001 44.9799 18.2601C44.7199 19.9801 44.4399 21.6201 44.1799 22.6801C43.3692 23.9854 42.1845 25.0168 40.7799 25.6401C39.3361 26.374 37.7567 26.8029 36.1399 26.9001C36.0559 26.9026 35.9731 26.9218 35.8965 26.9563C35.8198 26.9909 35.7507 27.0403 35.6931 27.1016C35.6356 27.1629 35.5906 27.2349 35.5609 27.3136C35.5312 27.3922 35.5173 27.476 35.5199 27.5601C35.5301 27.7281 35.6041 27.8858 35.7268 28.0011C35.8495 28.1163 36.0116 28.1804 36.1799 28.1801C37.987 28.1155 39.7624 27.6869 41.3999 26.9201C43.1279 26.1759 44.5915 24.9284 45.5999 23.3401V23.1801C45.9199 22.1001 46.2599 20.3601 46.5999 18.5401C47.1799 15.3401 47.6999 11.9201 47.7399 11.5801C47.9296 10.2144 48.0365 8.83859 48.0599 7.46006Z" fill="#A7289E"/>
<path d="M2.17997 8.43999C1.71473 8.89122 1.39267 9.46946 1.25396 10.1026C1.11525 10.7356 1.16603 11.3956 1.39997 12C1.42626 12.068 1.46603 12.1299 1.51689 12.1821C1.56776 12.2343 1.62866 12.2757 1.69593 12.3037C1.7632 12.3317 1.83545 12.3458 1.90833 12.3452C1.9812 12.3446 2.0532 12.3292 2.11997 12.3C2.18981 12.2762 2.2538 12.2379 2.30768 12.1875C2.36156 12.1371 2.4041 12.0758 2.43248 12.0077C2.46086 11.9396 2.47441 11.8662 2.47226 11.7925C2.4701 11.7188 2.45228 11.6463 2.41997 11.58C2.35414 11.308 2.35053 11.0247 2.40939 10.7511C2.46826 10.4776 2.5881 10.2208 2.75997 9.99999C2.97953 9.67212 3.25748 9.38738 3.57997 9.15999C4.17997 8.21999 4.19997 7.51999 3.03997 7.63999C2.72322 7.87237 2.43461 8.14085 2.17997 8.43999Z" fill="#A7289E"/>
<path d="M38.88 35.8201C38.98 36.5801 38.58 36.8801 38.3 37.6801C37.9026 38.5302 37.2439 39.2309 36.42 39.6801C35.0654 40.4733 33.6221 41.1043 32.12 41.5601L24.78 44.0001C22.666 44.896 20.4382 45.495 18.16 45.7801C16.7379 45.8822 15.3131 45.6207 14.02 45.0201C13.863 44.8945 13.7336 44.7379 13.64 44.5601C13.42 44.2201 13.26 43.8201 13.1 43.5201C12.64 42.6401 12.22 41.7401 11.8 40.8201C11.38 39.9001 11 38.9801 10.64 38.0601C8.8 33.4801 6.64 28.4401 5.04 23.3601C3.90903 20.0987 3.092 16.7368 2.6 13.3201C2.5953 13.2453 2.57509 13.1724 2.54067 13.1058C2.50625 13.0393 2.45836 12.9806 2.40005 12.9336C2.34174 12.8866 2.27428 12.8522 2.20196 12.8327C2.12965 12.8131 2.05406 12.8088 1.98 12.8201C1.90523 12.8248 1.83227 12.845 1.76573 12.8794C1.6992 12.9138 1.64056 12.9617 1.59353 13.02C1.54651 13.0783 1.51213 13.1458 1.49258 13.2181C1.47304 13.2904 1.46875 13.366 1.48 13.4401C1.80793 16.9699 2.47774 20.4596 3.48 23.8601C4.94 29.0401 6.92 34.1801 8.58 38.8601C8.96 39.8401 9.34 40.8601 9.76 41.7601C10.18 42.6601 10.62 43.6401 11.1 44.5601C11.3581 45.1659 11.6799 45.7424 12.06 46.2801C12.3183 46.5979 12.6469 46.8512 13.02 47.0201C14.6577 47.8221 16.4836 48.1609 18.3 48.0001C20.7758 47.6761 23.1932 47.0027 25.48 46.0001L32.7 43.3001C34.3198 42.7391 35.8699 41.9943 37.32 41.0801C38.3595 40.3704 39.1831 39.3877 39.7 38.2401C39.9177 37.8511 40.0562 37.4228 40.1077 36.9801C40.1592 36.5373 40.1226 36.0887 40 35.6601C39.88 35.0401 39.08 35.2001 38.88 35.8201Z" fill="#A7289E"/>
<path d="M37.88 30.46C37.8354 30.3888 37.7769 30.3274 37.7079 30.2795C37.6389 30.2316 37.5609 30.1982 37.4786 30.1814C37.3963 30.1645 37.3114 30.1646 37.2291 30.1816C37.1469 30.1985 37.0689 30.232 37 30.28C36.9281 30.3265 36.8663 30.3869 36.8182 30.4576C36.7701 30.5284 36.7366 30.6081 36.7198 30.692C36.703 30.7759 36.7033 30.8623 36.7205 30.9462C36.7377 31.03 36.7715 31.1095 36.82 31.18C37.3118 31.914 37.658 32.7355 37.84 33.6C36.7687 34.4649 35.5581 35.1412 34.26 35.6C32.48 36.26 30.7 36.86 28.92 37.48L24.16 39.32C22.6 39.94 21.06 40.58 19.46 41.04C18.3527 41.3778 17.2233 41.6385 16.08 41.82C14.68 38.76 13.46 35.58 12.36 32.36C11.5 29.8 10.72 27.2 9.95997 24.62C9.19997 22.04 8.37997 19.36 7.69997 16.76C7.11997 14.76 6.37997 12.62 5.83997 10.52C5.59997 9.64002 5.39997 8.78002 5.23997 8.00002C5.79997 7.66002 6.41997 7.34002 7.07997 7.02002L7.91997 6.66002L9.33997 8.54002C9.49997 8.76002 9.67997 9.10002 9.85997 9.36002C9.97943 9.54298 10.1281 9.70513 10.3 9.84002C10.5947 9.99437 10.9311 10.0504 11.26 10C11.9324 9.96512 12.601 9.87819 13.26 9.74002C13.8961 9.66547 14.5249 9.53837 15.14 9.36002C16.48 9.00002 17.78 8.46002 19.14 8.12002C19.738 8.00491 20.3263 7.84445 20.9 7.64002C21.2274 7.52667 21.5085 7.30882 21.7 7.02002C21.8603 6.72758 21.9685 6.40952 22.02 6.08002C22.02 5.58002 22.02 4.96002 22.12 4.60002C22.2013 3.97976 22.3216 3.36522 22.48 2.76002C22.48 2.44002 22.68 2.14002 22.78 1.84002C23.5 1.68002 24.22 1.54002 24.9 1.44002C25.2615 1.35338 25.6384 1.35338 26 1.44002C26.1844 1.51419 26.3471 1.63374 26.473 1.78758C26.5988 1.94143 26.6838 2.12457 26.72 2.32002C26.72 2.32002 26.96 2.58002 27.3 2.52002C27.4248 2.49542 27.5385 2.43179 27.6248 2.33832C27.7111 2.24486 27.7654 2.12639 27.78 2.00002V1.78002C27.6265 1.2996 27.3256 0.879727 26.92 0.580024C26.2507 0.0941365 25.4192 -0.113727 24.6 2.42535e-05C21.3335 0.294406 18.1004 0.88347 14.94 1.76002C12.8101 2.33928 10.7301 3.08835 8.71997 4.00002C6.71997 4.94002 3.93997 5.78002 4.19997 8.56002C4.29997 9.32002 4.41997 10.06 4.55997 10.8C4.97997 12.94 5.51997 15.06 5.93997 17.18C6.31997 18.96 6.69997 20.76 7.15997 22.54C7.83997 25.18 8.65997 27.82 9.57997 30.4C11.0951 34.632 12.9131 38.7493 15.02 42.72C15.0831 42.8213 15.1718 42.9042 15.2771 42.9604C15.3824 43.0166 15.5007 43.044 15.62 43.04C18.0197 42.9073 20.4026 42.5592 22.74 42C23.7 41.74 24.64 41.44 25.6 41.1C26.96 40.62 28.32 40.02 29.6 39.48C31.34 38.7 33.1 37.96 34.82 37.14C35.96 36.6 37.42 35.46 38.54 34.82C40.12 33.76 38.72 31.66 37.88 30.46ZM10.6 5.52002C12.26 4.88002 14.06 4.28002 15.88 3.72002C17.7 3.16002 19.46 2.68002 21.16 2.26002C21.16 2.26002 20.7 3.66002 20.52 4.26002L20.2 5.74002C18.6 6.14002 11.44 8.34002 11.44 8.34002C11.14 8.42002 9.15997 6.00002 9.15997 6.00002L10.6 5.52002Z" fill="black"/>
<path d="M36.5999 22.96C37.076 22.7488 37.4894 22.4181 37.7999 22C38.339 21.3098 38.8269 20.5812 39.2599 19.82C40.2999 18.04 41.1199 16.14 42.2799 14.44C42.7278 13.7147 43.2579 13.0436 43.8599 12.44C43.921 12.3821 43.9697 12.3123 44.003 12.2349C44.0363 12.1576 44.0534 12.0742 44.0534 11.99C44.0534 11.9058 44.0363 11.8225 44.003 11.7451C43.9697 11.6677 43.921 11.598 43.8599 11.54C43.7401 11.4215 43.5784 11.3551 43.4099 11.3551C43.2414 11.3551 43.0797 11.4215 42.9599 11.54C41.9706 12.3056 41.0952 13.208 40.3599 14.22C39.2799 15.64 38.3599 17.2 37.3799 18.66C37.1599 19.02 36.8199 19.6 36.4599 20.14C36.3496 20.3436 36.2225 20.5376 36.0799 20.72C35.9599 20.52 32.4599 16.92 32.4599 16.92C32.4095 16.8674 32.349 16.8255 32.2819 16.7969C32.2149 16.7683 32.1428 16.7535 32.0699 16.7535C31.997 16.7535 31.9249 16.7683 31.8579 16.7969C31.7909 16.8255 31.7303 16.8674 31.6799 16.92C31.6267 16.9722 31.5844 17.0344 31.5556 17.1031C31.5267 17.1718 31.5118 17.2455 31.5118 17.32C31.5118 17.3945 31.5267 17.4683 31.5556 17.537C31.5844 17.6056 31.6267 17.6679 31.6799 17.72L34.4799 21.52C34.4799 21.52 35.0799 22.36 35.3199 22.64C35.4679 22.8273 35.6738 22.9603 35.9054 23.0182C36.137 23.0761 36.3812 23.0556 36.5999 22.96Z" fill="#A7289E"/>
</g>
<defs>
<clipPath id="clip0_377_3753">
<rect width="48" height="48" fill="white" transform="translate(0.599976)"/>
</clipPath>
</defs>
</svg>
