<svg width="62" height="62" viewBox="0 0 62 62" fill="none" xmlns="http://www.w3.org/2000/svg">
<g clip-path="url(#clip0_249_4595)">
<path d="M21.1834 12.7621C21.06 12.2622 20.8007 11.8062 20.4342 11.4446C19.7495 10.6209 18.9591 9.89129 18.0834 9.27458C18.5269 8.91396 18.8658 8.44122 19.065 7.90542C19.2991 7.20544 19.3312 6.45367 19.1575 5.7363C18.9839 5.01894 18.6116 4.36504 18.0834 3.84958C17.6164 3.27928 17.0164 2.83254 16.3362 2.54873C15.6559 2.26492 14.9163 2.15275 14.1825 2.22208C13.1213 2.42938 12.1766 3.02763 11.5355 3.89837C10.8944 4.7691 10.6037 5.84883 10.7209 6.92375C10.8264 7.5444 11.065 8.13487 11.4202 8.65467C11.7754 9.17447 12.2388 9.6113 12.7786 9.93521C13.3185 10.2591 13.922 10.4624 14.5478 10.5312C15.1736 10.6 15.8069 10.5327 16.4042 10.3337C17.05 11.1087 18.5225 12.6846 18.7292 12.9171C19.4267 13.6662 21.7 14.2862 21.1834 12.7621ZM17.0242 7.28542C16.9382 7.60021 16.7686 7.88586 16.5334 8.11208C16.2719 8.45692 15.9063 8.70841 15.4908 8.82934C15.0753 8.95026 14.6318 8.93419 14.2262 8.78351C13.8205 8.63282 13.4741 8.35553 13.2382 7.99267C13.0024 7.62982 12.8897 7.20067 12.9167 6.76875C12.9294 6.3876 13.0558 6.01896 13.2796 5.71022C13.5035 5.40147 13.8146 5.16674 14.1729 5.03619C14.5312 4.90564 14.9204 4.88524 15.2904 4.97762C15.6604 5.07 15.9943 5.27093 16.2492 5.55458C16.5178 5.75074 16.7305 6.01358 16.8664 6.31712C17.0024 6.62067 17.0567 6.95442 17.0242 7.28542Z" fill="#A7289E"/>
<path d="M21.5192 45.9062C20.9767 46.6295 20.5117 47.4045 20.0208 48.1795C19.53 48.9545 19.0392 49.7037 18.4967 50.4528C17.7083 50.0231 16.8021 49.8599 15.9133 49.9878C14.8513 50.1837 13.9033 50.7754 13.2608 51.6434C12.6182 52.5113 12.329 53.5908 12.4517 54.6637C13.0717 59.1328 19.3492 59.0812 20.7442 55.6453C20.9936 54.9803 21.0605 54.2607 20.9378 53.5611C20.8152 52.8615 20.5075 52.2075 20.0467 51.667C20.9256 50.9859 21.7231 50.2058 22.4233 49.342C23.0161 48.6058 23.5434 47.8192 23.9992 46.9912C24.3867 46.3195 24.4642 46.1128 24.8 45.4412C24.7676 45.2431 24.6895 45.0552 24.5718 44.8925C24.4542 44.7299 24.3002 44.5969 24.1222 44.5041C23.9441 44.4113 23.7469 44.3613 23.5462 44.3581C23.3455 44.3548 23.1468 44.3984 22.9658 44.4853C22.446 44.9191 21.9622 45.3943 21.5192 45.9062ZM18.9358 55.0253C18.8235 55.5202 18.5308 55.9555 18.1148 56.2463C17.6988 56.537 17.1895 56.6624 16.6861 56.5978C16.1827 56.5333 15.7215 56.2835 15.3923 55.8972C15.0631 55.511 14.8897 55.0159 14.9058 54.5087C14.9482 54.1613 15.0851 53.8323 15.3017 53.5574C15.5182 53.2825 15.806 53.0723 16.1338 52.9497C16.4615 52.8272 16.8166 52.7969 17.1604 52.8623C17.5042 52.9276 17.8234 53.0861 18.0833 53.3203C18.349 53.5118 18.5587 53.7709 18.6904 54.0707C18.8221 54.3705 18.8712 54.7001 18.8325 55.0253H18.9358Z" fill="#A7289E"/>
<path d="M45.6733 17.3087C45.6338 16.4187 45.4324 15.5433 45.0792 14.7254C44.9028 14.445 44.6592 14.213 44.3705 14.0506C44.0818 13.8882 43.7571 13.8005 43.4258 13.7954C42.0825 13.6404 42.1858 13.1496 40.5325 14.3637C39.9449 14.7553 39.4652 15.2883 39.1375 15.9137C38.6101 16.1178 38.0497 16.2229 37.4842 16.2237C37.0302 16.2205 36.5817 16.1237 36.1667 15.9396C35.3308 15.378 34.6043 14.669 34.0225 13.8471C33.4711 13.2408 32.7184 12.8553 31.9042 12.7621C31.5702 12.7343 31.2341 12.7775 30.918 12.8888C30.6019 13.0001 30.3129 13.177 30.07 13.4079C29.5017 13.8987 28.985 15.0096 27.7967 15.7329C27.1524 16.1075 26.4234 16.312 25.6783 16.3271C24.8001 16.3703 23.922 16.2385 23.095 15.9396C22.0775 14.9096 20.6936 14.3245 19.2458 14.3121C18.9341 14.2969 18.626 14.3848 18.3692 14.5623C18.1123 14.7397 17.9211 14.9968 17.825 15.2937C17.4226 16.1759 17.1694 17.1187 17.0758 18.0837C16.9982 19.4001 16.9982 20.7199 17.0758 22.0362C17.0758 23.0954 17.2825 27.2029 17.6958 31.4137C17.8683 33.5259 18.1876 35.6235 18.6517 37.6912C19.4369 39.5287 20.7381 41.099 22.3975 42.2121C24.8882 43.4916 27.4803 44.563 30.1475 45.4154C30.2408 45.4342 30.3369 45.4344 30.4303 45.416C30.5237 45.3976 30.6125 45.361 30.6917 45.3082C30.7709 45.2554 30.8389 45.1875 30.8918 45.1084C30.9447 45.0292 30.9815 44.9404 31 44.8471C31.0186 44.7553 31.0186 44.6608 30.9999 44.5691C30.9812 44.4773 30.9442 44.3903 30.8912 44.3132C30.8382 44.236 30.7702 44.1704 30.6912 44.1201C30.6123 44.0698 30.524 44.0359 30.4317 44.0204C26.195 43.1162 21.6483 40.5071 20.4342 37.1229C20.0892 35.1406 19.8649 33.1391 19.7625 31.1296C19.5042 27.0479 19.5042 22.8887 19.4783 21.8554C19.4011 20.6425 19.4011 19.4258 19.4783 18.2129C19.5352 17.7027 19.6478 17.2002 19.8142 16.7146C21.5171 17.9147 23.5018 18.6534 25.575 18.8587C26.8028 18.9217 28.025 18.654 29.1142 18.0837C29.9861 17.5204 30.7477 16.8025 31.3617 15.9654C31.3617 15.9654 31.5425 15.6554 31.6458 15.5521C31.9972 15.799 32.3031 16.1049 32.55 16.4562C33.176 17.2523 33.9585 17.9117 34.8492 18.3937C35.6502 18.7934 36.5377 18.9887 37.4325 18.9621C38.6411 18.9589 39.8302 18.6572 40.8942 18.0837C41.5523 17.7268 42.1827 17.3209 42.78 16.8696C42.9773 17.5045 43.1326 18.1517 43.245 18.8071C43.245 20.2021 43.3742 21.5971 43.3742 22.0621C43.3742 22.5271 43.3742 27.0996 43.0125 31.3879C42.8575 33.7129 42.6767 35.9862 42.4442 37.4329C41.5151 39.2857 40.0591 40.8226 38.2592 41.8504C36.4004 43.0102 34.3269 43.7834 32.1625 44.1237C32.0555 44.1329 31.9516 44.1642 31.8574 44.2156C31.7632 44.2671 31.6806 44.3375 31.615 44.4225C31.5495 44.5075 31.5023 44.6052 31.4764 44.7095C31.4506 44.8137 31.4467 44.9221 31.465 45.0279C31.4777 45.1334 31.5113 45.2354 31.5639 45.3278C31.6164 45.4202 31.6868 45.5012 31.7709 45.5661C31.8551 45.631 31.9513 45.6786 32.054 45.7059C32.1567 45.7333 32.2639 45.7399 32.3692 45.7254C34.7041 45.1444 36.9856 44.3666 39.1892 43.4004C41.3837 42.226 43.1814 40.4282 44.3558 38.2337C44.3705 38.1569 44.3705 38.078 44.3558 38.0012C44.64 36.5287 44.8983 34.1521 45.1308 31.6721C45.5183 27.3062 45.7767 22.6821 45.8025 22.2171C45.8283 21.7521 45.8283 19.0912 45.6733 17.3087Z" fill="black"/>
<path d="M47.275 53.3465C46.8077 52.7533 46.1978 52.2881 45.5021 51.9945C44.8064 51.7009 44.0476 51.5883 43.2966 51.6673H43.0383C42.6766 50.7631 42.3666 49.859 42.005 48.929C41.8508 48.4961 41.6696 48.0733 41.4625 47.6631C41.2558 47.2498 41.0491 46.8365 40.8166 46.4231C40.5307 45.9425 40.2203 45.4769 39.8866 45.0281C39.4475 44.1756 37.975 45.0281 37.975 45.7773C38.0817 46.3721 38.2284 46.9589 38.4141 47.534C38.5769 47.9841 38.7667 48.4241 38.9825 48.8515C39.2072 49.2877 39.4573 49.7104 39.7316 50.1173C40.2646 50.9241 40.8425 51.7003 41.4625 52.4423C40.8716 52.8736 40.4084 53.4566 40.1219 54.1297C39.8354 54.8028 39.7362 55.5408 39.835 56.2656C40.3775 60.4248 45.3116 60.1665 47.12 58.6165C47.5558 58.2486 47.8931 57.7781 48.1016 57.2473C48.3166 56.5815 48.3534 55.8711 48.2084 55.1867C48.0634 54.5022 47.7415 53.8678 47.275 53.3465ZM46.1383 56.834C46.0579 57.1585 45.8878 57.454 45.6475 57.6865C45.3773 57.999 45.0175 58.2209 44.6169 58.3222C44.2164 58.4234 43.7944 58.3991 43.4081 58.2525C43.0218 58.1059 42.69 57.8441 42.4575 57.5025C42.225 57.161 42.1031 56.7563 42.1083 56.3431C42.1131 55.88 42.2906 55.4353 42.6059 55.0961C42.9212 54.7569 43.3518 54.5475 43.8133 54.509C44.1106 54.4737 44.412 54.5118 44.6912 54.6199C44.9704 54.728 45.2189 54.9028 45.415 55.129C45.672 55.3269 45.8737 55.5879 46.0004 55.8865C46.1271 56.1852 46.1746 56.5115 46.1383 56.834Z" fill="#A7289E"/>
<path d="M50.53 5.16704C50.0475 4.58088 49.426 4.12486 48.7221 3.84057C48.0181 3.55629 47.2542 3.4528 46.5 3.53954C45.4312 3.73554 44.4766 4.32999 43.8292 5.20275C43.1818 6.07551 42.8899 7.16149 43.0125 8.24121C43.1169 8.90604 43.3637 9.54049 43.7358 10.1012C43.1402 10.4415 42.5855 10.8489 42.0825 11.3154C41.8218 11.5238 41.6249 11.8013 41.5142 12.1162C41.5142 12.5554 42.3667 13.2787 43.3742 12.5812C43.8392 12.142 44.6917 11.677 45.0792 11.2379C45.9267 11.5652 46.8422 11.6775 47.7437 11.5648C48.6453 11.4521 49.5049 11.1179 50.2458 10.592C50.6662 10.2158 50.9934 9.74712 51.2017 9.22288C51.4725 8.55027 51.5531 7.81611 51.4346 7.10076C51.3162 6.38541 51.0032 5.71644 50.53 5.16704ZM49.3675 8.60288C49.2912 8.91586 49.1304 9.20184 48.9025 9.42954C48.6348 9.75227 48.273 9.98342 47.8677 10.0908C47.4623 10.1982 47.0336 10.1764 46.6412 10.0286C46.2488 9.8807 45.9123 9.61411 45.6786 9.26594C45.4449 8.91777 45.3257 8.50537 45.3375 8.08621C45.3487 7.62075 45.5317 7.17588 45.8512 6.83725C46.1708 6.49862 46.6043 6.29018 47.0683 6.25204C47.3655 6.21906 47.6662 6.25818 47.945 6.36611C48.2238 6.47404 48.4725 6.64758 48.67 6.87204C48.9264 7.07525 49.1255 7.34168 49.2478 7.64514C49.3701 7.9486 49.4114 8.27866 49.3675 8.60288Z" fill="#A7289E"/>
<path d="M58.4867 25.2655C57.7402 25.1805 56.9844 25.2851 56.289 25.5696C55.5936 25.854 54.9812 26.3092 54.5083 26.893C54.126 27.3492 53.8364 27.8758 53.6558 28.443C53.1908 28.443 52.4675 28.2105 51.5633 28.0813H50.375C49.9965 28.0561 49.6168 28.0561 49.2383 28.0813C48.2825 28.2105 47.3783 28.4947 46.655 28.6755C46.5504 28.6555 46.4426 28.6588 46.3394 28.6852C46.2363 28.7116 46.1402 28.7605 46.0581 28.8284C45.976 28.8963 45.9099 28.9814 45.8645 29.0778C45.8191 29.1742 45.7956 29.2794 45.7956 29.3859C45.7956 29.4924 45.8191 29.5976 45.8645 29.694C45.9099 29.7904 45.976 29.8756 46.0581 29.9434C46.1402 30.0113 46.2363 30.0602 46.3394 30.0866C46.4426 30.1131 46.5504 30.1164 46.655 30.0963C47.4817 30.2772 48.36 30.5613 49.2383 30.7163C50.0023 30.8019 50.7735 30.8019 51.5375 30.7163L53.5525 30.4063C53.5525 30.5872 53.5525 30.7938 53.6817 31.0005C53.8999 31.526 54.2357 31.9944 54.6633 32.3697C56.4975 33.9197 61.4058 34.178 61.9742 30.0188C62.1108 28.9309 61.8254 27.8319 61.1768 26.9478C60.5281 26.0638 59.5655 25.4617 58.4867 25.2655ZM56.1617 31.1555C55.9113 30.931 55.7393 30.6323 55.6708 30.303C55.6208 29.9822 55.6593 29.6539 55.7823 29.3534C55.9052 29.0529 56.1078 28.7917 56.3683 28.598C56.5644 28.3718 56.8129 28.197 57.0921 28.0889C57.3713 27.9809 57.6727 27.9428 57.97 27.978C58.434 28.0161 58.8676 28.2246 59.1871 28.5632C59.5067 28.9018 59.6897 29.3467 59.7008 29.8122C59.7061 30.2253 59.5842 30.63 59.3517 30.9716C59.1192 31.3131 58.7873 31.5749 58.4011 31.7215C58.0148 31.8682 57.5928 31.8925 57.1922 31.7912C56.7916 31.69 56.4319 31.4681 56.1617 31.1555Z" fill="#A7289E"/>
<path d="M16.5075 31.5687C16.6765 31.5778 16.8431 31.5252 16.9761 31.4206C17.1092 31.3161 17.1997 31.1667 17.2308 31.0003C17.231 30.8129 17.1583 30.6327 17.0282 30.4978C16.8981 30.3628 16.7207 30.2837 16.5333 30.277C15.5775 30.0962 14.57 29.7862 13.485 29.6312H12.1675H10.8758C9.8425 29.6312 8.99 29.8637 8.4475 29.9412C8.28105 29.2592 7.96319 28.6235 7.5175 28.0812C7.03784 27.4999 6.41974 27.0486 5.72005 26.7688C5.02035 26.4889 4.26153 26.3894 3.51334 26.4795C2.47623 26.6731 1.54603 27.2401 0.898633 28.0731C0.251241 28.9061 -0.0684556 29.9475 3.21027e-06 31.0003C0.59417 35.1853 5.47667 34.9012 7.31084 33.377C7.73961 32.9925 8.0753 32.5154 8.2925 31.982C8.2925 31.982 8.2925 31.7753 8.2925 31.6462C9.09436 31.8253 9.90486 31.9633 10.7208 32.0595C11.1682 32.0861 11.6168 32.0861 12.0642 32.0595C12.4943 32.0851 12.9257 32.0851 13.3558 32.0595C14.5442 32.0078 15.5 31.7495 16.5075 31.5687ZM6.355 31.362C6.26898 31.6768 6.09938 31.9624 5.86417 32.1887C5.59396 32.5012 5.2342 32.7231 4.83364 32.8244C4.43308 32.9256 4.01107 32.9013 3.6248 32.7547C3.23853 32.6081 2.90666 32.3463 2.67416 32.0047C2.44166 31.6632 2.31977 31.2585 2.325 30.8453C2.33769 30.4642 2.46409 30.0955 2.68794 29.7868C2.9118 29.4781 3.22288 29.2433 3.5812 29.1128C3.93951 28.9822 4.32869 28.9618 4.69869 29.0542C5.06869 29.1466 5.4026 29.3475 5.6575 29.6312C5.90823 29.8392 6.10327 30.1063 6.22503 30.4084C6.3468 30.7106 6.39146 31.0383 6.355 31.362Z" fill="#A7289E"/>
<path d="M31.6458 40.6362C31.8117 40.7024 31.9966 40.7024 32.1625 40.6362C33.9179 40.0553 35.5234 39.0938 36.8642 37.8204C37.8256 36.9069 38.5143 35.7442 38.8533 34.4621C39.0755 33.5159 39.2479 32.5588 39.37 31.5946C39.525 30.1996 39.6283 28.7787 39.7575 27.4096C39.8631 26.6304 39.9149 25.845 39.9125 25.0587C39.8605 24.4311 39.6941 23.8182 39.4216 23.2504C39.1394 22.7868 38.7641 22.3868 38.3195 22.0755C37.8748 21.7643 37.3705 21.5486 36.8383 21.4421C35.0203 21.2068 33.1796 21.2068 31.3616 21.4421C30.1733 21.4421 28.9333 21.4421 27.7191 21.5971C27.1508 21.5971 26.5825 21.5971 26.04 21.8296C25.4997 21.9283 24.9715 22.0842 24.4641 22.2946C23.9852 22.5056 23.5675 22.8344 23.25 23.2504C22.9487 23.7587 22.747 24.3199 22.6558 24.9037C22.5524 25.9431 22.5524 26.9902 22.6558 28.0296L22.9141 31.0004C22.9824 32.0636 23.1467 33.1184 23.405 34.1521C23.6307 34.8993 24.0189 35.5874 24.5416 36.1671C25.2582 36.9254 26.0264 37.6332 26.8408 38.2854C28.0421 39.2132 29.2925 40.0755 30.5866 40.8687C30.6642 40.9212 30.7515 40.9575 30.8433 40.9756C30.9352 40.9936 31.0297 40.9929 31.1213 40.9736C31.2129 40.9544 31.2997 40.9168 31.3765 40.8633C31.4533 40.8098 31.5185 40.7413 31.5683 40.6621C31.5683 40.6621 31.62 40.6879 31.6458 40.6362ZM31.1291 39.6029C30.0167 38.8094 28.9555 37.9466 27.9516 37.0196C27.2327 36.4044 26.5752 35.7209 25.9883 34.9787C25.6773 34.5675 25.4652 34.0902 25.3683 33.5837C25.2298 32.6338 25.1521 31.676 25.1358 30.7162V27.8746V25.9371C25.1426 25.4858 25.2578 25.0428 25.4716 24.6454L26.505 24.3612L27.9 24.1804H31.4908C32.8693 23.9976 34.2597 23.9199 35.65 23.9479C36.2958 23.9479 36.89 23.9479 37.1742 24.4904C37.3533 24.8327 37.4422 25.215 37.4325 25.6012V27.2804C37.4325 28.6754 37.4325 30.0704 37.2516 31.4654C37.2516 32.3437 37.0967 33.2479 36.9417 34.0487C36.6396 35.2328 35.9704 36.2908 35.03 37.0712C34.0485 37.9497 32.9206 38.6492 31.6975 39.1379C31.5725 39.1645 31.4557 39.2205 31.3569 39.3014C31.258 39.3823 31.1799 39.4857 31.1291 39.6029Z" fill="black"/>
</g>
<defs>
<clipPath id="clip0_249_4595">
<rect width="62" height="62" fill="white" transform="translate(0 0.000488281)"/>
</clipPath>
</defs>
</svg>
