<svg width="49" height="48" viewBox="0 0 49 48" fill="none" xmlns="http://www.w3.org/2000/svg">
<g clip-path="url(#clip0_753_771)">
<path d="M48.4 28.1001C46.6536 25.1836 44.6453 22.4323 42.4 19.8801C41.72 19.1067 41.02 18.3467 40.3 17.6001C40.3 16.8401 40.3 16.1001 40.44 15.3401C40.58 13.7601 40.78 12.1801 40.96 10.6401C41.0079 9.76019 40.9945 8.87806 40.92 8.00005C40.9226 7.24235 40.7444 6.49497 40.4 5.82005C40.1485 5.38813 39.762 5.05083 39.3 4.86005C38.8501 4.72259 38.3879 4.62882 37.92 4.58005C37.1634 4.49024 36.4018 4.45015 35.64 4.46005C34.8677 4.4706 34.0979 4.55093 33.34 4.70005C32.9446 4.77192 32.5564 4.87901 32.18 5.02005C31.8476 5.15561 31.5476 5.36011 31.3 5.62005C30.97 6.06412 30.8008 6.60715 30.82 7.16005V7.86005L27.36 4.00005C26.9294 3.52488 26.4386 3.10802 25.9 2.76005C25.4053 2.44559 24.8255 2.2919 24.24 2.32005C23.7486 2.33172 23.2787 2.52396 22.92 2.86005C22.4874 3.29393 22.0988 3.76959 21.76 4.28005L17.52 9.08005C15.82 11.0801 14.08 13.0801 12.32 15.0801C10.56 17.0801 8.76 19.0801 6.9 20.9001C5.38 22.4801 3.72 23.8001 2.28 25.3801C1.62732 26.0847 1.03208 26.8404 0.499995 27.6401C0.413731 27.7738 0.382229 27.9357 0.412014 28.092C0.4418 28.2484 0.53059 28.3873 0.659995 28.4801C0.796155 28.5643 0.959643 28.5927 1.11622 28.5591C1.2728 28.5256 1.41033 28.4327 1.5 28.3001C2.19623 27.3493 2.98693 26.4715 3.86 25.6801C5.2 24.4201 6.64 23.3201 8.02 22.0201C10.02 20.1801 11.86 18.3201 13.74 16.4001C15.62 14.4801 17.42 12.5401 19.2 10.5401C19.2 10.5401 24.38 4.64005 24.34 4.64005C24.3 4.64005 30.14 10.4601 30.14 10.4601C33.04 13.3001 36.02 16.0001 38.86 18.8801L38.98 19.0201C39.66 19.6801 40.32 20.3401 40.98 21.0201C43.2731 23.4266 45.3416 26.0374 47.16 28.8201C47.2073 28.8962 47.2691 28.9623 47.3419 29.0146C47.4147 29.0669 47.4971 29.1043 47.5844 29.1247C47.6717 29.1452 47.7622 29.1482 47.8506 29.1337C47.9391 29.1191 48.0238 29.0873 48.1 29.0401C48.1762 28.9928 48.2423 28.931 48.2945 28.8581C48.3468 28.7853 48.3842 28.7029 48.4047 28.6156C48.4251 28.5283 48.4281 28.4379 48.4136 28.3494C48.3991 28.261 48.3673 28.1762 48.32 28.1001H48.4ZM32.4 9.42005V7.60005C32.4 6.96005 32.4 6.90005 32.6 6.76005L33.74 6.54005C34.2596 6.51007 34.7804 6.51007 35.3 6.54005C36.1056 6.58827 36.9073 6.68848 37.7 6.84005L38.4 7.00005C38.5885 7.34386 38.6914 7.72804 38.7 8.12005C38.7501 8.91259 38.7501 9.70751 38.7 10.5001V15.2801V15.9801C36.4 13.7801 34.4 11.6201 32.22 9.42005H32.4Z" fill="#020202"/>
<path d="M23.28 21.1801C23.8044 21.3226 24.3523 21.3568 24.8904 21.2806C25.4284 21.2044 25.9453 21.0193 26.4094 20.7367C26.8736 20.4541 27.2753 20.0799 27.59 19.6369C27.9047 19.1939 28.1259 18.6914 28.24 18.1601C29.12 14.9201 26.4 12.1601 22.24 13.7601C21.406 14.1138 20.7057 14.7231 20.24 15.5001C19.926 16.0654 19.7747 16.7067 19.8029 17.3527C19.8311 17.9988 20.0378 18.6244 20.4 19.1601C21.0727 20.1708 22.1006 20.8918 23.28 21.1801ZM22 16.3601C22.2895 15.7446 22.8053 15.2646 23.44 15.0201C25.44 14.1201 27.2 15.5201 26.42 17.5801C26.3475 17.8436 26.2217 18.0894 26.0505 18.3024C25.8792 18.5154 25.6661 18.6911 25.4244 18.8185C25.1826 18.946 24.9173 19.0225 24.6448 19.0434C24.3723 19.0643 24.0984 19.0292 23.84 18.9401C23.2513 18.765 22.7421 18.3902 22.4 17.8801C22.2012 17.6872 22.0588 17.4437 21.9883 17.1758C21.9178 16.9079 21.9218 16.6259 22 16.3601Z" fill="#A7289E"/>
<path d="M41.66 28.2801V24.2801C41.66 24.1908 41.6424 24.1024 41.6082 24.0199C41.5741 23.9374 41.524 23.8624 41.4608 23.7993C41.3977 23.7361 41.3227 23.686 41.2402 23.6519C41.1577 23.6177 41.0693 23.6001 40.98 23.6001C40.8907 23.6001 40.8023 23.6177 40.7198 23.6519C40.6373 23.686 40.5623 23.7361 40.4992 23.7993C40.436 23.8624 40.3859 23.9374 40.3518 24.0199C40.3176 24.1024 40.3 24.1908 40.3 24.2801V28.2801C40.16 31.4201 39.86 34.5601 39.8 37.6801C39.8778 38.9389 39.8778 40.2013 39.8 41.4601C39.7517 42.1409 39.5087 42.7935 39.1 43.3401C38.92 43.5401 38.54 43.3401 38.18 43.3401C37.5 43.3401 36.8 43.2001 36.4 43.1801C35 43.1801 27.4 42.6401 26.26 42.6401H23.14H22.98H20.38H18.98C17.66 42.6401 16.32 42.7801 14.98 42.9401C14 43.0601 12.82 43.3401 11.7 43.4001C11.1142 43.4506 10.5247 43.3615 9.98001 43.1401C9.68001 43.0001 9.58001 42.6001 9.48001 42.2001C9.31573 41.2752 9.22212 40.3392 9.20001 39.4001C9.02001 37.4001 8.90001 35.5401 8.82001 33.6201C8.82001 30.7001 8.70001 27.8001 8.68001 24.8801C8.68268 24.8013 8.66979 24.7227 8.64208 24.6489C8.61437 24.5751 8.57238 24.5075 8.51852 24.4499C8.46465 24.3923 8.39996 24.3459 8.32815 24.3133C8.25634 24.2808 8.17882 24.2627 8.10001 24.2601C8.01955 24.2574 7.93937 24.2709 7.86425 24.2999C7.78913 24.3288 7.72061 24.3726 7.66276 24.4286C7.60491 24.4846 7.55891 24.5516 7.52752 24.6258C7.49612 24.6999 7.47996 24.7796 7.48001 24.8601C7.38001 27.8001 7.28001 30.7201 7.26001 33.6401C7.26001 35.6401 7.26001 37.6401 7.40001 39.5401C7.37175 40.7625 7.48586 41.9841 7.74001 43.1801C7.92977 43.9183 8.40444 44.5512 9.06001 44.9401C9.68485 45.2494 10.3644 45.4329 11.06 45.4801C12.44 45.4712 13.8173 45.3575 15.18 45.1401C16.62 45.0001 18.08 44.9401 19.56 44.9001H26.22L36.22 45.2601C37.1315 45.3432 38.0486 45.3432 38.96 45.2601C39.5793 45.1992 40.1552 44.9148 40.58 44.4601C41.082 43.8128 41.4122 43.0492 41.54 42.2401C41.6882 40.6636 41.6882 39.0766 41.54 37.5001C41.46 34.5401 41.62 31.4001 41.66 28.2801Z" fill="#020202"/>
<path d="M19.9 41.7401C19.9 40.7001 19.62 39.6001 19.7 38.5001C19.8231 36.7573 20.38 35.0729 21.32 33.6001C21.6499 33.0887 22.1076 32.6721 22.6477 32.3915C23.1878 32.1109 23.7918 31.976 24.4 32.0001C25.0342 31.9863 25.6637 32.1116 26.2442 32.3673C26.8247 32.623 27.3421 33.0029 27.76 33.4801C28.6585 34.5114 29.2111 35.7984 29.34 37.1601C29.4672 38.6766 29.5139 40.1987 29.48 41.7201C29.48 42.3001 30.72 42.6201 30.98 41.7201C31.2194 39.6938 31.2194 37.6464 30.98 35.6201C30.7583 34.2985 30.2081 33.0537 29.38 32.0001C28.7735 31.266 28.013 30.6741 27.1525 30.2662C26.2919 29.8584 25.3523 29.6447 24.4 29.6401C23.4101 29.6394 22.4371 29.8974 21.5776 30.3885C20.7182 30.8797 20.0019 31.5869 19.5 32.4401C18.5341 34.2913 18.0395 36.3522 18.06 38.4401C18.0719 39.5843 18.2402 40.7215 18.56 41.8201C18.8 42.4001 19.84 42.4001 19.9 41.7401Z" fill="#A7289E"/>
</g>
<defs>
<clipPath id="clip0_753_771">
<rect width="48" height="48" fill="white" transform="translate(0.400024)"/>
</clipPath>
</defs>
</svg>
