<svg width="33" height="32" viewBox="0 0 33 32" fill="none" xmlns="http://www.w3.org/2000/svg">
<g clip-path="url(#clip0_109_3496)">
<path fill-rule="evenodd" clip-rule="evenodd" d="M19.5333 21.9602L14.7733 25.4935C14.4933 25.7068 14.08 26.1335 13.64 26.4402C13.4943 26.5801 13.3072 26.669 13.1067 26.6935C12.5658 26.617 12.0673 26.3583 11.6933 25.9602C10.992 25.2598 10.3457 24.5064 9.76 23.7068C8.70667 22.3735 7.68 21.0402 6.69334 19.7068C5.70667 18.3735 4.8 16.9735 3.93334 15.5468C2.13334 12.6402 2.24 13.6668 2.93334 12.9202C3.35003 12.4488 3.79532 12.0035 4.26667 11.5868C4.73647 11.1711 5.23069 10.7837 5.74667 10.4268L8.41334 8.30683L9.29334 7.62683C9.50667 7.62683 9.73334 7.86683 9.97334 8.08017C10.3042 8.38976 10.6159 8.71926 10.9067 9.06683L12.24 10.6668L16.6133 16.5202C16.6894 16.6227 16.803 16.6909 16.9293 16.7096C17.0556 16.7284 17.1841 16.6962 17.2867 16.6202C17.3892 16.5441 17.4574 16.4305 17.4761 16.3042C17.4949 16.1779 17.4627 16.0494 17.3867 15.9468L13.1733 9.96017L11.9067 8.28017C11.4709 7.70818 10.9697 7.1891 10.4133 6.7335C10.0572 6.45119 9.61445 6.30048 9.16 6.30683C8.91779 6.34939 8.68657 6.44006 8.48 6.5735C8.17122 6.76966 7.87711 6.98801 7.6 7.22683L4.93334 9.20017C4.36 9.58683 3.81334 9.98683 3.28 10.4135C2.74739 10.8559 2.23993 11.3278 1.76 11.8268C1.43829 12.1412 1.15212 12.4899 0.90667 12.8668C0.855277 12.9846 0.828751 13.1117 0.828751 13.2402C0.828751 13.3686 0.855277 13.4957 0.90667 13.6135C1.03407 13.953 1.19486 14.2791 1.38667 14.5868C1.76 15.2135 2.25334 15.8268 2.6 16.3868C3.46667 17.8402 4.38667 19.2802 5.42667 20.6668C6.46667 22.0535 7.56 23.3335 8.69334 24.6668C9.46891 25.6622 10.3646 26.5579 11.36 27.3335C11.8728 27.708 12.4855 27.9216 13.12 27.9468C13.4861 27.9304 13.8389 27.8051 14.1333 27.5868C14.6011 27.223 15.0463 26.8312 15.4667 26.4135C16.3733 25.6668 17.28 24.8935 18.1333 24.1602C18.7378 23.6713 19.3511 23.1913 19.9733 22.7202C20.0472 22.6501 20.0936 22.5558 20.104 22.4545C20.1145 22.3533 20.0884 22.2515 20.0304 22.1678C19.9725 22.0841 19.8865 22.0238 19.788 21.998C19.6895 21.9721 19.585 21.9824 19.4933 22.0268L19.5333 21.9602Z" fill="#A7289E"/>
<path fill-rule="evenodd" clip-rule="evenodd" d="M12.72 14.8802C12.1971 14.3681 11.5132 14.0525 10.7842 13.9869C10.0552 13.9213 9.32597 14.1097 8.72 14.5202C8.37359 14.8048 8.08946 15.1576 7.88531 15.5567C7.68116 15.9559 7.56134 16.3928 7.53333 16.8402C7.49531 17.2918 7.56491 17.746 7.73642 18.1655C7.90794 18.585 8.17647 18.9579 8.52 19.2535C9.04911 19.6645 9.70348 19.8811 10.3733 19.8669C10.9979 19.8776 11.6128 19.7111 12.1467 19.3869C12.2437 19.3285 12.3145 19.2349 12.3443 19.1256C12.3741 19.0163 12.3606 18.8998 12.3067 18.8002C12.3727 18.8048 12.4389 18.7952 12.501 18.7723C12.5631 18.7493 12.6195 18.7133 12.6667 18.6669C12.9514 18.4421 13.1824 18.1566 13.3428 17.8313C13.5033 17.5059 13.5892 17.1489 13.5944 16.7862C13.5995 16.4235 13.5236 16.0642 13.3724 15.7345C13.2211 15.4048 12.9983 15.1129 12.72 14.8802ZM11.9467 17.9602C11.8689 18.046 11.8258 18.1577 11.8258 18.2735C11.8258 18.3893 11.8689 18.501 11.9467 18.5869H11.7867C11.3673 18.7689 10.9039 18.8245 10.4533 18.7469C10.0609 18.6987 9.69768 18.5147 9.42666 18.2269C9.27489 18.044 9.16809 17.8282 9.11483 17.5966C9.06158 17.3651 9.06334 17.1243 9.12 16.8935C9.16195 16.4331 9.38202 16.0073 9.73333 15.7069C10.0371 15.485 10.4073 15.3734 10.7831 15.3903C11.1588 15.4073 11.5175 15.5519 11.8 15.8002C11.9797 15.9118 12.1303 16.0645 12.2393 16.2457C12.3483 16.427 12.4126 16.6316 12.4269 16.8426C12.4413 17.0536 12.4052 17.265 12.3217 17.4594C12.2382 17.6537 12.1096 17.8254 11.9467 17.9602Z" fill="#A7289E"/>
<path fill-rule="evenodd" clip-rule="evenodd" d="M23.9733 8.5201C23.8452 7.82185 23.676 7.13177 23.4667 6.45343C23.2815 5.88431 23.0403 5.33496 22.7467 4.81343C22.5025 4.37349 22.1241 4.02311 21.6667 3.81343C21.351 3.69981 21.0127 3.66324 20.68 3.70677C20.1055 3.81157 19.5395 3.95863 18.9867 4.14676C18.8753 4.17329 18.779 4.24297 18.719 4.34049C18.659 4.43801 18.6401 4.55537 18.6667 4.66677C18.6932 4.77816 18.7629 4.87445 18.8604 4.93446C18.9579 4.99447 19.0753 5.01329 19.1867 4.98677C19.6267 4.89894 20.0721 4.84103 20.52 4.81343C20.7272 4.79835 20.9346 4.83982 21.12 4.93343C21.3067 5.0401 21.3867 5.2801 21.4933 5.50677C21.6848 5.96617 21.8278 6.44432 21.92 6.93343C22.1733 7.6801 22.3467 8.4401 22.5333 9.2001C22.72 9.9601 22.9733 10.7601 23.1867 11.5334C23.4 12.3068 23.52 12.6268 23.52 12.6401C23.6267 13.2001 24.3467 12.7468 24.4 11.9334C24.1333 10.5601 24.24 9.89343 23.9733 8.5201Z" fill="#A7289E"/>
<path fill-rule="evenodd" clip-rule="evenodd" d="M32.8 22.0134C32.7079 21.0438 32.4789 20.0921 32.12 19.1867C31.7643 18.2703 31.2597 17.4188 30.6267 16.6667C29.1021 14.9215 27.0612 13.7072 24.8 13.2C24.32 12.9734 23.96 13.32 23.9733 13.8934C23.7673 14.6399 23.4481 15.3504 23.0267 16C22.5166 16.4097 21.9049 16.6733 21.2568 16.7625C20.6087 16.8517 19.9485 16.7633 19.3467 16.5067C18.9744 16.4288 18.5869 16.4708 18.24 16.6267C17.8091 16.7612 17.4346 17.0339 17.1743 17.4027C16.914 17.7714 16.7824 18.2157 16.8 18.6667C16.7979 19.0829 16.8933 19.4939 17.0785 19.8667C17.2638 20.2394 17.5337 20.5636 17.8667 20.8134C18.04 20.9067 18.4 21.08 18.8533 21.2667C19.88 21.6934 21.52 22.2534 22.1467 22.6C22.04 22.8667 22.4267 23.5734 22.4933 23.7734C22.8077 24.6628 23.2923 25.4825 23.92 26.1867C24.1576 26.4596 24.4535 26.6756 24.7859 26.8187C25.1182 26.9618 25.4785 27.0283 25.84 27.0134C25.9673 27.0134 26.0894 26.9628 26.1794 26.8728C26.2694 26.7828 26.32 26.6607 26.32 26.5334C26.32 26.4061 26.2694 26.284 26.1794 26.194C26.0894 26.1039 25.9673 26.0534 25.84 26.0534C25.6249 26.0399 25.4154 25.9791 25.2264 25.8754C25.0374 25.7717 24.8736 25.6276 24.7467 25.4534C24.272 24.8355 23.9273 24.128 23.7333 23.3734C23.6667 23.1334 23.64 22.3734 23.5333 22.04C23.4853 21.8551 23.3715 21.6939 23.2133 21.5867C22.8982 21.3845 22.5684 21.2063 22.2267 21.0534C21.0667 20.52 19.1733 19.72 18.7333 19.4534C18.6376 19.3523 18.5634 19.2328 18.5152 19.1022C18.4671 18.9715 18.446 18.8324 18.4533 18.6934C18.4414 18.5766 18.4674 18.4591 18.5274 18.3583C18.5875 18.2574 18.6784 18.1786 18.7867 18.1334C18.941 18.1059 19.099 18.1059 19.2533 18.1334C19.9046 18.1973 20.559 18.224 21.2133 18.2134C21.8009 18.1617 22.3698 17.9807 22.8793 17.6833C23.3887 17.386 23.826 16.9796 24.16 16.4934C24.5802 15.8073 24.8018 15.018 24.8 14.2134C26.6301 14.8844 28.2274 16.0697 29.4 17.6267C29.8923 18.2914 30.2957 19.0176 30.6 19.7867C30.9123 20.5635 31.1359 21.3731 31.2667 22.2C31.5728 24.207 31.4822 26.2546 31 28.2267C30.9668 28.3504 30.983 28.4822 31.0452 28.5942C31.1074 28.7062 31.2108 28.7895 31.3333 28.8267C31.4553 28.8595 31.5853 28.8429 31.6951 28.7805C31.8049 28.7181 31.8857 28.615 31.92 28.4934C32.662 26.4184 32.9618 24.2111 32.8 22.0134Z" fill="#1A1A1A"/>
<path fill-rule="evenodd" clip-rule="evenodd" d="M20.64 13.4002C20.2533 12.0669 19.9067 10.7336 19.5333 9.40025C19.2933 8.50691 19.0133 7.62691 18.76 6.73358C18.5515 5.80275 18.215 4.90531 17.76 4.06691C17.6095 3.8085 17.4012 3.58852 17.1513 3.42426C16.9015 3.26 16.6169 3.15593 16.32 3.12024C16.1072 3.10748 15.895 3.15362 15.7067 3.25358C15.3662 3.4581 15.0368 3.68064 14.72 3.92024L11.4667 5.98691C11.4068 6.0036 11.3513 6.03317 11.304 6.07356C11.2568 6.11394 11.2189 6.16416 11.1931 6.22071C11.1673 6.27725 11.1541 6.33876 11.1546 6.40091C11.155 6.46307 11.169 6.52439 11.1956 6.58056C11.2222 6.63674 11.2608 6.68642 11.3086 6.72614C11.3564 6.76585 11.4124 6.79464 11.4725 6.81049C11.5326 6.82633 11.5954 6.82885 11.6566 6.81787C11.7178 6.80689 11.7758 6.78267 11.8267 6.74691L15.3467 5.06691C15.9467 4.76024 16.12 3.88024 16.68 5.46691C16.92 6.10691 17.0667 6.80024 17.1733 7.18691C17.6933 8.77358 18.2 10.3469 18.76 11.9202C19.32 13.4936 19.68 14.0669 20.28 15.4802C20.5467 16.2536 21.24 16.4402 21.24 15.8669C20.96 14.9336 20.92 14.3336 20.64 13.4002Z" fill="#A7289E"/>
</g>
<defs>
<clipPath id="clip0_109_3496">
<rect width="32" height="32" fill="white" transform="translate(0.800003 0.000488281)"/>
</clipPath>
</defs>
</svg>
