<svg width="20" height="24" viewBox="0 0 20 24" fill="none" xmlns="http://www.w3.org/2000/svg">
<path fill-rule="evenodd" clip-rule="evenodd" d="M19.0828 23.028C19.2092 23.0281 19.3307 22.979 19.4215 22.8912C19.5122 22.8034 19.5649 22.6838 19.5686 22.5578C19.6584 21.2134 19.5556 19.863 19.2632 18.5474C19.1389 17.978 18.9719 17.4186 18.7635 16.8741C18.5562 16.3296 18.3055 15.8024 18.014 15.2976C17.3546 14.181 16.4419 13.2338 15.3491 12.5318C16.0347 11.9272 16.5799 11.181 16.9467 10.3451C17.3134 9.5092 17.4929 8.60372 17.4727 7.69167C17.5693 6.50209 17.4614 5.30481 17.1535 4.15145C16.8908 3.3726 16.4757 2.65343 15.932 2.03561C15.888 1.99002 15.8352 1.95375 15.7768 1.92898C15.7183 1.9042 15.6555 1.89144 15.592 1.89144C15.5285 1.89144 15.4656 1.9042 15.4072 1.92898C15.3488 1.95375 15.296 1.99002 15.2519 2.03561C15.1531 2.11666 15.0903 2.23331 15.0773 2.3602C15.0643 2.48709 15.1021 2.61396 15.1825 2.71323C15.7373 3.37545 16.1061 4.1723 16.2513 5.02267C16.3632 5.9181 16.3632 6.8239 16.2513 7.71933C16.2386 8.81931 15.8637 9.88471 15.1841 10.7517C14.5045 11.6187 13.5579 12.2393 12.4898 12.518C11.4086 12.8083 10.2757 12.8521 9.17512 12.6462C8.07458 12.4403 7.03474 11.99 6.13286 11.3287C5.51447 10.8265 5.06821 10.145 4.85592 9.37881C4.58704 8.57812 4.49703 7.72856 4.5922 6.88959C4.71346 5.67729 5.12262 4.51117 5.78587 3.48765C6.43726 2.49219 7.42028 1.75762 8.56184 1.41331C9.4358 1.14968 10.3416 1.00546 11.2545 0.984608C12.1529 0.966143 13.0456 1.13085 13.8778 1.46862C13.979 1.51447 14.0944 1.51837 14.1985 1.47947C14.3027 1.44057 14.387 1.36205 14.433 1.26119C14.479 1.16033 14.4829 1.04538 14.4439 0.941647C14.4049 0.83791 14.326 0.753874 14.2248 0.708028C13.3009 0.266079 12.293 0.0256327 11.2684 0.00274982C10.2595 -0.0189578 9.25202 0.0879309 8.27036 0.320817C6.85572 0.686346 5.61068 1.52635 4.74488 2.6994C3.89213 3.86985 3.33077 5.22546 3.10706 6.65449C2.94456 7.72896 3.03 8.82619 3.35689 9.86282C3.66418 10.9591 4.31603 11.9285 5.21679 12.6286L5.52215 12.8222C4.24303 13.4122 3.12804 14.3047 2.27427 15.4221C1.70057 16.1719 1.25935 17.0137 0.969562 17.9113C0.691125 18.8081 0.53702 19.7387 0.511526 20.6771C0.432467 21.3564 0.395384 22.0399 0.400488 22.7238C0.402108 23.087 0.482603 23.4455 0.636445 23.7748C0.692172 23.8733 0.783623 23.9468 0.892028 23.9802C1.00043 24.0136 1.11757 24.0045 1.2194 23.9546C1.26964 23.9283 1.31418 23.8925 1.35047 23.8491C1.38676 23.8057 1.41407 23.7555 1.43084 23.7015C1.44761 23.6476 1.4535 23.5908 1.44818 23.5346C1.44286 23.4783 1.42643 23.4236 1.39984 23.3737C1.32275 23.0837 1.32275 22.7787 1.39984 22.4887C1.497 21.8664 1.70519 21.2026 1.78847 20.8292C1.93569 20.0278 2.16834 19.2443 2.48246 18.4921C2.76479 17.7496 3.12783 17.0401 3.56509 16.3763C4.35861 15.1775 5.42967 14.1862 6.68806 13.486C8.66465 14.3793 10.9008 14.522 12.9756 13.8871C13.5679 13.6932 14.1325 13.4236 14.6551 13.085C15.6457 14.0546 16.4006 15.2372 16.862 16.5422C17.1951 17.3028 17.5005 18.0911 17.7642 18.8793C18.1976 20.0716 18.4865 21.3111 18.6247 22.5717C18.6314 22.6905 18.6818 22.8028 18.7663 22.887C18.8508 22.9712 18.9634 23.0214 19.0828 23.028Z" fill="#1A1A1A"/>
</svg>
