<svg width="297" height="253" viewBox="0 0 297 253" fill="none" xmlns="http://www.w3.org/2000/svg">
<mask id="mask0_806_595" style="mask-type:luminance" maskUnits="userSpaceOnUse" x="37" y="48" width="217" height="179">
<path d="M52.9338 48.1446L253.674 67.7677L238.152 226.552L37.4119 206.929L52.9338 48.1446Z" fill="white"/>
</mask>
<g mask="url(#mask0_806_595)">
</g>
<mask id="mask1_806_595" style="mask-type:luminance" maskUnits="userSpaceOnUse" x="24" y="42" width="250" height="169">
<path d="M24.228 111.639L55.5506 42.5241L273.081 141.106L241.759 210.221L24.228 111.639Z" fill="white"/>
</mask>
<g mask="url(#mask1_806_595)">
</g>
<mask id="mask2_806_595" style="mask-type:luminance" maskUnits="userSpaceOnUse" x="24" y="42" width="250" height="169">
<path d="M24.228 111.639L55.5506 42.5241L273.081 141.106L241.759 210.221L24.228 111.639Z" fill="white"/>
</mask>
<g mask="url(#mask2_806_595)">
</g>
<mask id="mask3_806_595" style="mask-type:luminance" maskUnits="userSpaceOnUse" x="24" y="42" width="250" height="169">
<path d="M24.228 111.639L55.5506 42.5241L273.081 141.106L241.759 210.221L24.228 111.639Z" fill="white"/>
</mask>
<g mask="url(#mask3_806_595)">
<path d="M208.045 180.693L207.512 181.047C207.049 180.911 207.128 180.576 207.369 180.536L208.045 180.693ZM209.557 182.79C210.136 182.831 210.888 182.65 210.802 182.017C210.111 182.226 210.071 181.982 209.325 182.315C208.863 182.18 208.728 181.821 208.874 181.662C208.694 181.73 208.31 181.259 207.924 181.457C208.223 182.111 208.903 182.42 209.697 182.482C209.853 182.628 209.673 182.696 209.557 182.79ZM238.718 198.462C238.746 198.401 238.712 198.309 238.706 198.16L238.718 198.462ZM229.18 172.421C229.247 172.6 229.372 172.655 229.433 172.682C229.304 172.475 229.207 172.357 229.18 172.421ZM227.73 168.043C227.764 168.134 227.798 168.222 227.831 168.314C227.828 168.161 227.791 168.07 227.73 168.043ZM238.706 198.16L238.616 197.374C238.457 197.226 238.66 197.767 238.706 198.16ZM215.429 184.486C215.304 184.431 215.155 184.434 215.003 184.441C215.125 184.498 215.249 184.553 215.31 184.58C215.401 184.547 215.429 184.486 215.429 184.486ZM235.951 202.264L235.668 202.064C235.64 202.125 235.552 202.158 235.524 202.219C235.737 202.243 235.889 202.237 235.951 202.264ZM227.603 195.657C227.762 195.803 228.081 195.425 228.26 195.358C228.081 195.425 227.868 195.404 227.743 195.346C227.716 195.41 227.688 195.471 227.603 195.657ZM216.261 187.096L215.987 187.045C216.048 187.072 216.172 187.129 216.261 187.096ZM52.1539 71.8879C52.0928 71.8605 52.0928 71.8605 52.1539 71.8879C52.0654 71.9215 52.0654 71.9215 52.1539 71.8879ZM42.0545 74.7498L42.1728 74.6525C42.1367 74.5642 42.103 74.4731 42.0419 74.4457L42.0545 74.7498ZM224.294 160.311C224.392 160.43 224.425 160.521 224.294 160.311V160.311ZM173.946 102.312C174.376 103.178 172.502 101.882 173.247 103.037C173.268 102.824 174.681 103.165 173.946 102.312ZM215.587 184.631C215.71 184.689 215.834 184.743 215.895 184.771C215.773 184.716 215.71 184.689 215.587 184.631ZM213.683 144.049C213.656 144.11 213.599 144.234 213.632 144.323C213.723 144.289 213.751 144.228 213.683 144.049ZM221.013 156.519L220.879 156.16C220.885 156.312 220.98 156.43 221.013 156.519ZM208.457 137.962C208.457 137.962 208.43 138.023 208.491 138.05C208.554 138.08 208.676 138.135 208.71 138.226C208.649 138.196 208.615 138.107 208.457 137.962ZM208.683 138.287C208.744 138.314 208.716 138.375 208.75 138.466C208.716 138.375 208.683 138.287 208.683 138.287ZM203.919 132.333C203.892 132.397 203.953 132.424 203.925 132.485C203.986 132.513 204.02 132.604 204.081 132.631L203.919 132.333ZM74.2383 67.6144C74.0799 67.4687 73.9851 67.3502 73.8877 67.2319C73.9914 67.5022 72.9016 67.6022 74.2383 67.6144ZM215.317 184.732C215.435 184.638 215.496 184.665 215.648 184.659C215.587 184.631 215.463 184.577 215.401 184.547C215.31 184.58 215.283 184.644 215.317 184.732ZM205.635 140.4L204.958 139.425C205.15 139.661 205.349 140.048 205.635 140.4ZM126.985 79.3199C127.11 79.3771 127.171 79.4046 127.262 79.3708L126.985 79.3199ZM202.659 136.598C202.646 136.294 202.579 136.114 202.475 135.846C202.414 135.819 202.353 135.789 202.262 135.823L202.659 136.598ZM137.38 79.27C139.447 80.8028 142.958 81.9463 143.928 83.427C146.273 84.3415 148.259 84.5716 150.568 86.0644L150.477 86.0982C151.199 86.6476 152.702 87.7768 152.27 88.3989C154.067 89.2111 155.55 89.0675 157.403 90.5767L156.824 90.5356C157.235 90.9456 158.247 91.1811 158.463 91.2045C158.618 91.3505 158.405 91.3268 158.35 91.4514C158.704 91.9837 159.155 91.8153 159.587 92.0122L159.319 92.1131C160.591 93.5839 163.539 94.3237 165.422 95.7716C164.987 95.5749 165.06 95.9065 165.1 96.147C166.342 96.0408 168.417 97.723 169.316 98.2053L168.613 98.1095C170.526 98.8296 169.437 99.7486 171.323 100.53L170.736 99.5201C171.276 100.137 171.897 100.416 171.94 99.9898C172.488 100.759 171.688 100.545 172.697 101.449C172.614 101.635 171.798 100.967 172 101.506L173.128 103.132C173.189 103.16 173.162 103.221 173.223 103.251L173.128 103.132C173.162 103.221 173.32 103.366 173.85 103.682C174.33 102.785 175.133 104.635 175.018 103.244C177.179 104.893 178.473 106.817 180.554 107.985C180.608 109.348 183.958 111.015 182.986 111.84C183.933 112.714 184.896 113.224 185.846 113.432C185.745 113.164 185.343 113.056 185.158 112.973C185.614 112.955 186.781 114.005 187.254 114.443C186.45 114.079 185.234 113.302 184.44 113.243C185.381 113.966 186.901 114.729 187.492 115.072L187.247 115.779C188.291 116.103 187.495 116.71 188.658 116.939L188.648 116.635C189.916 117.953 190.415 117.511 191.613 118.65L191.406 118.778C191.79 119.249 192.802 119.487 192.742 120.277L191.955 119.547C191.697 119.953 192.182 120.692 192.29 121.114C193.231 121.837 193.132 120.9 193.571 121.249C193.438 121.709 193.486 121.432 192.88 121.454C193.917 122.298 195.24 123.492 196.226 123.788C196.196 123.852 196.108 123.886 196.108 123.886C196.971 124.946 198.381 125.288 198.659 126.158L198.439 125.982C198.7 127.217 200.789 127.718 200.093 128.593C200.295 129.132 199.389 127.678 199.485 128.613C200.333 130.039 200.891 128.805 201.581 130.085C201.514 129.905 201.456 130.028 201.368 130.061C202.066 130.824 203.017 131.851 203.841 132.671C203.933 133.456 204.665 134.308 205.427 135.1C206.159 135.951 206.802 136.839 206.898 137.776C206.876 137.17 207.479 137.815 207.595 137.72C207.595 137.72 207.446 137.726 207.479 137.815C207.8 138.258 208.159 138.124 208.408 138.236C208.458 138.781 209.634 139.314 209.68 139.707C209.89 139.578 210.086 139.965 210.409 140.408C209.592 139.74 209.8 140.431 209.279 140.267C210.118 141.541 211.134 141.107 211.982 142.533L212.142 143.498C212.769 143.262 213.465 144.694 213.638 144.475C213.624 144.84 213.758 145.199 213.46 145.361C213.996 145.826 214.217 146.821 214.673 146.802L214.435 146.175C215.327 147.991 216.835 148.453 217.323 150.011L216.49 150.528C216.748 151.611 217.972 151.87 217.952 152.902C218.088 152.442 217.936 152.446 218.561 152.879C218.423 152.52 217.829 152.026 217.472 151.493L218.722 152.358C218.243 151.769 217.825 151.207 217.319 150.681C218.163 151.285 218.038 151.23 218.14 150.679C219.119 151.645 218.529 152.122 219.477 152.996C219.584 153.416 219.061 153.256 219.174 153.828C220.088 154.612 219.686 155.992 220.553 156.385C220.593 156.626 220.264 156.033 220.118 156.189C220.6 156.778 220.768 157.226 221.133 157.243L220.959 156.643C221.191 157.121 221.611 157.014 221.895 158.036C222.395 158.409 222.946 158.512 222.681 157.946C222.873 158.18 222.898 158.786 222.56 158.707C223.344 160.106 223.842 158.842 224.24 160.436C224.142 160.318 224.081 160.29 224.054 160.351C224.188 160.71 224.353 161.008 224.545 161.245C223.801 160.087 224.056 161.989 223.391 160.498C223.041 160.935 223.922 161.63 223.974 162.175C224.633 162.697 224.692 161.905 225.098 162.163C224.918 162.231 225.08 162.529 225.217 162.888L225.378 162.367C225.543 162.662 225.707 162.96 225.961 163.224L225.515 162.726C225.815 163.382 225.744 164.689 226.692 165.564C226.408 165.361 225.784 164.929 226.028 165.708C226.861 166.833 226.011 166.074 226.164 166.887C226.909 168.044 226.891 166.769 227.576 168.716C227.643 168.896 227.755 168.649 227.804 168.375C228.25 169.692 228.82 170.248 229.178 171.599C229.001 171 228.894 170.579 229.436 171.196C229.001 171 229.663 172.341 229.716 172.885L229.929 172.906C229.948 173.363 229.658 173.008 229.405 172.746C229.497 172.712 229.463 172.621 229.359 172.353C228.914 171.852 228.388 172.358 228.761 173.344C229.404 174.232 229.785 173.884 229.897 173.637C230.288 175.079 231.271 174.557 231.599 175.972C231.763 176.267 231.452 177.613 231.764 178.574C232.382 178.853 231.531 177.278 232.183 177.648C231.866 179.661 234.187 180.639 234.434 183.056L233.792 182.988C233.933 183.499 234.104 183.949 234.369 184.515L234.368 183.696C234.688 184.139 235.04 185.339 234.483 185.087C235.312 186.056 235.172 186.367 235.427 187.45C235.048 186.31 235.518 187.416 234.942 186.709C235.114 187.977 235.327 187.999 235.721 188.774C235.447 188.723 235.375 189.21 235.448 189.542C236.052 190.186 236.437 191.476 236.962 192.458L236.783 192.526C237.21 193.39 237.309 194.327 237.53 195.319C237.82 196.493 238.007 197.395 238.634 198.647C238.697 198.675 238.67 198.736 238.731 198.766L238.725 198.614C238.843 198.519 238.965 198.574 239.096 198.781C239.157 198.811 239.309 198.804 239.37 198.832C238.752 198.553 239.382 198.317 239.433 198.04L240.163 198.075C240.157 197.923 238.812 197.761 238.805 197.609L239.143 197.687C239.043 197.419 239.161 197.322 239.273 197.075L239.761 197.15C239.575 197.065 239.541 196.974 239.383 196.828C240.509 196.817 238.836 196.059 240.169 195.919L239.341 195.769C239.399 195.647 239.241 195.501 239.91 195.506C240.613 195.601 239.965 195.381 240.117 195.377C240.083 195.286 239.621 195.153 239.505 195.248C239.982 195.018 239.653 194.422 240.414 194.393C240.215 194.007 239.533 193.698 239.703 193.329L239.764 193.357C239.882 193.262 240.178 193.1 240.881 193.193C240.78 192.925 239.824 192.565 240.149 192.342L240.396 192.454C240.576 192.387 240.204 192.217 240.143 192.19C240.143 192.19 240.295 192.183 240.42 192.241C240.66 192.201 240.322 192.122 240.228 192.004L240.475 192.116C240.986 191.978 240.114 191.432 240.315 191.151C240.349 191.242 240.653 191.23 240.778 191.287C240.004 191.012 240.296 190.698 240.14 190.552L240.448 190.691C240.009 190.345 241.358 190.659 240.858 190.282L240.402 190.299C240.582 190.231 240.426 190.085 240.06 190.068C240.362 190.058 240.673 190.198 240.819 190.042C241.032 190.063 240.977 190.187 241.251 190.239L241.887 190.152C241.948 190.182 241.976 190.119 241.942 190.03C240.931 189.795 241.966 189.817 240.958 189.734C240.976 189.368 241.7 189.251 241.289 188.841C242.266 188.986 241.477 188.257 242.71 188.668C242.765 188.543 242.575 188.309 242.079 188.084C241.988 188.118 242.113 188.173 242.174 188.2C241.866 188.061 241.887 187.848 241.914 187.787C242.134 187.96 242.326 188.197 242.822 188.421C242.755 188.241 242.377 187.92 242.218 187.774L242.831 187.903C242.425 187.646 243.348 187.915 242.791 187.663L242.578 187.639C242.69 187.392 242.078 187.265 242.038 187.022L242.284 187.134C242.376 187.101 241.846 186.788 242.458 186.918L242.464 187.067C242.927 187.203 243.106 187.135 243.381 187.187C243.313 187.007 242.671 186.939 242.637 186.85C243.036 186.956 242.851 186.871 243.286 187.068C243.155 186.861 243.054 186.591 242.588 186.305C242.649 186.333 242.71 186.36 242.71 186.36C242.856 186.204 242.14 185.804 242.569 185.852L242.63 185.879C243.272 185.945 242.212 185.317 243.198 185.616C243.412 185.637 243.141 185.738 243.631 185.81C244.051 185.706 242.854 185.385 243.186 185.312C243.186 185.312 243.186 185.312 243.308 185.369C243.304 185.217 243.298 185.065 243.228 184.885C244.147 185.002 243.206 184.28 244.247 184.454C243.909 184.375 243.875 184.284 243.69 184.202C243.69 184.202 243.751 184.23 243.812 184.257C243.842 184.196 243.531 184.056 243.406 183.999C243.744 184.078 243.181 183.674 243.397 183.697C243.211 183.613 243.299 183.579 243.265 183.488C243.458 183.725 243.698 183.685 243.981 183.888C244.127 183.73 243.107 183.342 243.405 183.18L243.832 183.225C243.213 182.946 243.545 182.872 243.359 182.787C243.572 182.811 243.724 182.805 243.974 182.917C243.876 182.798 244.181 182.788 243.87 182.646L243.718 182.653C244.016 182.491 243.206 181.975 243.723 181.986L244.618 182.316C245.045 182.361 244.207 181.906 244.819 182.035C244.481 181.957 244.606 182.014 244.325 181.811C244.234 181.845 244.454 182.018 244.426 182.082L243.924 181.705L244.061 182.064C243.744 181.773 243.842 181.891 243.47 181.721C243.217 181.457 243.987 181.733 243.671 181.441C243.823 181.435 244.106 181.638 244.319 181.659C244.066 181.397 245.05 181.694 244.672 181.375C244.763 181.341 244.644 181.436 244.891 181.548C244.857 181.457 244.885 181.396 244.666 181.223L244.514 181.229C244.541 181.165 244.172 180.998 244.473 180.986C244.315 180.84 243.91 180.582 243.794 180.679C243.73 180.65 244.035 180.639 244.254 180.813C244.339 180.627 243.355 180.33 243.809 180.314C243.809 180.314 243.87 180.342 243.933 180.369C244.022 180.335 244.022 180.335 243.988 180.247C243.967 180.46 244.759 180.522 244.491 180.623C244.985 180.847 244.671 180.556 244.823 180.549C244.539 180.346 244.141 180.24 243.921 180.067C244.046 180.122 244.073 180.061 244.134 180.088L243.735 179.983C243.763 179.921 243.763 179.921 243.729 179.83L243.826 179.949C243.915 179.915 244.557 179.983 244.301 179.719C244.399 179.838 244.679 180.038 244.922 179.998C244.758 179.703 245.075 179.995 245.41 180.073C245.434 179.86 244.791 179.792 245.089 179.629C245.089 179.629 244.904 179.545 244.779 179.49C245.049 179.389 244.83 179.213 245.162 179.142C245.009 179.146 244.857 179.152 244.79 178.973C245.071 179.176 245.155 178.99 245.307 178.984L245.122 178.899C245.335 178.923 245.368 179.011 245.402 179.102C245.341 179.075 245.28 179.045 245.25 179.108C245.347 179.224 246.027 179.533 246.145 179.438C246.017 179.231 245.582 179.035 245.396 178.95C245.667 178.849 244.676 178.4 245.008 178.327C245.036 178.266 245.806 178.541 245.925 178.446C245.519 178.188 245.559 178.429 245.215 178.198C246.351 178.491 244.791 177.487 245.522 177.519L245.991 177.807C246.079 177.773 246.109 177.709 246.073 177.621L245.799 177.57C245.704 177.451 245.883 177.384 246.225 177.615C245.938 177.262 246.124 177.347 246.365 177.307C246.249 177.401 246.304 177.279 246.496 177.514C246.8 177.504 246.614 177.419 246.608 177.267C246.794 177.351 247.04 177.464 247.068 177.403C246.815 177.138 246.933 177.044 246.893 176.8L247.018 176.858C246.942 176.526 247.77 176.679 247.449 176.236L247.386 176.208C246.862 176.045 247.16 175.881 247.032 175.674C247.154 175.731 247.34 175.816 247.369 175.752C246.962 175.494 247.178 175.518 247.019 175.372C247.232 175.393 247.549 175.685 247.543 175.535C247.509 175.444 247.323 175.359 247.137 175.275C247.384 175.387 247.598 175.41 247.689 175.377C247.783 175.495 247.598 175.41 247.659 175.438C247.908 175.55 247.783 175.495 248.094 175.635C248.182 175.601 247.689 175.377 247.902 175.4L248.216 175.692C248.28 175.719 248.182 175.601 248.182 175.601C248.216 175.692 248.588 175.859 248.746 176.005C248.581 175.707 247.875 175.461 247.53 175.231C247.896 175.248 247.545 174.866 247.539 174.714L247.947 174.974C247.911 174.883 247.877 174.795 247.691 174.71L247.748 174.585C247.843 174.704 247.941 174.822 248.312 174.989C248.242 174.81 248.422 174.742 247.894 174.429L247.955 174.457C248.196 174.417 248.494 174.255 248.68 174.339C248.579 174.069 249.005 174.114 248.478 173.801C248.408 173.622 249.276 174.013 248.679 173.52C249.078 173.626 248.803 173.575 249.181 173.897C249.58 174.003 248.763 173.335 249.51 173.823C249.321 173.586 249.324 173.739 249.044 173.538C249.76 173.935 249.251 173.407 249.713 173.543C249.46 173.278 249.528 173.458 249.274 173.194C249.43 173.34 249.521 173.306 249.521 173.306L249.116 173.048L250.203 173.615C249.819 173.144 249.427 173.19 249.381 172.797L249.442 172.825C249.938 173.049 249.243 172.438 249.642 172.544C249.493 172.55 249.801 172.69 249.959 172.836L249.828 172.629C249.828 172.629 249.892 172.656 249.953 172.684C250.324 172.853 249.824 172.477 250.132 172.616C250.166 172.707 250.51 172.938 250.696 173.02L250.312 172.549L250.848 173.016C250.966 172.919 250.205 172.129 251.015 172.645L251.049 172.736C251.173 172.791 251.64 173.076 251.387 172.814C251.353 172.723 251.009 172.493 250.982 172.556L251.134 172.55C251.448 172.842 251.488 173.082 251.521 173.173C251.366 173.027 251.359 172.875 251.049 172.736C251.116 172.915 251.308 173.15 251.375 173.329C251.22 173.183 251 173.01 250.903 172.892C250.629 172.84 251.095 173.128 251.129 173.217C250.943 173.132 250.882 173.105 250.784 172.986C250.854 173.166 250.888 173.257 250.611 173.206C250.611 173.206 250.385 172.881 250.172 172.857C250.246 173.188 250.715 173.476 250.849 173.835C251.328 174.422 250.186 173.98 250.57 174.451C250.728 174.597 250.908 174.53 250.975 174.709C250.631 174.479 250.728 174.597 250.604 174.542C251.015 174.95 250.424 174.609 250.739 174.901C250.644 174.783 250.492 174.789 250.278 174.765C249.873 174.507 250.035 174.805 249.529 174.277C250.099 174.833 249.231 174.439 250.111 175.137L250.234 175.192L249.932 175.204C249.841 175.238 249.965 175.293 249.442 175.129C249.344 175.011 249.374 174.95 249.341 174.861C248.878 174.726 249.537 175.248 249.509 175.309C249.229 175.108 249.442 175.129 249.07 174.963C248.979 174.996 249.199 175.17 249.205 175.322L249.019 175.237C248.532 175.165 249.802 175.814 249.156 175.596C249.278 175.651 249.376 175.769 249.437 175.799C249.251 175.714 248.825 175.669 248.724 175.399C248.694 175.46 248.791 175.578 249.01 175.752C249.257 175.864 249.163 175.748 249.534 175.915L249.608 176.246L249.449 176.101C248.375 175.838 249.913 177.055 248.625 176.769C248.933 176.909 248.845 176.942 249.092 177.054C248.912 177.122 248.918 177.274 248.705 177.25L248.547 177.104C248.681 177.463 248.907 177.789 248.7 177.917C248.761 177.947 248.39 177.778 248.356 177.689C248.673 177.981 247.406 177.481 248.155 177.969L248.244 177.936C247.948 178.098 248.454 178.624 248.404 178.901C247.882 178.737 248.4 178.748 247.842 178.497C247.572 178.598 247.859 178.951 247.652 179.079C247.618 178.991 247.527 179.024 247.557 178.961C247.162 179.007 248.051 179.185 247.932 179.282C247.685 179.17 247.624 179.14 247.472 179.146L247.816 179.377C247.753 179.35 247.445 179.207 247.347 179.092C247.816 179.377 247.332 179.454 247.799 179.742C247.677 179.685 247.269 179.427 247.056 179.406C246.903 179.41 247.062 179.555 247.22 179.701C246.882 179.623 246.828 179.747 246.764 179.72C246.523 179.757 247.013 179.832 247.266 180.094L247.571 180.084L247.611 180.324L247.389 180.151C247.148 180.191 247.553 180.449 247.435 180.544L247.712 180.595L247.891 180.528C247.334 180.273 247.684 180.656 247.06 180.225C246.637 180.33 247.323 180.791 247.274 181.065C247.301 181.004 247.149 181.01 247.088 180.98C246.909 181.048 247.189 181.251 247.409 181.424C247.223 181.339 247.189 181.251 247.067 181.193C247.01 181.318 247.348 181.397 247.449 181.665C247.229 181.491 247.077 181.498 247.016 181.47C247.202 181.552 247.387 181.637 247.421 181.728C246.364 181.1 246.904 181.717 246.005 181.235C246.252 181.347 246.636 181.818 247.096 181.951L247.062 181.863C247.373 182.002 247.221 182.009 247.193 182.07C247.13 182.042 247.096 181.951 247.035 181.924C247.294 182.338 246.81 182.418 247.009 182.804C246.884 182.749 246.755 182.54 246.603 182.546C246.367 182.738 246.869 183.112 247.065 183.501C246.294 183.226 247.055 183.197 246.373 182.888C246.446 183.219 246.553 183.639 246.815 184.055C245.677 183.763 247.136 184.499 246.219 184.38C246.619 184.488 246.686 184.668 246.658 184.729C246.348 184.589 246.293 184.711 246.135 184.566C246.418 184.769 246.491 185.098 245.782 184.852C246.461 185.161 245.697 185.038 246.102 185.296C245.801 185.306 246.176 185.625 245.935 185.665C246.395 185.801 246.066 185.872 246.222 186.02C246.222 186.02 246.188 185.929 246.1 185.963C245.701 185.857 246.353 186.227 246.11 186.265C245.96 186.271 245.738 186.098 245.65 186.131C245.96 186.271 246.274 186.563 245.848 186.518C245.876 186.457 245.723 186.463 245.629 186.344C246.044 186.907 245.201 187.119 245.743 187.736L245.247 187.512C244.489 187.54 246.088 187.966 245.942 188.122C245.504 188.595 244.604 188.931 244.842 189.558C244.967 189.616 245.055 189.582 245.241 189.667C245.153 189.7 244.754 189.592 245 189.704L245.275 189.755C244.428 189.818 245.644 190.592 244.362 190.457C244.738 190.776 243.918 190.775 244.543 191.209C244.239 191.219 244.047 190.985 243.992 191.107L244.376 191.578L244.312 191.551C245.153 192.005 243.208 192.016 243.741 192.481L243.68 192.453C243.467 192.432 243.251 192.408 243.288 192.499C243.41 192.554 243.501 192.52 243.653 192.514C243.94 192.869 243.912 192.93 243.952 193.171C243.642 193.032 243.709 193.211 243.222 193.139C243.469 193.251 243.648 193.184 243.867 193.357C243.846 193.57 243.487 193.705 243.305 193.772C243.677 193.939 243.527 193.945 243.987 194.081C243.966 194.294 244.122 194.44 244.073 194.714L243.921 194.721C244.506 194.911 243.623 194.883 243.934 195.022C243.721 195.001 243.657 194.974 243.471 194.889L243.63 195.035C243.444 194.95 242.892 194.848 242.865 194.912C243.237 195.078 243.139 194.96 243.477 195.039L242.899 195C242.933 195.091 243.545 195.221 243.727 195.153C243.676 195.427 243.901 195.753 243.755 195.909L243.417 195.83C243.515 195.948 243.491 196.162 243.187 196.174C243.251 196.202 243.464 196.223 243.588 196.28C244.021 196.477 243.007 196.239 243.504 196.466C243.379 196.409 243.345 196.32 243.132 196.296L243.544 196.706C243.267 196.656 242.694 196.767 242.914 196.942C243.066 196.936 243.279 196.96 243.307 196.896L243.404 197.014L242.795 197.037L243.319 197.2L242.832 197.125C242.926 197.244 243.569 197.312 243.511 197.434C243.186 197.66 243 197.575 242.489 197.716C243.466 197.861 242.41 198.052 243.114 198.148C242.362 198.326 242.743 198.8 242.515 199.141L242.454 199.114C241.97 199.191 243.161 199.359 242.954 199.488L242.829 199.433C242.291 199.635 242.73 199.981 243.135 200.239C243.013 200.184 242.708 200.195 242.681 200.258C242.867 200.34 243.348 200.263 243.169 200.33C243.108 200.303 242.867 200.34 242.867 200.34L243.327 200.476C242.974 200.763 242.621 201.047 242.847 201.372C242.667 201.44 242.482 201.358 242.329 201.361C242.431 201.632 242.836 201.89 242.903 202.069L242.297 202.092C242.331 202.18 243.153 202.181 242.641 202.322C242.55 202.356 242.605 202.232 242.331 202.18C241.881 202.349 242.855 202.344 242.77 202.529L242.13 202.461C241.768 202.596 242.499 202.631 242.837 202.709C243.547 202.957 241.595 202.815 242.186 203.158C242.463 203.209 242.643 203.141 242.981 203.22C242.805 203.437 243.261 203.421 243.088 203.64C242.148 203.736 243.054 203.549 242.178 203.673L242.385 203.544C241.873 203.685 242.29 203.426 241.681 203.448C241.502 203.516 241.998 203.74 242.184 203.825C241.727 203.841 242.114 203.645 241.542 203.759L241.727 203.841C241.575 203.847 241.451 203.793 241.451 203.793C241.058 203.836 241.423 203.854 241.457 203.942C241.673 203.966 241.974 203.953 242.279 203.943C242.218 203.916 242.188 203.977 242.127 203.949C242.739 204.076 242.264 204.308 242.751 204.381C242.599 204.387 242.599 204.387 242.511 204.42C242.483 204.481 243.034 204.584 243.22 204.666C242.888 204.739 242.274 204.61 242.466 204.847C242.831 204.864 243.467 204.778 243.41 204.903C243.41 204.903 243.102 204.763 242.895 204.891C243.142 205.004 242.804 204.925 242.354 205.094C242.844 205.166 242.208 205.25 242.968 205.223C242.421 205.273 242.637 205.294 242.241 205.341C242.698 205.324 242.704 205.474 243.221 205.485C242.613 205.508 242.457 205.362 241.882 205.475C242.311 205.52 242.44 205.727 243.076 205.643C242.896 205.711 242.717 205.778 242.626 205.812C242.626 205.812 242.565 205.784 242.501 205.754C242.963 205.89 242.52 206.211 243.341 206.209C242.367 206.214 243.263 206.547 242.38 206.519C242.414 206.607 242.842 206.652 242.965 206.709C242.207 206.738 242.792 206.929 242.371 207.033C242.798 207.078 242.679 207.175 242.865 207.258C242.804 207.23 242.652 207.236 242.439 207.213C242.713 207.264 242.472 207.304 242.141 207.377C242.388 207.49 242.685 207.325 243.051 207.342C242.932 207.437 242.594 207.359 242.265 207.432L243.03 207.555C242.939 207.589 242.85 207.623 242.607 207.663C242.82 207.684 243.097 207.735 242.765 207.809L242.759 207.657L242.427 207.73L242.89 207.863C242.385 208.156 241.591 208.094 240.805 208.184L240.68 208.127C240.44 208.167 240.258 208.234 240.258 208.234C240.078 208.302 239.405 208.145 239.308 208.026C239.359 207.752 240.184 207.903 240.36 207.686L239.864 207.461L240.104 207.422C240.284 207.354 239.982 207.364 239.919 207.337C240.284 207.354 240.003 207.151 240.061 207.029L239.729 207.1C238.929 206.888 240.56 206.586 240.124 206.389L239.512 206.26L239.996 206.18C239.658 206.102 239.293 206.087 239.499 205.956C239.618 205.861 239.736 205.766 239.791 205.642C238.968 204.824 238.529 204.475 238.09 204.129C237.56 203.813 237.033 203.501 236.402 202.915C236.423 202.702 236.383 202.461 236.316 202.282C235.813 201.905 235.6 201.884 235.454 202.04L234.543 201.256C235.037 201.48 235.155 201.383 235.103 200.841C234.292 200.325 233.216 199.241 232.745 199.622L232.836 199.589C232.39 199.09 231.601 198.361 230.997 197.714C230.491 197.188 230.019 196.751 230.107 196.717C228.989 196.059 227.94 194.916 227.53 195.325C226.848 195.016 226.395 193.547 225.525 193.822C225.006 192.992 225.582 193.698 226.057 193.468C225.538 192.638 224.214 192.93 224.453 192.071C223.433 191.684 224.554 192.339 224.043 192.48C224.316 191.712 222.507 191.263 221.952 190.344C221.407 190.394 222.211 190.758 221.386 190.607C221.593 190.479 221.249 190.248 221.093 190.102L220.649 190.42L220.464 188.85C218.875 188.576 220.286 189.736 218.492 188.924L218.616 188.979C218.433 188.227 217.231 188.576 216.219 187.522C216.594 187.841 216.487 187.421 216.73 187.381L215.929 187.167C215.993 187.194 216.081 187.161 216.048 187.072C215.624 186.36 215.435 186.942 214.923 186.264C215.444 186.428 215.489 186.001 215.388 185.731L214.076 185.658L214.824 185.327C213.828 184.726 211.889 184.889 211.812 183.739L212.335 183.902C212.393 183.779 212.307 183.144 211.512 183.084C211.299 183.06 211.065 183.252 211.098 183.341L210.782 183.049C211.198 182.792 212.526 183.319 213.421 183.649C213.117 183.662 212.38 183.475 212.454 183.807C213.224 184.082 214.016 184.144 214.789 184.417C214.422 184.402 214.126 184.564 213.916 184.693C214.52 185.337 214.647 184.728 215.177 185.04C215.278 185.311 215.409 185.518 215.169 185.558C215.966 185.769 216.557 186.112 217.161 186.759C217.161 186.759 216.147 186.521 216.504 187.056C217.984 187.576 218.55 187.313 220.125 187.952C222.177 188.362 223.112 190.421 224.522 190.765C224.731 190.634 223.881 189.877 224.658 190.305C224.332 190.528 224.951 190.81 224.866 190.993C226.026 191.072 225.936 191.925 226.73 191.987C226.487 192.027 226.898 192.435 227.097 192.824C226.714 193.172 227.856 193.614 226.267 193.34C227.886 193.553 228.214 194.965 229.754 194.697L229.528 194.371C229.879 194.754 230.193 195.046 230.543 195.426L230.482 195.398C230.955 195.836 231.107 195.829 231.446 196.727C231.047 196.621 230.67 196.302 230.298 196.132C230.665 196.969 231.784 196.805 232.504 197.357C232.239 197.608 231.727 196.93 231.655 197.417C232.066 197.827 232.681 197.957 233.114 198.154L232.968 198.31C233.419 198.96 233.626 198.832 233.738 198.585C233.823 198.399 233.872 198.125 234.144 198.843C234.137 198.691 234.192 198.569 234.125 198.389C234.256 198.596 234.454 198.982 234.616 199.28C234.781 199.578 234.821 199.819 234.483 199.74C234.861 200.059 235.26 200.168 235.311 199.891C234.887 199.179 234.893 199.331 234.682 198.641C234.993 198.78 235.273 198.983 235.459 199.068C235.556 199.184 235.596 199.427 235.438 199.281C235.923 200.02 236.368 200.521 236.682 200.813C236.999 201.105 237.185 201.187 237.337 201.183L237.398 201.211L237.364 201.12L237.27 201.004L237.424 200.33C237.26 200.033 237.158 199.762 237.119 199.521C237.011 199.101 237.13 199.007 237.432 198.994C236.965 198.709 236.953 198.405 236.571 197.933C236.586 197.571 236.219 196.734 236.325 196.335C236.447 196.39 236.545 196.509 236.667 196.566C235.98 195.286 235.098 193.772 234.831 192.387C234.706 192.329 235.163 192.313 235.291 192.52C234.559 191.669 235.348 190.09 234.466 190.064L234.512 190.457C234.227 189.435 233.766 188.48 233.241 187.5C233.009 187.023 232.716 186.518 232.484 186.041C232.252 185.564 231.959 185.059 231.727 184.581C232.034 183.905 232.258 185.716 232.628 185.064C232.237 183.624 231.307 182.384 230.881 180.851C231.01 181.06 231.037 180.997 231.134 181.115C230.827 179.487 230.752 181.463 230.278 180.206C230.518 180.166 230.576 180.044 230.53 179.651L229.945 179.461C229.972 179.397 230.27 179.235 230.489 179.408C229.746 179.072 229.372 177.267 228.724 177.047C228.809 176.863 229.36 176.963 229.472 176.716C229.352 175.992 228.913 175.645 228.563 175.263C228.69 174.653 228.131 173.58 228.289 173.726C227.877 172.497 227.952 173.647 227.226 172.946L227.447 173.94L226.531 172.335L227.101 172.891C226.887 172.048 226.165 171.499 225.734 170.635L225.635 171.186L224.994 170.298C225.526 169.944 224.484 168.951 225.406 169.22C224.749 167.212 223.381 166.445 222.468 164.839C222.63 165.137 222.652 164.924 222.776 164.979C222.403 163.993 221.806 163.498 221.242 163.094C221.456 163.118 221.678 163.291 221.766 163.258C221.146 162.157 221.108 162.735 220.211 161.586C220.644 161.783 220.701 161.658 220.564 161.299C220.418 161.458 220.074 161.227 219.918 161.081C221.48 161.416 219.548 159.426 220.768 159.533C220.528 159.573 218.943 157.963 218.822 158.724L219.075 158.989C218.838 159.178 218.697 158.67 218.471 158.342C218.63 158.49 218.788 158.636 218.877 158.602C217.541 157.104 216.671 155.073 215.234 153.304C215.42 153.389 216.084 154.063 215.88 153.524C214.857 151.499 213.523 150.82 212.059 149.115C212.676 148.575 213.474 151.094 214.159 150.736C212.689 148.879 211.091 146.965 209.192 145.063C209.595 143.683 207.329 143.252 207.043 141.411C206.813 141.753 206.245 141.197 205.669 140.491C206.096 140.536 205.549 139.767 205.887 139.846C205.11 139.418 203.644 137.713 204.267 137.328C203.61 137.625 203.242 135.969 202.414 135.819C202.014 134.891 200.954 134.264 200.334 133.163C200.268 133.802 199.42 132.379 198.927 132.155C199.051 132.209 199.271 132.385 199.234 132.294C199.273 131.716 198.049 131.459 197.749 130.802C197.673 130.471 198.136 130.607 197.813 130.163C197.578 130.353 196.012 129.199 195.92 128.413C196.112 128.648 196.23 128.553 196.507 128.604C195.215 127.499 194.044 126.296 192.901 125.034C192.297 124.39 191.755 123.773 191.124 123.19C190.493 122.604 189.835 122.085 189.149 121.624L189.94 121.686C188.981 119.688 188.314 121.321 187.205 120.148C186.473 119.294 185.677 118.413 184.945 117.562L182.622 114.946C181.067 113.275 179.393 111.698 177.608 110.369C177.272 110.29 177.62 110.673 177.538 110.856C177.312 110.531 177.507 110.101 176.955 109.999L176.816 110.306C175.738 108.406 171.974 106.998 171.564 105.102C169.769 104.287 169.164 102.824 166.789 101.971C166.338 101.32 167.796 102.054 167.041 101.416L164.999 100.489L165.122 100.546C163.986 100.253 163.007 99.2874 161.992 98.2331C160.977 97.1789 159.839 96.0671 158.545 95.6311L158.67 95.6859C158.816 95.53 158.52 95.0254 158.149 94.856C157.969 94.9233 158.161 95.1601 158.265 95.4279C156.124 94.3853 155.63 94.1609 154.015 93.2786C154.841 93.4319 153.534 92.6893 153.669 92.2291C153.088 92.1908 153.658 92.7465 152.641 92.359C151.3 91.5279 150.231 90.5982 149.194 89.757C148.558 89.8407 148.025 89.3732 147.767 89.7785C146.213 88.9262 145.29 88.6572 143.365 87.6355L143.359 87.4834C142.577 87.7255 141.856 86.3568 141.345 86.4953C141.491 86.3394 141.704 86.3606 141.759 86.2385L140.775 85.9395C141.265 86.0141 141.736 85.6326 141.048 85.1716C140.104 85.1157 141.122 85.5032 140.61 85.6442L140.649 85.0657C140.064 84.8751 139.626 85.3452 140.251 85.7789C138.298 84.8182 136.295 84.1344 134.619 83.2247L134.944 83.0015C133.897 82.6752 132.596 82.0872 132.151 81.5861C132.096 81.7107 131.792 81.7208 131.859 81.9004C130.611 81.857 131.78 81.4192 130.741 81.2448C131.015 81.296 131.292 81.3444 131.374 81.1613L128.828 80.5272C128.94 80.2803 127.678 79.1113 126.546 78.9734C126.43 79.068 126.653 79.3935 126.903 79.5055L126.227 79.3487L125.982 78.5672L124.832 78.6421L124.965 78.1822C124.228 77.9953 123.702 78.5015 123.172 78.1863C121.186 77.1371 121.639 77.1209 120.323 76.0765C119.779 76.9455 117.914 75.1347 117.296 75.6721C116.418 74.9767 115.124 74.5408 113.83 74.1023C112.475 73.6363 111.092 73.2314 109.734 72.7657L109.977 72.7281C108.913 71.948 108.471 73.085 107.231 72.5245L107.563 72.4534C106.816 71.9647 105.708 71.611 104.578 71.4703C103.446 71.3299 102.288 71.2503 101.467 71.2518C101.798 71.1781 101.725 70.8465 101.235 70.7744C100.753 70.8516 101.479 71.5534 100.675 71.1896C100.916 71.1497 100.815 70.8816 100.601 70.858L99.7859 71.009C97.6263 70.1792 95.0378 69.3048 92.6598 69.1183C92.2546 68.8604 92.6137 68.7257 92.7296 68.6311C91.8133 68.5142 90.8419 68.5193 89.8981 68.4633C89.0152 68.4349 88.0414 68.4402 87.2496 68.3779L87.1361 67.8058C86.2807 67.7163 86.5589 68.5863 85.499 67.9584C85.2521 67.8462 86.2295 67.9906 86.5551 67.7675C84.9863 67.2778 85.5114 68.26 83.9527 68.0747L84.4477 67.4798C83.2421 67.0103 82.9965 67.7172 82.555 68.035C80.7846 68.6475 81.4391 66.7126 79.0836 67.1321C78.6673 67.3916 79.1636 67.6157 78.8106 67.9C77.1909 67.6872 76.994 68.1199 75.3468 67.9682C74.4901 67.0597 76.1686 67.9692 75.2207 67.0919L76.4752 67.2898C75.4239 66.8112 77.4428 67.1324 77.2993 66.6215C76.5011 66.4072 75.2146 66.9424 74.1858 67.0697C74.1696 66.6159 75.4002 67.0246 74.9216 66.4375L74.3829 66.6395C74.5287 66.4812 74.5837 66.3591 74.8878 66.3465C74.6895 65.9602 74.2183 66.3417 73.7008 66.3307C73.6797 66.5438 73.692 66.8454 73.8542 67.1434C73.7932 67.1159 73.8204 67.0524 73.6983 66.9974C72.6585 67.6422 70.8804 67.2837 69.989 67.7725C70.1348 67.6141 69.9827 67.6204 69.9489 67.5294C69.343 67.5519 68.696 68.1531 67.9168 68.3949C67.4477 68.1072 68.1222 67.445 66.7346 67.7096C66.5649 68.0788 67.2259 68.6008 66.0452 68.737C66.0452 68.737 66.3133 68.6361 66.4315 68.5387C66.6386 68.4104 66.696 68.2881 66.4492 68.1759C65.3694 68.5801 66.1112 68.0975 65.0363 67.8322C64.5438 68.4269 63.9129 67.8436 63.9142 68.6627C63.4691 68.1642 63.5974 68.3712 62.8268 68.0958C63.1773 68.4784 61.6099 68.8078 61.7509 69.3189C61.3333 68.7594 62.7782 68.37 61.7881 67.9214C61.2596 68.4278 60.1186 68.802 60.1774 69.4988C59.6599 69.4877 59.4067 69.2235 58.6525 69.4045C58.8046 69.3982 58.8618 69.2734 58.9168 69.1513C57.7334 69.9518 55.761 70.0258 55.3122 71.0133C55.2435 70.0147 52.6378 71.8105 53.2933 70.6921C52.7547 70.8941 52.0802 71.5563 52.0318 71.833C51.821 71.1425 50.7387 72.2136 49.9744 72.0903C49.841 72.5503 48.8796 72.8572 48.5031 73.3573C48.6789 73.1376 48.7613 72.9545 48.5754 72.8698C48.083 73.4645 48.1614 73.1265 47.4309 73.0943C46.6953 73.729 47.8424 73.5043 47.4995 74.0929C46.7178 74.335 47.1515 73.7101 46.9296 73.5371L46.2465 74.7166C46.0057 74.7539 45.7927 74.7327 45.6068 74.648C45.3486 75.0507 45.2153 75.5107 44.6068 75.5334L45.4671 74.9559L44.9161 74.8563L44.1355 75.915C42.5408 76.3079 42.506 75.4004 42.1728 74.6525L42.699 74.1488C42.5682 73.9421 42.0568 74.0805 41.7613 74.2424C41.3661 74.2888 42.2862 72.9198 42.9034 72.3824C44.7709 71.219 43.7412 72.8347 45.1165 72.2685L46.5878 71.0016L46.7161 71.2086C47.0815 71.226 47.0989 70.8606 47.1264 70.7996C47.1662 71.0401 47.5553 70.8442 47.9693 70.5874C48.4467 70.3554 48.9518 70.0649 49.3108 69.9302L48.8781 69.7333C49.6961 68.9155 50.6026 68.7306 51.4516 68.668C52.2982 68.6057 53.0925 68.6677 53.8318 68.1852C54.1235 67.871 54.4788 67.5841 54.798 67.2088L55.2096 67.6188C55.7994 67.1425 55.8417 66.7163 57.0224 66.58C57.5673 66.5301 58.0512 66.4527 58.5961 66.4027C59.1408 66.3502 59.6247 66.2728 60.1971 66.1618C61.2531 65.9709 62.2754 65.6889 63.334 65.4977C64.3903 65.3093 65.4126 65.0273 66.5024 64.9274C67.531 64.7975 68.5934 64.7586 69.6283 64.7808C69.5947 64.6922 69.5309 64.6625 69.3789 64.6688C71.1297 65.0909 72.4225 64.7078 73.7766 64.3547C75.1307 64.0016 76.5123 63.5874 78.1146 64.1656L77.8801 64.355C79.5484 64.2936 77.6433 64.5471 78.8427 64.8646C79.0945 64.3098 80.955 64.4852 81.9226 64.3278C81.8041 64.4226 81.4387 64.4053 81.1681 64.5064C81.3265 64.6521 81.3726 65.0448 81.8565 64.9673C82.9486 64.1981 85.3016 64.4454 86.9699 64.3841C87.1407 64.8314 88.5574 65.3274 89.1944 66.0602C89.4014 65.9318 89.7269 65.7086 90.0822 65.4216C90.6733 65.7643 91.0934 65.6571 91.632 65.4551C91.081 65.3555 90.6546 65.3106 90.2892 65.2933L90.3167 65.2322C90.2282 65.2658 90.1644 65.236 90.0759 65.2696C89.7108 65.2547 89.4949 65.2312 89.6195 65.286C89.0223 64.7938 89.6981 64.9506 89.7405 64.5244C90.2917 64.6265 91.4787 64.6423 91.5248 65.035C91.8627 65.1134 92.0486 65.1981 92.3865 65.2765C92.6271 65.2367 92.8404 65.2603 93.0898 65.3723L92.9988 65.4061C93.0323 65.4946 93.0933 65.5221 93.1296 65.6129C94.1472 66.0004 95.7718 65.5462 96.7094 65.4501C95.7207 65.8206 96.7682 66.1468 96.7233 66.5732C96.8118 66.5397 95.7394 66.2742 94.4215 66.0516C94.5461 66.1063 94.5799 66.1973 94.586 66.3469C95.6436 66.9775 96.6832 66.3301 98.2583 66.9718C98.1698 67.0054 97.9264 67.043 97.9327 67.195C98.4901 67.4467 99.1197 67.2109 99.2932 66.994C99.3393 67.3866 100.549 68.0084 101.218 68.0132C101.848 67.7799 101.842 67.6278 102.826 67.9243L102.314 68.0653C103.365 68.5414 103.404 67.9629 104.147 68.3018C103.873 68.2506 103.849 68.4639 104.099 68.5759C105.381 68.7103 105.435 68.5857 106.485 68.2452L106.23 68.6477C107.326 68.6998 109.423 68.6831 109.293 69.2928C109.225 68.2943 111.701 69.4181 112.594 69.7484C112.258 69.6697 112.174 69.8556 112.116 69.9779C114.213 69.9611 115.905 71.1748 117.811 71.7403L117.903 72.5255C118.887 72.822 119.631 71.6726 120.712 72.0874L120.201 72.2284C122.169 72.8239 122.912 73.1603 124.398 73.833L124.204 74.2655C124.81 74.243 125.492 74.5519 126.159 74.5569C126.95 76.1049 131.351 75.9431 133.022 78.1864L133.509 77.4422C134.376 77.8333 135.573 78.1535 135.666 78.9387L135.48 78.854C135.137 79.4451 136.345 79.2478 136.784 79.5968C137.067 79.7973 137.697 79.5615 137.38 79.27ZM92.7869 68.5063C92.5102 68.4579 92.3579 68.4617 92.2084 68.4678C92.3579 68.4617 92.5738 68.4851 92.7869 68.5063ZM94.3031 68.4512C94.0901 68.4301 93.9741 68.5247 94.0414 68.7042C94.3793 68.7826 94.7447 68.8 94.9916 68.9122C94.7109 68.709 94.1872 68.5458 94.3031 68.4512ZM91.2543 65.1361C91.2205 65.0451 91.1259 64.9291 90.7605 64.9117C90.6695 64.9455 90.642 65.0065 90.5873 65.1311L90.6145 65.0675C90.9189 65.0575 91.132 65.0786 91.2543 65.1361ZM239.997 204.694C239.963 204.606 239.963 204.606 239.997 204.694V204.694ZM240.187 205.598C240.241 205.473 240.147 205.357 240.14 205.205C240.077 205.178 240.043 205.087 239.948 204.968C239.908 204.728 239.841 204.548 239.738 204.28C239.356 203.809 239.396 204.05 239.332 204.022C239.396 204.05 239.231 203.752 239.033 203.366C238.835 202.977 238.514 202.535 238.35 202.238C238.136 202.214 238.402 202.782 238.921 203.612C239.25 204.205 239.796 204.975 240.187 205.598ZM240.553 201.822C240.431 201.767 240.215 201.743 239.94 201.692C239.913 201.756 239.913 201.756 239.947 201.844C239.947 201.844 239.947 201.844 240.008 201.872C240.16 201.868 240.312 201.862 240.553 201.822ZM239.909 200.937C239.945 201.025 239.945 201.025 239.979 201.116C240.095 201.019 240.034 200.992 239.909 200.937ZM239.802 200.514C239.775 200.578 239.836 200.605 239.808 200.666C239.869 200.694 239.933 200.724 240.085 200.717C240.265 200.65 240.015 200.538 239.802 200.514ZM242.29 201.121C242.138 201.127 242.08 201.249 241.958 201.194C241.958 201.194 242.08 201.249 242.296 201.273C242.262 201.182 242.29 201.121 242.29 201.121ZM239.49 199.556C239.594 199.824 239.667 200.155 239.829 200.453C240.197 200.471 240.432 200.279 240.307 200.224C239.972 200.145 239.82 200.152 239.874 200.027L240.151 200.078C240.419 199.977 239.716 199.881 239.987 199.78C239.895 199.814 240.172 199.865 240.263 199.831C240.014 199.719 239.892 199.662 239.49 199.556ZM239.706 199.577C239.581 199.522 239.456 199.465 239.423 199.376C239.456 199.465 239.456 199.465 239.49 199.556L239.706 199.577ZM239.322 199.106C239.383 199.136 239.474 199.102 239.535 199.13C239.447 199.163 239.383 199.136 239.322 199.106ZM211.4 183.331C211.4 183.331 211.436 183.419 211.497 183.447L211.4 183.331ZM130.762 81.0317C130.701 81.0042 130.61 81.038 130.488 80.9805C130.61 81.038 130.674 81.0652 130.762 81.0317ZM69.3852 64.8209C69.3241 64.7934 69.2629 64.7634 69.1718 64.7972C69.2356 64.8269 69.3241 64.7934 69.3852 64.8209ZM90.0187 65.3944C89.9576 65.3669 89.9302 65.4279 89.8666 65.4007C89.9302 65.4279 89.9912 65.4554 90.086 65.5739C90.116 65.5127 90.2045 65.4791 90.2318 65.4155C90.1432 65.4491 90.0822 65.4216 90.0187 65.3944ZM238.779 198.489C238.718 198.462 238.752 198.553 238.779 198.489V198.489ZM124.832 78.6421L124.886 78.5176L124.646 78.5574L124.832 78.6421ZM234.514 198.193C234.48 198.102 234.508 198.041 234.444 198.014C234.417 198.075 234.48 198.102 234.514 198.193ZM230.869 195.202L230.326 194.586C230.582 194.847 230.774 195.084 230.869 195.202ZM227.629 192.469C227.541 192.503 227.513 192.564 227.422 192.598L227.629 192.469ZM218.471 158.342C218.41 158.314 218.438 158.253 218.377 158.226C218.123 157.962 218.279 158.108 218.471 158.342ZM228.624 175.293C228.468 175.147 228.309 174.999 228.179 174.792C228.252 175.123 228.356 175.394 228.624 175.293ZM205.73 140.519C205.669 140.491 205.697 140.43 205.635 140.4L205.73 140.519ZM227.721 173.989C227.797 174.32 227.898 174.591 228.09 174.825C228.078 174.524 227.94 174.165 227.721 173.989ZM212.007 182.489L211.977 182.551L212.193 182.571L212.007 182.489ZM211.703 182.499C211.828 182.557 211.889 182.584 211.916 182.523L211.703 182.499ZM211.241 182.366L211.703 182.499C211.517 182.415 211.359 182.269 211.241 182.366ZM217.077 185.456C217.016 185.429 216.989 185.49 216.961 185.551L217.077 185.456ZM218.452 186.376C218.11 186.145 217.781 185.552 217.196 185.361L217.077 185.456C217.439 185.321 217.97 186.456 218.452 186.376ZM223.26 191.903L222.163 191.032C222.264 191.303 222.401 191.662 221.844 191.41C222.993 192.823 221.791 190.865 223.26 191.903ZM226.652 194.63C225.997 194.26 226.479 194.849 226.387 194.881C226.911 195.044 227.033 195.101 226.652 194.63ZM235.76 188.196L236.182 188.088C235.95 187.611 236.037 188.247 235.76 188.196ZM231.555 183.315L231.489 183.954L231.951 184.088L231.555 183.315ZM232.662 178.237L233.052 178.861L233.18 179.068C232.991 178.831 232.826 178.535 232.662 178.237ZM205.107 133.17L204.822 133.634C205.163 133.865 205.671 133.574 205.107 133.17ZM189.035 116.439C189.05 116.077 188.695 115.542 188.235 115.408C188.583 115.789 188.815 116.266 189.035 116.439ZM131.724 76.9316L132.096 77.0985L132.613 77.1096L131.724 76.9316ZM252.089 172.088L252.019 171.909C251.924 171.793 251.613 171.651 251.647 171.742L252.089 172.088ZM251.498 171.748C251.126 171.579 251.035 171.613 251.261 171.938C251.136 171.883 251.041 171.765 250.98 171.737C251.172 171.971 251.486 172.263 251.953 172.549C251.577 172.229 251.763 172.314 251.288 171.877C251.254 171.786 251.504 171.898 251.66 172.044C251.531 171.837 251.778 171.949 251.498 171.748ZM245.39 178.798C245.453 178.828 245.426 178.889 245.487 178.916C245.514 178.855 245.453 178.828 245.39 178.798ZM247.346 175.965L247.133 175.944C247.319 176.029 247.257 175.999 247.346 175.965ZM251.64 173.076C251.64 173.076 251.606 172.987 251.545 172.96L251.579 173.048C251.606 172.987 251.64 173.076 251.64 173.076ZM247.742 174.436C247.709 174.345 247.645 174.317 247.584 174.287L247.742 174.436ZM248.809 173.727C248.651 173.581 248.59 173.554 248.527 173.527C248.465 173.497 248.341 173.442 248.218 173.385C248.218 173.385 248.624 173.642 248.809 173.727ZM243.208 206.669C243.269 206.696 243.269 206.696 243.296 206.635L243.208 206.669ZM243.735 179.983C243.674 179.955 243.701 179.891 243.735 179.983V179.983ZM241.756 189.946C241.543 189.924 241.077 189.636 240.833 189.677C241.229 189.633 241.302 189.962 241.756 189.946ZM244.351 180.931C244.26 180.965 244.288 180.904 244.351 180.931V180.931ZM243.238 183.552C243.147 183.585 243.147 183.585 243.238 183.552V183.552ZM242.969 203.735C242.817 203.741 242.729 203.775 242.577 203.781C242.881 203.768 243.037 203.914 242.969 203.735ZM251.579 173.048C251.545 172.96 251.481 172.93 251.42 172.903C251.545 172.96 251.579 173.048 251.579 173.048ZM243.307 196.896C243.37 196.926 243.37 196.926 243.307 196.896V196.896ZM246.474 185.463C246.322 185.469 246.2 185.412 246.108 185.446C246.172 185.475 246.172 185.475 246.233 185.503L246.474 185.463ZM250.099 174.833L250.312 174.856C250.187 174.799 250.099 174.833 250.099 174.833ZM250.543 174.512C250.479 174.485 250.418 174.457 250.384 174.366L250.543 174.512ZM247.163 182.131C247.227 182.158 247.288 182.188 247.163 182.131V182.131ZM247.208 179.4C247.269 179.427 247.305 179.518 247.366 179.545C247.455 179.512 247.455 179.512 247.208 179.4ZM246.692 184.82C246.665 184.881 246.665 184.881 246.692 184.82V184.82ZM247.309 179.668C247.4 179.634 247.4 179.634 247.366 179.545C247.339 179.606 247.275 179.579 247.309 179.668ZM251.925 172.612C251.864 172.582 251.864 172.582 251.925 172.612V172.612ZM251.831 172.494L251.925 172.612C251.925 172.612 251.953 172.549 251.831 172.494ZM251.287 173.363C251.375 173.329 251.686 173.469 251.591 173.353L251.467 173.295C251.713 173.408 251.095 173.128 251.287 173.363ZM249.082 172.959L249.262 172.892C249.076 172.807 248.89 172.723 248.857 172.634C248.306 172.532 249.228 172.801 249.082 172.959ZM248.55 173.313C248.544 173.161 248.301 173.201 248.267 173.11C248.334 173.29 248.398 173.317 248.55 173.313ZM246.129 176.677C246.163 176.768 246.251 176.735 246.501 176.847L246.129 176.677ZM248.363 178.658L248.022 178.429L248.089 178.609L248.363 178.658ZM243.087 184.374C243.054 184.286 242.469 184.095 242.564 184.214L243.087 184.374ZM241.959 187.36C241.987 187.299 242.2 187.32 242.166 187.232C241.953 187.208 241.712 187.248 241.959 187.36Z" fill="#202020"/>
</g>
</svg>
