<svg width="75" height="42" viewBox="0 0 75 42" fill="none" xmlns="http://www.w3.org/2000/svg">
<path d="M18.6802 22.0225C17.4663 26.7216 13.6703 29.0776 7.29113 29.0915L5.95815 41.0917C5.91671 41.4302 5.74059 41.6063 5.42979 41.6201L0.985371 41.8549C0.674572 41.8247 0.519173 41.6909 0.519173 41.4509L4.17969 9.42825C4.23667 9.13126 4.42142 8.96896 4.73222 8.94133C7.37056 8.70219 9.88889 8.58218 12.2881 8.58218C17.0554 8.58218 19.4399 10.8683 19.4399 15.4405C19.4399 17.9364 19.1861 20.1301 18.6802 22.0225ZM9.02815 13.5135L7.82295 24.2016C10.2627 24.2016 11.9056 23.6939 12.7508 22.6786C13.5978 21.6616 14.0217 19.6863 14.0217 16.7527C14.0217 15.6226 13.7178 14.7904 13.11 14.256C12.5039 13.7199 11.7287 13.4514 10.7824 13.4514C9.83796 13.4514 9.25348 13.4721 9.02815 13.5135Z" fill="#55295C"/>
<path d="M29.5143 41.3231L29.6835 39.6932C27.9776 41.2316 26.0446 42 23.8854 42C22.2623 42 21.0657 41.4086 20.2974 40.225C19.5281 39.0396 19.144 37.5582 19.144 35.7806C19.144 35.4836 19.1716 35.0813 19.2268 34.5719L21.2401 16.8564C21.2816 16.5179 21.4577 16.3418 21.7685 16.328L26.0437 16.1588C26.3407 16.1864 26.4892 16.3349 26.4892 16.6043L24.5829 33.3011C24.5415 33.6697 24.5208 34.009 24.5208 34.3198C24.5208 35.5034 24.7496 36.2934 25.208 36.6888C25.6656 37.0851 26.3562 37.2828 27.28 37.2828C28.2055 37.2828 29.1189 37.1058 30.0219 36.7509L32.2666 16.8564C32.308 16.5179 32.4841 16.3418 32.7949 16.328L37.0702 16.1795C37.3671 16.2071 37.5156 16.3556 37.5156 16.625L34.7633 41.1125C34.7219 41.4509 34.532 41.6339 34.1935 41.6616L30.0634 41.855C29.6973 41.8386 29.5143 41.6616 29.5143 41.3231Z" fill="#55295C"/>
<path d="M46.5494 6.52743L42.6575 41.1124C42.6298 41.311 42.5798 41.4526 42.509 41.5372C42.4373 41.6201 42.3026 41.6684 42.1049 41.6822L37.8539 41.8549C37.5431 41.8247 37.3877 41.6909 37.3877 41.4509L41.3038 6.67592C41.3314 6.47822 41.3797 6.3375 41.4488 6.25462C41.5196 6.17001 41.6543 6.11994 41.8528 6.10613L46.0003 5.95763C46.3663 5.99907 46.5494 6.18901 46.5494 6.52743Z" fill="#55295C"/>
<path d="M56.8568 21.1108L54.4671 21.0072C53.7877 21.0072 53.2533 21.1626 52.8648 21.4734C52.478 21.7825 52.2846 22.2297 52.2846 22.8168C52.2846 23.4021 52.3899 24.0462 52.6023 24.7506C52.8855 25.6968 53.3758 26.7984 54.0734 28.0555C54.7727 29.3107 55.2562 30.1991 55.5238 30.7214C56.3431 32.3445 56.7532 33.8898 56.7532 35.3558C56.7532 37.4856 56.1281 39.1259 54.878 40.2768C53.6297 41.4259 51.7364 42 49.1973 42C47.9403 42 46.9371 41.9326 46.1895 41.7997C45.441 41.6667 45.0274 41.5614 44.9497 41.4854C44.8738 41.4077 44.8358 41.2834 44.8358 41.1125L45.3849 37.1964C45.4142 36.8442 45.5385 36.668 45.7578 36.668C45.9762 36.668 46.395 36.7466 47.0148 36.9029C47.6364 37.0574 48.1795 37.1342 48.6448 37.1342C50.3663 37.1342 51.2279 36.4496 51.2279 35.0795C51.2279 34.1057 51.019 33.1966 50.6028 32.3514C50.1858 31.5045 49.7335 30.6299 49.2457 29.7269C48.7596 28.8221 48.3823 28.0986 48.113 27.5547C47.8454 27.0117 47.5674 26.2615 47.2773 25.3032C46.9889 24.3431 46.8456 23.4401 46.8456 22.5923C46.8456 20.617 47.4344 19.0233 48.6137 17.8095C49.7922 16.5965 51.5093 15.9896 53.7661 15.9896C55.2208 15.9896 56.3569 16.0603 57.1745 16.2002C57.5267 16.2581 57.7029 16.4419 57.7029 16.7527L57.2367 20.5203C57.2367 20.914 57.1098 21.1108 56.8568 21.1108Z" fill="#55295C"/>
<path d="M58.8347 37.8007C58.5032 36.9607 58.277 36.1285 58.1578 35.304C58.0378 34.4778 57.9783 33.3451 57.9783 31.9059C57.9783 30.4676 58.1337 28.6891 58.4445 26.5705C59.4736 19.5171 62.6757 15.9896 68.0516 15.9896C70.1253 15.9896 71.713 16.7027 72.8137 18.1272C73.9136 19.5525 74.4644 21.4009 74.4644 23.6732C74.4644 25.9455 74.3237 28.1539 74.0431 30.2967C73.9991 30.6791 73.7807 30.8768 73.387 30.8906L62.9303 31.2498C62.9165 31.4622 62.9096 31.7436 62.9096 32.0958C62.9096 33.6913 63.1876 34.9552 63.7453 35.8876C64.3022 36.8183 65.1448 37.2827 66.2731 37.2827C67.4032 37.2827 68.4505 37.117 69.4157 36.7855C70.3826 36.4539 70.9498 36.2882 71.1182 36.2882C71.2882 36.2882 71.4367 36.3452 71.5636 36.4574C71.6923 36.5705 71.757 36.725 71.757 36.9201L71.3323 40.6463C71.3184 40.8586 71.2787 40.9968 71.2148 41.0607C71.1527 41.1228 71.0292 41.1902 70.8453 41.261C69.1394 41.7539 67.4956 42 65.914 42C64.3341 42 63.1073 41.81 62.2328 41.4302C61.3573 41.0486 60.6555 40.5582 60.1262 39.9591C59.5962 39.3582 59.1662 38.639 58.8347 37.8007ZM63.438 25.9386L63.248 27.2923L68.7734 27.016C69.0125 27.0022 69.167 26.9599 69.2361 26.8882C69.4476 26.6767 69.5538 26.0957 69.5538 25.1443C69.5538 24.1912 69.521 23.5212 69.4571 23.1345C69.3949 22.746 69.2862 22.3463 69.1325 21.9362C68.8079 21.034 68.2536 20.5825 67.4714 20.5825C66.6884 20.5825 66.0703 20.7163 65.617 20.9831C64.6156 21.6047 63.8886 23.2571 63.438 25.9386Z" fill="#55295C"/>
<path fill-rule="evenodd" clip-rule="evenodd" d="M62.763 3.9999C62.9653 4.18998 63.1852 4.35973 63.4197 4.50677C63.4421 4.52715 63.4683 4.54281 63.4968 4.55281C63.5252 4.56281 63.5554 4.56696 63.5854 4.56502C63.6155 4.56308 63.6448 4.55509 63.6718 4.54151C63.6988 4.52794 63.7228 4.50905 63.7425 4.48594C63.7622 4.46284 63.7771 4.43599 63.7865 4.40696C63.7958 4.37794 63.7994 4.34731 63.7969 4.31687C63.7944 4.28644 63.786 4.25681 63.7722 4.2297C63.7583 4.2026 63.7392 4.17858 63.7161 4.15903C63.5593 4.01742 63.4136 3.86372 63.2803 3.69931C63.2243 3.62772 63.1881 3.54226 63.1756 3.45176L63.2744 3.29852C63.3795 3.13585 63.5208 3.00056 63.687 2.90363C63.8797 2.7875 64.0897 2.7039 64.3088 2.65609L64.5587 2.61483C64.5587 2.61483 64.5122 2.67377 64.4948 2.70913C64.2304 3.16429 64.0345 3.65696 63.9137 4.17082C63.8609 4.36878 63.8599 4.57729 63.9108 4.77575C63.9618 4.97421 64.0629 5.15575 64.2042 5.30244L64.6517 5.76806C64.7996 5.92163 64.986 6.03133 65.1908 6.08534C65.3956 6.13935 65.6111 6.13562 65.814 6.07454C66.3248 5.93633 66.8124 5.7218 67.261 5.438C67.3074 5.438 67.3481 5.37317 67.3946 5.3496L67.3423 5.65018C67.2952 5.87242 67.2127 6.08541 67.0982 6.28083C67.0005 6.45798 66.8632 6.60939 66.6973 6.72287L66.5462 6.82307C66.4569 6.81039 66.3727 6.77377 66.3021 6.71698C66.1413 6.58017 65.9899 6.43249 65.8488 6.27494C65.8092 6.23008 65.7537 6.20281 65.6945 6.19898C65.6352 6.19516 65.5768 6.21509 65.5319 6.25448C65.4869 6.29388 65.459 6.34959 65.4542 6.40963C65.4494 6.46967 65.4679 6.52924 65.506 6.57552C65.6509 6.81339 65.8183 7.03643 66.0057 7.24153C66.1199 7.35322 66.2597 7.43426 66.4125 7.47729C66.5197 7.50089 66.6307 7.50089 66.7379 7.47729C66.8694 7.4503 66.9952 7.40045 67.1099 7.32994C67.3821 7.16571 67.6051 6.92935 67.7549 6.64625C67.8559 6.36515 67.9033 6.06711 67.8944 5.76806L67.8479 5.17867C67.845 5.14337 67.845 5.10789 67.8479 5.07258C68.2314 4.80033 68.579 4.47946 68.8823 4.11777C69.3515 3.53474 69.6692 2.84172 69.8063 2.10206C69.8503 1.77746 69.8503 1.44828 69.8063 1.12368C69.7975 0.828532 69.6887 0.545467 69.4983 0.322109C69.2929 0.142122 69.0366 0.0327634 68.7661 0.00973341C68.4475 -0.0132748 68.1272 0.00454738 67.813 0.0627784C67.0919 0.225205 66.4213 0.565278 65.8604 1.05295C65.5016 1.36877 65.1833 1.72917 64.9132 2.12564H64.8493L64.2682 2.05491C63.9575 2.05289 63.6494 2.11297 63.3616 2.23173C63.0695 2.38195 62.8271 2.6155 62.6643 2.90363C62.598 3.01669 62.5509 3.14021 62.5248 3.26905C62.5014 3.37581 62.5014 3.48646 62.5248 3.59322C62.5719 3.74576 62.6535 3.88502 62.763 3.9999ZM66.2498 1.54804C66.7436 1.16287 67.3217 0.904087 67.9351 0.79362C68.1384 0.758029 68.3449 0.7442 68.5511 0.752363C68.6938 0.740292 68.8365 0.775447 68.9578 0.852559C69.0393 0.980039 69.0761 1.13156 69.0624 1.28281C69.0764 1.49739 69.0666 1.71287 69.0334 1.92525C68.9475 2.54931 68.7076 3.14128 68.336 3.64626C67.9501 4.16269 67.4733 4.6023 66.9297 4.94292C66.5399 5.21455 66.1132 5.427 65.6629 5.57356C65.5461 5.61672 65.4203 5.628 65.2979 5.60627C65.1755 5.58455 65.0609 5.53059 64.9655 5.44979L64.4948 4.99596C64.4112 4.89442 64.3553 4.77235 64.3329 4.642C64.3104 4.51166 64.3222 4.37762 64.367 4.25333C64.5127 3.7968 64.7263 3.36551 65.0004 2.97436C65.3363 2.43012 65.7653 1.95109 66.2672 1.55983L66.2498 1.54804Z" fill="#E3D9E5"/>
<path fill-rule="evenodd" clip-rule="evenodd" d="M62.0367 6.28678C62.0917 6.32733 62.1524 6.35913 62.2169 6.38109L62.1704 6.44592C61.9419 6.72615 61.7468 7.03279 61.5893 7.35947C61.5087 7.56771 61.4924 7.79589 61.5428 8.01369C61.5621 8.07424 61.5961 8.12893 61.6416 8.17283C61.6854 8.2182 61.7392 8.25252 61.7985 8.27302C62.0361 8.34995 62.2926 8.34163 62.5249 8.24945C62.8452 8.08974 63.1456 7.89189 63.4198 7.66006L63.4837 7.61291C63.5065 7.67963 63.5377 7.74304 63.5767 7.80151C63.637 7.92502 63.7419 8.02025 63.8695 8.06744C63.9972 8.11463 64.1379 8.11015 64.2624 8.05495C64.5087 7.92451 64.696 7.70289 64.7854 7.43609C64.8487 7.24665 64.8724 7.04594 64.8552 6.8467C64.8343 6.59115 64.7974 6.3372 64.7448 6.08639C64.7413 6.05647 64.7318 6.02759 64.7168 6.00158C64.7018 5.97557 64.6817 5.95299 64.6577 5.93527C64.6336 5.91755 64.6062 5.90507 64.5772 5.89862C64.5482 5.89217 64.5182 5.89188 64.4891 5.89779C64.46 5.90141 64.4319 5.91088 64.4064 5.92563C64.381 5.94039 64.3586 5.96014 64.3408 5.98373C64.3229 6.00732 64.3099 6.03428 64.3024 6.06304C64.295 6.0918 64.2932 6.12177 64.2973 6.15122C64.3298 6.38361 64.3473 6.6179 64.3496 6.8526C64.3506 6.98363 64.3269 7.11365 64.2799 7.2357C64.2799 7.28874 64.152 7.3359 64.0939 7.38894L64.0648 6.99994C64.0378 6.90386 63.9743 6.82259 63.8882 6.77397C63.8021 6.72535 63.7005 6.71335 63.6058 6.74061L63.443 6.79955L63.0188 7.04709C62.8794 7.1355 62.676 7.28285 62.4377 7.40073H62.4086C62.5153 7.19741 62.6337 7.00061 62.7631 6.81134L63.0014 6.3693C63.0249 6.31792 63.0444 6.2647 63.0595 6.21016C63.0622 6.19259 63.0622 6.17469 63.0595 6.15712C63.0715 6.11165 63.0737 6.06411 63.0661 6.01768C63.0585 5.97126 63.0411 5.92703 63.0153 5.88795C62.9894 5.84888 62.9556 5.81587 62.9161 5.79113C62.8766 5.7664 62.8324 5.75052 62.7864 5.74455L62.368 5.76812C62.368 5.76812 62.368 5.73865 62.3331 5.76812C62.2982 5.79759 62.3331 5.82706 62.3331 5.82117C62.3331 5.81527 62.49 5.62667 62.5772 5.5913C62.6988 5.53966 62.8289 5.51167 62.9607 5.50879C63.192 5.50922 63.423 5.52497 63.6522 5.55594C63.6782 5.56011 63.7048 5.55897 63.7303 5.5526C63.7559 5.54622 63.7799 5.53474 63.801 5.51882C63.8221 5.5029 63.8399 5.48286 63.8533 5.45988C63.8666 5.43691 63.8753 5.41146 63.8789 5.38502C63.8858 5.35526 63.8861 5.32431 63.8798 5.29442C63.8734 5.26453 63.8606 5.23644 63.8423 5.21218C63.8239 5.18793 63.8005 5.16811 63.7736 5.15417C63.7468 5.14023 63.7172 5.13252 63.6871 5.13158C63.4414 5.07901 63.1931 5.03966 62.9433 5.0137C62.7473 4.99777 62.5501 5.01977 62.3621 5.07854C62.1133 5.17509 61.9071 5.35918 61.781 5.5972C61.7287 5.72352 61.7261 5.86534 61.7737 5.99356C61.8212 6.12179 61.9153 6.2267 62.0367 6.28678Z" fill="#E3D9E5"/>
<mask id="mask0_2033_231" style="mask-type:luminance" maskUnits="userSpaceOnUse" x="0" y="30" width="8" height="10">
<path d="M0 30.0211H7.95645V39.5247H0V30.0211Z" fill="white"/>
</mask>
<g mask="url(#mask0_2033_231)">
<mask id="mask1_2033_231" style="mask-type:luminance" maskUnits="userSpaceOnUse" x="-1" y="28" width="10" height="14">
<path d="M2.57792 28.6208L8.89232 30.6436L5.55382 41.0623L-0.759712 39.0395L2.57792 28.6208Z" fill="white"/>
</mask>
<g mask="url(#mask1_2033_231)">
<mask id="mask2_2033_231" style="mask-type:luminance" maskUnits="userSpaceOnUse" x="-1" y="28" width="10" height="14">
<path d="M2.57792 28.6208L8.89232 30.6436L5.55382 41.0623L-0.759712 39.0395L2.57792 28.6208Z" fill="white"/>
</mask>
<g mask="url(#mask2_2033_231)">
<path d="M0.228787 39.2363C-0.113955 37.0227 2.57618 35.8219 4.16298 35.0354C6.07699 34.1116 7.39097 32.915 7.41342 30.6971C7.42378 30.5391 7.4091 30.3319 7.3832 30.1619C8.33805 31.6002 7.88912 33.8837 6.50088 34.9352C4.80962 36.1732 2.67115 36.661 1.08003 38.0933C0.719158 38.4628 0.309077 38.8573 0.425626 39.3796" fill="#E3D9E5"/>
</g>
</g>
</g>
<mask id="mask3_2033_231" style="mask-type:luminance" maskUnits="userSpaceOnUse" x="37" y="25" width="9" height="11">
<path d="M37.7931 25.8219H45.9706V35.3254H37.7931V25.8219Z" fill="white"/>
</mask>
<g mask="url(#mask3_2033_231)">
<mask id="mask4_2033_231" style="mask-type:luminance" maskUnits="userSpaceOnUse" x="36" y="24" width="11" height="13">
<path d="M40.3287 24.2601L46.8011 26.3339L43.4125 36.9105L36.9401 34.8368L40.3287 24.2601Z" fill="white"/>
</mask>
<g mask="url(#mask4_2033_231)">
<mask id="mask5_2033_231" style="mask-type:luminance" maskUnits="userSpaceOnUse" x="36" y="24" width="11" height="13">
<path d="M40.3287 24.2601L46.8011 26.3339L43.4125 36.9105L36.9401 34.8368L40.3287 24.2601Z" fill="white"/>
</mask>
<g mask="url(#mask5_2033_231)">
<path d="M37.9252 35.12C37.5755 32.8555 40.3269 31.6269 41.95 30.8232C43.908 29.8778 45.2522 28.6536 45.2756 26.3848C45.2859 26.2234 45.2712 26.0118 45.2436 25.8374C46.2209 27.3086 45.7625 29.6447 44.3414 30.7204C42.6122 31.9869 40.4245 32.486 38.7971 33.9502C38.4276 34.3283 38.008 34.7323 38.1263 35.2667" fill="#E3D9E5"/>
</g>
</g>
</g>
<mask id="mask6_2033_231" style="mask-type:luminance" maskUnits="userSpaceOnUse" x="62" y="32" width="10" height="10">
<path d="M62.7676 32.2312H71.3871V41.2927H62.7676V32.2312Z" fill="white"/>
</mask>
<g mask="url(#mask6_2033_231)">
<mask id="mask7_2033_231" style="mask-type:luminance" maskUnits="userSpaceOnUse" x="60" y="31" width="14" height="12">
<path d="M60.6713 37.3991L63.6049 31.2686L73.623 36.0618L70.6894 42.1923L60.6713 37.3991Z" fill="white"/>
</mask>
<g mask="url(#mask7_2033_231)">
<mask id="mask8_2033_231" style="mask-type:luminance" maskUnits="userSpaceOnUse" x="60" y="31" width="14" height="12">
<path d="M60.6713 37.3991L63.6049 31.2686L73.623 36.0618L70.6894 42.1923L60.6713 37.3991Z" fill="white"/>
</mask>
<g mask="url(#mask8_2033_231)">
<path d="M71.1029 41.2548C68.8125 41.2945 67.969 38.4015 67.3931 36.6843C66.7232 34.6158 65.6924 33.1179 63.4477 32.7872C63.2889 32.7544 63.0773 32.7406 62.9012 32.7441C64.4915 31.9757 66.743 32.7475 67.6159 34.3007C68.6355 36.187 68.8332 38.4213 70.0634 40.2335C70.388 40.6504 70.7308 41.1201 71.2764 41.0761" fill="#E3D9E5"/>
</g>
</g>
</g>
<mask id="mask9_2033_231" style="mask-type:luminance" maskUnits="userSpaceOnUse" x="48" y="9" width="13" height="4">
<path d="M48.4017 9.02491H60.3364V12.1191H48.4017V9.02491Z" fill="white"/>
</mask>
<g mask="url(#mask9_2033_231)">
<mask id="mask10_2033_231" style="mask-type:luminance" maskUnits="userSpaceOnUse" x="48" y="4" width="13" height="12">
<path d="M58.0425 4.52178L60.9752 10.6523L50.958 15.4455L48.0244 9.31499L58.0425 4.52178Z" fill="white"/>
</mask>
<g mask="url(#mask10_2033_231)">
<mask id="mask11_2033_231" style="mask-type:luminance" maskUnits="userSpaceOnUse" x="48" y="4" width="13" height="12">
<path d="M58.0425 4.52178L60.9752 10.6523L50.958 15.4455L48.0244 9.31499L58.0425 4.52178Z" fill="white"/>
</mask>
<g mask="url(#mask11_2033_231)">
<path d="M48.4949 10.2258C49.9004 8.41713 52.6829 9.57572 54.382 10.2042C56.4125 10.9804 58.2255 11.1176 59.8917 9.57744C60.0169 9.47384 60.1602 9.31758 60.2682 9.17859C59.8684 10.8992 57.8551 12.1683 56.0974 11.873C53.9892 11.4845 52.1252 10.2362 49.9427 10.0575C49.4144 10.048 48.8333 10.0203 48.526 10.4727" fill="#E3D9E5"/>
</g>
</g>
</g>
</svg>
