<svg width="554" height="237" viewBox="0 0 554 237" fill="none" xmlns="http://www.w3.org/2000/svg">
<path d="M246.424 45.0205C255.768 42.1806 265.288 40.1704 274.983 38.9832C284.722 37.7929 294.49 37.4964 304.288 38.1125C309.176 38.4163 314.057 38.9631 318.919 39.7549C323.774 40.548 328.581 41.573 333.341 42.8363C342.889 45.3761 352.097 48.8291 360.965 53.1953C362.066 53.7435 363.171 54.2842 364.268 54.8725C365.37 55.4594 366.471 56.0406 367.554 56.6578C368.638 57.2812 369.726 57.891 370.791 58.5447C371.85 59.2058 372.923 59.8377 373.963 60.5291C378.158 63.2422 382.183 66.2005 386.029 69.3918C391.154 73.6605 395.919 78.2925 400.327 83.3001L401.799 83.137C404.232 82.8676 406.679 82.5761 409.09 82.357C413.943 81.8796 418.808 81.4586 423.679 81.1011C433.437 80.3633 443.207 79.8705 453.022 79.7072C457.932 79.6218 462.848 79.6263 467.771 79.7271C472.694 79.8278 477.626 80.0312 482.562 80.3769C485.033 80.5297 487.5 80.7281 489.974 80.9909C492.453 81.2462 494.935 81.514 497.402 81.8632C502.353 82.5251 507.312 83.4069 512.263 84.5577C514.737 85.1532 517.219 85.7929 519.677 86.5611C522.133 87.3231 524.607 88.1661 527.044 89.1734C527.353 89.3097 527.656 89.4148 527.958 89.5462L528.87 89.9453C529.476 90.2206 530.086 90.4823 530.69 90.7776C531.286 91.068 531.89 91.3634 532.495 91.6649L534.271 92.6301C536.704 93.9839 539.008 95.5351 541.177 97.2772C543.464 99.1117 545.498 101.196 547.283 103.521C549.143 105.955 550.594 108.612 551.649 111.491C551.809 111.841 551.901 112.213 552.016 112.573L552.353 113.668C552.405 113.853 552.476 114.033 552.516 114.22L552.641 114.773L552.891 115.887L553.009 116.442C553.048 116.629 553.075 116.819 553.107 117.001C553.176 117.384 553.22 117.747 553.275 118.126C553.324 118.513 553.371 118.882 553.399 119.261C553.432 119.631 553.465 120.002 553.485 120.369C553.66 123.279 553.504 126.167 553.014 129.042C552.895 129.738 552.761 130.425 552.613 131.109C552.535 131.451 552.456 131.787 552.378 132.123C552.293 132.46 552.184 132.836 552.091 133.195C551.919 133.922 551.662 134.615 551.433 135.316C551.313 135.667 551.183 136.008 551.054 136.348L550.863 136.865L550.65 137.366L550.224 138.363L549.752 139.33C549.607 139.661 549.445 139.975 549.284 140.29C549.121 140.598 548.955 140.921 548.785 141.224C548.108 142.457 547.389 143.646 546.633 144.778C545.152 146.983 543.556 149.102 541.842 151.128C541.016 152.119 540.183 153.072 539.334 154.015C538.479 154.959 537.637 155.907 536.755 156.818C529.737 164.222 521.975 170.728 513.462 176.338C505.019 181.913 496.082 186.543 487.015 190.563C477.948 194.583 468.77 198.046 459.666 201.402L446.065 206.412L432.458 211.461L431.256 211.907L431.013 212.825L430.767 213.718C430.688 214.021 430.588 214.317 430.5 214.609L429.397 218.188C429.205 218.789 429.04 219.391 428.832 219.977L428.201 221.734L426.939 225.242L425.534 228.689L424.825 230.411L424.643 230.847L424.452 231.266L424.065 232.11L422.508 235.492L422.113 236.332L421.691 237.165L420.849 238.817L420.001 240.47C419.706 241.015 419.44 241.574 419.13 242.109L417.3 245.341C416.991 245.875 416.696 246.42 416.379 246.95L415.402 248.52L413.444 251.668C412.77 252.698 412.067 253.714 411.378 254.734C410.681 255.749 410.006 256.779 409.257 257.76L407.066 260.734L406.52 261.476L404.79 263.643L403.63 265.083L403.06 265.804L402.765 266.166L402.468 266.516L400.062 269.303L398.852 270.694L397.6 272.042L395.095 274.732C394.247 275.617 393.366 276.469 392.502 277.343L391.2 278.637C390.99 278.845 390.782 279.065 390.548 279.284L389.878 279.909C388.079 281.562 386.31 283.268 384.441 284.838C383.515 285.635 382.596 286.436 381.663 287.228L378.807 289.523L377.384 290.673C376.904 291.055 376.405 291.41 375.923 291.779L372.992 293.967C372.744 294.15 372.504 294.338 372.262 294.514L371.512 295.037L370.007 296.081L368.508 297.129C368.008 297.47 367.51 297.83 366.999 298.154C350.673 309.055 333.022 317.037 314.054 322.099C313.765 322.18 313.471 322.269 313.181 322.344L312.293 322.552L310.527 322.986L308.754 323.416C308.163 323.548 307.578 323.71 306.977 323.825L303.413 324.57L301.629 324.943L299.824 325.255L296.226 325.87C295.631 325.983 295.025 326.046 294.425 326.135L292.62 326.382L290.813 326.622L289.914 326.748L289.009 326.843L285.378 327.21C284.777 327.266 284.173 327.343 283.562 327.381L281.742 327.495L278.102 327.727L274.452 327.825C273.24 327.855 272.024 327.898 270.806 327.87L267.153 327.831L266.237 327.811C265.935 327.804 265.63 327.777 265.328 327.77L263.504 327.681C262.284 327.615 261.068 327.568 259.858 327.486L256.212 327.172L254.392 327.011C253.784 326.945 253.18 326.858 252.577 326.784L248.953 326.323C248.346 326.256 247.741 326.143 247.139 326.043L243.556 325.436L242.663 325.286C242.359 325.234 242.064 325.166 241.764 325.106L238.181 324.349C237.58 324.216 236.983 324.109 236.391 323.961L234.613 323.51L231.071 322.608C229.893 322.278 228.727 321.913 227.558 321.568L225.804 321.042C225.517 320.946 225.221 320.872 224.932 320.771L224.067 320.472L220.611 319.271C219.448 318.892 218.318 318.422 217.185 317.971L213.783 316.622L210.44 315.123C209.328 314.616 208.205 314.145 207.119 313.574C204.947 312.465 202.737 311.422 200.63 310.188C192.067 305.444 184.087 299.859 176.694 293.445L173.99 290.996L172.641 289.77L171.97 289.156L171.321 288.525C170.458 287.685 169.59 286.852 168.739 286.01L166.197 283.434C165.027 282.223 163.872 280.995 162.733 279.744C158.483 280.205 154.231 280.62 149.971 281.003C147.548 281.225 145.114 281.43 142.685 281.627L135.458 282.191C130.693 282.585 125.9 283.037 121.079 283.482C111.427 284.379 101.686 285.257 91.8285 285.678C81.9756 286.09 71.9847 286.069 61.9409 285.062C56.8739 284.561 51.8621 283.769 46.8856 282.682C41.8402 281.577 36.9091 280.089 32.0871 278.227C27.1997 276.332 22.5316 274 18.0776 271.232C15.7407 269.805 13.5292 268.202 11.4396 266.437C10.3417 265.503 9.30477 264.517 8.31569 263.483C7.29597 262.396 6.34162 261.249 5.46681 260.047C4.56768 258.791 3.77349 257.48 3.07178 256.111L2.56601 255.051C2.40544 254.695 2.26526 254.34 2.12206 253.973C1.97259 253.607 1.81446 253.262 1.69485 252.883L1.32804 251.768C0.377026 248.705 0.00324091 245.57 0.203576 242.373C0.422869 239.295 1.09374 236.317 2.22462 233.45C3.28668 230.78 4.621 228.253 6.21296 225.868C7.71251 223.601 9.36853 221.456 11.1798 219.428C12.9402 217.438 14.7862 215.573 16.6807 213.814C20.432 210.364 24.384 207.15 28.5376 204.182C36.7002 198.301 45.2244 193.23 53.8763 188.516C58.1935 186.165 62.557 183.907 66.9087 181.718L79.9072 175.187C96.7145 166.797 113.918 159.256 131.344 152.338C133.191 146.613 135.409 141.038 138.003 135.61C140.091 131.204 142.395 126.927 144.886 122.76C147.377 118.593 150.078 114.558 152.942 110.644C155.807 106.731 158.83 102.953 162.026 99.3138C165.227 95.6676 168.557 92.1637 172.034 88.8043C178.998 82.0702 186.452 75.9226 194.399 70.3746C202.343 64.8142 210.667 59.9093 219.368 55.6415C228.101 51.3671 237.119 47.8262 246.424 45.0205ZM411.599 219.129C409.446 219.919 407.286 220.704 405.13 221.481C396.015 224.781 386.871 228.036 377.681 231.201C368.497 234.36 359.273 237.428 349.991 240.372C340.715 243.315 331.406 246.167 322.024 248.826C317.331 250.143 312.637 251.461 307.918 252.685C306.737 252.988 305.561 253.316 304.373 253.614L300.829 254.512L297.278 255.409C296.096 255.706 294.917 255.983 293.734 256.273C274.847 260.894 255.843 265.019 236.722 268.659C217.589 272.335 198.359 275.399 179.024 277.846L177.062 278.093C177.785 278.794 178.521 279.498 179.248 280.191L179.856 280.779L180.482 281.337L181.738 282.458L184.234 284.692C185.091 285.416 185.963 286.11 186.83 286.819L188.125 287.88C188.557 288.225 188.988 288.596 189.441 288.916L192.133 290.913L193.478 291.905C193.937 292.225 194.405 292.522 194.869 292.834L197.644 294.696L198.342 295.16C198.57 295.314 198.815 295.45 199.054 295.595L203.343 298.204L206.277 299.802C208.209 300.917 210.232 301.844 212.236 302.839C213.225 303.352 214.258 303.765 215.278 304.213L218.346 305.549L221.472 306.735C222.515 307.133 223.543 307.553 224.611 307.887L227.781 308.94L228.575 309.208C228.836 309.302 229.111 309.368 229.376 309.449L230.986 309.908C232.06 310.208 233.127 310.535 234.204 310.821L237.454 311.604L239.082 311.994C239.624 312.12 240.178 312.211 240.723 312.323L244.009 312.968C244.281 313.021 244.554 313.08 244.829 313.119L245.659 313.249L247.311 313.511L248.962 313.766C249.515 313.851 250.064 313.949 250.623 314L253.955 314.373C254.508 314.431 255.064 314.503 255.616 314.555L257.29 314.674C275.114 316.094 293.197 313.979 310.427 309.052C327.788 304.032 343.887 296.359 358.709 286.019C359.189 285.702 359.628 285.374 360.08 285.049L361.435 284.064L362.789 283.073L363.474 282.582C363.7 282.423 363.904 282.242 364.134 282.069L366.773 280.01C367.207 279.663 367.653 279.333 368.085 278.974L369.362 277.901L371.924 275.753L374.408 273.517C376.086 272.059 377.654 270.481 379.256 268.941L379.857 268.363C380.056 268.164 380.247 267.961 380.44 267.764L381.586 266.562C382.355 265.76 383.139 264.973 383.89 264.155L386.108 261.676L387.213 260.438L388.277 259.155L390.4 256.598L390.665 256.282L390.915 255.955L391.418 255.287L392.429 253.971L393.441 252.66L393.945 251.993L394.42 251.318L396.336 248.617C396.994 247.727 397.578 246.794 398.176 245.865C398.775 244.943 399.388 244.024 399.98 243.097L401.664 240.255L402.511 238.843C402.787 238.361 403.036 237.877 403.298 237.392L404.867 234.502C405.143 234.02 405.376 233.521 405.61 233.028L406.332 231.551L407.062 230.073L407.42 229.338L407.748 228.584L409.071 225.572L409.399 224.818L409.561 224.444L409.714 224.06L410.301 222.527L411.495 219.464L411.599 219.129ZM321.834 280.474C322.539 280.201 323.273 280.07 324.026 280.086C324.785 280.101 325.512 280.266 326.202 280.569C326.899 280.871 327.505 281.303 328.032 281.85C328.551 282.391 328.953 283.023 329.227 283.727C329.5 284.432 329.629 285.16 329.614 285.919C329.599 286.679 329.44 287.404 329.131 288.096C328.828 288.785 328.404 289.396 327.857 289.917C327.311 290.444 326.685 290.845 325.981 291.118C325.27 291.393 324.54 291.522 323.781 291.507C323.028 291.491 322.302 291.326 321.606 291.024C320.916 290.721 320.303 290.291 319.784 289.75C319.257 289.204 318.861 288.57 318.582 287.867C318.308 287.162 318.179 286.433 318.2 285.673C318.215 284.914 318.373 284.189 318.676 283.499C318.986 282.807 319.41 282.195 319.958 281.675C320.504 281.148 321.13 280.748 321.834 280.474ZM276.522 52.9707C267.603 53.8822 258.826 55.5583 250.192 57.9932C232.741 62.9542 216.501 70.5197 201.482 80.6997C197.749 83.2207 194.121 85.9019 190.6 88.7166C187.079 91.5314 183.672 94.491 180.398 97.5792C177.125 100.674 173.962 103.889 170.966 107.244C167.97 110.598 165.108 114.088 162.422 117.677C159.738 121.272 157.184 124.99 154.849 128.817C152.508 132.645 150.363 136.569 148.411 140.602C147.919 141.599 147.465 142.621 146.997 143.64C146.534 144.651 146.073 145.674 145.654 146.708C145.235 147.743 144.803 148.773 144.398 149.811L143.805 151.378L143.508 152.158L143.233 152.947L143.231 152.94C141.72 157.146 140.445 161.42 139.413 165.765C138.398 170.101 137.647 174.478 137.146 178.9C137.001 179.999 136.925 181.111 136.821 182.215C136.763 182.769 136.737 183.321 136.705 183.876L136.601 185.534C136.556 186.639 136.511 187.75 136.486 188.857L136.474 190.522L136.455 191.354L136.476 192.184C136.54 196.622 136.872 201.042 137.488 205.442C138.104 209.841 138.994 214.183 140.167 218.47C142.535 227.099 145.863 235.335 150.146 243.191C154.471 251.085 159.519 258.487 165.296 265.394C165.638 265.81 165.986 266.219 166.327 266.629L170.26 266.177L172.047 265.967L173.831 265.743L177.406 265.297C196.457 262.864 215.427 259.83 234.32 256.192C253.208 252.562 272.004 248.468 290.708 243.913C300.043 241.648 309.309 239.235 318.557 236.65C327.808 234.052 337.013 231.3 346.181 228.399C364.513 222.613 382.711 216.254 400.845 209.688C405.856 207.873 410.865 206.046 415.87 204.2C415.897 204.051 415.931 203.906 415.957 203.751L416.58 200.549C418.208 191.983 418.73 183.248 418.387 174.547C418.019 165.793 416.759 157.169 414.613 148.669C412.6 140.088 409.79 131.775 406.196 123.726C402.615 115.713 398.251 108.153 393.091 101.05C387.95 93.9751 382.072 87.5785 375.464 81.8519C372.174 79.0053 368.719 76.3695 365.106 73.937C364.218 73.3174 363.283 72.7535 362.373 72.1517C361.465 71.5561 360.518 71.027 359.588 70.4555C358.658 69.884 357.69 69.379 356.755 68.8413C355.812 68.2987 354.821 67.8054 353.844 67.2895C345.973 63.2263 337.776 59.9623 329.263 57.5088C325.012 56.2808 320.71 55.2659 316.35 54.4718C311.99 53.6778 307.602 53.0918 303.176 52.7225C294.283 51.9792 285.402 52.0609 276.522 52.9707ZM127.452 167.428C122.101 169.608 116.778 171.861 111.492 174.19C102.713 178.031 94.0381 182.085 85.4685 186.358L72.529 192.856C68.2481 195.011 64.0213 197.207 59.8444 199.483C51.5094 204.031 43.3968 208.891 35.8552 214.32C32.127 216.99 28.5736 219.87 25.2059 222.978C21.9326 226.04 18.9387 229.311 16.6743 232.765C15.5712 234.414 14.6439 236.155 13.907 237.994C13.2505 239.658 12.8542 241.379 12.7181 243.161C12.7219 243.578 12.668 244 12.7029 244.409C12.7141 244.616 12.7067 244.826 12.7242 245.031L12.7896 245.649C12.8071 245.854 12.8374 246.057 12.8811 246.263L12.9848 246.872L13.1408 247.484L13.2182 247.787C13.2394 247.887 13.281 247.989 13.3147 248.086L13.5094 248.697C13.5718 248.899 13.6668 249.1 13.748 249.298C13.8291 249.496 13.8996 249.703 13.9933 249.898L14.2732 250.477C14.674 251.259 15.1328 252.009 15.6441 252.728C16.1946 253.478 16.7973 254.197 17.4307 254.877C18.1171 255.591 18.8284 256.268 19.5839 256.909C21.1897 258.269 22.8971 259.498 24.7011 260.594C28.4922 262.943 32.4669 264.926 36.6279 266.532C40.8518 268.157 45.168 269.45 49.5902 270.413C54.0863 271.387 58.6183 272.098 63.1969 272.54C72.408 273.463 81.821 273.496 91.2761 273.084C100.731 272.671 110.276 271.815 119.896 270.918C124.707 270.462 129.539 270.009 134.414 269.605L141.645 269.039C144.035 268.844 146.423 268.636 148.815 268.421L148.814 268.415C150.183 268.294 151.537 268.162 152.89 268.031C148.172 261.87 143.962 255.373 140.264 248.552C135.58 239.92 131.942 230.869 129.356 221.4C128.062 216.663 127.068 211.861 126.38 207.001C125.693 202.141 125.311 197.249 125.238 192.336L125.218 191.415L125.237 188.653C125.224 188.043 125.263 187.429 125.277 186.82L125.337 184.982L125.447 183.139C125.481 182.533 125.513 181.92 125.572 181.308C125.679 180.092 125.763 178.862 125.91 177.651C126.289 174.22 126.803 170.812 127.452 167.428ZM409.474 94.9279C414.256 101.753 418.405 108.947 421.933 116.495C426.126 125.493 429.429 134.804 431.853 144.431C434.172 154.146 435.458 163.995 435.715 173.979C435.922 181.822 435.449 189.622 434.282 197.379L441.665 194.637L455.298 189.62C464.334 186.285 473.277 182.911 481.888 179.079C490.506 175.246 498.795 170.942 506.507 165.854C514.214 160.774 521.248 154.887 527.601 148.191C528.404 147.369 529.163 146.496 529.935 145.647C530.707 144.805 531.461 143.935 532.184 143.071C533.595 141.402 534.913 139.655 536.132 137.845C536.716 136.977 537.243 136.083 537.739 135.196C537.855 134.976 537.972 134.755 538.086 134.529C538.202 134.309 538.324 134.086 538.42 133.864L538.742 133.197L539.022 132.524L539.167 132.193L539.29 131.854L539.526 131.185C539.666 130.738 539.832 130.292 539.939 129.846C540 129.611 540.063 129.415 540.126 129.16L540.3 128.413C540.409 127.914 540.505 127.417 540.588 126.918C540.929 124.994 541.052 123.058 540.95 121.105L540.893 120.412C540.866 120.19 540.85 119.965 540.815 119.738C540.786 119.51 540.759 119.288 540.717 119.062C540.695 118.956 540.682 118.835 540.659 118.729L540.582 118.4L540.436 117.74L540.366 117.408C540.343 117.303 540.302 117.201 540.265 117.091L540.072 116.454C540.013 116.239 539.943 116.032 539.859 115.822C539.231 114.124 538.363 112.555 537.262 111.113C536.084 109.591 534.738 108.228 533.238 107.028C531.628 105.74 529.924 104.597 528.12 103.592L526.721 102.833L525.267 102.126C524.791 101.881 524.281 101.689 523.78 101.45L523.032 101.12C522.787 101.009 522.526 100.915 522.27 100.813C520.239 99.9671 518.118 99.2514 515.967 98.5746C513.815 97.8977 511.603 97.3382 509.375 96.7947C504.917 95.7543 500.338 94.9409 495.709 94.3214C493.39 93.9929 491.063 93.7186 488.722 93.4992C486.38 93.2735 484.041 93.0668 481.681 92.9102C476.977 92.5804 472.242 92.3872 467.493 92.2818C462.747 92.1826 457.988 92.1833 453.221 92.2645C443.693 92.4255 434.14 92.9047 424.598 93.6161C419.832 93.9774 415.064 94.3912 410.279 94.8477L409.474 94.9279ZM393.109 162.346C393.673 162.18 394.248 162.124 394.827 162.183C395.413 162.241 395.964 162.411 396.479 162.686C396.994 162.961 397.437 163.329 397.808 163.785C398.178 164.241 398.448 164.744 398.614 165.309C398.784 165.866 398.841 166.44 398.783 167.026C398.718 167.607 398.555 168.157 398.274 168.673C398.176 168.856 398.069 169.029 397.941 169.193L382.98 189.556C382.774 189.841 382.516 190.071 382.216 190.252C381.916 190.434 381.595 190.554 381.247 190.602C380.9 190.656 380.558 190.644 380.215 190.561C379.878 190.476 379.566 190.327 379.281 190.121C379.026 189.934 378.808 189.706 378.633 189.437C378.46 189.174 378.332 188.881 378.266 188.569C378.194 188.259 378.18 187.949 378.224 187.634C378.268 187.318 378.36 187.018 378.516 186.737L390.493 164.486C390.768 163.971 391.137 163.528 391.586 163.158C392.042 162.788 392.552 162.516 393.109 162.346ZM377.959 159.953C378.522 159.781 379.091 159.725 379.677 159.783C380.257 159.843 380.808 160.013 381.324 160.294C381.839 160.569 382.282 160.938 382.658 161.386C383.028 161.842 383.293 162.353 383.464 162.909C383.629 163.474 383.687 164.049 383.627 164.629C383.569 165.214 383.398 165.759 383.124 166.28C383.025 166.458 382.912 166.632 382.791 166.801L367.824 187.159C367.617 187.443 367.366 187.672 367.067 187.86C366.767 188.041 366.439 188.156 366.092 188.211C365.752 188.263 365.402 188.246 365.065 188.161C364.721 188.078 364.41 187.936 364.125 187.729C363.869 187.536 363.652 187.308 363.479 187.045C363.304 186.776 363.184 186.489 363.112 186.178C363.045 185.867 363.03 185.551 363.074 185.235C363.111 184.921 363.211 184.619 363.36 184.34L375.337 162.088C375.618 161.572 375.981 161.13 376.436 160.76C376.892 160.389 377.395 160.119 377.959 159.953ZM163.679 150.086C164.173 149.897 164.678 149.789 165.207 149.762C165.73 149.742 166.245 149.802 166.752 149.949C167.259 150.095 167.725 150.322 168.16 150.621C168.59 150.927 168.961 151.291 169.273 151.714C169.579 152.144 169.814 152.609 169.973 153.11C170.125 153.612 170.202 154.123 170.184 154.655L170.18 154.878C170.08 158.425 169.61 161.765 169.288 165.158C169.234 165.58 169.193 166 169.131 166.417L169.004 167.689C168.916 168.529 168.801 169.368 168.7 170.211C168.525 171.904 168.281 173.579 168.094 175.275L166.833 185.438C166.708 186.292 166.589 187.145 166.483 187.995C166.384 188.85 166.247 189.707 166.128 190.56C166.004 191.415 165.866 192.272 165.727 193.123L165.517 194.399L165.397 195.032C165.362 195.234 165.317 195.452 165.273 195.611L165.067 196.333C164.925 196.832 164.71 197.29 164.422 197.716C164.135 198.142 163.782 198.504 163.373 198.819C162.963 199.127 162.51 199.361 162.023 199.523C161.536 199.685 161.038 199.764 160.523 199.763C160.008 199.762 159.506 199.673 159.022 199.509C158.536 199.338 158.088 199.101 157.683 198.789C157.277 198.471 156.931 198.102 156.646 197.681C156.359 197.253 156.149 196.788 156.012 196.296L155.805 195.538C155.733 195.293 155.681 195.049 155.628 194.826C155.521 194.354 155.408 193.882 155.321 193.412C155.122 192.476 154.975 191.543 154.841 190.606C154.761 190.135 154.721 189.668 154.66 189.198C154.605 188.727 154.559 188.261 154.518 187.794C154.429 186.855 154.366 185.916 154.316 184.975C154.294 184.041 154.255 183.092 154.251 182.154C154.253 181.215 154.27 180.279 154.291 179.336C154.376 177.467 154.48 175.593 154.707 173.719C154.89 171.849 155.21 169.982 155.54 168.132C155.728 167.206 155.936 166.282 156.158 165.361L156.489 163.981C156.614 163.524 156.757 163.063 156.889 162.611C157.158 161.7 157.441 160.793 157.739 159.895L158.243 158.556L158.768 157.219C158.954 156.775 159.114 156.33 159.322 155.902C159.537 155.471 159.737 155.031 159.96 154.606C160.396 153.744 160.834 152.895 161.331 152.072C161.599 151.618 161.94 151.226 162.337 150.887C162.74 150.547 163.185 150.276 163.679 150.086ZM178.035 123.627C178.765 123.505 179.5 123.53 180.22 123.697C180.946 123.862 181.608 124.158 182.215 124.59C182.822 125.021 183.326 125.553 183.72 126.18C184.115 126.813 184.377 127.494 184.5 128.224C184.63 128.959 184.609 129.687 184.444 130.413C184.279 131.139 183.982 131.801 183.558 132.413C181.86 134.821 180.35 137.345 179.04 139.983C178.706 140.648 178.255 141.226 177.693 141.71C177.126 142.202 176.491 142.559 175.785 142.794C175.073 143.03 174.35 143.125 173.608 143.068C172.861 143.018 172.16 142.821 171.49 142.488C170.826 142.153 170.248 141.702 169.757 141.142C169.271 140.574 168.909 139.94 168.674 139.234C168.439 138.528 168.348 137.798 168.405 137.055C168.456 136.315 168.652 135.608 168.985 134.937C170.558 131.787 172.363 128.777 174.392 125.901C174.823 125.294 175.356 124.797 175.989 124.401C176.616 124.007 177.298 123.751 178.035 123.627ZM384.182 18.5098C384.914 18.3997 385.64 18.4405 386.362 18.6193C387.079 18.7995 387.738 19.1096 388.333 19.5502C388.929 19.9906 389.42 20.5251 389.803 21.1607C390.191 21.7888 390.44 22.4725 390.557 23.2039C390.673 23.9352 390.645 24.6642 390.479 25.3839C390.306 26.105 390.011 26.768 389.578 27.3685C389.146 27.9751 388.62 28.4716 387.993 28.8655C387.721 29.0276 387.445 29.1714 387.15 29.2863L370.188 36.0596C369.707 36.2529 369.212 36.3452 368.692 36.3515C368.178 36.3564 367.677 36.2671 367.194 36.0828C366.712 35.8985 366.283 35.631 365.898 35.2892C365.517 34.94 365.209 34.5361 364.975 34.0776C364.747 33.6177 364.61 33.1251 364.56 32.6143C364.515 32.0959 364.564 31.5897 364.707 31.0965C364.85 30.6035 365.078 30.1444 365.39 29.7393C365.706 29.3267 366.077 28.987 366.523 28.7228L382.125 19.2275C382.762 18.851 383.448 18.6136 384.182 18.5098ZM352.522 0.964703C353.171 0.585494 353.868 0.339245 354.622 0.237621C355.37 0.137336 356.11 0.182551 356.836 0.380081C357.567 0.57007 358.232 0.90461 358.831 1.36371C359.431 1.82293 359.916 2.38533 360.29 3.04236C360.658 3.70054 360.893 4.40671 360.98 5.157C361.074 5.90619 361.016 6.64252 360.812 7.37029C360.727 7.67512 360.621 7.97193 360.493 8.25978L352.912 24.8827C352.684 25.3743 352.373 25.8117 351.976 26.1828C351.578 26.5478 351.123 26.834 350.609 27.0216C350.103 27.2139 349.573 27.3008 349.028 27.2798C348.484 27.2651 347.968 27.1391 347.471 26.9188C347.024 26.7141 346.628 26.4466 346.282 26.1034C345.935 25.76 345.656 25.3692 345.451 24.9241C345.241 24.4866 345.116 24.024 345.072 23.5382C345.027 23.0523 345.069 22.5733 345.197 22.1028L349.907 4.45376C350.09 3.72386 350.411 3.0558 350.863 2.45145C351.314 1.84711 351.867 1.35144 352.522 0.964703ZM323.378 7.92803C324.12 7.73778 324.867 7.69672 325.62 7.80392C326.381 7.91605 327.085 8.16417 327.743 8.55886C328.399 8.94732 328.95 9.45576 329.406 10.0692C329.788 10.5748 330.083 11.1316 330.281 11.7282L333.185 20.4848C333.335 20.9481 333.405 21.4289 333.392 21.9204C333.379 22.4119 333.278 22.8834 333.095 23.3394C332.911 23.7955 332.653 24.2092 332.326 24.572C331.995 24.9421 331.614 25.2375 331.181 25.4664C330.747 25.6955 330.284 25.8469 329.796 25.9116C329.307 25.9762 328.826 25.9543 328.349 25.8537C327.864 25.7483 327.42 25.5623 327.006 25.2986C326.591 25.0347 326.234 24.7058 325.936 24.313L320.342 16.9828C319.87 16.3857 319.525 15.7156 319.324 14.9828C319.115 14.245 319.062 13.5003 319.16 12.7363C319.253 11.98 319.493 11.2704 319.873 10.6031C320.253 9.94202 320.747 9.3808 321.359 8.91825C321.964 8.45079 322.638 8.12453 323.378 7.92803Z" fill="#D8C5DB"/>
</svg>
