<svg width="150" height="229" viewBox="0 0 150 229" fill="none" xmlns="http://www.w3.org/2000/svg">
<path d="M60.7273 76.3168C69.4008 71.4061 77.6747 65.8388 85.4766 59.6638C86.7685 58.729 88.307 58.1831 89.9109 58.0903C91.5148 57.9976 93.1174 58.3619 94.53 59.1403C95.5902 60.1769 96.394 61.4426 96.8772 62.8361C97.3605 64.2296 97.5097 65.7122 97.3129 67.1652C95.7687 77.7359 94.9244 88.4036 94.7856 99.1C96.1178 107.404 107.944 119.704 111.115 126.018C111.908 127.224 112.367 128.612 112.446 130.043C112.524 131.473 112.219 132.894 111.561 134.161C110.683 135.123 109.611 135.891 108.412 136.416C107.213 136.941 105.915 137.211 104.599 137.209C93.4915 135.664 82.3105 134.755 71.1121 134.487C61.136 136.11 47.5723 148.915 40.3987 151.955C39.3443 152.515 38.1704 152.824 36.9694 152.856C35.7683 152.889 34.5727 152.644 33.4766 152.142C31.3874 151.006 30.475 147.308 31.3837 142.25C34.1406 132.901 36.3122 123.385 37.8861 113.757C38.1718 105.265 26.212 90.2235 22.596 83.1336C21.7664 81.8525 21.3 80.3761 21.2462 78.8617C21.1924 77.3473 21.5534 75.8515 22.2907 74.5338C23.294 73.6264 24.5049 72.9737 25.8216 72.6306C27.1384 72.2874 28.5226 72.2639 29.858 72.5619C37.0128 73.1415 53.0316 78.3257 60.7273 76.3168ZM41.8175 100.948C44.035 105.16 45.2108 109.826 45.2467 114.555C44.9828 117.182 44.5111 119.781 43.8359 122.329C41.828 130.206 38.3125 138.864 37.3858 144.552L36.7914 146.044C37.0154 145.632 38.1974 145.847 38.8452 145.452C43.6755 142.74 50.4647 136.822 57.3789 132.466C61.1031 129.869 65.2856 127.981 69.7171 126.896C73.8023 126.147 77.9711 125.903 82.1286 126.169C88.4804 126.633 95.4112 127.624 100.497 127.827L101.814 127.795L100.895 127.295C97.8749 123.092 93.4018 117.778 89.9884 112.506C87.4084 108.943 85.5488 104.922 84.514 100.67C84.097 91.0488 84.6856 81.4226 86.2705 71.9455C79.3307 77.6164 71.7286 82.4431 63.6231 86.3248C59.307 87.1938 54.85 87.2023 50.5103 86.3499C44.3437 85.3467 37.5654 83.4771 32.4644 82.3058C34.5735 87.1888 38.9088 94.3494 41.8175 100.948Z" fill="#EADFE9"/>
<path d="M39.0251 16.1408C42.1422 14.361 45.1168 12.3452 47.9227 10.1111C48.3872 9.77269 48.9397 9.57413 49.5152 9.53876C50.0906 9.50339 50.665 9.63268 51.1707 9.91139C51.5497 10.2836 51.8365 10.7386 52.0081 11.24C52.1797 11.7415 52.2315 12.2754 52.1591 12.7991C51.5923 16.6093 51.2765 20.4536 51.2137 24.3073C51.6814 27.2973 55.9083 31.7142 57.0381 33.9852C57.3211 34.4185 57.4841 34.9182 57.5104 35.4335C57.5367 35.9487 57.4255 36.461 57.188 36.9181C56.8719 37.2659 56.4863 37.5438 56.0558 37.7344C55.6252 37.9249 55.1592 38.0238 54.6873 38.0249C50.7049 37.4816 46.6955 37.1678 42.6791 37.0849C39.0988 37.6819 34.2181 42.3115 31.6413 43.4155C31.2624 43.6186 30.841 43.7312 30.4101 43.7444C29.9793 43.7576 29.5507 43.671 29.1582 43.4914C28.4102 43.0849 28.0874 41.7534 28.4195 39.9303C29.4198 36.5587 30.2104 33.1278 30.7866 29.6572C30.8994 26.5974 26.6279 21.193 25.3396 18.6432C25.0436 18.1826 24.8781 17.6513 24.8606 17.1058C24.8432 16.5602 24.9745 16.0209 25.2406 15.5453C25.6016 15.2171 26.0367 14.9805 26.5094 14.8553C26.9821 14.7301 27.4787 14.7199 27.9573 14.8256C30.5229 15.0257 36.2623 16.8739 39.0251 16.1408ZM32.2124 25.0377C33.0026 26.5524 33.4187 28.2319 33.4258 29.9358C33.3279 30.8823 33.1556 31.8193 32.9103 32.7382C32.1805 35.5782 30.909 38.7018 30.5696 40.7522L30.3546 41.2904C30.4354 41.1416 30.8591 41.2178 31.092 41.0747C32.8279 40.0916 35.2703 37.9513 37.7557 36.3738C39.0946 35.4336 40.5972 34.7481 42.188 34.3518C43.6542 34.077 45.1498 33.984 46.6407 34.0749C48.9185 34.2341 51.4033 34.5829 53.2274 34.6497L53.6996 34.6366L53.3705 34.4577C52.2925 32.947 50.6945 31.038 49.4766 29.143C48.5555 27.8625 47.8934 26.4162 47.5275 24.8853C47.3896 21.4197 47.6125 17.951 48.1925 14.5348C45.6964 16.5863 42.9637 18.3345 40.0516 19.7428C38.5024 20.0611 36.9038 20.0696 35.3482 19.7678C33.1375 19.4139 30.7085 18.7486 28.8803 18.3329C29.6308 20.0895 31.1771 22.6639 32.2124 25.0377Z" fill="#EADFE9"/>
<path d="M-1.20294 146.234C3.44971 143.606 7.88755 140.627 12.0716 137.321C12.7645 136.821 13.59 136.529 14.4508 136.48C15.3116 136.431 16.172 136.627 16.9306 137.045C17.5002 137.602 17.9324 138.281 18.1925 139.028C18.4527 139.775 18.5336 140.57 18.4288 141.348C17.6058 147.014 17.1586 152.731 17.09 158.465C17.8096 162.916 24.164 169.516 25.8697 172.902C26.296 173.549 26.5432 174.293 26.586 175.06C26.6288 175.827 26.4658 176.589 26.1134 177.267C25.6427 177.782 25.0675 178.193 24.4245 178.474C23.7815 178.755 23.0847 178.899 22.3786 178.897C16.4157 178.063 10.414 177.569 4.40325 177.419C-0.950349 178.284 -8.22341 185.14 -12.072 186.765C-12.6377 187.065 -13.2675 187.23 -13.9122 187.247C-14.5568 187.263 -15.1986 187.132 -15.7873 186.862C-16.9092 186.252 -17.401 184.269 -16.9161 181.559C-15.4415 176.549 -14.2812 171.45 -13.4418 166.29C-13.2932 161.738 -19.7208 153.669 -21.6656 149.866C-22.1115 149.179 -22.3627 148.388 -22.3924 147.576C-22.4221 146.764 -22.2292 145.962 -21.8342 145.257C-21.2962 144.771 -20.6466 144.422 -19.9401 144.238C-19.2335 144.055 -18.4906 144.043 -17.7736 144.204C-13.9331 144.518 -5.33236 147.306 -1.20294 146.234ZM-11.3388 159.426C-10.1463 161.685 -9.51259 164.186 -9.49068 166.722C-9.63088 168.129 -9.88263 169.522 -10.2436 170.888C-11.3169 175.108 -13.199 179.747 -13.6933 182.796L-14.0115 183.595C-13.8915 183.374 -13.257 183.49 -12.9095 183.279C-10.3184 181.828 -6.67763 178.66 -2.96895 176.329C-0.971488 174.939 1.27237 173.929 3.65027 173.35C5.84255 172.951 8.07994 172.822 10.3116 172.967C13.7211 173.219 17.4416 173.754 20.1717 173.866L20.8782 173.85L20.3846 173.581C18.7615 171.326 16.3577 168.475 14.5226 165.648C13.1359 163.737 12.1355 161.58 11.5778 159.3C11.3486 154.143 11.6592 148.984 12.5046 143.905C8.7829 146.94 4.70525 149.523 0.356915 151.6C-1.95921 152.063 -4.35141 152.065 -6.68119 151.606C-9.99159 151.065 -13.6308 150.059 -16.3693 149.428C-15.2345 152.047 -12.9037 155.887 -11.3388 159.426Z" fill="#EADFE9"/>
</svg>
